<svg xmlns="http://www.w3.org/2000/svg" xmlns:xlink="http://www.w3.org/1999/xlink" contentStyleType="text/css" data-diagram-type="CHEN_EER" height="1595px" preserveAspectRatio="none" style="width:2510px;height:1595px;background:#FFFFFF;" version="1.1" viewBox="0 0 2510 1595" width="2510px" zoomAndPan="magnify"><?plantuml 1.2026.4?><defs/><g><g><rect fill="#F1F1F1" height="37.6094" style="stroke:#181818;stroke-width:0.5;" width="58.8965" x="1221" y="98"/><text fill="#000000" font-family="sans-serif" font-size="14" lengthAdjust="spacing" textLength="38.8965" x="1231" y="122.5332">USER</text></g><g><ellipse cx="1211.4583" cy="21.4667" fill="#F1F1F1" rx="15.4583" ry="12.9667" style="stroke:#181818;stroke-width:0.5;"/><text fill="#000000" font-family="sans-serif" font-size="14" lengthAdjust="spacing" text-decoration="underline" textLength="11.6758" x="1205.6204" y="29.0332">Id</text></g><g><ellipse cx="1290.2536" cy="21.4517" fill="#F1F1F1" rx="27.7536" ry="15.4517" style="stroke:#181818;stroke-width:0.5;"/><text fill="#000000" font-family="sans-serif" font-size="14" lengthAdjust="spacing" textLength="35.0068" x="1272.7502" y="26.5332">Email</text></g><g><rect fill="#F1F1F1" height="37.6094" style="stroke:#181818;stroke-width:0.5;" width="98.5654" x="293" y="619"/><text fill="#000000" font-family="sans-serif" font-size="14" lengthAdjust="spacing" textLength="78.5654" x="303" y="643.5332">CATEGORY</text></g><g><ellipse cx="403.4583" cy="492.4667" fill="#F1F1F1" rx="15.4583" ry="12.9667" style="stroke:#181818;stroke-width:0.5;"/><text fill="#000000" font-family="sans-serif" font-size="14" lengthAdjust="spacing" text-decoration="underline" textLength="11.6758" x="397.6204" y="500.0332">Id</text></g><g><ellipse cx="329.3135" cy="492.4517" fill="#F1F1F1" rx="22.8135" ry="15.4517" style="stroke:#181818;stroke-width:0.5;"/><text fill="#000000" font-family="sans-serif" font-size="14" lengthAdjust="spacing" textLength="28.0205" x="315.3032" y="497.5332">Slug</text></g><g><rect fill="#F1F1F1" height="37.6094" style="stroke:#181818;stroke-width:0.5;" width="120.3584" x="526.5" y="1130"/><text fill="#000000" font-family="sans-serif" font-size="14" lengthAdjust="spacing" textLength="100.3584" x="536.5" y="1154.5332">SCHOLARSHIP</text></g><g><ellipse cx="825.4583" cy="1052.9667" fill="#F1F1F1" rx="15.4583" ry="12.9667" style="stroke:#181818;stroke-width:0.5;"/><text fill="#000000" font-family="sans-serif" font-size="14" lengthAdjust="spacing" text-decoration="underline" textLength="11.6758" x="819.6204" y="1060.5332">Id</text></g><g><ellipse cx="899.3135" cy="1052.9517" fill="#F1F1F1" rx="22.8135" ry="15.4517" style="stroke:#181818;stroke-width:0.5;"/><text fill="#000000" font-family="sans-serif" font-size="14" lengthAdjust="spacing" textLength="28.0205" x="885.3032" y="1058.0332">Slug</text></g><g><ellipse cx="383.5647" cy="1052.9517" fill="#F1F1F1" rx="31.0647" ry="15.4517" style="stroke:#181818;stroke-width:0.5;"/><text fill="#000000" font-family="sans-serif" font-size="14" lengthAdjust="spacing" textLength="39.6895" x="363.72" y="1058.0332">Status</text></g><g><ellipse cx="491.5759" cy="1052.9517" fill="#F1F1F1" rx="42.0759" ry="15.4517" style="stroke:#181818;stroke-width:0.5;"/><text fill="#000000" font-family="sans-serif" font-size="14" lengthAdjust="spacing" textLength="55.2617" x="463.9451" y="1058.0332">Deadline</text></g><g><ellipse cx="707.7356" cy="1052.9471" fill="#F1F1F1" rx="67.7356" ry="15.9471" style="stroke:#181818;stroke-width:0.5;"/><text fill="#000000" font-family="sans-serif" font-size="14" lengthAdjust="spacing" textLength="94.9238" x="660.2737" y="1057.5332">ReviewFeeUsd</text></g><g><rect fill="#F1F1F1" height="37.6094" style="stroke:#181818;stroke-width:0.5;" width="170.1514" x="34.5" y="1544"/><text fill="#000000" font-family="sans-serif" font-size="14" lengthAdjust="spacing" textLength="150.1514" x="44.5" y="1568.5332">SCHOLARSHIP_CHILD</text></g><g><ellipse cx="21.4583" cy="1467.4667" fill="#F1F1F1" rx="15.4583" ry="12.9667" style="stroke:#181818;stroke-width:0.5;"/><text fill="#000000" font-family="sans-serif" font-size="14" lengthAdjust="spacing" text-decoration="underline" textLength="11.6758" x="15.6204" y="1475.0332">Id</text></g><g><ellipse cx="119.5671" cy="1467.4517" fill="#F1F1F1" rx="47.5671" ry="15.4517" style="stroke:#181818;stroke-width:0.5;"/><text fill="#000000" font-family="sans-serif" font-size="14" lengthAdjust="spacing" textLength="63.0273" x="88.0534" y="1472.5332">ChildType</text></g><g><rect fill="#F1F1F1" height="37.6094" style="stroke:#181818;stroke-width:0.5;" width="175.6064" x="356.5" y="1544"/><text fill="#000000" font-family="sans-serif" font-size="14" lengthAdjust="spacing" textLength="155.6064" x="366.5" y="1568.5332">SAVED_SCHOLARSHIP</text></g><g><ellipse cx="490.4583" cy="1467.4667" fill="#F1F1F1" rx="15.4583" ry="12.9667" style="stroke:#181818;stroke-width:0.5;"/><text fill="#000000" font-family="sans-serif" font-size="14" lengthAdjust="spacing" text-decoration="underline" textLength="11.6758" x="484.6204" y="1475.0332">Id</text></g><g><ellipse cx="399.4228" cy="1467.4517" fill="#F1F1F1" rx="40.4228" ry="15.4517" style="stroke:#181818;stroke-width:0.5;"/><text fill="#000000" font-family="sans-serif" font-size="14" lengthAdjust="spacing" textLength="52.9238" x="372.9609" y="1472.5332">SavedAt</text></g><g><rect fill="#F1F1F1" height="37.6094" style="stroke:#181818;stroke-width:0.5;" width="112.5791" x="1451" y="619"/><text fill="#000000" font-family="sans-serif" font-size="14" lengthAdjust="spacing" textLength="92.5791" x="1461" y="643.5332">APPLICATION</text></g><g><ellipse cx="1507.4583" cy="492.4667" fill="#F1F1F1" rx="15.4583" ry="12.9667" style="stroke:#181818;stroke-width:0.5;"/><text fill="#000000" font-family="sans-serif" font-size="14" lengthAdjust="spacing" text-decoration="underline" textLength="11.6758" x="1501.6204" y="500.0332">Id</text></g><g><ellipse cx="1589.5647" cy="492.4517" fill="#F1F1F1" rx="31.0647" ry="15.4517" style="stroke:#181818;stroke-width:0.5;"/><text fill="#000000" font-family="sans-serif" font-size="14" lengthAdjust="spacing" textLength="39.6895" x="1569.72" y="497.5332">Status</text></g><g><ellipse cx="1349.2632" cy="492.4517" fill="#F1F1F1" rx="27.7632" ry="15.4517" style="stroke:#181818;stroke-width:0.5;"/><text fill="#000000" font-family="sans-serif" font-size="14" lengthAdjust="spacing" textLength="35.0205" x="1331.753" y="497.5332">Mode</text></g><g><rect fill="#F1F1F1" height="37.6094" style="stroke:#181818;stroke-width:0.5;" width="162.3721" x="1068.5" y="1130"/><text fill="#000000" font-family="sans-serif" font-size="14" lengthAdjust="spacing" textLength="142.3721" x="1078.5" y="1154.5332">APPLICATION_CHILD</text></g><g><ellipse cx="1051.4583" cy="1052.9667" fill="#F1F1F1" rx="15.4583" ry="12.9667" style="stroke:#181818;stroke-width:0.5;"/><text fill="#000000" font-family="sans-serif" font-size="14" lengthAdjust="spacing" text-decoration="underline" textLength="11.6758" x="1045.6204" y="1060.5332">Id</text></g><g><ellipse cx="1149.5671" cy="1052.9517" fill="#F1F1F1" rx="47.5671" ry="15.4517" style="stroke:#181818;stroke-width:0.5;"/><text fill="#000000" font-family="sans-serif" font-size="14" lengthAdjust="spacing" textLength="63.0273" x="1118.0534" y="1058.0332">ChildType</text></g><g><rect fill="#F1F1F1" height="37.6094" style="stroke:#181818;stroke-width:0.5;" width="100.8828" x="1395" y="1130"/><text fill="#000000" font-family="sans-serif" font-size="14" lengthAdjust="spacing" textLength="80.8828" x="1405" y="1154.5332">DOCUMENT</text></g><g><ellipse cx="1398.4583" cy="1052.9667" fill="#F1F1F1" rx="15.4583" ry="12.9667" style="stroke:#181818;stroke-width:0.5;"/><text fill="#000000" font-family="sans-serif" font-size="14" lengthAdjust="spacing" text-decoration="underline" textLength="11.6758" x="1392.6204" y="1060.5332">Id</text></g><g><ellipse cx="1492.6684" cy="1052.9517" fill="#F1F1F1" rx="43.1684" ry="15.4517" style="stroke:#181818;stroke-width:0.5;"/><text fill="#000000" font-family="sans-serif" font-size="14" lengthAdjust="spacing" textLength="56.8066" x="1464.265" y="1058.0332">Category</text></g><g><rect fill="#F1F1F1" height="37.6094" style="stroke:#181818;stroke-width:0.5;" width="229.2617" x="1977" y="1544"/><text fill="#000000" font-family="sans-serif" font-size="14" lengthAdjust="spacing" textLength="209.2617" x="1987" y="1568.5332">COMPANY_REVIEW_REQUEST</text></g><g><ellipse cx="1908.4583" cy="1467.4667" fill="#F1F1F1" rx="15.4583" ry="12.9667" style="stroke:#181818;stroke-width:0.5;"/><text fill="#000000" font-family="sans-serif" font-size="14" lengthAdjust="spacing" text-decoration="underline" textLength="11.6758" x="1902.6204" y="1475.0332">Id</text></g><g><ellipse cx="1990.5647" cy="1467.4517" fill="#F1F1F1" rx="31.0647" ry="15.4517" style="stroke:#181818;stroke-width:0.5;"/><text fill="#000000" font-family="sans-serif" font-size="14" lengthAdjust="spacing" textLength="39.6895" x="1970.72" y="1472.5332">Status</text></g><g><rect fill="#F1F1F1" height="37.6094" style="stroke:#181818;stroke-width:0.5;" width="153.7998" x="1666.5" y="1130"/><text fill="#000000" font-family="sans-serif" font-size="14" lengthAdjust="spacing" textLength="133.7998" x="1676.5" y="1154.5332">COMPANY_REVIEW</text></g><g><ellipse cx="1743.4583" cy="1052.9667" fill="#F1F1F1" rx="15.4583" ry="12.9667" style="stroke:#181818;stroke-width:0.5;"/><text fill="#000000" font-family="sans-serif" font-size="14" lengthAdjust="spacing" text-decoration="underline" textLength="11.6758" x="1737.6204" y="1060.5332">Id</text></g><g><ellipse cx="1825.6157" cy="1052.9517" fill="#F1F1F1" rx="31.6157" ry="15.4517" style="stroke:#181818;stroke-width:0.5;"/><text fill="#000000" font-family="sans-serif" font-size="14" lengthAdjust="spacing" textLength="40.4688" x="1805.3814" y="1058.0332">Rating</text></g><g><rect fill="#F1F1F1" height="37.6094" style="stroke:#181818;stroke-width:0.5;" width="229.2617" x="1871" y="1130"/><text fill="#000000" font-family="sans-serif" font-size="14" lengthAdjust="spacing" textLength="209.2617" x="1881" y="1154.5332">COMPANY_REVIEW_PAYMENT</text></g><g><ellipse cx="2084.4583" cy="1052.9667" fill="#F1F1F1" rx="15.4583" ry="12.9667" style="stroke:#181818;stroke-width:0.5;"/><text fill="#000000" font-family="sans-serif" font-size="14" lengthAdjust="spacing" text-decoration="underline" textLength="11.6758" x="2078.6204" y="1060.5332">Id</text></g><g><ellipse cx="2002.5647" cy="1052.9517" fill="#F1F1F1" rx="31.0647" ry="15.4517" style="stroke:#181818;stroke-width:0.5;"/><text fill="#000000" font-family="sans-serif" font-size="14" lengthAdjust="spacing" textLength="39.6895" x="1982.72" y="1058.0332">Status</text></g><g><rect fill="#F1F1F1" height="37.6094" style="stroke:#181818;stroke-width:0.5;" width="87.6758" x="2255.5" y="1130"/><text fill="#000000" font-family="sans-serif" font-size="14" lengthAdjust="spacing" textLength="67.6758" x="2265.5" y="1154.5332">PAYMENT</text></g><g><ellipse cx="2222.4583" cy="1052.9667" fill="#F1F1F1" rx="15.4583" ry="12.9667" style="stroke:#181818;stroke-width:0.5;"/><text fill="#000000" font-family="sans-serif" font-size="14" lengthAdjust="spacing" text-decoration="underline" textLength="11.6758" x="2216.6204" y="1060.5332">Id</text></g><g><ellipse cx="2304.5647" cy="1052.9517" fill="#F1F1F1" rx="31.0647" ry="15.4517" style="stroke:#181818;stroke-width:0.5;"/><text fill="#000000" font-family="sans-serif" font-size="14" lengthAdjust="spacing" textLength="39.6895" x="2284.72" y="1058.0332">Status</text></g><g><ellipse cx="2433.477" cy="1052.9517" fill="#F1F1F1" rx="62.977" ry="15.4517" style="stroke:#181818;stroke-width:0.5;"/><text fill="#000000" font-family="sans-serif" font-size="14" lengthAdjust="spacing" textLength="84.8203" x="2391.0669" y="1058.0332">AmountCents</text></g><g><polygon fill="#F1F1F1" points="273.5,937.1241,342.7482,902.5,411.9964,937.1241,342.7482,971.7482" style="stroke:#181818;stroke-width:0.5;stroke-linejoin:miter;stroke-miterlimit:10;"/><text fill="#000000" font-family="sans-serif" font-size="14" lengthAdjust="spacing" textLength="80.917" x="302.2897" y="942.8526">CLASSIFIES</text></g><g><polygon fill="#F1F1F1" points="821,563.2828,871.5656,538,922.1312,563.2828,871.5656,588.5656" style="stroke:#181818;stroke-width:0.5;stroke-linejoin:miter;stroke-miterlimit:10;"/><text fill="#000000" font-family="sans-serif" font-size="14" lengthAdjust="spacing" textLength="43.5518" x="849.7897" y="569.0113">OWNS</text></g><g><polygon fill="#F1F1F1" points="298,1354.7913,369.5827,1319,441.1654,1354.7913,369.5827,1390.5827" style="stroke:#181818;stroke-width:0.5;stroke-linejoin:miter;stroke-miterlimit:10;"/><text fill="#000000" font-family="sans-serif" font-size="14" lengthAdjust="spacing" textLength="85.5859" x="326.7897" y="1360.5199">HAS_DETAIL</text></g><g><polygon fill="#F1F1F1" points="177.5,713.0672,229.6344,687,281.7689,713.0672,229.6344,739.1344" style="stroke:#181818;stroke-width:0.5;stroke-linejoin:miter;stroke-miterlimit:10;"/><text fill="#000000" font-family="sans-serif" font-size="14" lengthAdjust="spacing" textLength="46.6895" x="206.2897" y="718.7957">SAVES</text></g><g><polygon fill="#F1F1F1" points="507.5,1354.9034,578.3068,1319.5,649.1136,1354.9034,578.3068,1390.3068" style="stroke:#181818;stroke-width:0.5;stroke-linejoin:miter;stroke-miterlimit:10;"/><text fill="#000000" font-family="sans-serif" font-size="14" lengthAdjust="spacing" textLength="84.0342" x="536.2897" y="1360.6319">SAVES_SCH</text></g><g><polygon fill="#F1F1F1" points="1345.5,316.9517,1405.4035,287,1465.307,316.9517,1405.4035,346.9035" style="stroke:#181818;stroke-width:0.5;stroke-linejoin:miter;stroke-miterlimit:10;"/><text fill="#000000" font-family="sans-serif" font-size="14" lengthAdjust="spacing" textLength="62.2275" x="1374.2897" y="322.6803">SUBMITS</text></g><g><polygon fill="#F1F1F1" points="1001.5,937.119,1063.738,906,1125.9759,937.119,1063.738,968.238" style="stroke:#181818;stroke-width:0.5;stroke-linejoin:miter;stroke-miterlimit:10;"/><text fill="#000000" font-family="sans-serif" font-size="14" lengthAdjust="spacing" textLength="66.8965" x="1030.2897" y="942.8475">FOR_SCH</text></g><g><polygon fill="#F1F1F1" points="1303.5,937.0948,1381.6896,898,1459.8792,937.0948,1381.6896,976.1896" style="stroke:#181818;stroke-width:0.5;stroke-linejoin:miter;stroke-miterlimit:10;"/><text fill="#000000" font-family="sans-serif" font-size="14" lengthAdjust="spacing" textLength="98.7998" x="1332.2897" y="942.8233">HAS_HISTORY</text></g><g><polygon fill="#F1F1F1" points="1180.5,412.0069,1250.5138,377,1320.5277,412.0069,1250.5138,447.0138" style="stroke:#181818;stroke-width:0.5;stroke-linejoin:miter;stroke-miterlimit:10;"/><text fill="#000000" font-family="sans-serif" font-size="14" lengthAdjust="spacing" textLength="82.4482" x="1209.2897" y="417.7354">OWNS_DOC</text></g><g><polygon fill="#F1F1F1" points="1495,937.1483,1562.2966,903.5,1629.5931,937.1483,1562.2966,970.7966" style="stroke:#181818;stroke-width:0.5;stroke-linejoin:miter;stroke-miterlimit:10;"/><text fill="#000000" font-family="sans-serif" font-size="14" lengthAdjust="spacing" textLength="77.0137" x="1523.7897" y="942.8768">SUPPORTS</text></g><g><polygon fill="#F1F1F1" points="2044,796.2327,2098.4655,769,2152.931,796.2327,2098.4655,823.4655" style="stroke:#181818;stroke-width:0.5;stroke-linejoin:miter;stroke-miterlimit:10;"/><text fill="#000000" font-family="sans-serif" font-size="14" lengthAdjust="spacing" textLength="51.3516" x="2072.7897" y="801.9613">RAISES</text></g><g><polygon fill="#F1F1F1" points="1343,1354.8397,1396.6794,1328,1450.3587,1354.8397,1396.6794,1381.6794" style="stroke:#181818;stroke-width:0.5;stroke-linejoin:miter;stroke-miterlimit:10;"/><text fill="#000000" font-family="sans-serif" font-size="14" lengthAdjust="spacing" textLength="49.7793" x="1371.7897" y="1360.5682">UNDER</text></g><g><polygon fill="#F1F1F1" points="2211.5,1354.9552,2271.4103,1325,2331.3206,1354.9552,2271.4103,1384.9103" style="stroke:#181818;stroke-width:0.5;stroke-linejoin:miter;stroke-miterlimit:10;"/><text fill="#000000" font-family="sans-serif" font-size="14" lengthAdjust="spacing" textLength="62.2412" x="2240.2897" y="1360.6837">SETTLES</text></g><g><polygon fill="#F1F1F1" points="1665,936.8724,1730.7448,904,1796.4896,936.8724,1730.7448,969.7448" style="stroke:#181818;stroke-width:0.5;stroke-linejoin:miter;stroke-miterlimit:10;"/><text fill="#000000" font-family="sans-serif" font-size="14" lengthAdjust="spacing" textLength="73.9102" x="1693.7897" y="942.6009">RATED_BY</text></g><g><polygon fill="#F1F1F1" points="1842.5,937.0448,1917.5895,899.5,1992.679,937.0448,1917.5895,974.5895" style="stroke:#181818;stroke-width:0.5;stroke-linejoin:miter;stroke-miterlimit:10;"/><text fill="#000000" font-family="sans-serif" font-size="14" lengthAdjust="spacing" textLength="92.5996" x="1871.2897" y="942.7733">LEGACY_PAY</text></g><!--link USER/Id to USER--><g class="link" data-entity-1="ent0002" data-entity-2="ent0001" data-link-type="association" data-source-line="111" id="lnk3"><path d="M1216.28,33.96 C1222.91,49.86 1234.97,78.77 1242.86,97.68" fill="none" id="USER/Id-USER" style="stroke:#181818;stroke-width:1;"/></g><!--link USER/Email to USER--><g class="link" data-entity-1="ent0004" data-entity-2="ent0001" data-link-type="association" data-source-line="112" id="lnk5"><path d="M1284.42,36.7 C1277.43,53.05 1265.93,79.94 1258.28,97.81" fill="none" id="USER/Email-USER" style="stroke:#181818;stroke-width:1;"/></g><!--link CATEGORY/Id to CATEGORY--><g class="link" data-entity-1="ent0007" data-entity-2="ent0006" data-link-type="association" data-source-line="115" id="lnk8"><path d="M398.51,505.24 C387.87,530.28 362.89,589.04 350.19,618.9" fill="none" id="CATEGORY/Id-CATEGORY" style="stroke:#181818;stroke-width:1;"/></g><!--link CATEGORY/Slug to CATEGORY--><g class="link" data-entity-1="ent0009" data-entity-2="ent0006" data-link-type="association" data-source-line="116" id="lnk10"><path d="M330.82,508.05 C333.21,534.41 338.24,590.02 340.85,618.83" fill="none" id="CATEGORY/Slug-CATEGORY" style="stroke:#181818;stroke-width:1;"/></g><!--link SCHOLARSHIP/Id to SCHOLARSHIP--><g class="link" data-entity-1="ent0012" data-entity-2="ent0011" data-link-type="association" data-source-line="119" id="lnk13"><path d="M812.41,1060.17 C806.39,1062.95 799.12,1066.23 792.5,1069 C739.5,1091.18 677.89,1114.49 635.95,1129.99" fill="none" id="SCHOLARSHIP/Id-SCHOLARSHIP" style="stroke:#181818;stroke-width:1;"/></g><!--link SCHOLARSHIP/Slug to SCHOLARSHIP--><g class="link" data-entity-1="ent0014" data-entity-2="ent0011" data-link-type="association" data-source-line="120" id="lnk15"><path d="M879.99,1061.44 C873.22,1063.95 865.56,1066.69 858.5,1069 C786.19,1092.7 701.91,1116.61 646.55,1131.82" fill="none" id="SCHOLARSHIP/Slug-SCHOLARSHIP" style="stroke:#181818;stroke-width:1;"/></g><!--link SCHOLARSHIP/Status to SCHOLARSHIP--><g class="link" data-entity-1="ent0016" data-entity-2="ent0011" data-link-type="association" data-source-line="121" id="lnk17"><path d="M405.22,1064.06 C439.08,1079.74 504.92,1110.23 547.25,1129.82" fill="none" id="SCHOLARSHIP/Status-SCHOLARSHIP" style="stroke:#181818;stroke-width:1;"/></g><!--link SCHOLARSHIP/Deadline to SCHOLARSHIP--><g class="link" data-entity-1="ent0018" data-entity-2="ent0011" data-link-type="association" data-source-line="122" id="lnk19"><path d="M505.52,1067.87 C522.14,1084.31 549.88,1111.77 568.19,1129.88" fill="none" id="SCHOLARSHIP/Deadline-SCHOLARSHIP" style="stroke:#181818;stroke-width:1;"/></g><!--link SCHOLARSHIP/ReviewFeeUsd to SCHOLARSHIP--><g class="link" data-entity-1="ent0020" data-entity-2="ent0011" data-link-type="association" data-source-line="123" id="lnk21"><path d="M688.86,1068.48 C667.65,1084.96 632.96,1111.9 609.94,1129.79" fill="none" id="SCHOLARSHIP/ReviewFeeUsd-SCHOLARSHIP" style="stroke:#181818;stroke-width:1;"/></g><!--link SCHOLARSHIP_CHILD/Id to SCHOLARSHIP_CHILD--><g class="link" data-entity-1="ent0023" data-entity-2="ent0022" data-link-type="association" data-source-line="126" id="lnk24"><path d="M31.25,1477.81 C47.33,1493.14 79.66,1523.99 100.41,1543.79" fill="none" id="SCHOLARSHIP_CHILD/Id-SCHOLARSHIP_CHILD" style="stroke:#181818;stroke-width:1;"/></g><!--link SCHOLARSHIP_CHILD/ChildType to SCHOLARSHIP_CHILD--><g class="link" data-entity-1="ent0025" data-entity-2="ent0022" data-link-type="association" data-source-line="127" id="lnk26"><path d="M119.5,1483.11 C119.5,1499.54 119.5,1526.25 119.5,1543.97" fill="none" id="SCHOLARSHIP_CHILD/ChildType-SCHOLARSHIP_CHILD" style="stroke:#181818;stroke-width:1;"/></g><!--link SAVED_SCHOLARSHIP/Id to SAVED_SCHOLARSHIP--><g class="link" data-entity-1="ent0028" data-entity-2="ent0027" data-link-type="association" data-source-line="130" id="lnk29"><path d="M484.86,1479.96 C477.04,1495.86 462.81,1524.77 453.51,1543.68" fill="none" id="SAVED_SCHOLARSHIP/Id-SAVED_SCHOLARSHIP" style="stroke:#181818;stroke-width:1;"/></g><!--link SAVED_SCHOLARSHIP/SavedAt to SAVED_SCHOLARSHIP--><g class="link" data-entity-1="ent0030" data-entity-2="ent0027" data-link-type="association" data-source-line="131" id="lnk31"><path d="M406.53,1483.11 C414.44,1499.54 427.3,1526.25 435.82,1543.97" fill="none" id="SAVED_SCHOLARSHIP/SavedAt-SAVED_SCHOLARSHIP" style="stroke:#181818;stroke-width:1;"/></g><!--link APPLICATION/Id to APPLICATION--><g class="link" data-entity-1="ent0033" data-entity-2="ent0032" data-link-type="association" data-source-line="134" id="lnk34"><path d="M1507.5,505.73 C1507.5,530.95 1507.5,588.82 1507.5,618.58" fill="none" id="APPLICATION/Id-APPLICATION" style="stroke:#181818;stroke-width:1;"/></g><!--link APPLICATION/Status to APPLICATION--><g class="link" data-entity-1="ent0035" data-entity-2="ent0032" data-link-type="association" data-source-line="135" id="lnk36"><path d="M1581.49,507.52 C1566.58,533.61 1534.58,589.61 1517.98,618.67" fill="none" id="APPLICATION/Status-APPLICATION" style="stroke:#181818;stroke-width:1;"/></g><!--link APPLICATION/Mode to APPLICATION--><g class="link" data-entity-1="ent0037" data-entity-2="ent0032" data-link-type="association" data-source-line="136" id="lnk38"><path d="M1357.52,507.59 C1369.44,527.62 1393.48,564.58 1421.5,589 C1435.03,600.8 1451.93,610.99 1467.16,618.91" fill="none" id="APPLICATION/Mode-APPLICATION" style="stroke:#181818;stroke-width:1;"/></g><!--link APPLICATION_CHILD/Id to APPLICATION_CHILD--><g class="link" data-entity-1="ent0040" data-entity-2="ent0039" data-link-type="association" data-source-line="139" id="lnk41"><path d="M1061.25,1063.36 C1077.33,1078.77 1109.66,1109.79 1130.41,1129.69" fill="none" id="APPLICATION_CHILD/Id-APPLICATION_CHILD" style="stroke:#181818;stroke-width:1;"/></g><!--link APPLICATION_CHILD/ChildType to APPLICATION_CHILD--><g class="link" data-entity-1="ent0042" data-entity-2="ent0039" data-link-type="association" data-source-line="140" id="lnk43"><path d="M1149.5,1068.69 C1149.5,1085.21 1149.5,1112.06 1149.5,1129.88" fill="none" id="APPLICATION_CHILD/ChildType-APPLICATION_CHILD" style="stroke:#181818;stroke-width:1;"/></g><!--link DOCUMENT/Id to DOCUMENT--><g class="link" data-entity-1="ent0045" data-entity-2="ent0044" data-link-type="association" data-source-line="143" id="lnk46"><path d="M1404.08,1065.15 C1412.05,1081.1 1426.81,1110.62 1436.39,1129.77" fill="none" id="DOCUMENT/Id-DOCUMENT" style="stroke:#181818;stroke-width:1;"/></g><!--link DOCUMENT/Category to DOCUMENT--><g class="link" data-entity-1="ent0047" data-entity-2="ent0044" data-link-type="association" data-source-line="144" id="lnk48"><path d="M1485.16,1068.69 C1476.89,1085.21 1463.47,1112.06 1454.56,1129.88" fill="none" id="DOCUMENT/Category-DOCUMENT" style="stroke:#181818;stroke-width:1;"/></g><!--link COMPANY_REVIEW_REQUEST/Id to COMPANY_REVIEW_REQUEST--><g class="link" data-entity-1="ent0050" data-entity-2="ent0049" data-link-type="association" data-source-line="147" id="lnk51"><path d="M1921.37,1475.07 C1949.03,1489.21 2014.98,1522.9 2056.16,1543.95" fill="none" id="COMPANY_REVIEW_REQUEST/Id-COMPANY_REVIEW_REQUEST" style="stroke:#181818;stroke-width:1;"/></g><!--link COMPANY_REVIEW_REQUEST/Status to COMPANY_REVIEW_REQUEST--><g class="link" data-entity-1="ent0052" data-entity-2="ent0049" data-link-type="association" data-source-line="148" id="lnk53"><path d="M2004.54,1481.5 C2022.11,1497.76 2052.26,1525.68 2072.04,1543.99" fill="none" id="COMPANY_REVIEW_REQUEST/Status-COMPANY_REVIEW_REQUEST" style="stroke:#181818;stroke-width:1;"/></g><!--link COMPANY_REVIEW/Id to COMPANY_REVIEW--><g class="link" data-entity-1="ent0055" data-entity-2="ent0054" data-link-type="association" data-source-line="151" id="lnk56"><path d="M1743.5,1066.29 C1743.5,1082.51 1743.5,1111.2 1743.5,1129.91" fill="none" id="COMPANY_REVIEW/Id-COMPANY_REVIEW" style="stroke:#181818;stroke-width:1;"/></g><!--link COMPANY_REVIEW/Rating to COMPANY_REVIEW--><g class="link" data-entity-1="ent0057" data-entity-2="ent0054" data-link-type="association" data-source-line="152" id="lnk58"><path d="M1813.75,1067.47 C1799.49,1083.81 1775.38,1111.45 1759.45,1129.71" fill="none" id="COMPANY_REVIEW/Rating-COMPANY_REVIEW" style="stroke:#181818;stroke-width:1;"/></g><!--link COMPANY_REVIEW_PAYMENT/Id to COMPANY_REVIEW_PAYMENT--><g class="link" data-entity-1="ent0060" data-entity-2="ent0059" data-link-type="association" data-source-line="155" id="lnk61"><path d="M2074.65,1063.36 C2058.41,1078.77 2025.75,1109.79 2004.79,1129.69" fill="none" id="COMPANY_REVIEW_PAYMENT/Id-COMPANY_REVIEW_PAYMENT" style="stroke:#181818;stroke-width:1;"/></g><!--link COMPANY_REVIEW_PAYMENT/Status to COMPANY_REVIEW_PAYMENT--><g class="link" data-entity-1="ent0062" data-entity-2="ent0059" data-link-type="association" data-source-line="156" id="lnk63"><path d="M1999.84,1068.69 C1996.86,1085.21 1992,1112.06 1988.78,1129.88" fill="none" id="COMPANY_REVIEW_PAYMENT/Status-COMPANY_REVIEW_PAYMENT" style="stroke:#181818;stroke-width:1;"/></g><!--link PAYMENT/Id to PAYMENT--><g class="link" data-entity-1="ent0065" data-entity-2="ent0064" data-link-type="association" data-source-line="159" id="lnk66"><path d="M2230.74,1064.06 C2243.54,1079.69 2268.41,1110.04 2284.47,1129.65" fill="none" id="PAYMENT/Id-PAYMENT" style="stroke:#181818;stroke-width:1;"/></g><!--link PAYMENT/Status to PAYMENT--><g class="link" data-entity-1="ent0067" data-entity-2="ent0064" data-link-type="association" data-source-line="160" id="lnk68"><path d="M2303.72,1068.69 C2302.84,1085.21 2301.41,1112.06 2300.46,1129.88" fill="none" id="PAYMENT/Status-PAYMENT" style="stroke:#181818;stroke-width:1;"/></g><!--link PAYMENT/AmountCents to PAYMENT--><g class="link" data-entity-1="ent0069" data-entity-2="ent0064" data-link-type="association" data-source-line="161" id="lnk70"><path d="M2413.73,1067.87 C2390.29,1084.31 2351.15,1111.77 2325.33,1129.88" fill="none" id="PAYMENT/AmountCents-PAYMENT" style="stroke:#181818;stroke-width:1;"/></g><!--link CATEGORY to CLASSIFIES--><g class="link" data-entity-1="ent0006" data-entity-2="ent0071" data-link-type="association" data-source-line="193" id="lnk86"><path d="M342.5,657.13 C342.5,705.75 342.5,839.56 342.5,902.48" fill="none" id="CATEGORY-CLASSIFIES" style="stroke:#181818;stroke-width:1;"/><text fill="#000000" font-family="sans-serif" font-size="11" lengthAdjust="spacing" textLength="6.1177" x="343.5" y="800.9189">1</text></g><!--link CLASSIFIES to SCHOLARSHIP--><g class="link" data-entity-1="ent0071" data-entity-2="ent0011" data-link-type="association" data-source-line="194" id="lnk87"><path d="M328.81,964.89 C316.37,993.53 303.09,1038.8 325.5,1069 C349.52,1101.36 457.02,1125.62 526.35,1138.24" fill="none" id="CLASSIFIES-SCHOLARSHIP" style="stroke:#181818;stroke-width:1;"/><text fill="#000000" font-family="sans-serif" font-size="11" lengthAdjust="spacing" textLength="7.9438" x="326.5" y="1057.9189">N</text></g><!--link USER to OWNS--><g class="link" data-entity-1="ent0001" data-entity-2="ent0072" data-link-type="association" data-source-line="195" id="lnk88"><path d="M1220.61,122.38 C1157.11,132.53 1014.5,160.14 1014.5,203.5 C1014.5,203.5 1014.5,203.5 1014.5,413 C1014.5,480.34 937.79,529.24 896.74,550.58" fill="none" id="USER-OWNS" style="stroke:#181818;stroke-width:1;"/><text fill="#000000" font-family="sans-serif" font-size="11" lengthAdjust="spacing" textLength="6.1177" x="1015.5" y="254.4189">1</text></g><!--link OWNS to SCHOLARSHIP--><g class="link" data-entity-1="ent0072" data-entity-2="ent0011" data-link-type="association" data-source-line="196" id="lnk89"><path d="M828.52,567.34 C748.91,575.17 586.5,604.33 586.5,712 C586.5,712 586.5,712 586.5,1054 C586.5,1080.44 586.5,1111.06 586.5,1129.98" fill="none" id="OWNS-SCHOLARSHIP" style="stroke:#181818;stroke-width:1;"/><text fill="#000000" font-family="sans-serif" font-size="11" lengthAdjust="spacing" textLength="7.9438" x="587.5" y="865.4189">N</text></g><!--link SCHOLARSHIP to HAS_DETAIL--><g class="link" data-entity-1="ent0011" data-entity-2="ent0073" data-link-type="association" data-source-line="197" id="lnk90"><path d="M567.24,1168.1 C527.72,1205.26 437.52,1290.05 393.95,1331.02" fill="none" id="SCHOLARSHIP-HAS_DETAIL" style="stroke:#181818;stroke-width:1;"/><text fill="#000000" font-family="sans-serif" font-size="11" lengthAdjust="spacing" textLength="6.1177" x="486.5" y="1255.4189">1</text></g><!--link HAS_DETAIL to SCHOLARSHIP_CHILD--><g class="link" data-entity-1="ent0073" data-entity-2="ent0022" data-link-type="association" data-source-line="198" id="lnk91"><path d="M342.75,1378.05 C292.99,1419.04 187.13,1506.27 141.35,1544" fill="none" style="stroke:#181818;stroke-width:3.6;"/><path d="M342.75,1378.05 C292.99,1419.04 187.13,1506.27 141.35,1544" fill="none" style="stroke:#FFFFFF;stroke-width:1.8;"/><text fill="#000000" font-family="sans-serif" font-size="11" lengthAdjust="spacing" textLength="7.9438" x="254.5" y="1472.4189">N</text></g><!--link USER to SAVES--><g class="link" data-entity-1="ent0001" data-entity-2="ent0074" data-link-type="association" data-source-line="199" id="lnk92"><path d="M1220.92,118.9 C1053.71,124.18 234.5,152.64 234.5,203.5 C234.5,203.5 234.5,203.5 234.5,564.5 C234.5,607.8 232.32,658.21 230.84,687.48" fill="none" id="USER-SAVES" style="stroke:#181818;stroke-width:1;"/><text fill="#000000" font-family="sans-serif" font-size="11" lengthAdjust="spacing" textLength="6.1177" x="235.5" y="321.9189">1</text></g><!--link SAVES to SAVED_SCHOLARSHIP--><g class="link" data-entity-1="ent0074" data-entity-2="ent0027" data-link-type="association" data-source-line="200" id="lnk93"><path d="M227.11,737.92 C224.45,766.72 220.5,816.6 220.5,859.5 C220.5,859.5 220.5,859.5 220.5,1468.5 C220.5,1530.13 293.61,1551.86 356.29,1559.16" fill="none" id="SAVES-SAVED_SCHOLARSHIP" style="stroke:#181818;stroke-width:1;"/><text fill="#000000" font-family="sans-serif" font-size="11" lengthAdjust="spacing" textLength="7.9438" x="221.5" y="1153.9189">N</text></g><!--link SCHOLARSHIP to SAVES_SCH--><g class="link" data-entity-1="ent0011" data-entity-2="ent0075" data-link-type="association" data-source-line="201" id="lnk94"><path d="M585.79,1168.1 C584.46,1202.14 581.55,1276.15 579.84,1319.82" fill="none" id="SCHOLARSHIP-SAVES_SCH" style="stroke:#181818;stroke-width:1;"/><text fill="#000000" font-family="sans-serif" font-size="11" lengthAdjust="spacing" textLength="6.1177" x="584.5" y="1255.4189">1</text></g><!--link SAVES_SCH to SAVED_SCHOLARSHIP--><g class="link" data-entity-1="ent0075" data-entity-2="ent0027" data-link-type="association" data-source-line="202" id="lnk95"><path d="M568.84,1385.94 C559.47,1412.64 543.72,1452.16 523.5,1483 C513.15,1498.78 507.75,1500.57 494.5,1514 C484.69,1523.93 473.51,1534.72 464.21,1543.55" fill="none" id="SAVES_SCH-SAVED_SCHOLARSHIP" style="stroke:#181818;stroke-width:1;"/><text fill="#000000" font-family="sans-serif" font-size="11" lengthAdjust="spacing" textLength="7.9438" x="541.5" y="1472.4189">N</text></g><!--link USER to SUBMITS--><g class="link" data-entity-1="ent0001" data-entity-2="ent0076" data-link-type="association" data-source-line="203" id="lnk96"><path d="M1264.8,136.27 C1293.66,173.13 1358.67,256.18 1389.15,295.11" fill="none" id="USER-SUBMITS" style="stroke:#181818;stroke-width:1;"/><text fill="#000000" font-family="sans-serif" font-size="11" lengthAdjust="spacing" textLength="6.1177" x="1323.5" y="209.4189">1</text></g><!--link SUBMITS to APPLICATION--><g class="link" data-entity-1="ent0076" data-entity-2="ent0032" data-link-type="association" data-source-line="204" id="lnk97"><path d="M1413.39,343.22 C1424.79,379.64 1446.59,449.04 1465.5,508 C1478.16,547.47 1493.26,593.64 1501.47,618.64" fill="none" style="stroke:#181818;stroke-width:3.6;"/><path d="M1413.39,343.22 C1424.79,379.64 1446.59,449.04 1465.5,508 C1478.16,547.47 1493.26,593.64 1501.47,618.64" fill="none" style="stroke:#FFFFFF;stroke-width:1.8;"/><text fill="#000000" font-family="sans-serif" font-size="11" lengthAdjust="spacing" textLength="7.9438" x="1466.5" y="497.4189">N</text></g><!--link APPLICATION to FOR_SCH--><g class="link" data-entity-1="ent0032" data-entity-2="ent0077" data-link-type="association" data-source-line="205" id="lnk98"><path d="M1450.77,653.7 C1385.31,672.62 1276.66,710.25 1198.5,769 C1144.11,809.88 1098.66,877.35 1077.05,912.72" fill="none" id="APPLICATION-FOR_SCH" style="stroke:#181818;stroke-width:1;"/><text fill="#000000" font-family="sans-serif" font-size="11" lengthAdjust="spacing" textLength="7.9438" x="1199.5" y="800.9189">N</text></g><!--link FOR_SCH to SCHOLARSHIP--><g class="link" data-entity-1="ent0077" data-entity-2="ent0011" data-link-type="association" data-source-line="206" id="lnk99"><path d="M1048.6,960.66 C1027.83,990.36 987.29,1041.86 939.5,1069 C846.12,1122.03 719.99,1139.47 646.52,1145.2" fill="none" id="FOR_SCH-SCHOLARSHIP" style="stroke:#181818;stroke-width:1;"/><text fill="#000000" font-family="sans-serif" font-size="11" lengthAdjust="spacing" textLength="6.1177" x="983.5" y="1057.9189">1</text></g><!--link APPLICATION to HAS_HISTORY--><g class="link" data-entity-1="ent0032" data-entity-2="ent0078" data-link-type="association" data-source-line="207" id="lnk100"><path d="M1499.81,657.13 C1478.97,706.25 1421.23,842.34 1394.9,904.41" fill="none" id="APPLICATION-HAS_HISTORY" style="stroke:#181818;stroke-width:1;"/><text fill="#000000" font-family="sans-serif" font-size="11" lengthAdjust="spacing" textLength="6.1177" x="1451.5" y="800.9189">1</text></g><!--link HAS_HISTORY to APPLICATION_CHILD--><g class="link" data-entity-1="ent0078" data-entity-2="ent0039" data-link-type="association" data-source-line="208" id="lnk101"><path d="M1354.43,962.5 C1307.34,1005.13 1211.37,1092 1169.63,1129.78" fill="none" style="stroke:#181818;stroke-width:3.6;"/><path d="M1354.43,962.5 C1307.34,1005.13 1211.37,1092 1169.63,1129.78" fill="none" style="stroke:#FFFFFF;stroke-width:1.8;"/><text fill="#000000" font-family="sans-serif" font-size="11" lengthAdjust="spacing" textLength="7.9438" x="1271.5" y="1057.9189">N</text></g><!--link USER to OWNS_DOC--><g class="link" data-entity-1="ent0001" data-entity-2="ent0079" data-link-type="association" data-source-line="209" id="lnk102"><path d="M1250.5,136.33 C1250.5,184.31 1250.5,314.21 1250.5,376.62" fill="none" id="USER-OWNS_DOC" style="stroke:#181818;stroke-width:1;"/><text fill="#000000" font-family="sans-serif" font-size="11" lengthAdjust="spacing" textLength="6.1177" x="1251.5" y="209.4189">1</text></g><!--link OWNS_DOC to DOCUMENT--><g class="link" data-entity-1="ent0079" data-entity-2="ent0044" data-link-type="association" data-source-line="210" id="lnk103"><path d="M1250.5,447.14 C1250.5,477.44 1250.5,522.92 1250.5,562.5 C1250.5,562.5 1250.5,562.5 1250.5,1054 C1250.5,1118.08 1337,1138.5 1394.78,1144.99" fill="none" style="stroke:#181818;stroke-width:3.6;"/><path d="M1250.5,447.14 C1250.5,477.44 1250.5,522.92 1250.5,562.5 C1250.5,562.5 1250.5,562.5 1250.5,1054 C1250.5,1118.08 1337,1138.5 1394.78,1144.99" fill="none" style="stroke:#FFFFFF;stroke-width:1.8;"/><text fill="#000000" font-family="sans-serif" font-size="11" lengthAdjust="spacing" textLength="7.9438" x="1251.5" y="800.9189">N</text></g><!--link APPLICATION to SUPPORTS--><g class="link" data-entity-1="ent0032" data-entity-2="ent0080" data-link-type="association" data-source-line="211" id="lnk104"><path d="M1510.86,657.13 C1520.02,706.63 1545.54,844.44 1556.91,905.83" fill="none" id="APPLICATION-SUPPORTS" style="stroke:#181818;stroke-width:1;"/><text fill="#000000" font-family="sans-serif" font-size="11" lengthAdjust="spacing" textLength="6.1177" x="1541.5" y="800.9189">1</text></g><!--link SUPPORTS to DOCUMENT--><g class="link" data-entity-1="ent0080" data-entity-2="ent0044" data-link-type="association" data-source-line="212" id="lnk105"><path d="M1567.34,968.36 C1570.26,996.29 1570.62,1037.96 1553.5,1069 C1538.41,1096.36 1509.37,1116.78 1485.19,1130" fill="none" id="SUPPORTS-DOCUMENT" style="stroke:#181818;stroke-width:1;"/><text fill="#000000" font-family="sans-serif" font-size="11" lengthAdjust="spacing" textLength="7.9438" x="1565.5" y="1057.9189">N</text></g><!--link USER to RAISES--><g class="link" data-entity-1="ent0001" data-entity-2="ent0081" data-link-type="association" data-source-line="213" id="lnk106"><path d="M1280.14,118.02 C1424.1,118.51 2043.5,125.18 2043.5,203.5 C2043.5,203.5 2043.5,203.5 2043.5,639 C2043.5,690.12 2070.09,745.57 2086.29,774.61" fill="none" id="USER-RAISES" style="stroke:#181818;stroke-width:1;"/><text fill="#000000" font-family="sans-serif" font-size="11" lengthAdjust="spacing" textLength="6.1177" x="2044.5" y="416.9189">1</text></g><!--link RAISES to COMPANY_REVIEW_REQUEST--><g class="link" data-entity-1="ent0081" data-entity-2="ent0049" data-link-type="association" data-source-line="214" id="lnk107"><path d="M2111.81,816.75 C2128.09,842.86 2153.5,890.84 2153.5,936 C2153.5,936 2153.5,936 2153.5,1468.5 C2153.5,1498.69 2130.77,1526.6 2112.84,1543.92" fill="none" style="stroke:#181818;stroke-width:3.6;"/><path d="M2111.81,816.75 C2128.09,842.86 2153.5,890.84 2153.5,936 C2153.5,936 2153.5,936 2153.5,1468.5 C2153.5,1498.69 2130.77,1526.6 2112.84,1543.92" fill="none" style="stroke:#FFFFFF;stroke-width:1.8;"/><text fill="#000000" font-family="sans-serif" font-size="11" lengthAdjust="spacing" textLength="7.9438" x="2154.5" y="1210.4189">N</text></g><!--link SCHOLARSHIP to UNDER--><g class="link" data-entity-1="ent0011" data-entity-2="ent0082" data-link-type="association" data-source-line="215" id="lnk108"><path d="M646.72,1165.17 C806.39,1205.38 1236.9,1313.8 1361.98,1345.31" fill="none" id="SCHOLARSHIP-UNDER" style="stroke:#181818;stroke-width:1;"/><text fill="#000000" font-family="sans-serif" font-size="11" lengthAdjust="spacing" textLength="6.1177" x="1006.5" y="1255.4189">1</text></g><!--link UNDER to COMPANY_REVIEW_REQUEST--><g class="link" data-entity-1="ent0082" data-entity-2="ent0049" data-link-type="association" data-source-line="216" id="lnk109"><path d="M1445.42,1357.46 C1578.8,1362.34 1945.14,1381.94 2039.5,1452 C2069.69,1474.42 2083.04,1518.84 2088.37,1543.83" fill="none" style="stroke:#181818;stroke-width:3.6;"/><path d="M1445.42,1357.46 C1578.8,1362.34 1945.14,1381.94 2039.5,1452 C2069.69,1474.42 2083.04,1518.84 2088.37,1543.83" fill="none" style="stroke:#FFFFFF;stroke-width:1.8;"/><text fill="#000000" font-family="sans-serif" font-size="11" lengthAdjust="spacing" textLength="7.9438" x="2066.5" y="1472.4189">N</text></g><!--link PAYMENT to SETTLES--><g class="link" data-entity-1="ent0064" data-entity-2="ent0083" data-link-type="association" data-source-line="217" id="lnk110"><path d="M2297.02,1168.1 C2292.09,1203.99 2281.06,1284.32 2275.25,1326.67" fill="none" id="PAYMENT-SETTLES" style="stroke:#181818;stroke-width:1;"/><text fill="#000000" font-family="sans-serif" font-size="11" lengthAdjust="spacing" textLength="6.1177" x="2286.5" y="1255.4189">1</text></g><!--link SETTLES to COMPANY_REVIEW_REQUEST--><g class="link" data-entity-1="ent0083" data-entity-2="ent0049" data-link-type="association" data-source-line="218" id="lnk111"><path d="M2262.25,1380.38 C2248.5,1413.95 2219.89,1474.72 2179.5,1514 C2166.9,1526.25 2150.54,1536.31 2135.36,1544" fill="none" id="SETTLES-COMPANY_REVIEW_REQUEST" style="stroke:#181818;stroke-width:1;"/><text fill="#000000" font-family="sans-serif" font-size="11" lengthAdjust="spacing" textLength="6.1177" x="2226.5" y="1472.4189">1</text></g><!--link APPLICATION to RATED_BY--><g class="link" data-entity-1="ent0032" data-entity-2="ent0084" data-link-type="association" data-source-line="219" id="lnk112"><path d="M1522.51,657.08 C1529.85,666.01 1538.74,676.99 1546.5,687 C1609.72,768.57 1681.61,867.85 1713.6,912.39" fill="none" id="APPLICATION-RATED_BY" style="stroke:#181818;stroke-width:1;"/><text fill="#000000" font-family="sans-serif" font-size="11" lengthAdjust="spacing" textLength="6.1177" x="1648.5" y="800.9189">1</text></g><!--link RATED_BY to COMPANY_REVIEW--><g class="link" data-entity-1="ent0084" data-entity-2="ent0054" data-link-type="association" data-source-line="220" id="lnk113"><path d="M1717.92,964.2 C1706.82,990.72 1693.68,1032.85 1702.5,1069 C1707.96,1091.37 1720.95,1114.46 1730.86,1129.86" fill="none" id="RATED_BY-COMPANY_REVIEW" style="stroke:#181818;stroke-width:1;"/><text fill="#000000" font-family="sans-serif" font-size="11" lengthAdjust="spacing" textLength="6.1177" x="1703.5" y="1057.9189">1</text></g><!--link APPLICATION to LEGACY_PAY--><g class="link" data-entity-1="ent0032" data-entity-2="ent0085" data-link-type="association" data-source-line="221" id="lnk114"><path d="M1541.2,657.21 C1556.52,665.81 1574.71,676.48 1590.5,687 C1706.01,763.93 1834.76,867.7 1889.95,913.11" fill="none" id="APPLICATION-LEGACY_PAY" style="stroke:#181818;stroke-width:1;"/><text fill="#000000" font-family="sans-serif" font-size="11" lengthAdjust="spacing" textLength="6.1177" x="1776.5" y="800.9189">1</text></g><!--link LEGACY_PAY to COMPANY_REVIEW_PAYMENT--><g class="link" data-entity-1="ent0085" data-entity-2="ent0059" data-link-type="association" data-source-line="222" id="lnk115"><path d="M1922.35,972.32 C1926.72,999.14 1934.23,1037.09 1945.5,1069 C1953.18,1090.74 1965.59,1114.13 1974.56,1129.77" fill="none" id="LEGACY_PAY-COMPANY_REVIEW_PAYMENT" style="stroke:#181818;stroke-width:1;"/><text fill="#000000" font-family="sans-serif" font-size="11" lengthAdjust="spacing" textLength="7.9438" x="1946.5" y="1057.9189">N</text></g><?plantuml-src bLLTRvim57s_lu8_a6gjfZsrLLrmYYK2p3QjyeHGi18q2b4WdQ9f_tss2U21wRGd23xdVlYSU_FKjDcftHr4vM1ClPJj3dMPdPf3SMnIT3oMnIvhYxfgG5HjqLwSX67g_0B78RbpV_z3N1uVvG_ydXKb_Ev1BkBu9QBREP2Lv_s8OwuV1OWodyGBKFbei_RSo1TFP7bPL4A-Kl5HY9zh8P8cjqPBNPy4tZocUoZAd5-Emc2XLopx_hIIx4Fag1qvA8u38fiaKMX1zmLlwbnOEVzHdHUvoGQ7t0BEMh6lJnVZrgDDZC9jIl4hmM_oyJt1Z2yMkC2RuwbqGBLVp1EZhRt2QPv_0Hq7lTVdgdKbNj5Eekoy9ytek05YZAm9Pf8_EOlUGijN7x7KmnoHO7wcH6SBdvKNB4V9yuPm2sSTKJj3vVS9uzqSM4fEfRYsH74SKLicYWYpLPs4dfx9QI3CUO2jSRXq_BEbgW2_87Uh5DLdmnYlRbU6061eiGfNvjo1NWyAhXe4BSmKOewQGeuwWI7PG_Wm7-Wnl5OAEXbrWkaKpz8CsiAeifqv9kaqXrvxLPCnnc2k0HNgQWNeBQ5Z687_mbyxlpe4JBTCyanxxxq3WuaKeTyKioozeM1mbgfrW0zXEtl1rMKgf7sXp6vM-myw5tv2wyTVrzHv4tgFQeFPQTDsUlV2OECvUKOQZGs6nzKzs9SPF8agL_-A0BStTr_kljry_GC0?></g></svg>