<svg xmlns="http://www.w3.org/2000/svg" xmlns:xlink="http://www.w3.org/1999/xlink" contentStyleType="text/css" data-diagram-type="CHEN_EER" height="1501px" preserveAspectRatio="none" style="width:1884px;height:1501px;background:#FFFFFF;" version="1.1" viewBox="0 0 1884 1501" width="1884px" zoomAndPan="magnify"><?plantuml 1.2026.4?><defs/><g><g><rect fill="#F1F1F1" height="37.6094" style="stroke:#181818;stroke-width:0.5;" width="58.8965" x="698.5" y="98"/><text fill="#000000" font-family="sans-serif" font-size="14" lengthAdjust="spacing" textLength="38.8965" x="708.5" y="122.5332">USER</text></g><g><ellipse cx="687.9583" cy="21.4667" fill="#F1F1F1" rx="15.4583" ry="12.9667" style="stroke:#181818;stroke-width:0.5;"/><text fill="#000000" font-family="sans-serif" font-size="14" lengthAdjust="spacing" text-decoration="underline" textLength="11.6758" x="682.1204" y="29.0332">Id</text></g><g><ellipse cx="766.7536" cy="21.4517" fill="#F1F1F1" rx="27.7536" ry="15.4517" style="stroke:#181818;stroke-width:0.5;"/><text fill="#000000" font-family="sans-serif" font-size="14" lengthAdjust="spacing" textLength="35.0068" x="749.2502" y="26.5332">Email</text></g><g><rect fill="#F1F1F1" height="37.6094" style="stroke:#181818;stroke-width:0.5;" width="111.8203" x="500" y="628"/><text fill="#000000" font-family="sans-serif" font-size="14" lengthAdjust="spacing" textLength="91.8203" x="510" y="652.5332">AVAILABILITY</text></g><g><ellipse cx="548.9583" cy="498.4667" fill="#F1F1F1" rx="15.4583" ry="12.9667" style="stroke:#181818;stroke-width:0.5;"/><text fill="#000000" font-family="sans-serif" font-size="14" lengthAdjust="spacing" text-decoration="underline" textLength="11.6758" x="543.1204" y="506.0332">Id</text></g><g><ellipse cx="637.1579" cy="498.4517" fill="#F1F1F1" rx="37.6579" ry="15.4517" style="stroke:#181818;stroke-width:0.5;"/><text fill="#000000" font-family="sans-serif" font-size="14" lengthAdjust="spacing" textLength="49.0137" x="612.6511" y="503.5332">IsActive</text></g><g><rect fill="#F1F1F1" height="37.6094" style="stroke:#181818;stroke-width:0.5;" width="85.3447" x="721.5" y="1040"/><text fill="#000000" font-family="sans-serif" font-size="14" lengthAdjust="spacing" textLength="65.3447" x="731.5" y="1064.5332">BOOKING</text></g><g><ellipse cx="871.9583" cy="961.9667" fill="#F1F1F1" rx="15.4583" ry="12.9667" style="stroke:#181818;stroke-width:0.5;"/><text fill="#000000" font-family="sans-serif" font-size="14" lengthAdjust="spacing" text-decoration="underline" textLength="11.6758" x="866.1204" y="969.5332">Id</text></g><g><ellipse cx="996.043" cy="962.0086" fill="#F1F1F1" rx="73.043" ry="17.0086" style="stroke:#181818;stroke-width:0.5;"/><text fill="#000000" font-family="sans-serif" font-size="14" lengthAdjust="spacing" textLength="108.958" x="941.564" y="965.5332">ScheduledStartAt</text></g><g><ellipse cx="1135.0647" cy="961.9517" fill="#F1F1F1" rx="31.0647" ry="15.4517" style="stroke:#181818;stroke-width:0.5;"/><text fill="#000000" font-family="sans-serif" font-size="14" lengthAdjust="spacing" textLength="39.6895" x="1115.22" y="967.0332">Status</text></g><g><ellipse cx="553.1587" cy="961.9517" fill="#F1F1F1" rx="43.1587" ry="15.4517" style="stroke:#181818;stroke-width:0.5;"/><text fill="#000000" font-family="sans-serif" font-size="14" lengthAdjust="spacing" textLength="56.793" x="524.7622" y="967.0332">PriceUsd</text></g><g><rect fill="#F1F1F1" height="37.6094" style="stroke:#181818;stroke-width:0.5;" width="87.6758" x="274" y="1450"/><text fill="#000000" font-family="sans-serif" font-size="14" lengthAdjust="spacing" textLength="67.6758" x="284" y="1474.5332">PAYMENT</text></g><g><ellipse cx="443.9583" cy="1373.4667" fill="#F1F1F1" rx="15.4583" ry="12.9667" style="stroke:#181818;stroke-width:0.5;"/><text fill="#000000" font-family="sans-serif" font-size="14" lengthAdjust="spacing" text-decoration="underline" textLength="11.6758" x="438.1204" y="1381.0332">Id</text></g><g><ellipse cx="31.008" cy="1373.4517" fill="#F1F1F1" rx="25.008" ry="15.4517" style="stroke:#181818;stroke-width:0.5;"/><text fill="#000000" font-family="sans-serif" font-size="14" lengthAdjust="spacing" textLength="31.124" x="15.446" y="1378.5332">Type</text></g><g><ellipse cx="122.0647" cy="1373.4517" fill="#F1F1F1" rx="31.0647" ry="15.4517" style="stroke:#181818;stroke-width:0.5;"/><text fill="#000000" font-family="sans-serif" font-size="14" lengthAdjust="spacing" textLength="39.6895" x="102.22" y="1378.5332">Status</text></g><g><ellipse cx="250.977" cy="1373.4517" fill="#F1F1F1" rx="62.977" ry="15.4517" style="stroke:#181818;stroke-width:0.5;"/><text fill="#000000" font-family="sans-serif" font-size="14" lengthAdjust="spacing" textLength="84.8203" x="208.5669" y="1378.5332">AmountCents</text></g><g><rect fill="#F1F1F1" height="37.6094" style="stroke:#181818;stroke-width:0.5;" width="77.5654" x="317" y="1040"/><text fill="#000000" font-family="sans-serif" font-size="14" lengthAdjust="spacing" textLength="57.5654" x="327" y="1064.5332">PAYOUT</text></g><g><ellipse cx="458.9583" cy="961.9667" fill="#F1F1F1" rx="15.4583" ry="12.9667" style="stroke:#181818;stroke-width:0.5;"/><text fill="#000000" font-family="sans-serif" font-size="14" lengthAdjust="spacing" text-decoration="underline" textLength="11.6758" x="453.1204" y="969.5332">Id</text></g><g><ellipse cx="216.0647" cy="961.9517" fill="#F1F1F1" rx="31.0647" ry="15.4517" style="stroke:#181818;stroke-width:0.5;"/><text fill="#000000" font-family="sans-serif" font-size="14" lengthAdjust="spacing" textLength="39.6895" x="196.22" y="967.0332">Status</text></g><g><ellipse cx="344.977" cy="961.9517" fill="#F1F1F1" rx="62.977" ry="15.4517" style="stroke:#181818;stroke-width:0.5;"/><text fill="#000000" font-family="sans-serif" font-size="14" lengthAdjust="spacing" textLength="84.8203" x="302.5669" y="967.0332">AmountCents</text></g><g><rect fill="#F1F1F1" height="37.6094" style="stroke:#181818;stroke-width:0.5;" width="177.9102" x="633" y="1450"/><text fill="#000000" font-family="sans-serif" font-size="14" lengthAdjust="spacing" textLength="157.9102" x="643" y="1474.5332">CONSULTANT_REVIEW</text></g><g><ellipse cx="780.9583" cy="1373.4667" fill="#F1F1F1" rx="15.4583" ry="12.9667" style="stroke:#181818;stroke-width:0.5;"/><text fill="#000000" font-family="sans-serif" font-size="14" lengthAdjust="spacing" text-decoration="underline" textLength="11.6758" x="775.1204" y="1381.0332">Id</text></g><g><ellipse cx="620.1157" cy="1373.4517" fill="#F1F1F1" rx="31.6157" ry="15.4517" style="stroke:#181818;stroke-width:0.5;"/><text fill="#000000" font-family="sans-serif" font-size="14" lengthAdjust="spacing" textLength="40.4688" x="599.8814" y="1378.5332">Rating</text></g><g><rect fill="#F1F1F1" height="37.6094" style="stroke:#181818;stroke-width:0.5;" width="175.5859" x="866" y="1450"/><text fill="#000000" font-family="sans-serif" font-size="14" lengthAdjust="spacing" textLength="155.5859" x="876" y="1474.5332">SESSION_RECORDING</text></g><g><ellipse cx="846.9583" cy="1373.4667" fill="#F1F1F1" rx="15.4583" ry="12.9667" style="stroke:#181818;stroke-width:0.5;"/><text fill="#000000" font-family="sans-serif" font-size="14" lengthAdjust="spacing" text-decoration="underline" textLength="11.6758" x="841.1204" y="1381.0332">Id</text></g><g><ellipse cx="953.879" cy="1373.4517" fill="#F1F1F1" rx="56.379" ry="15.4517" style="stroke:#181818;stroke-width:0.5;"/><text fill="#000000" font-family="sans-serif" font-size="14" lengthAdjust="spacing" textLength="75.4893" x="916.1343" y="1378.5332">RecordingId</text></g><g><rect fill="#F1F1F1" height="37.6094" style="stroke:#181818;stroke-width:0.5;" width="205.9307" x="856" y="98"/><text fill="#000000" font-family="sans-serif" font-size="14" lengthAdjust="spacing" textLength="185.9307" x="866" y="122.5332">STRIPE_WEBHOOK_EVENT</text></g><g><ellipse cx="845.9583" cy="21.4667" fill="#F1F1F1" rx="15.4583" ry="12.9667" style="stroke:#181818;stroke-width:0.5;"/><text fill="#000000" font-family="sans-serif" font-size="14" lengthAdjust="spacing" text-decoration="underline" textLength="11.6758" x="840.1204" y="29.0332">Id</text></g><g><ellipse cx="958.9308" cy="21.4517" fill="#F1F1F1" rx="62.4308" ry="15.4517" style="stroke:#181818;stroke-width:0.5;"/><text fill="#000000" font-family="sans-serif" font-size="14" lengthAdjust="spacing" textLength="84.0479" x="916.9069" y="26.5332">StripeEventId</text></g><g><ellipse cx="1113.9714" cy="21.4517" fill="#F1F1F1" rx="57.4714" ry="15.4517" style="stroke:#181818;stroke-width:0.5;"/><text fill="#000000" font-family="sans-serif" font-size="14" lengthAdjust="spacing" textLength="77.0342" x="1075.4543" y="26.5332">IsProcessed</text></g><g><rect fill="#F1F1F1" height="37.6094" style="stroke:#181818;stroke-width:0.5;" width="189.5791" x="1242" y="98"/><text fill="#000000" font-family="sans-serif" font-size="14" lengthAdjust="spacing" textLength="169.5791" x="1252" y="122.5332">PROFIT_SHARE_CONFIG</text></g><g><ellipse cx="1221.9583" cy="21.4667" fill="#F1F1F1" rx="15.4583" ry="12.9667" style="stroke:#181818;stroke-width:0.5;"/><text fill="#000000" font-family="sans-serif" font-size="14" lengthAdjust="spacing" text-decoration="underline" textLength="11.6758" x="1216.1204" y="29.0332">Id</text></g><g><ellipse cx="1337.0743" cy="21.4517" fill="#F1F1F1" rx="64.0743" ry="15.4517" style="stroke:#181818;stroke-width:0.5;"/><text fill="#000000" font-family="sans-serif" font-size="14" lengthAdjust="spacing" textLength="86.3721" x="1293.8882" y="26.5332">PaymentType</text></g><g><ellipse cx="1490.1334" cy="21.4517" fill="#F1F1F1" rx="53.6334" ry="15.4517" style="stroke:#181818;stroke-width:0.5;"/><text fill="#000000" font-family="sans-serif" font-size="14" lengthAdjust="spacing" textLength="71.6064" x="1454.3302" y="26.5332">Percentage</text></g><g><rect fill="#F1F1F1" height="37.6094" style="stroke:#181818;stroke-width:0.5;" width="200.4824" x="1609" y="98"/><text fill="#000000" font-family="sans-serif" font-size="14" lengthAdjust="spacing" textLength="180.4824" x="1619" y="122.5332">FINANCIAL_CONFIG_RULE</text></g><g><ellipse cx="1593.9583" cy="21.4667" fill="#F1F1F1" rx="15.4583" ry="12.9667" style="stroke:#181818;stroke-width:0.5;"/><text fill="#000000" font-family="sans-serif" font-size="14" lengthAdjust="spacing" text-decoration="underline" textLength="11.6758" x="1588.1204" y="29.0332">Id</text></g><g><ellipse cx="1709.0743" cy="21.4517" fill="#F1F1F1" rx="64.0743" ry="15.4517" style="stroke:#181818;stroke-width:0.5;"/><text fill="#000000" font-family="sans-serif" font-size="14" lengthAdjust="spacing" textLength="86.3721" x="1665.8882" y="26.5332">PaymentType</text></g><g><ellipse cx="1839.0647" cy="21.4517" fill="#F1F1F1" rx="31.0647" ry="15.4517" style="stroke:#181818;stroke-width:0.5;"/><text fill="#000000" font-family="sans-serif" font-size="14" lengthAdjust="spacing" textLength="39.6895" x="1819.22" y="26.5332">Status</text></g><g><polygon fill="#F1F1F1" points="480,321.0413,548.0827,287,616.1654,321.0413,548.0827,355.0827" style="stroke:#181818;stroke-width:0.5;stroke-linejoin:miter;stroke-miterlimit:10;"/><text fill="#000000" font-family="sans-serif" font-size="14" lengthAdjust="spacing" textLength="78.5859" x="508.7897" y="326.7699">PUBLISHES</text></g><g><polygon fill="#F1F1F1" points="674.5,570.8431,728.1862,544,781.8724,570.8431,728.1862,597.6862" style="stroke:#181818;stroke-width:0.5;stroke-linejoin:miter;stroke-miterlimit:10;"/><text fill="#000000" font-family="sans-serif" font-size="14" lengthAdjust="spacing" textLength="49.793" x="703.2897" y="576.5716">BOOKS</text></g><g><polygon fill="#F1F1F1" points="751.5,419.2276,819.9552,385,888.4105,419.2276,819.9552,453.4552" style="stroke:#181818;stroke-width:0.5;stroke-linejoin:miter;stroke-miterlimit:10;"/><text fill="#000000" font-family="sans-serif" font-size="14" lengthAdjust="spacing" textLength="79.3311" x="780.2897" y="424.9561">CONDUCTS</text></g><g><polygon fill="#F1F1F1" points="526,850.4569,592.9137,817,659.8275,850.4569,592.9137,883.9137" style="stroke:#181818;stroke-width:0.5;stroke-linejoin:miter;stroke-miterlimit:10;"/><text fill="#000000" font-family="sans-serif" font-size="14" lengthAdjust="spacing" textLength="76.248" x="554.7897" y="856.1854">RESERVES</text></g><g><polygon fill="#F1F1F1" points="514.5,1255.7638,588.0275,1219,661.555,1255.7638,588.0275,1292.5275" style="stroke:#181818;stroke-width:0.5;stroke-linejoin:miter;stroke-miterlimit:10;"/><text fill="#000000" font-family="sans-serif" font-size="14" lengthAdjust="spacing" textLength="89.4756" x="543.2897" y="1261.4923">SETTLED_BY</text></g><g><polygon fill="#F1F1F1" points="697.5,1255.8724,763.2448,1223,828.9896,1255.8724,763.2448,1288.7448" style="stroke:#181818;stroke-width:0.5;stroke-linejoin:miter;stroke-miterlimit:10;"/><text fill="#000000" font-family="sans-serif" font-size="14" lengthAdjust="spacing" textLength="73.9102" x="726.2897" y="1261.6009">RATED_BY</text></g><g><polygon fill="#F1F1F1" points="926,1256.0396,1008.0793,1215,1090.1585,1256.0396,1008.0793,1297.0793" style="stroke:#181818;stroke-width:0.5;stroke-linejoin:miter;stroke-miterlimit:10;"/><text fill="#000000" font-family="sans-serif" font-size="14" lengthAdjust="spacing" textLength="106.5791" x="954.7897" y="1261.7681">RECORDED_AS</text></g><g><polygon fill="#F1F1F1" points="286,1255.9,363.8,1217,441.5999,1255.9,363.8,1294.8" style="stroke:#181818;stroke-width:0.5;stroke-linejoin:miter;stroke-miterlimit:10;"/><text fill="#000000" font-family="sans-serif" font-size="14" lengthAdjust="spacing" textLength="98.0205" x="314.7897" y="1261.6285">AGGREGATES</text></g><!--link USER/Id to USER--><g class="link" data-entity-1="ent0002" data-entity-2="ent0001" data-link-type="association" data-source-line="228" id="lnk3"><path d="M692.9,33.96 C699.71,49.86 712.07,78.77 720.16,97.68" fill="none" id="USER/Id-USER" style="stroke:#181818;stroke-width:1;"/></g><!--link USER/Email to USER--><g class="link" data-entity-1="ent0004" data-entity-2="ent0001" data-link-type="association" data-source-line="229" id="lnk5"><path d="M761.08,36.7 C754.26,53.05 743.04,79.94 735.59,97.81" fill="none" id="USER/Email-USER" style="stroke:#181818;stroke-width:1;"/></g><!--link AVAILABILITY/Id to AVAILABILITY--><g class="link" data-entity-1="ent0007" data-entity-2="ent0006" data-link-type="association" data-source-line="232" id="lnk8"><path d="M549.58,511.74 C550.81,537.46 553.67,597.24 555.12,627.6" fill="none" id="AVAILABILITY/Id-AVAILABILITY" style="stroke:#181818;stroke-width:1;"/></g><!--link AVAILABILITY/IsActive to AVAILABILITY--><g class="link" data-entity-1="ent0009" data-entity-2="ent0006" data-link-type="association" data-source-line="233" id="lnk10"><path d="M629.09,513.81 C614.28,540.6 582.41,598.24 566.08,627.76" fill="none" id="AVAILABILITY/IsActive-AVAILABILITY" style="stroke:#181818;stroke-width:1;"/></g><!--link BOOKING/Id to BOOKING--><g class="link" data-entity-1="ent0012" data-entity-2="ent0011" data-link-type="association" data-source-line="236" id="lnk13"><path d="M863.63,973.25 C855.32,983.15 841.99,998.31 829,1010 C817.11,1020.7 802.92,1031.39 790.84,1039.95" fill="none" id="BOOKING/Id-BOOKING" style="stroke:#181818;stroke-width:1;"/></g><!--link BOOKING/ScheduledStartAt to BOOKING--><g class="link" data-entity-1="ent0014" data-entity-2="ent0011" data-link-type="association" data-source-line="237" id="lnk15"><path d="M961.77,977.02 C920.55,993.9 851.31,1022.25 806.66,1040.53" fill="none" id="BOOKING/ScheduledStartAt-BOOKING" style="stroke:#181818;stroke-width:1;"/></g><!--link BOOKING/Status to BOOKING--><g class="link" data-entity-1="ent0016" data-entity-2="ent0011" data-link-type="association" data-source-line="238" id="lnk17"><path d="M1110.18,971.5 C1102.47,974.04 1093.92,976.74 1086,979 C986.79,1007.33 868.64,1034.72 806.72,1048.59" fill="none" id="BOOKING/Status-BOOKING" style="stroke:#181818;stroke-width:1;"/></g><!--link BOOKING/PriceUsd to BOOKING--><g class="link" data-entity-1="ent0018" data-entity-2="ent0011" data-link-type="association" data-source-line="239" id="lnk19"><path d="M574.42,975.56 C591.8,985.5 617.09,999.43 640,1010 C666.52,1022.23 697.1,1034.1 721.27,1042.97" fill="none" id="BOOKING/PriceUsd-BOOKING" style="stroke:#181818;stroke-width:1;"/></g><!--link PAYMENT/Id to PAYMENT--><g class="link" data-entity-1="ent0021" data-entity-2="ent0020" data-link-type="association" data-source-line="242" id="lnk22"><path d="M437.62,1385.73 C431.52,1395.69 421.57,1410.16 410,1420 C395.87,1432.02 378.21,1442.14 362.16,1449.94" fill="none" id="PAYMENT/Id-PAYMENT" style="stroke:#181818;stroke-width:1;"/></g><!--link PAYMENT/Type to PAYMENT--><g class="link" data-entity-1="ent0023" data-entity-2="ent0020" data-link-type="association" data-source-line="243" id="lnk24"><path d="M52.34,1381.96 C58.95,1384.25 66.27,1386.75 73,1389 C142.95,1412.35 224.51,1438.42 273.65,1454" fill="none" id="PAYMENT/Type-PAYMENT" style="stroke:#181818;stroke-width:1;"/></g><!--link PAYMENT/Status to PAYMENT--><g class="link" data-entity-1="ent0025" data-entity-2="ent0020" data-link-type="association" data-source-line="244" id="lnk26"><path d="M143.72,1384.86 C176.62,1400.55 239.51,1430.55 280.06,1449.9" fill="none" id="PAYMENT/Status-PAYMENT" style="stroke:#181818;stroke-width:1;"/></g><!--link PAYMENT/AmountCents to PAYMENT--><g class="link" data-entity-1="ent0027" data-entity-2="ent0020" data-link-type="association" data-source-line="245" id="lnk28"><path d="M261.47,1389.11 C273.25,1405.54 292.38,1432.25 305.08,1449.97" fill="none" id="PAYMENT/AmountCents-PAYMENT" style="stroke:#181818;stroke-width:1;"/></g><!--link PAYOUT/Id to PAYOUT--><g class="link" data-entity-1="ent0030" data-entity-2="ent0029" data-link-type="association" data-source-line="248" id="lnk31"><path d="M449.12,972.11 C432.31,987.62 397.8,1019.45 375.84,1039.7" fill="none" id="PAYOUT/Id-PAYOUT" style="stroke:#181818;stroke-width:1;"/></g><!--link PAYOUT/Status to PAYOUT--><g class="link" data-entity-1="ent0032" data-entity-2="ent0029" data-link-type="association" data-source-line="249" id="lnk33"><path d="M233.45,974.84 C257.56,991.2 301.29,1020.87 329.47,1039.99" fill="none" id="PAYOUT/Status-PAYOUT" style="stroke:#181818;stroke-width:1;"/></g><!--link PAYOUT/AmountCents to PAYOUT--><g class="link" data-entity-1="ent0034" data-entity-2="ent0029" data-link-type="association" data-source-line="250" id="lnk35"><path d="M346.72,977.84 C348.65,994.54 351.79,1021.68 353.88,1039.68" fill="none" id="PAYOUT/AmountCents-PAYOUT" style="stroke:#181818;stroke-width:1;"/></g><!--link CONSULTANT_REVIEW/Id to CONSULTANT_REVIEW--><g class="link" data-entity-1="ent0037" data-entity-2="ent0036" data-link-type="association" data-source-line="253" id="lnk38"><path d="M774.23,1385.23 C764.3,1400.96 745.66,1430.5 733.54,1449.71" fill="none" id="CONSULTANT_REVIEW/Id-CONSULTANT_REVIEW" style="stroke:#181818;stroke-width:1;"/></g><!--link CONSULTANT_REVIEW/Rating to CONSULTANT_REVIEW--><g class="link" data-entity-1="ent0039" data-entity-2="ent0036" data-link-type="association" data-source-line="254" id="lnk40"><path d="M634.18,1387.5 C651.92,1403.76 682.37,1431.68 702.35,1449.99" fill="none" id="CONSULTANT_REVIEW/Rating-CONSULTANT_REVIEW" style="stroke:#181818;stroke-width:1;"/></g><!--link SESSION_RECORDING/Id to SESSION_RECORDING--><g class="link" data-entity-1="ent0042" data-entity-2="ent0041" data-link-type="association" data-source-line="257" id="lnk43"><path d="M857.26,1383.47 C874.73,1398.73 910.58,1430.05 933.39,1449.99" fill="none" id="SESSION_RECORDING/Id-SESSION_RECORDING" style="stroke:#181818;stroke-width:1;"/></g><!--link SESSION_RECORDING/RecordingId to SESSION_RECORDING--><g class="link" data-entity-1="ent0044" data-entity-2="ent0041" data-link-type="association" data-source-line="258" id="lnk45"><path d="M954,1389.11 C954,1405.54 954,1432.25 954,1449.97" fill="none" id="SESSION_RECORDING/RecordingId-SESSION_RECORDING" style="stroke:#181818;stroke-width:1;"/></g><!--link STRIPE_WEBHOOK_EVENT/Id to STRIPE_WEBHOOK_EVENT--><g class="link" data-entity-1="ent0047" data-entity-2="ent0046" data-link-type="association" data-source-line="261" id="lnk48"><path d="M856.43,31.13 C874.68,46.23 912.77,77.74 937.04,97.83" fill="none" id="STRIPE_WEBHOOK_EVENT/Id-STRIPE_WEBHOOK_EVENT" style="stroke:#181818;stroke-width:1;"/></g><!--link STRIPE_WEBHOOK_EVENT/StripeEventId to STRIPE_WEBHOOK_EVENT--><g class="link" data-entity-1="ent0049" data-entity-2="ent0046" data-link-type="association" data-source-line="262" id="lnk50"><path d="M959,37.11 C959,53.54 959,80.25 959,97.97" fill="none" id="STRIPE_WEBHOOK_EVENT/StripeEventId-STRIPE_WEBHOOK_EVENT" style="stroke:#181818;stroke-width:1;"/></g><!--link STRIPE_WEBHOOK_EVENT/IsProcessed to STRIPE_WEBHOOK_EVENT--><g class="link" data-entity-1="ent0051" data-entity-2="ent0046" data-link-type="association" data-source-line="263" id="lnk52"><path d="M1091.79,35.9 C1064.75,52.21 1018.98,79.82 988.87,97.98" fill="none" id="STRIPE_WEBHOOK_EVENT/IsProcessed-STRIPE_WEBHOOK_EVENT" style="stroke:#181818;stroke-width:1;"/></g><!--link PROFIT_SHARE_CONFIG/Id to PROFIT_SHARE_CONFIG--><g class="link" data-entity-1="ent0054" data-entity-2="ent0053" data-link-type="association" data-source-line="266" id="lnk55"><path d="M1232.61,31.13 C1251.18,46.23 1289.95,77.74 1314.66,97.83" fill="none" id="PROFIT_SHARE_CONFIG/Id-PROFIT_SHARE_CONFIG" style="stroke:#181818;stroke-width:1;"/></g><!--link PROFIT_SHARE_CONFIG/PaymentType to PROFIT_SHARE_CONFIG--><g class="link" data-entity-1="ent0056" data-entity-2="ent0053" data-link-type="association" data-source-line="267" id="lnk57"><path d="M1337,37.11 C1337,53.54 1337,80.25 1337,97.97" fill="none" id="PROFIT_SHARE_CONFIG/PaymentType-PROFIT_SHARE_CONFIG" style="stroke:#181818;stroke-width:1;"/></g><!--link PROFIT_SHARE_CONFIG/Percentage to PROFIT_SHARE_CONFIG--><g class="link" data-entity-1="ent0058" data-entity-2="ent0053" data-link-type="association" data-source-line="268" id="lnk59"><path d="M1468.4,35.7 C1441.8,51.96 1396.46,79.66 1366.62,97.9" fill="none" id="PROFIT_SHARE_CONFIG/Percentage-PROFIT_SHARE_CONFIG" style="stroke:#181818;stroke-width:1;"/></g><!--link FINANCIAL_CONFIG_RULE/Id to FINANCIAL_CONFIG_RULE--><g class="link" data-entity-1="ent0061" data-entity-2="ent0060" data-link-type="association" data-source-line="271" id="lnk62"><path d="M1604.61,31.13 C1623.18,46.23 1661.95,77.74 1686.66,97.83" fill="none" id="FINANCIAL_CONFIG_RULE/Id-FINANCIAL_CONFIG_RULE" style="stroke:#181818;stroke-width:1;"/></g><!--link FINANCIAL_CONFIG_RULE/PaymentType to FINANCIAL_CONFIG_RULE--><g class="link" data-entity-1="ent0063" data-entity-2="ent0060" data-link-type="association" data-source-line="272" id="lnk64"><path d="M1709,37.11 C1709,53.54 1709,80.25 1709,97.97" fill="none" id="FINANCIAL_CONFIG_RULE/PaymentType-FINANCIAL_CONFIG_RULE" style="stroke:#181818;stroke-width:1;"/></g><!--link FINANCIAL_CONFIG_RULE/Status to FINANCIAL_CONFIG_RULE--><g class="link" data-entity-1="ent0065" data-entity-2="ent0060" data-link-type="association" data-source-line="273" id="lnk66"><path d="M1822,34.72 C1799.71,50.76 1760.38,79.05 1734.5,97.66" fill="none" id="FINANCIAL_CONFIG_RULE/Status-FINANCIAL_CONFIG_RULE" style="stroke:#181818;stroke-width:1;"/></g><!--link USER to PUBLISHES--><g class="link" data-entity-1="ent0001" data-entity-2="ent0067" data-link-type="association" data-source-line="291" id="lnk75"><path d="M711.71,136.28 C678.82,173.19 604.57,256.51 568.48,297.02" fill="none" id="USER-PUBLISHES" style="stroke:#181818;stroke-width:1;"/><text fill="#000000" font-family="sans-serif" font-size="11" lengthAdjust="spacing" textLength="6.1177" x="659" y="209.4189">1</text></g><!--link PUBLISHES to AVAILABILITY--><g class="link" data-entity-1="ent0067" data-entity-2="ent0006" data-link-type="association" data-source-line="292" id="lnk76"><path d="M535.52,348.92 C519.88,385.96 496.36,454.79 507,514 C514.61,556.34 534.91,602.86 546.86,627.79" fill="none" style="stroke:#181818;stroke-width:3.6;"/><path d="M535.52,348.92 C519.88,385.96 496.36,454.79 507,514 C514.61,556.34 534.91,602.86 546.86,627.79" fill="none" style="stroke:#FFFFFF;stroke-width:1.8;"/><text fill="#000000" font-family="sans-serif" font-size="11" lengthAdjust="spacing" textLength="7.9438" x="508" y="503.4189">N</text></g><!--link USER to BOOKS--><g class="link" data-entity-1="ent0001" data-entity-2="ent0068" data-link-type="association" data-source-line="293" id="lnk77"><path d="M728,136.01 C728,153.32 728,180.2 728,203.5 C728,203.5 728,203.5 728,420 C728,463.49 728,514.07 728,543.99" fill="none" id="USER-BOOKS" style="stroke:#181818;stroke-width:1;"/><text fill="#000000" font-family="sans-serif" font-size="11" lengthAdjust="spacing" textLength="6.1177" x="729" y="254.4189">1</text></g><!--link BOOKS to BOOKING--><g class="link" data-entity-1="ent0068" data-entity-2="ent0011" data-link-type="association" data-source-line="294" id="lnk78"><path d="M728,598.13 C728,623.22 728,662.2 728,696 C728,696 728,696 728,963 C728,991.22 742.06,1021.27 752.61,1039.85" fill="none" style="stroke:#181818;stroke-width:3.6;"/><path d="M728,598.13 C728,623.22 728,662.2 728,696 C728,696 728,696 728,963 C728,991.22 742.06,1021.27 752.61,1039.85" fill="none" style="stroke:#FFFFFF;stroke-width:1.8;"/><text fill="#000000" font-family="sans-serif" font-size="11" lengthAdjust="spacing" textLength="7.9438" x="729" y="784.4189">N</text></g><!--link USER to CONDUCTS--><g class="link" data-entity-1="ent0001" data-entity-2="ent0069" data-link-type="association" data-source-line="295" id="lnk79"><path d="M739.2,136.19 C744.24,144.96 749.96,155.78 754,166 C784.5,243.18 805.18,339.19 814.46,387.38" fill="none" id="USER-CONDUCTS" style="stroke:#181818;stroke-width:1;"/><text fill="#000000" font-family="sans-serif" font-size="11" lengthAdjust="spacing" textLength="6.1177" x="772" y="209.4189">1</text></g><!--link CONDUCTS to BOOKING--><g class="link" data-entity-1="ent0069" data-entity-2="ent0011" data-link-type="association" data-source-line="296" id="lnk80"><path d="M817.22,451.64 C807.24,565.41 773.33,951.7 765.58,1039.95" fill="none" style="stroke:#181818;stroke-width:3.6;"/><path d="M817.22,451.64 C807.24,565.41 773.33,951.7 765.58,1039.95" fill="none" style="stroke:#FFFFFF;stroke-width:1.8;"/><text fill="#000000" font-family="sans-serif" font-size="11" lengthAdjust="spacing" textLength="7.9438" x="795" y="739.4189">N</text></g><!--link AVAILABILITY to RESERVES--><g class="link" data-entity-1="ent0006" data-entity-2="ent0070" data-link-type="association" data-source-line="297" id="lnk81"><path d="M559.35,666.24 C565.73,701.02 579.71,777.12 587.49,819.5" fill="none" id="AVAILABILITY-RESERVES" style="stroke:#181818;stroke-width:1;"/><text fill="#000000" font-family="sans-serif" font-size="11" lengthAdjust="spacing" textLength="6.1177" x="575" y="739.4189">1</text></g><!--link RESERVES to BOOKING--><g class="link" data-entity-1="ent0070" data-entity-2="ent0011" data-link-type="association" data-source-line="298" id="lnk82"><path d="M607.26,877.15 C626.28,910.06 662.2,967.89 702,1010 C712.38,1020.98 725.41,1031.46 736.85,1039.82" fill="none" id="RESERVES-BOOKING" style="stroke:#181818;stroke-width:1;"/><text fill="#000000" font-family="sans-serif" font-size="11" lengthAdjust="spacing" textLength="7.9438" x="676" y="966.9189">N</text></g><!--link BOOKING to SETTLED_BY--><g class="link" data-entity-1="ent0011" data-entity-2="ent0071" data-link-type="association" data-source-line="299" id="lnk83"><path d="M747.44,1078.35 C715.7,1113.52 646.24,1190.47 610.39,1230.19" fill="none" id="BOOKING-SETTLED_BY" style="stroke:#181818;stroke-width:1;"/><text fill="#000000" font-family="sans-serif" font-size="11" lengthAdjust="spacing" textLength="6.1177" x="694" y="1151.4189">1</text></g><!--link SETTLED_BY to PAYMENT--><g class="link" data-entity-1="ent0071" data-entity-2="ent0020" data-link-type="association" data-source-line="300" id="lnk84"><path d="M570.65,1284.27 C545.73,1321.09 496.21,1385.99 437,1420 C413.34,1433.59 385.07,1445.17 362.03,1453.54" fill="none" id="SETTLED_BY-PAYMENT" style="stroke:#181818;stroke-width:1;"/><text fill="#000000" font-family="sans-serif" font-size="11" lengthAdjust="spacing" textLength="6.1177" x="513" y="1378.4189">1</text></g><!--link BOOKING to RATED_BY--><g class="link" data-entity-1="ent0011" data-entity-2="ent0072" data-link-type="association" data-source-line="301" id="lnk85"><path d="M763.91,1078.35 C763.74,1111.43 763.38,1181.49 763.17,1222.75" fill="none" id="BOOKING-RATED_BY" style="stroke:#181818;stroke-width:1;"/><text fill="#000000" font-family="sans-serif" font-size="11" lengthAdjust="spacing" textLength="6.1177" x="765" y="1151.4189">1</text></g><!--link RATED_BY to CONSULTANT_REVIEW--><g class="link" data-entity-1="ent0072" data-entity-2="ent0036" data-link-type="association" data-source-line="302" id="lnk86"><path d="M755.98,1285.63 C751.16,1305.8 744.8,1333.47 740,1358 C733.73,1390.1 727.89,1427.75 724.65,1449.64" fill="none" id="RATED_BY-CONSULTANT_REVIEW" style="stroke:#181818;stroke-width:1;"/><text fill="#000000" font-family="sans-serif" font-size="11" lengthAdjust="spacing" textLength="6.1177" x="741" y="1378.4189">1</text></g><!--link BOOKING to RECORDED_AS--><g class="link" data-entity-1="ent0011" data-entity-2="ent0073" data-link-type="association" data-source-line="303" id="lnk87"><path d="M786.95,1078.35 C830.97,1113.52 927.26,1190.47 976.96,1230.19" fill="none" id="BOOKING-RECORDED_AS" style="stroke:#181818;stroke-width:1;"/><text fill="#000000" font-family="sans-serif" font-size="11" lengthAdjust="spacing" textLength="6.1177" x="882" y="1151.4189">1</text></g><!--link RECORDED_AS to SESSION_RECORDING--><g class="link" data-entity-1="ent0073" data-entity-2="ent0041" data-link-type="association" data-source-line="304" id="lnk88"><path d="M1022.21,1290.07 C1031.84,1317.43 1040.69,1356.88 1028,1389 C1018.19,1413.82 996.5,1435.41 979.12,1449.72" fill="none" style="stroke:#181818;stroke-width:3.6;"/><path d="M1022.21,1290.07 C1031.84,1317.43 1040.69,1356.88 1028,1389 C1018.19,1413.82 996.5,1435.41 979.12,1449.72" fill="none" style="stroke:#FFFFFF;stroke-width:1.8;"/><text fill="#000000" font-family="sans-serif" font-size="11" lengthAdjust="spacing" textLength="7.9438" x="1036" y="1378.4189">N</text></g><!--link PAYOUT to AGGREGATES--><g class="link" data-entity-1="ent0029" data-entity-2="ent0074" data-link-type="association" data-source-line="305" id="lnk89"><path d="M356.75,1078.35 C358.06,1110.11 360.76,1175.93 362.47,1217.65" fill="none" id="PAYOUT-AGGREGATES" style="stroke:#181818;stroke-width:1;"/><text fill="#000000" font-family="sans-serif" font-size="11" lengthAdjust="spacing" textLength="6.1177" x="361" y="1151.4189">1</text></g><!--link AGGREGATES to PAYMENT--><g class="link" data-entity-1="ent0074" data-entity-2="ent0020" data-link-type="association" data-source-line="306" id="lnk90"><path d="M356.51,1291.37 C346.63,1336.68 329.61,1414.75 321.94,1449.91" fill="none" id="AGGREGATES-PAYMENT" style="stroke:#181818;stroke-width:1;"/><text fill="#000000" font-family="sans-serif" font-size="11" lengthAdjust="spacing" textLength="7.9438" x="343" y="1378.4189">N</text></g><?plantuml-src XLJHRgCm47ptL_03gQvLTKzjLKCsYNKS8DkaoXD2OBMe2KJWL8gg_dlN2SHGQFl6iZFBpjZ3OwFJMcSlgdG0-3nng-grA9-JA3tkLAcRXASQwuPWKUYZ4mlWpZjn79OxTtUlwlZmW0Niqc9BFZeGNLFcKvVvJ6x6ODRGJ1TlokBTCFp7WkKOAd2n_B1LkJ1RKcrUwLGV6do8wY9JSPFRCH7T_8T0ZiV8urxrgNHN7Khj6Nq3TXXFa7zcUM4WOb_IG2OSrWoUnWFE3bgA025O623U2_byKZTNMLNdo68zUK9o5a7o1EuA_KfWFQbLwBhOAtX34fADsr5TPQffLDyf7YwOJCIASaXGme9DBD5UWTQyIDKPLkbpxzmMBA21nwZVpaXuxCDlWre_FqYjjkXCLJOlnTw9OjTdOWK2wLzQvdPClCPFpcDFJdGuu2LTJuqI8AKFUCit4omgl-kS3WgRT68aNIuvB95xxftoCRkUMK74IhiFxWVPiEYJHd9MQb1j8YoWKqikilkmGU0ClBE0NBoO1RCBlCkRGLfBIC-Tau9pd0RepYHoSQjTRXY28SVQH_fM6W6ZB90sXePehIKzbusGRhL7LURctqN8zTNDdvk_LxUV?></g></svg>