<svg id="mermaid-1779515653020" width="100%" xmlns="http://www.w3.org/2000/svg" xmlns:xlink="http://www.w3.org/1999/xlink" class="classDiagram" style="max-width: 1416.5px;" viewBox="0 0 1416.5 522" role="graphics-document document" aria-roledescription="class"><style>#mermaid-1779515653020{font-family:"trebuchet ms",verdana,arial,sans-serif;font-size:16px;fill:#333;}@keyframes edge-animation-frame{from{stroke-dashoffset:0;}}@keyframes dash{to{stroke-dashoffset:0;}}#mermaid-1779515653020 .edge-animation-slow{stroke-dasharray:9,5!important;stroke-dashoffset:900;animation:dash 50s linear infinite;stroke-linecap:round;}#mermaid-1779515653020 .edge-animation-fast{stroke-dasharray:9,5!important;stroke-dashoffset:900;animation:dash 20s linear infinite;stroke-linecap:round;}#mermaid-1779515653020 .error-icon{fill:#552222;}#mermaid-1779515653020 .error-text{fill:#552222;stroke:#552222;}#mermaid-1779515653020 .edge-thickness-normal{stroke-width:1px;}#mermaid-1779515653020 .edge-thickness-thick{stroke-width:3.5px;}#mermaid-1779515653020 .edge-pattern-solid{stroke-dasharray:0;}#mermaid-1779515653020 .edge-thickness-invisible{stroke-width:0;fill:none;}#mermaid-1779515653020 .edge-pattern-dashed{stroke-dasharray:3;}#mermaid-1779515653020 .edge-pattern-dotted{stroke-dasharray:2;}#mermaid-1779515653020 .marker{fill:#333333;stroke:#333333;}#mermaid-1779515653020 .marker.cross{stroke:#333333;}#mermaid-1779515653020 svg{font-family:"trebuchet ms",verdana,arial,sans-serif;font-size:16px;}#mermaid-1779515653020 p{margin:0;}#mermaid-1779515653020 g.classGroup text{fill:#9370DB;stroke:none;font-family:"trebuchet ms",verdana,arial,sans-serif;font-size:10px;}#mermaid-1779515653020 g.classGroup text .title{font-weight:bolder;}#mermaid-1779515653020 .cluster-label text{fill:#333;}#mermaid-1779515653020 .cluster-label span{color:#333;}#mermaid-1779515653020 .cluster-label span p{background-color:transparent;}#mermaid-1779515653020 .cluster rect{fill:#ffffde;stroke:#aaaa33;stroke-width:1px;}#mermaid-1779515653020 .cluster text{fill:#333;}#mermaid-1779515653020 .cluster span{color:#333;}#mermaid-1779515653020 .nodeLabel,#mermaid-1779515653020 .edgeLabel{color:#131300;}#mermaid-1779515653020 .edgeLabel .label rect{fill:#ECECFF;}#mermaid-1779515653020 .label text{fill:#131300;}#mermaid-1779515653020 .labelBkg{background:#ECECFF;}#mermaid-1779515653020 .edgeLabel .label span{background:#ECECFF;}#mermaid-1779515653020 .classTitle{font-weight:bolder;}#mermaid-1779515653020 .node rect,#mermaid-1779515653020 .node circle,#mermaid-1779515653020 .node ellipse,#mermaid-1779515653020 .node polygon,#mermaid-1779515653020 .node path{fill:#ECECFF;stroke:#9370DB;stroke-width:1px;}#mermaid-1779515653020 .divider{stroke:#9370DB;stroke-width:1;}#mermaid-1779515653020 g.clickable{cursor:pointer;}#mermaid-1779515653020 g.classGroup rect{fill:#ECECFF;stroke:#9370DB;}#mermaid-1779515653020 g.classGroup line{stroke:#9370DB;stroke-width:1;}#mermaid-1779515653020 .classLabel .box{stroke:none;stroke-width:0;fill:#ECECFF;opacity:0.5;}#mermaid-1779515653020 .classLabel .label{fill:#9370DB;font-size:10px;}#mermaid-1779515653020 .relation{stroke:#333333;stroke-width:1;fill:none;}#mermaid-1779515653020 .dashed-line{stroke-dasharray:3;}#mermaid-1779515653020 .dotted-line{stroke-dasharray:1 2;}#mermaid-1779515653020 #compositionStart,#mermaid-1779515653020 .composition{fill:#333333!important;stroke:#333333!important;stroke-width:1;}#mermaid-1779515653020 #compositionEnd,#mermaid-1779515653020 .composition{fill:#333333!important;stroke:#333333!important;stroke-width:1;}#mermaid-1779515653020 #dependencyStart,#mermaid-1779515653020 .dependency{fill:#333333!important;stroke:#333333!important;stroke-width:1;}#mermaid-1779515653020 #dependencyStart,#mermaid-1779515653020 .dependency{fill:#333333!important;stroke:#333333!important;stroke-width:1;}#mermaid-1779515653020 #extensionStart,#mermaid-1779515653020 .extension{fill:transparent!important;stroke:#333333!important;stroke-width:1;}#mermaid-1779515653020 #extensionEnd,#mermaid-1779515653020 .extension{fill:transparent!important;stroke:#333333!important;stroke-width:1;}#mermaid-1779515653020 #aggregationStart,#mermaid-1779515653020 .aggregation{fill:transparent!important;stroke:#333333!important;stroke-width:1;}#mermaid-1779515653020 #aggregationEnd,#mermaid-1779515653020 .aggregation{fill:transparent!important;stroke:#333333!important;stroke-width:1;}#mermaid-1779515653020 #lollipopStart,#mermaid-1779515653020 .lollipop{fill:#ECECFF!important;stroke:#333333!important;stroke-width:1;}#mermaid-1779515653020 #lollipopEnd,#mermaid-1779515653020 .lollipop{fill:#ECECFF!important;stroke:#333333!important;stroke-width:1;}#mermaid-1779515653020 .edgeTerminals{font-size:11px;line-height:initial;}#mermaid-1779515653020 .classTitleText{text-anchor:middle;font-size:18px;fill:#333;}#mermaid-1779515653020 .label-icon{display:inline-block;height:1em;overflow:visible;vertical-align:-0.125em;}#mermaid-1779515653020 .node .label-icon path{fill:currentColor;stroke:revert;stroke-width:revert;}#mermaid-1779515653020 :root{--mermaid-font-family:"trebuchet ms",verdana,arial,sans-serif;}</style><g><defs><marker id="mermaid-1779515653020_class-aggregationStart" class="marker aggregation class" refX="18" refY="7" markerWidth="190" markerHeight="240" orient="auto"><path d="M 18,7 L9,13 L1,7 L9,1 Z"></path></marker></defs><defs><marker id="mermaid-1779515653020_class-aggregationEnd" class="marker aggregation class" refX="1" refY="7" markerWidth="20" markerHeight="28" orient="auto"><path d="M 18,7 L9,13 L1,7 L9,1 Z"></path></marker></defs><defs><marker id="mermaid-1779515653020_class-extensionStart" class="marker extension class" refX="18" refY="7" markerWidth="190" markerHeight="240" orient="auto"><path d="M 1,7 L18,13 V 1 Z"></path></marker></defs><defs><marker id="mermaid-1779515653020_class-extensionEnd" class="marker extension class" refX="1" refY="7" markerWidth="20" markerHeight="28" orient="auto"><path d="M 1,1 V 13 L18,7 Z"></path></marker></defs><defs><marker id="mermaid-1779515653020_class-compositionStart" class="marker composition class" refX="18" refY="7" markerWidth="190" markerHeight="240" orient="auto"><path d="M 18,7 L9,13 L1,7 L9,1 Z"></path></marker></defs><defs><marker id="mermaid-1779515653020_class-compositionEnd" class="marker composition class" refX="1" refY="7" markerWidth="20" markerHeight="28" orient="auto"><path d="M 18,7 L9,13 L1,7 L9,1 Z"></path></marker></defs><defs><marker id="mermaid-1779515653020_class-dependencyStart" class="marker dependency class" refX="6" refY="7" markerWidth="190" markerHeight="240" orient="auto"><path d="M 5,7 L9,13 L1,7 L9,1 Z"></path></marker></defs><defs><marker id="mermaid-1779515653020_class-dependencyEnd" class="marker dependency class" refX="13" refY="7" markerWidth="20" markerHeight="28" orient="auto"><path d="M 18,7 L9,13 L14,7 L9,1 Z"></path></marker></defs><defs><marker id="mermaid-1779515653020_class-lollipopStart" class="marker lollipop class" refX="13" refY="7" markerWidth="190" markerHeight="240" orient="auto"><circle fill="transparent" cx="7" cy="7" r="6"></circle></marker></defs><defs><marker id="mermaid-1779515653020_class-lollipopEnd" class="marker lollipop class" refX="1" refY="7" markerWidth="190" markerHeight="240" orient="auto"><circle fill="transparent" cx="7" cy="7" r="6"></circle></marker></defs><g class="root"><g class="clusters"></g><g class="edgePaths"><path d="M615.191,154.886L541.627,172.571C468.063,190.257,320.936,225.629,247.372,249.481C173.809,273.333,173.809,285.667,173.809,291.833L173.809,298" id="id_USER_STUDENT_1" class=" edge-thickness-normal edge-pattern-solid relation" style=";;;" data-edge="true" data-et="edge" data-id="id_USER_STUDENT_1" data-points="W3sieCI6NjMxLjk2Mjg5MDYyNSwieSI6MTUwLjg1MzQxNjkyNTQ2MzN9LHsieCI6MTczLjgwODU5Mzc1LCJ5IjoyNjF9LHsieCI6MTczLjgwODU5Mzc1LCJ5IjoyOTh9XQ==" marker-start="url(#mermaid-1779515653020_class-extensionStart)"></path><path d="M617.732,225.073L608.992,231.061C600.253,237.049,582.773,249.024,574.033,263.179C565.293,277.333,565.293,293.667,565.293,301.833L565.293,310" id="id_USER_COMPANY_2" class=" edge-thickness-normal edge-pattern-solid relation" style=";;;" data-edge="true" data-et="edge" data-id="id_USER_COMPANY_2" data-points="W3sieCI6NjMxLjk2Mjg5MDYyNSwieSI6MjE1LjMyMzI4MDUxNjA1MjgyfSx7IngiOjU2NS4yOTI5Njg3NSwieSI6MjYxfSx7IngiOjU2NS4yOTI5Njg3NSwieSI6MzEwfV0=" marker-start="url(#mermaid-1779515653020_class-extensionStart)"></path><path d="M936.139,225.073L944.879,231.061C953.619,237.049,971.098,249.024,979.838,263.179C988.578,277.333,988.578,293.667,988.578,301.833L988.578,310" id="id_USER_CONSULTANT_3" class=" edge-thickness-normal edge-pattern-solid relation" style=";;;" data-edge="true" data-et="edge" data-id="id_USER_CONSULTANT_3" data-points="W3sieCI6OTIxLjkwODIwMzEyNSwieSI6MjE1LjMyMzI4MDUxNjA1MjgyfSx7IngiOjk4OC41NzgxMjUsInkiOjI2MX0seyJ4Ijo5ODguNTc4MTI1LCJ5IjozMTB9XQ==" marker-start="url(#mermaid-1779515653020_class-extensionStart)"></path><path d="M938.579,158.974L1002.54,175.978C1066.501,192.983,1194.422,226.991,1258.383,259.162C1322.344,291.333,1322.344,321.667,1322.344,336.833L1322.344,352" id="id_USER_ADMIN_4" class=" edge-thickness-normal edge-pattern-solid relation" style=";;;" data-edge="true" data-et="edge" data-id="id_USER_ADMIN_4" data-points="W3sieCI6OTIxLjkwODIwMzEyNSwieSI6MTU0LjU0MTgzOTAwMzg5OTc1fSx7IngiOjEzMjIuMzQzNzUsInkiOjI2MX0seyJ4IjoxMzIyLjM0Mzc1LCJ5IjozNTJ9XQ==" marker-start="url(#mermaid-1779515653020_class-extensionStart)"></path></g><g class="edgeLabels"><g class="edgeLabel" transform="translate(173.80859375, 261)"><g class="label" data-id="id_USER_STUDENT_1" transform="translate(-12.8984375, -12)"><foreignObject width="25.796875" height="24"><div xmlns="http://www.w3.org/1999/xhtml" class="labelBkg" style="display: table-cell; white-space: nowrap; line-height: 1.5; max-width: 200px; text-align: center;"><span class="edgeLabel "><p>ISA</p></span></div></foreignObject></g></g><g class="edgeLabel" transform="translate(565.29296875, 261)"><g class="label" data-id="id_USER_COMPANY_2" transform="translate(-12.8984375, -12)"><foreignObject width="25.796875" height="24"><div xmlns="http://www.w3.org/1999/xhtml" class="labelBkg" style="display: table-cell; white-space: nowrap; line-height: 1.5; max-width: 200px; text-align: center;"><span class="edgeLabel "><p>ISA</p></span></div></foreignObject></g></g><g class="edgeLabel" transform="translate(988.578125, 261)"><g class="label" data-id="id_USER_CONSULTANT_3" transform="translate(-12.8984375, -12)"><foreignObject width="25.796875" height="24"><div xmlns="http://www.w3.org/1999/xhtml" class="labelBkg" style="display: table-cell; white-space: nowrap; line-height: 1.5; max-width: 200px; text-align: center;"><span class="edgeLabel "><p>ISA</p></span></div></foreignObject></g></g><g class="edgeLabel" transform="translate(1322.34375, 261)"><g class="label" data-id="id_USER_ADMIN_4" transform="translate(-12.8984375, -12)"><foreignObject width="25.796875" height="24"><div xmlns="http://www.w3.org/1999/xhtml" class="labelBkg" style="display: table-cell; white-space: nowrap; line-height: 1.5; max-width: 200px; text-align: center;"><span class="edgeLabel "><p>ISA</p></span></div></foreignObject></g></g></g><g class="nodes"><g class="node default " id="classId-USER-0" transform="translate(776.935546875, 116)"><g class="basic label-container"><path d="M-144.97265625 -108 L144.97265625 -108 L144.97265625 108 L-144.97265625 108" stroke="none" stroke-width="0" fill="#ECECFF" style=""></path><path d="M-144.97265625 -108 C-38.39896606550822 -108, 68.17472411898356 -108, 144.97265625 -108 M-144.97265625 -108 C-54.69221944930723 -108, 35.58821735138554 -108, 144.97265625 -108 M144.97265625 -108 C144.97265625 -63.282988121076166, 144.97265625 -18.56597624215233, 144.97265625 108 M144.97265625 -108 C144.97265625 -53.996502933224306, 144.97265625 0.006994133551387449, 144.97265625 108 M144.97265625 108 C29.270686491947302 108, -86.4312832661054 108, -144.97265625 108 M144.97265625 108 C50.34114106362793 108, -44.29037412274414 108, -144.97265625 108 M-144.97265625 108 C-144.97265625 57.37505512289691, -144.97265625 6.75011024579382, -144.97265625 -108 M-144.97265625 108 C-144.97265625 35.23804463643394, -144.97265625 -37.52391072713212, -144.97265625 -108" stroke="#9370DB" stroke-width="1.3" fill="none" stroke-dasharray="0 0" style=""></path></g><g class="annotation-group text" transform="translate(-46.6953125, -84)"><g class="label" style="" transform="translate(0,-12)"><foreignObject width="93.390625" height="24"><div xmlns="http://www.w3.org/1999/xhtml" style="display: table-cell; white-space: nowrap; line-height: 1.5; max-width: 143px; text-align: center;"><span class="nodeLabel markdown-node-label" style=""><p>«super-type»</p></span></div></foreignObject></g></g><g class="label-group text" transform="translate(-22.2265625, -60)"><g class="label" style="font-weight: bolder" transform="translate(0,-12)"><foreignObject width="44.453125" height="24"><div xmlns="http://www.w3.org/1999/xhtml" style="display: table-cell; white-space: nowrap; line-height: 1.5; max-width: 94px; text-align: center;"><span class="nodeLabel markdown-node-label" style=""><p>USER</p></span></div></foreignObject></g></g><g class="members-group text" transform="translate(-132.97265625, -12)"><g class="label" style="" transform="translate(0,-12)"><foreignObject width="60.9375" height="24"><div xmlns="http://www.w3.org/1999/xhtml" style="display: table-cell; white-space: nowrap; line-height: 1.5; max-width: 115px; text-align: center;"><span class="nodeLabel markdown-node-label" style=""><p>+Guid Id</p></span></div></foreignObject></g><g class="label" style="" transform="translate(0,12)"><foreignObject width="92.921875" height="24"><div xmlns="http://www.w3.org/1999/xhtml" style="display: table-cell; white-space: nowrap; line-height: 1.5; max-width: 147px; text-align: center;"><span class="nodeLabel markdown-node-label" style=""><p>+string Email</p></span></div></foreignObject></g><g class="label" style="" transform="translate(0,36)"><foreignObject width="219.25" height="24"><div xmlns="http://www.w3.org/1999/xhtml" style="display: table-cell; white-space: nowrap; line-height: 1.5; max-width: 274px; text-align: center;"><span class="nodeLabel markdown-node-label" style=""><p>+AccountStatus AccountStatus</p></span></div></foreignObject></g><g class="label" style="" transform="translate(0,60)"><foreignObject width="128.515625" height="24"><div xmlns="http://www.w3.org/1999/xhtml" style="display: table-cell; white-space: nowrap; line-height: 1.5; max-width: 183px; text-align: center;"><span class="nodeLabel markdown-node-label" style=""><p>+string ActiveRole</p></span></div></foreignObject></g></g><g class="methods-group text" transform="translate(-132.97265625, 108)"></g><g class="divider" style=""><path d="M-144.97265625 -36 C-52.48072897692205 -36, 40.0111982961559 -36, 144.97265625 -36 M-144.97265625 -36 C-31.391573184673916 -36, 82.18950988065217 -36, 144.97265625 -36" stroke="#9370DB" stroke-width="1.3" fill="none" stroke-dasharray="0 0" style=""></path></g><g class="divider" style=""><path d="M-144.97265625 84 C-50.900288121065586 84, 43.17208000786883 84, 144.97265625 84 M-144.97265625 84 C-79.13768668324893 84, -13.30271711649786 84, 144.97265625 84" stroke="#9370DB" stroke-width="1.3" fill="none" stroke-dasharray="0 0" style=""></path></g></g><g class="node default " id="classId-STUDENT-1" transform="translate(173.80859375, 406)"><g class="basic label-container"><path d="M-165.80859375 -108 L165.80859375 -108 L165.80859375 108 L-165.80859375 108" stroke="none" stroke-width="0" fill="#ECECFF" style=""></path><path d="M-165.80859375 -108 C-74.19993907533068 -108, 17.40871559933865 -108, 165.80859375 -108 M-165.80859375 -108 C-53.16766830537382 -108, 59.473257139252354 -108, 165.80859375 -108 M165.80859375 -108 C165.80859375 -39.97139124830066, 165.80859375 28.057217503398675, 165.80859375 108 M165.80859375 -108 C165.80859375 -63.97452990172542, 165.80859375 -19.949059803450837, 165.80859375 108 M165.80859375 108 C45.77941546389749 108, -74.24976282220501 108, -165.80859375 108 M165.80859375 108 C82.49497746167667 108, -0.8186388266466622 108, -165.80859375 108 M-165.80859375 108 C-165.80859375 62.63469272694452, -165.80859375 17.269385453889043, -165.80859375 -108 M-165.80859375 108 C-165.80859375 64.7350275739547, -165.80859375 21.47005514790939, -165.80859375 -108" stroke="#9370DB" stroke-width="1.3" fill="none" stroke-dasharray="0 0" style=""></path></g><g class="annotation-group text" transform="translate(-78.6015625, -84)"><g class="label" style="" transform="translate(0,-12)"><foreignObject width="157.203125" height="24"><div xmlns="http://www.w3.org/1999/xhtml" style="display: table-cell; white-space: nowrap; line-height: 1.5; max-width: 207px; text-align: center;"><span class="nodeLabel markdown-node-label" style=""><p>«role :='' academic=''»</p></span></div></foreignObject></g></g><g class="label-group text" transform="translate(-37.78125, -60)"><g class="label" style="font-weight: bolder" transform="translate(0,-12)"><foreignObject width="75.5625" height="24"><div xmlns="http://www.w3.org/1999/xhtml" style="display: table-cell; white-space: nowrap; line-height: 1.5; max-width: 126px; text-align: center;"><span class="nodeLabel markdown-node-label" style=""><p>STUDENT</p></span></div></foreignObject></g></g><g class="members-group text" transform="translate(-153.80859375, -12)"><g class="label" style="" transform="translate(0,-12)"><foreignObject width="229.015625" height="24"><div xmlns="http://www.w3.org/1999/xhtml" style="display: table-cell; white-space: nowrap; line-height: 1.5; max-width: 283px; text-align: center;"><span class="nodeLabel markdown-node-label" style=""><p>+AcademicLevel academicLevel</p></span></div></foreignObject></g><g class="label" style="" transform="translate(0,12)"><foreignObject width="140.078125" height="24"><div xmlns="http://www.w3.org/1999/xhtml" style="display: table-cell; white-space: nowrap; line-height: 1.5; max-width: 195px; text-align: center;"><span class="nodeLabel markdown-node-label" style=""><p>+string fieldOfStudy</p></span></div></foreignObject></g><g class="label" style="" transform="translate(0,36)"><foreignObject width="95.625" height="24"><div xmlns="http://www.w3.org/1999/xhtml" style="display: table-cell; white-space: nowrap; line-height: 1.5; max-width: 150px; text-align: center;"><span class="nodeLabel markdown-node-label" style=""><p>+decimal gpa</p></span></div></foreignObject></g><g class="label" style="" transform="translate(0,60)"><foreignObject width="195.203125" height="24"><div xmlns="http://www.w3.org/1999/xhtml" style="display: table-cell; white-space: nowrap; line-height: 1.5; max-width: 250px; text-align: center;"><span class="nodeLabel markdown-node-label" style=""><p>+string[] preferredCountries</p></span></div></foreignObject></g></g><g class="methods-group text" transform="translate(-153.80859375, 108)"></g><g class="divider" style=""><path d="M-165.80859375 -36 C-95.32200124369275 -36, -24.835408737385507 -36, 165.80859375 -36 M-165.80859375 -36 C-44.41368118357998 -36, 76.98123138284004 -36, 165.80859375 -36" stroke="#9370DB" stroke-width="1.3" fill="none" stroke-dasharray="0 0" style=""></path></g><g class="divider" style=""><path d="M-165.80859375 84 C-96.29726940242159 84, -26.785945054843182 84, 165.80859375 84 M-165.80859375 84 C-73.65142112409534 84, 18.50575150180933 84, 165.80859375 84" stroke="#9370DB" stroke-width="1.3" fill="none" stroke-dasharray="0 0" style=""></path></g></g><g class="node default " id="classId-COMPANY-2" transform="translate(565.29296875, 406)"><g class="basic label-container"><path d="M-175.67578125 -96 L175.67578125 -96 L175.67578125 96 L-175.67578125 96" stroke="none" stroke-width="0" fill="#ECECFF" style=""></path><path d="M-175.67578125 -96 C-100.5982935659161 -96, -25.52080588183219 -96, 175.67578125 -96 M-175.67578125 -96 C-69.42355758694328 -96, 36.82866607611345 -96, 175.67578125 -96 M175.67578125 -96 C175.67578125 -41.339669254162736, 175.67578125 13.320661491674528, 175.67578125 96 M175.67578125 -96 C175.67578125 -27.646504943133408, 175.67578125 40.706990113733184, 175.67578125 96 M175.67578125 96 C64.38373245755756 96, -46.90831633488489 96, -175.67578125 96 M175.67578125 96 C88.19317421116723 96, 0.7105671723344642 96, -175.67578125 96 M-175.67578125 96 C-175.67578125 50.25522753458997, -175.67578125 4.51045506917994, -175.67578125 -96 M-175.67578125 96 C-175.67578125 29.379043366688947, -175.67578125 -37.241913266622106, -175.67578125 -96" stroke="#9370DB" stroke-width="1.3" fill="none" stroke-dasharray="0 0" style=""></path></g><g class="annotation-group text" transform="translate(-87.9453125, -72)"><g class="label" style="" transform="translate(0,-12)"><foreignObject width="175.890625" height="24"><div xmlns="http://www.w3.org/1999/xhtml" style="display: table-cell; white-space: nowrap; line-height: 1.5; max-width: 226px; text-align: center;"><span class="nodeLabel markdown-node-label" style=""><p>«role :='' organization=''»</p></span></div></foreignObject></g></g><g class="label-group text" transform="translate(-40.296875, -48)"><g class="label" style="font-weight: bolder" transform="translate(0,-12)"><foreignObject width="80.59375" height="24"><div xmlns="http://www.w3.org/1999/xhtml" style="display: table-cell; white-space: nowrap; line-height: 1.5; max-width: 130px; text-align: center;"><span class="nodeLabel markdown-node-label" style=""><p>COMPANY</p></span></div></foreignObject></g></g><g class="members-group text" transform="translate(-163.67578125, 0)"><g class="label" style="" transform="translate(0,-12)"><foreignObject width="221.921875" height="24"><div xmlns="http://www.w3.org/1999/xhtml" style="display: table-cell; white-space: nowrap; line-height: 1.5; max-width: 276px; text-align: center;"><span class="nodeLabel markdown-node-label" style=""><p>+string organizationLegalName</p></span></div></foreignObject></g><g class="label" style="" transform="translate(0,12)"><foreignObject width="174.75" height="24"><div xmlns="http://www.w3.org/1999/xhtml" style="display: table-cell; white-space: nowrap; line-height: 1.5; max-width: 229px; text-align: center;"><span class="nodeLabel markdown-node-label" style=""><p>+string verificationStatus</p></span></div></foreignObject></g><g class="label" style="" transform="translate(0,36)"><foreignObject width="239.40625" height="24"><div xmlns="http://www.w3.org/1999/xhtml" style="display: table-cell; white-space: nowrap; line-height: 1.5; max-width: 294px; text-align: center;"><span class="nodeLabel markdown-node-label" style=""><p>+decimal companyAverageRating</p></span></div></foreignObject></g></g><g class="methods-group text" transform="translate(-163.67578125, 96)"></g><g class="divider" style=""><path d="M-175.67578125 -24 C-101.55456655265746 -24, -27.433351855314925 -24, 175.67578125 -24 M-175.67578125 -24 C-70.11299273403493 -24, 35.449795781930135 -24, 175.67578125 -24" stroke="#9370DB" stroke-width="1.3" fill="none" stroke-dasharray="0 0" style=""></path></g><g class="divider" style=""><path d="M-175.67578125 72 C-63.60448010483489 72, 48.46682104033022 72, 175.67578125 72 M-175.67578125 72 C-92.36076910195892 72, -9.045756953917845 72, 175.67578125 72" stroke="#9370DB" stroke-width="1.3" fill="none" stroke-dasharray="0 0" style=""></path></g></g><g class="node default " id="classId-CONSULTANT-3" transform="translate(988.578125, 406)"><g class="basic label-container"><path d="M-197.609375 -96 L197.609375 -96 L197.609375 96 L-197.609375 96" stroke="none" stroke-width="0" fill="#ECECFF" style=""></path><path d="M-197.609375 -96 C-94.74483670700764 -96, 8.119701585984728 -96, 197.609375 -96 M-197.609375 -96 C-41.23546513210073 -96, 115.13844473579854 -96, 197.609375 -96 M197.609375 -96 C197.609375 -45.019475411890554, 197.609375 5.961049176218893, 197.609375 96 M197.609375 -96 C197.609375 -55.478181004247794, 197.609375 -14.956362008495589, 197.609375 96 M197.609375 96 C93.7527610665122 96, -10.103852866975586 96, -197.609375 96 M197.609375 96 C73.40262256683684 96, -50.80412986632632 96, -197.609375 96 M-197.609375 96 C-197.609375 26.878680626701026, -197.609375 -42.24263874659795, -197.609375 -96 M-197.609375 96 C-197.609375 37.72502916814663, -197.609375 -20.549941663706747, -197.609375 -96" stroke="#9370DB" stroke-width="1.3" fill="none" stroke-dasharray="0 0" style=""></path></g><g class="annotation-group text" transform="translate(-66.59375, -72)"><g class="label" style="" transform="translate(0,-12)"><foreignObject width="133.1875" height="24"><div xmlns="http://www.w3.org/1999/xhtml" style="display: table-cell; white-space: nowrap; line-height: 1.5; max-width: 183px; text-align: center;"><span class="nodeLabel markdown-node-label" style=""><p>«role :='' expert=''»</p></span></div></foreignObject></g></g><g class="label-group text" transform="translate(-53.921875, -48)"><g class="label" style="font-weight: bolder" transform="translate(0,-12)"><foreignObject width="107.84375" height="24"><div xmlns="http://www.w3.org/1999/xhtml" style="display: table-cell; white-space: nowrap; line-height: 1.5; max-width: 156px; text-align: center;"><span class="nodeLabel markdown-node-label" style=""><p>CONSULTANT</p></span></div></foreignObject></g></g><g class="members-group text" transform="translate(-185.609375, 0)"><g class="label" style="" transform="translate(0,-12)"><foreignObject width="179.203125" height="24"><div xmlns="http://www.w3.org/1999/xhtml" style="display: table-cell; white-space: nowrap; line-height: 1.5; max-width: 234px; text-align: center;"><span class="nodeLabel markdown-node-label" style=""><p>+decimal sessionFeeUsd</p></span></div></foreignObject></g><g class="label" style="" transform="translate(0,12)"><foreignObject width="160.53125" height="24"><div xmlns="http://www.w3.org/1999/xhtml" style="display: table-cell; white-space: nowrap; line-height: 1.5; max-width: 215px; text-align: center;"><span class="nodeLabel markdown-node-label" style=""><p>+string[] expertiseTags</p></span></div></foreignObject></g><g class="label" style="" transform="translate(0,36)"><foreignObject width="304.625" height="24"><div xmlns="http://www.w3.org/1999/xhtml" style="display: table-cell; white-space: nowrap; line-height: 1.5; max-width: 359px; text-align: center;"><span class="nodeLabel markdown-node-label" style=""><p>+StripeConnectStatus stripeConnectStatus</p></span></div></foreignObject></g></g><g class="methods-group text" transform="translate(-185.609375, 96)"></g><g class="divider" style=""><path d="M-197.609375 -24 C-75.6354307207917 -24, 46.338513558416594 -24, 197.609375 -24 M-197.609375 -24 C-50.96784295237461 -24, 95.67368909525078 -24, 197.609375 -24" stroke="#9370DB" stroke-width="1.3" fill="none" stroke-dasharray="0 0" style=""></path></g><g class="divider" style=""><path d="M-197.609375 72 C-115.056813957975 72, -32.50425291594999 72, 197.609375 72 M-197.609375 72 C-110.6718285793235 72, -23.734282158647005 72, 197.609375 72" stroke="#9370DB" stroke-width="1.3" fill="none" stroke-dasharray="0 0" style=""></path></g></g><g class="node default " id="classId-ADMIN-4" transform="translate(1322.34375, 406)"><g class="basic label-container"><path d="M-86.15625 -54 L86.15625 -54 L86.15625 54 L-86.15625 54" stroke="none" stroke-width="0" fill="#ECECFF" style=""></path><path d="M-86.15625 -54 C-48.08542634760059 -54, -10.014602695201177 -54, 86.15625 -54 M-86.15625 -54 C-27.678530702024077 -54, 30.799188595951847 -54, 86.15625 -54 M86.15625 -54 C86.15625 -11.83605219513366, 86.15625 30.32789560973268, 86.15625 54 M86.15625 -54 C86.15625 -21.683907073656734, 86.15625 10.632185852686533, 86.15625 54 M86.15625 54 C41.6846337190925 54, -2.7869825618149946 54, -86.15625 54 M86.15625 54 C25.688799407056734 54, -34.77865118588653 54, -86.15625 54 M-86.15625 54 C-86.15625 29.164009008139598, -86.15625 4.328018016279195, -86.15625 -54 M-86.15625 54 C-86.15625 32.0836245481359, -86.15625 10.16724909627181, -86.15625 -54" stroke="#9370DB" stroke-width="1.3" fill="none" stroke-dasharray="0 0" style=""></path></g><g class="annotation-group text" transform="translate(-74.15625, -30)"><g class="label" style="" transform="translate(0,-12)"><foreignObject width="148.3125" height="24"><div xmlns="http://www.w3.org/1999/xhtml" style="display: table-cell; white-space: nowrap; line-height: 1.5; max-width: 198px; text-align: center;"><span class="nodeLabel markdown-node-label" style=""><p>«role :='' operator=''»</p></span></div></foreignObject></g></g><g class="label-group text" transform="translate(-26.21875, -6)"><g class="label" style="font-weight: bolder" transform="translate(0,-12)"><foreignObject width="52.4375" height="24"><div xmlns="http://www.w3.org/1999/xhtml" style="display: table-cell; white-space: nowrap; line-height: 1.5; max-width: 102px; text-align: center;"><span class="nodeLabel markdown-node-label" style=""><p>ADMIN</p></span></div></foreignObject></g></g><g class="members-group text" transform="translate(-74.15625, 42)"></g><g class="methods-group text" transform="translate(-74.15625, 72)"></g><g class="divider" style=""><path d="M-86.15625 18 C-29.709192775357344 18, 26.73786444928531 18, 86.15625 18 M-86.15625 18 C-23.053021757682068 18, 40.050206484635865 18, 86.15625 18" stroke="#9370DB" stroke-width="1.3" fill="none" stroke-dasharray="0 0" style=""></path></g><g class="divider" style=""><path d="M-86.15625 36 C-27.896204163809927 36, 30.363841672380147 36, 86.15625 36 M-86.15625 36 C-25.01398246554968 36, 36.12828506890064 36, 86.15625 36" stroke="#9370DB" stroke-width="1.3" fill="none" stroke-dasharray="0 0" style=""></path></g></g></g></g></g></svg>
