<?xml version="1.0" encoding="UTF-8"?>
<svg xmlns="http://www.w3.org/2000/svg" width="839" height="994" viewBox="0 0 839 994" font-family="Times New Roman,serif">
<rect width="100%" height="100%" fill="white"/>
<path d="M 272.4 172.0 V 180.0 H 14.0 V 52.0 H 203.0" fill="none" stroke="black" stroke-width="1.1"/>
<polygon points="204.0,52.0 196.0,48.0 196.0,56.0" fill="black"/>
<path d="M 352.5 172.0 V 187.0 H 26.0 V 259.0 H 203.0" fill="none" stroke="black" stroke-width="1.1"/>
<polygon points="204.0,259.0 196.0,255.0 196.0,263.0" fill="black"/>
<path d="M 446.4 172.0 V 194.0 H 38.0 V 152.0 H 203.0" fill="none" stroke="black" stroke-width="1.1"/>
<polygon points="204.0,152.0 196.0,148.0 196.0,156.0" fill="black"/>
<path d="M 300.0 469.0 V 477.0 H 50.0 V 55.0 H 203.0" fill="none" stroke="black" stroke-width="1.1" stroke-dasharray="5,3"/>
<polygon points="204.0,55.0 196.0,51.0 196.0,59.0" fill="black"/>
<path d="M 428.4 469.0 V 484.0 H 62.0 V 58.0 H 203.0" fill="none" stroke="black" stroke-width="1.1" stroke-dasharray="5,3"/>
<polygon points="204.0,58.0 196.0,54.0 196.0,62.0" fill="black"/>
<path d="M 282.8 568.0 V 576.0 H 74.0 V 156.0 H 203.0" fill="none" stroke="black" stroke-width="1.1"/>
<polygon points="204.0,156.0 196.0,152.0 196.0,160.0" fill="black"/>
<path d="M 359.4 568.0 V 583.0 H 86.0 V 61.0 H 203.0" fill="none" stroke="black" stroke-width="1.1" stroke-dasharray="5,3"/>
<polygon points="204.0,61.0 196.0,57.0 196.0,65.0" fill="black"/>
<path d="M 282.8 667.0 V 675.0 H 98.0 V 160.0 H 203.0" fill="none" stroke="black" stroke-width="1.1"/>
<polygon points="204.0,160.0 196.0,156.0 196.0,164.0" fill="black"/>
<path d="M 390.5 667.0 V 682.0 H 110.0 V 64.0 H 203.0" fill="none" stroke="black" stroke-width="1.1" stroke-dasharray="5,3"/>
<polygon points="204.0,64.0 196.0,60.0 196.0,68.0" fill="black"/>
<path d="M 282.8 766.0 V 774.0 H 122.0 V 164.0 H 203.0" fill="none" stroke="black" stroke-width="1.1"/>
<polygon points="204.0,164.0 196.0,160.0 196.0,168.0" fill="black"/>
<path d="M 359.4 766.0 V 781.0 H 134.0 V 67.0 H 203.0" fill="none" stroke="black" stroke-width="1.1" stroke-dasharray="5,3"/>
<polygon points="204.0,67.0 196.0,63.0 196.0,71.0" fill="black"/>
<path d="M 250.9 865.0 V 873.0 H 146.0 V 168.0 H 203.0" fill="none" stroke="black" stroke-width="1.1"/>
<polygon points="204.0,168.0 196.0,164.0 196.0,172.0" fill="black"/>
<path d="M 341.4 865.0 V 880.0 H 158.0 V 358.0 H 203.0" fill="none" stroke="black" stroke-width="1.1"/>
<polygon points="204.0,358.0 196.0,354.0 196.0,362.0" fill="black"/>
<path d="M 293.1 964.0 V 972.0 H 170.0 V 457.0 H 203.0" fill="none" stroke="black" stroke-width="1.1"/>
<polygon points="204.0,457.0 196.0,453.0 196.0,461.0" fill="black"/>
<path d="M 387.0 964.0 V 979.0 H 182.0 V 70.0 H 203.0" fill="none" stroke="black" stroke-width="1.1" stroke-dasharray="5,3"/>
<polygon points="204.0,70.0 196.0,66.0 196.0,74.0" fill="black"/>
<rect x="204.0" y="26.0" width="31.8" height="23" fill="#dbe6ff" stroke="black"/>
<text x="219.9" y="42.0" text-anchor="middle" font-family="Times New Roman,serif" font-weight="bold" font-size="13">Users</text>
<rect x="204.0" y="49.0" width="31.8" height="24" fill="white" stroke="black"/>
<text x="219.9" y="66.0" text-anchor="middle" font-family="Times New Roman,serif" font-size="13" text-decoration="underline">Id</text>
<rect x="204.0" y="125.0" width="595.2" height="23" fill="#dbe6ff" stroke="black"/>
<text x="501.6" y="141.0" text-anchor="middle" font-family="Times New Roman,serif" font-weight="bold" font-size="13">ForumPosts</text>
<rect x="204.0" y="148.0" width="31.8" height="24" fill="white" stroke="black"/>
<text x="219.9" y="165.0" text-anchor="middle" font-family="Times New Roman,serif" font-size="13" text-decoration="underline">Id</text>
<rect x="235.8" y="148.0" width="73.2" height="24" fill="#fff7e6" stroke="black"/>
<text x="272.4" y="165.0" text-anchor="middle" font-family="Times New Roman,serif" font-size="13">AuthorId</text>
<rect x="309.0" y="148.0" width="87.0" height="24" fill="#fff7e6" stroke="black"/>
<text x="352.5" y="165.0" text-anchor="middle" font-family="Times New Roman,serif" font-size="13">CategoryId</text>
<rect x="396.0" y="148.0" width="100.8" height="24" fill="#fff7e6" stroke="black"/>
<text x="446.4" y="165.0" text-anchor="middle" font-family="Times New Roman,serif" font-size="13">ParentPostId</text>
<rect x="496.8" y="148.0" width="128.4" height="24" fill="white" stroke="black"/>
<text x="561.0" y="165.0" text-anchor="middle" font-family="Times New Roman,serif" font-size="13">ModerationStatus</text>
<rect x="625.2" y="148.0" width="93.9" height="24" fill="white" stroke="black"/>
<text x="672.2" y="165.0" text-anchor="middle" font-family="Times New Roman,serif" font-size="13">UpvoteCount</text>
<rect x="719.1" y="148.0" width="80.1" height="24" fill="white" stroke="black"/>
<text x="759.1" y="165.0" text-anchor="middle" font-family="Times New Roman,serif" font-size="13">FlagCount</text>
<rect x="204.0" y="224.0" width="77.4" height="23" fill="#dbe6ff" stroke="black"/>
<text x="242.7" y="240.0" text-anchor="middle" font-family="Times New Roman,serif" font-weight="bold" font-size="13">ForumCategories</text>
<rect x="204.0" y="247.0" width="31.8" height="24" fill="white" stroke="black"/>
<text x="219.9" y="264.0" text-anchor="middle" font-family="Times New Roman,serif" font-size="13" text-decoration="underline">Id</text>
<rect x="235.8" y="247.0" width="45.6" height="24" fill="white" stroke="black"/>
<text x="258.6" y="264.0" text-anchor="middle" font-family="Times New Roman,serif" font-size="13">Slug</text>
<rect x="204.0" y="323.0" width="77.4" height="23" fill="#dbe6ff" stroke="black"/>
<text x="242.7" y="339.0" text-anchor="middle" font-family="Times New Roman,serif" font-weight="bold" font-size="13">ForumTags</text>
<rect x="204.0" y="346.0" width="31.8" height="24" fill="white" stroke="black"/>
<text x="219.9" y="363.0" text-anchor="middle" font-family="Times New Roman,serif" font-size="13" text-decoration="underline">Id</text>
<rect x="235.8" y="346.0" width="45.6" height="24" fill="white" stroke="black"/>
<text x="258.6" y="363.0" text-anchor="middle" font-family="Times New Roman,serif" font-size="13">Slug</text>
<rect x="204.0" y="422.0" width="396.3" height="23" fill="#dbe6ff" stroke="black"/>
<text x="402.1" y="438.0" text-anchor="middle" font-family="Times New Roman,serif" font-weight="bold" font-size="13">Conversations</text>
<rect x="204.0" y="445.0" width="31.8" height="24" fill="white" stroke="black"/>
<text x="219.9" y="462.0" text-anchor="middle" font-family="Times New Roman,serif" font-size="13" text-decoration="underline">Id</text>
<rect x="235.8" y="445.0" width="128.4" height="24" fill="#fff7e6" stroke="black"/>
<text x="300.0" y="462.0" text-anchor="middle" font-family="Times New Roman,serif" font-size="13">ParticipantOneId</text>
<rect x="364.2" y="445.0" width="128.4" height="24" fill="#fff7e6" stroke="black"/>
<text x="428.4" y="462.0" text-anchor="middle" font-family="Times New Roman,serif" font-size="13">ParticipantTwoId</text>
<rect x="492.6" y="445.0" width="107.7" height="24" fill="white" stroke="black"/>
<text x="546.5" y="462.0" text-anchor="middle" font-family="Times New Roman,serif" font-size="13">LastMessageAt</text>
<rect x="204.0" y="521.0" width="258.3" height="23" fill="#dbe6ff" stroke="black"/>
<text x="333.1" y="537.0" text-anchor="middle" font-family="Times New Roman,serif" font-weight="bold" font-size="13">ForumVotes</text>
<rect x="204.0" y="544.0" width="31.8" height="24" fill="white" stroke="black"/>
<text x="219.9" y="561.0" text-anchor="middle" font-family="Times New Roman,serif" font-size="13" text-decoration="underline">Id</text>
<rect x="235.8" y="544.0" width="93.9" height="24" fill="#fff7e6" stroke="black"/>
<text x="282.8" y="561.0" text-anchor="middle" font-family="Times New Roman,serif" font-size="13">ForumPostId</text>
<rect x="329.7" y="544.0" width="59.4" height="24" fill="#fff7e6" stroke="black"/>
<text x="359.4" y="561.0" text-anchor="middle" font-family="Times New Roman,serif" font-size="13">UserId</text>
<rect x="389.1" y="544.0" width="73.2" height="24" fill="white" stroke="black"/>
<text x="425.7" y="561.0" text-anchor="middle" font-family="Times New Roman,serif" font-size="13">VoteType</text>
<rect x="204.0" y="620.0" width="306.6" height="23" fill="#dbe6ff" stroke="black"/>
<text x="357.3" y="636.0" text-anchor="middle" font-family="Times New Roman,serif" font-weight="bold" font-size="13">ForumFlags</text>
<rect x="204.0" y="643.0" width="31.8" height="24" fill="white" stroke="black"/>
<text x="219.9" y="660.0" text-anchor="middle" font-family="Times New Roman,serif" font-size="13" text-decoration="underline">Id</text>
<rect x="235.8" y="643.0" width="93.9" height="24" fill="#fff7e6" stroke="black"/>
<text x="282.8" y="660.0" text-anchor="middle" font-family="Times New Roman,serif" font-size="13">ForumPostId</text>
<rect x="329.7" y="643.0" width="121.5" height="24" fill="#fff7e6" stroke="black"/>
<text x="390.5" y="660.0" text-anchor="middle" font-family="Times New Roman,serif" font-size="13">FlaggedByUserId</text>
<rect x="451.2" y="643.0" width="59.4" height="24" fill="white" stroke="black"/>
<text x="480.9" y="660.0" text-anchor="middle" font-family="Times New Roman,serif" font-size="13">Reason</text>
<rect x="204.0" y="719.0" width="185.1" height="23" fill="#dbe6ff" stroke="black"/>
<text x="296.6" y="735.0" text-anchor="middle" font-family="Times New Roman,serif" font-weight="bold" font-size="13">ForumBookmarks</text>
<rect x="204.0" y="742.0" width="31.8" height="24" fill="white" stroke="black"/>
<text x="219.9" y="759.0" text-anchor="middle" font-family="Times New Roman,serif" font-size="13" text-decoration="underline">Id</text>
<rect x="235.8" y="742.0" width="93.9" height="24" fill="#fff7e6" stroke="black"/>
<text x="282.8" y="759.0" text-anchor="middle" font-family="Times New Roman,serif" font-size="13">ForumPostId</text>
<rect x="329.7" y="742.0" width="59.4" height="24" fill="#fff7e6" stroke="black"/>
<text x="359.4" y="759.0" text-anchor="middle" font-family="Times New Roman,serif" font-size="13">UserId</text>
<rect x="204.0" y="818.0" width="180.9" height="23" fill="#dbe6ff" stroke="black"/>
<text x="294.4" y="834.0" text-anchor="middle" font-family="Times New Roman,serif" font-weight="bold" font-size="13">ForumPostTags</text>
<rect x="204.0" y="841.0" width="93.9" height="24" fill="#fff7e6" stroke="black"/>
<text x="250.9" y="858.0" text-anchor="middle" font-family="Times New Roman,serif" font-size="13" text-decoration="underline">ForumPostId</text>
<rect x="297.9" y="841.0" width="87.0" height="24" fill="#fff7e6" stroke="black"/>
<text x="341.4" y="858.0" text-anchor="middle" font-family="Times New Roman,serif" font-size="13" text-decoration="underline">ForumTagId</text>
<rect x="204.0" y="917.0" width="265.2" height="23" fill="#dbe6ff" stroke="black"/>
<text x="336.6" y="933.0" text-anchor="middle" font-family="Times New Roman,serif" font-weight="bold" font-size="13">Messages</text>
<rect x="204.0" y="940.0" width="31.8" height="24" fill="white" stroke="black"/>
<text x="219.9" y="957.0" text-anchor="middle" font-family="Times New Roman,serif" font-size="13" text-decoration="underline">Id</text>
<rect x="235.8" y="940.0" width="114.6" height="24" fill="#fff7e6" stroke="black"/>
<text x="293.1" y="957.0" text-anchor="middle" font-family="Times New Roman,serif" font-size="13">ConversationId</text>
<rect x="350.4" y="940.0" width="73.2" height="24" fill="#fff7e6" stroke="black"/>
<text x="387.0" y="957.0" text-anchor="middle" font-family="Times New Roman,serif" font-size="13">SenderId</text>
<rect x="423.6" y="940.0" width="45.6" height="24" fill="white" stroke="black"/>
<text x="446.4" y="957.0" text-anchor="middle" font-family="Times New Roman,serif" font-size="13">Body</text>
</svg>
