<?xml version="1.0" encoding="UTF-8"?>
<svg xmlns="http://www.w3.org/2000/svg" width="1008" height="895" viewBox="0 0 1008 895" font-family="Times New Roman,serif">
<rect width="100%" height="100%" fill="white"/>
<path d="M 181.5 271.0 V 279.0 H 14.0 V 53.0 H 119.0" fill="none" stroke="black" stroke-width="1.1"/>
<polygon points="120.0,53.0 112.0,49.0 112.0,57.0" fill="black"/>
<path d="M 181.5 370.0 V 378.0 H 26.0 V 57.0 H 119.0" fill="none" stroke="black" stroke-width="1.1"/>
<polygon points="120.0,57.0 112.0,53.0 112.0,61.0" fill="black"/>
<path d="M 149.7 469.0 V 477.0 H 38.0 V 61.0 H 119.0" fill="none" stroke="black" stroke-width="1.1"/>
<polygon points="120.0,61.0 112.0,57.0 112.0,65.0" fill="black"/>
<path d="M 209.1 469.0 V 484.0 H 50.0 V 160.0 H 119.0" fill="none" stroke="black" stroke-width="1.1"/>
<polygon points="120.0,160.0 112.0,156.0 112.0,164.0" fill="black"/>
<path d="M 205.7 568.0 V 576.0 H 62.0 V 259.0 H 119.0" fill="none" stroke="black" stroke-width="1.1"/>
<polygon points="120.0,259.0 112.0,255.0 112.0,263.0" fill="black"/>
<path d="M 181.5 667.0 V 675.0 H 74.0 V 65.0 H 119.0" fill="none" stroke="black" stroke-width="1.1"/>
<polygon points="120.0,65.0 112.0,61.0 112.0,69.0" fill="black"/>
<path d="M 181.5 766.0 V 774.0 H 86.0 V 69.0 H 119.0" fill="none" stroke="black" stroke-width="1.1"/>
<polygon points="120.0,69.0 112.0,65.0 112.0,73.0" fill="black"/>
<path d="M 216.0 865.0 V 873.0 H 98.0 V 358.0 H 119.0" fill="none" stroke="black" stroke-width="1.1"/>
<polygon points="120.0,358.0 112.0,354.0 112.0,362.0" fill="black"/>
<rect x="120.0" y="26.0" width="512.4" height="23" fill="#dbe6ff" stroke="black"/>
<text x="376.2" y="42.0" text-anchor="middle" font-family="Times New Roman,serif" font-weight="bold" font-size="13">Users</text>
<rect x="120.0" y="49.0" width="31.8" height="24" fill="white" stroke="black"/>
<text x="135.9" y="66.0" text-anchor="middle" font-family="Times New Roman,serif" font-size="13" text-decoration="underline">Id</text>
<rect x="151.8" y="49.0" width="52.5" height="24" fill="white" stroke="black"/>
<text x="178.1" y="66.0" text-anchor="middle" font-family="Times New Roman,serif" font-size="13">Email</text>
<rect x="204.3" y="49.0" width="80.1" height="24" fill="white" stroke="black"/>
<text x="244.4" y="66.0" text-anchor="middle" font-family="Times New Roman,serif" font-size="13">FirstName</text>
<rect x="284.4" y="49.0" width="73.2" height="24" fill="white" stroke="black"/>
<text x="321.0" y="66.0" text-anchor="middle" font-family="Times New Roman,serif" font-size="13">LastName</text>
<rect x="357.6" y="49.0" width="107.7" height="24" fill="white" stroke="black"/>
<text x="411.4" y="66.0" text-anchor="middle" font-family="Times New Roman,serif" font-size="13">AccountStatus</text>
<rect x="465.3" y="49.0" width="87.0" height="24" fill="white" stroke="black"/>
<text x="508.8" y="66.0" text-anchor="middle" font-family="Times New Roman,serif" font-size="13">ActiveRole</text>
<rect x="552.3" y="49.0" width="80.1" height="24" fill="white" stroke="black"/>
<text x="592.3" y="66.0" text-anchor="middle" font-family="Times New Roman,serif" font-size="13">IsDeleted</text>
<rect x="120.0" y="125.0" width="77.4" height="23" fill="#dbe6ff" stroke="black"/>
<text x="158.7" y="141.0" text-anchor="middle" font-family="Times New Roman,serif" font-weight="bold" font-size="13">Roles</text>
<rect x="120.0" y="148.0" width="31.8" height="24" fill="white" stroke="black"/>
<text x="135.9" y="165.0" text-anchor="middle" font-family="Times New Roman,serif" font-size="13" text-decoration="underline">Id</text>
<rect x="151.8" y="148.0" width="45.6" height="24" fill="white" stroke="black"/>
<text x="174.6" y="165.0" text-anchor="middle" font-family="Times New Roman,serif" font-size="13">Name</text>
<rect x="120.0" y="224.0" width="847.8" height="23" fill="#dbe6ff" stroke="black"/>
<text x="543.9" y="240.0" text-anchor="middle" font-family="Times New Roman,serif" font-weight="bold" font-size="13">UserProfiles</text>
<rect x="120.0" y="247.0" width="31.8" height="24" fill="white" stroke="black"/>
<text x="135.9" y="264.0" text-anchor="middle" font-family="Times New Roman,serif" font-size="13" text-decoration="underline">Id</text>
<rect x="151.8" y="247.0" width="59.4" height="24" fill="#fff7e6" stroke="black"/>
<text x="181.5" y="264.0" text-anchor="middle" font-family="Times New Roman,serif" font-size="13">UserId</text>
<rect x="211.2" y="247.0" width="38.7" height="24" fill="white" stroke="black"/>
<text x="230.6" y="264.0" text-anchor="middle" font-family="Times New Roman,serif" font-size="13">Gpa</text>
<rect x="249.9" y="247.0" width="107.7" height="24" fill="white" stroke="black"/>
<text x="303.8" y="264.0" text-anchor="middle" font-family="Times New Roman,serif" font-size="13">AcademicLevel</text>
<rect x="357.6" y="247.0" width="107.7" height="24" fill="white" stroke="black"/>
<text x="411.5" y="264.0" text-anchor="middle" font-family="Times New Roman,serif" font-size="13">SessionFeeUsd</text>
<rect x="465.3" y="247.0" width="156.0" height="24" fill="white" stroke="black"/>
<text x="543.3" y="264.0" text-anchor="middle" font-family="Times New Roman,serif" font-size="13">CompanyAverageRating</text>
<rect x="621.3" y="247.0" width="149.1" height="24" fill="white" stroke="black"/>
<text x="695.8" y="264.0" text-anchor="middle" font-family="Times New Roman,serif" font-size="13">StripeConnectStatus</text>
<rect x="770.4" y="247.0" width="197.4" height="24" fill="white" stroke="black"/>
<text x="869.1" y="264.0" text-anchor="middle" font-family="Times New Roman,serif" font-size="13">ProfileCompletenessPercent</text>
<rect x="120.0" y="323.0" width="210.0" height="23" fill="#dbe6ff" stroke="black"/>
<text x="225.0" y="339.0" text-anchor="middle" font-family="Times New Roman,serif" font-weight="bold" font-size="13">UpgradeRequests</text>
<rect x="120.0" y="346.0" width="31.8" height="24" fill="white" stroke="black"/>
<text x="135.9" y="363.0" text-anchor="middle" font-family="Times New Roman,serif" font-size="13" text-decoration="underline">Id</text>
<rect x="151.8" y="346.0" width="59.4" height="24" fill="#fff7e6" stroke="black"/>
<text x="181.5" y="363.0" text-anchor="middle" font-family="Times New Roman,serif" font-size="13">UserId</text>
<rect x="211.2" y="346.0" width="59.4" height="24" fill="white" stroke="black"/>
<text x="240.9" y="363.0" text-anchor="middle" font-family="Times New Roman,serif" font-size="13">Target</text>
<rect x="270.6" y="346.0" width="59.4" height="24" fill="white" stroke="black"/>
<text x="300.3" y="363.0" text-anchor="middle" font-family="Times New Roman,serif" font-size="13">Status</text>
<rect x="120.0" y="422.0" width="118.8" height="23" fill="#dbe6ff" stroke="black"/>
<text x="179.4" y="438.0" text-anchor="middle" font-family="Times New Roman,serif" font-weight="bold" font-size="13">UserRoles</text>
<rect x="120.0" y="445.0" width="59.4" height="24" fill="#fff7e6" stroke="black"/>
<text x="149.7" y="462.0" text-anchor="middle" font-family="Times New Roman,serif" font-size="13" text-decoration="underline">UserId</text>
<rect x="179.4" y="445.0" width="59.4" height="24" fill="#fff7e6" stroke="black"/>
<text x="209.1" y="462.0" text-anchor="middle" font-family="Times New Roman,serif" font-size="13" text-decoration="underline">RoleId</text>
<rect x="120.0" y="521.0" width="320.4" height="23" fill="#dbe6ff" stroke="black"/>
<text x="280.2" y="537.0" text-anchor="middle" font-family="Times New Roman,serif" font-weight="bold" font-size="13">EducationEntries</text>
<rect x="120.0" y="544.0" width="31.8" height="24" fill="white" stroke="black"/>
<text x="135.9" y="561.0" text-anchor="middle" font-family="Times New Roman,serif" font-size="13" text-decoration="underline">Id</text>
<rect x="151.8" y="544.0" width="107.7" height="24" fill="#fff7e6" stroke="black"/>
<text x="205.7" y="561.0" text-anchor="middle" font-family="Times New Roman,serif" font-size="13">UserProfileId</text>
<rect x="259.5" y="544.0" width="121.5" height="24" fill="white" stroke="black"/>
<text x="320.2" y="561.0" text-anchor="middle" font-family="Times New Roman,serif" font-size="13">InstitutionName</text>
<rect x="381.0" y="544.0" width="59.4" height="24" fill="white" stroke="black"/>
<text x="410.7" y="561.0" text-anchor="middle" font-family="Times New Roman,serif" font-size="13">Degree</text>
<rect x="120.0" y="620.0" width="331.5" height="23" fill="#dbe6ff" stroke="black"/>
<text x="285.8" y="636.0" text-anchor="middle" font-family="Times New Roman,serif" font-weight="bold" font-size="13">RefreshTokens</text>
<rect x="120.0" y="643.0" width="31.8" height="24" fill="white" stroke="black"/>
<text x="135.9" y="660.0" text-anchor="middle" font-family="Times New Roman,serif" font-size="13" text-decoration="underline">Id</text>
<rect x="151.8" y="643.0" width="59.4" height="24" fill="#fff7e6" stroke="black"/>
<text x="181.5" y="660.0" text-anchor="middle" font-family="Times New Roman,serif" font-size="13">UserId</text>
<rect x="211.2" y="643.0" width="80.1" height="24" fill="white" stroke="black"/>
<text x="251.2" y="660.0" text-anchor="middle" font-family="Times New Roman,serif" font-size="13">TokenHash</text>
<rect x="291.3" y="643.0" width="80.1" height="24" fill="white" stroke="black"/>
<text x="331.4" y="660.0" text-anchor="middle" font-family="Times New Roman,serif" font-size="13">ExpiresAt</text>
<rect x="371.4" y="643.0" width="80.1" height="24" fill="white" stroke="black"/>
<text x="411.4" y="660.0" text-anchor="middle" font-family="Times New Roman,serif" font-size="13">IsRevoked</text>
<rect x="120.0" y="719.0" width="230.7" height="23" fill="#dbe6ff" stroke="black"/>
<text x="235.4" y="735.0" text-anchor="middle" font-family="Times New Roman,serif" font-weight="bold" font-size="13">PasswordResetTokens</text>
<rect x="120.0" y="742.0" width="31.8" height="24" fill="white" stroke="black"/>
<text x="135.9" y="759.0" text-anchor="middle" font-family="Times New Roman,serif" font-size="13" text-decoration="underline">Id</text>
<rect x="151.8" y="742.0" width="59.4" height="24" fill="#fff7e6" stroke="black"/>
<text x="181.5" y="759.0" text-anchor="middle" font-family="Times New Roman,serif" font-size="13">UserId</text>
<rect x="211.2" y="742.0" width="80.1" height="24" fill="white" stroke="black"/>
<text x="251.2" y="759.0" text-anchor="middle" font-family="Times New Roman,serif" font-size="13">TokenHash</text>
<rect x="291.3" y="742.0" width="59.4" height="24" fill="white" stroke="black"/>
<text x="321.0" y="759.0" text-anchor="middle" font-family="Times New Roman,serif" font-size="13">UsedAt</text>
<rect x="120.0" y="818.0" width="226.5" height="23" fill="#dbe6ff" stroke="black"/>
<text x="233.2" y="834.0" text-anchor="middle" font-family="Times New Roman,serif" font-weight="bold" font-size="13">UpgradeRequestFiles</text>
<rect x="120.0" y="841.0" width="31.8" height="24" fill="white" stroke="black"/>
<text x="135.9" y="858.0" text-anchor="middle" font-family="Times New Roman,serif" font-size="13" text-decoration="underline">Id</text>
<rect x="151.8" y="841.0" width="128.4" height="24" fill="#fff7e6" stroke="black"/>
<text x="216.0" y="858.0" text-anchor="middle" font-family="Times New Roman,serif" font-size="13">UpgradeRequestId</text>
<rect x="280.2" y="841.0" width="66.3" height="24" fill="white" stroke="black"/>
<text x="313.4" y="858.0" text-anchor="middle" font-family="Times New Roman,serif" font-size="13">BlobUrl</text>
</svg>
