<?xml version="1.0" encoding="UTF-8"?>
<svg xmlns="http://www.w3.org/2000/svg" width="578" height="994" viewBox="0 0 578 994" font-family="Times New Roman,serif">
<rect width="100%" height="100%" fill="white"/>
<path d="M 205.5 172.0 V 180.0 H 14.0 V 52.0 H 143.0" fill="none" stroke="black" stroke-width="1.1" stroke-dasharray="5,3"/>
<polygon points="144.0,52.0 136.0,48.0 136.0,56.0" fill="black"/>
<path d="M 205.5 370.0 V 378.0 H 26.0 V 55.0 H 143.0" fill="none" stroke="black" stroke-width="1.1"/>
<polygon points="144.0,55.0 136.0,51.0 136.0,59.0" fill="black"/>
<path d="M 289.1 370.0 V 385.0 H 38.0 V 259.0 H 143.0" fill="none" stroke="black" stroke-width="1.1"/>
<polygon points="144.0,259.0 136.0,255.0 136.0,263.0" fill="black"/>
<path d="M 403.7 370.0 V 392.0 H 50.0 V 156.0 H 143.0" fill="none" stroke="black" stroke-width="1.1"/>
<polygon points="144.0,156.0 136.0,152.0 136.0,160.0" fill="black"/>
<path d="M 236.6 469.0 V 477.0 H 62.0 V 164.0 H 143.0" fill="none" stroke="black" stroke-width="1.1"/>
<polygon points="144.0,164.0 136.0,160.0 136.0,168.0" fill="black"/>
<path d="M 327.0 469.0 V 484.0 H 74.0 V 58.0 H 143.0" fill="none" stroke="black" stroke-width="1.1"/>
<polygon points="144.0,58.0 136.0,54.0 136.0,62.0" fill="black"/>
<path d="M 414.0 469.0 V 491.0 H 86.0 V 61.0 H 143.0" fill="none" stroke="black" stroke-width="1.1"/>
<polygon points="144.0,61.0 136.0,57.0 136.0,65.0" fill="black"/>
<path d="M 205.5 568.0 V 576.0 H 98.0 V 64.0 H 143.0" fill="none" stroke="black" stroke-width="1.1"/>
<polygon points="144.0,64.0 136.0,60.0 136.0,68.0" fill="black"/>
<path d="M 222.8 667.0 V 675.0 H 110.0 V 67.0 H 143.0" fill="none" stroke="black" stroke-width="1.1" stroke-dasharray="5,3"/>
<polygon points="144.0,67.0 136.0,63.0 136.0,71.0" fill="black"/>
<path d="M 205.5 964.0 V 972.0 H 122.0 V 70.0 H 143.0" fill="none" stroke="black" stroke-width="1.1" stroke-dasharray="5,3"/>
<polygon points="144.0,70.0 136.0,66.0 136.0,74.0" fill="black"/>
<rect x="144.0" y="26.0" width="31.8" height="23" fill="#dbe6ff" stroke="black"/>
<text x="159.9" y="42.0" text-anchor="middle" font-family="Times New Roman,serif" font-weight="bold" font-size="13">Users</text>
<rect x="144.0" y="49.0" width="31.8" height="24" fill="white" stroke="black"/>
<text x="159.9" y="66.0" text-anchor="middle" font-family="Times New Roman,serif" font-size="13" text-decoration="underline">Id</text>
<rect x="144.0" y="125.0" width="297.0" height="23" fill="#dbe6ff" stroke="black"/>
<text x="292.5" y="141.0" text-anchor="middle" font-family="Times New Roman,serif" font-weight="bold" font-size="13">AiInteractions</text>
<rect x="144.0" y="148.0" width="31.8" height="24" fill="white" stroke="black"/>
<text x="159.9" y="165.0" text-anchor="middle" font-family="Times New Roman,serif" font-size="13" text-decoration="underline">Id</text>
<rect x="175.8" y="148.0" width="59.4" height="24" fill="#fff7e6" stroke="black"/>
<text x="205.5" y="165.0" text-anchor="middle" font-family="Times New Roman,serif" font-size="13">UserId</text>
<rect x="235.2" y="148.0" width="66.3" height="24" fill="white" stroke="black"/>
<text x="268.4" y="165.0" text-anchor="middle" font-family="Times New Roman,serif" font-size="13">Feature</text>
<rect x="301.5" y="148.0" width="73.2" height="24" fill="white" stroke="black"/>
<text x="338.1" y="165.0" text-anchor="middle" font-family="Times New Roman,serif" font-size="13">Provider</text>
<rect x="374.7" y="148.0" width="66.3" height="24" fill="white" stroke="black"/>
<text x="407.9" y="165.0" text-anchor="middle" font-family="Times New Roman,serif" font-size="13">CostUsd</text>
<rect x="144.0" y="224.0" width="31.8" height="23" fill="#dbe6ff" stroke="black"/>
<text x="159.9" y="240.0" text-anchor="middle" font-family="Times New Roman,serif" font-weight="bold" font-size="13">Scholarships</text>
<rect x="144.0" y="247.0" width="31.8" height="24" fill="white" stroke="black"/>
<text x="159.9" y="264.0" text-anchor="middle" font-family="Times New Roman,serif" font-size="13" text-decoration="underline">Id</text>
<rect x="144.0" y="323.0" width="379.8" height="23" fill="#dbe6ff" stroke="black"/>
<text x="333.9" y="339.0" text-anchor="middle" font-family="Times New Roman,serif" font-weight="bold" font-size="13">RecommendationClickEvents</text>
<rect x="144.0" y="346.0" width="31.8" height="24" fill="white" stroke="black"/>
<text x="159.9" y="363.0" text-anchor="middle" font-family="Times New Roman,serif" font-size="13" text-decoration="underline">Id</text>
<rect x="175.8" y="346.0" width="59.4" height="24" fill="#fff7e6" stroke="black"/>
<text x="205.5" y="363.0" text-anchor="middle" font-family="Times New Roman,serif" font-size="13">UserId</text>
<rect x="235.2" y="346.0" width="107.7" height="24" fill="#fff7e6" stroke="black"/>
<text x="289.1" y="363.0" text-anchor="middle" font-family="Times New Roman,serif" font-size="13">ScholarshipId</text>
<rect x="342.9" y="346.0" width="121.5" height="24" fill="#fff7e6" stroke="black"/>
<text x="403.7" y="363.0" text-anchor="middle" font-family="Times New Roman,serif" font-size="13">AiInteractionId</text>
<rect x="464.4" y="346.0" width="59.4" height="24" fill="white" stroke="black"/>
<text x="494.1" y="363.0" text-anchor="middle" font-family="Times New Roman,serif" font-size="13">Source</text>
<rect x="144.0" y="422.0" width="393.6" height="23" fill="#dbe6ff" stroke="black"/>
<text x="340.8" y="438.0" text-anchor="middle" font-family="Times New Roman,serif" font-weight="bold" font-size="13">AiRedactionAuditSamples</text>
<rect x="144.0" y="445.0" width="31.8" height="24" fill="white" stroke="black"/>
<text x="159.9" y="462.0" text-anchor="middle" font-family="Times New Roman,serif" font-size="13" text-decoration="underline">Id</text>
<rect x="175.8" y="445.0" width="121.5" height="24" fill="#fff7e6" stroke="black"/>
<text x="236.6" y="462.0" text-anchor="middle" font-family="Times New Roman,serif" font-size="13">AiInteractionId</text>
<rect x="297.3" y="445.0" width="59.4" height="24" fill="#fff7e6" stroke="black"/>
<text x="327.0" y="462.0" text-anchor="middle" font-family="Times New Roman,serif" font-size="13">UserId</text>
<rect x="356.7" y="445.0" width="114.6" height="24" fill="#fff7e6" stroke="black"/>
<text x="414.0" y="462.0" text-anchor="middle" font-family="Times New Roman,serif" font-size="13">ReviewerUserId</text>
<rect x="471.3" y="445.0" width="66.3" height="24" fill="white" stroke="black"/>
<text x="504.5" y="462.0" text-anchor="middle" font-family="Times New Roman,serif" font-size="13">Verdict</text>
<rect x="144.0" y="521.0" width="216.9" height="23" fill="#dbe6ff" stroke="black"/>
<text x="252.4" y="537.0" text-anchor="middle" font-family="Times New Roman,serif" font-weight="bold" font-size="13">UserRiskFlags</text>
<rect x="144.0" y="544.0" width="31.8" height="24" fill="white" stroke="black"/>
<text x="159.9" y="561.0" text-anchor="middle" font-family="Times New Roman,serif" font-size="13" text-decoration="underline">Id</text>
<rect x="175.8" y="544.0" width="59.4" height="24" fill="#fff7e6" stroke="black"/>
<text x="205.5" y="561.0" text-anchor="middle" font-family="Times New Roman,serif" font-size="13">UserId</text>
<rect x="235.2" y="544.0" width="52.5" height="24" fill="white" stroke="black"/>
<text x="261.5" y="561.0" text-anchor="middle" font-family="Times New Roman,serif" font-size="13">Score</text>
<rect x="287.7" y="544.0" width="73.2" height="24" fill="white" stroke="black"/>
<text x="324.3" y="561.0" text-anchor="middle" font-family="Times New Roman,serif" font-size="13">IsAtRisk</text>
<rect x="144.0" y="620.0" width="345.3" height="23" fill="#dbe6ff" stroke="black"/>
<text x="316.6" y="636.0" text-anchor="middle" font-family="Times New Roman,serif" font-weight="bold" font-size="13">AuditLogs</text>
<rect x="144.0" y="643.0" width="31.8" height="24" fill="white" stroke="black"/>
<text x="159.9" y="660.0" text-anchor="middle" font-family="Times New Roman,serif" font-size="13" text-decoration="underline">Id</text>
<rect x="175.8" y="643.0" width="93.9" height="24" fill="#fff7e6" stroke="black"/>
<text x="222.8" y="660.0" text-anchor="middle" font-family="Times New Roman,serif" font-size="13">ActorUserId</text>
<rect x="269.7" y="643.0" width="59.4" height="24" fill="white" stroke="black"/>
<text x="299.4" y="660.0" text-anchor="middle" font-family="Times New Roman,serif" font-size="13">Action</text>
<rect x="329.1" y="643.0" width="87.0" height="24" fill="white" stroke="black"/>
<text x="372.6" y="660.0" text-anchor="middle" font-family="Times New Roman,serif" font-size="13">TargetType</text>
<rect x="416.1" y="643.0" width="73.2" height="24" fill="white" stroke="black"/>
<text x="452.7" y="660.0" text-anchor="middle" font-family="Times New Roman,serif" font-size="13">TargetId</text>
<rect x="144.0" y="719.0" width="272.1" height="23" fill="#dbe6ff" stroke="black"/>
<text x="280.1" y="735.0" text-anchor="middle" font-family="Times New Roman,serif" font-weight="bold" font-size="13">KnowledgeDocuments</text>
<rect x="144.0" y="742.0" width="31.8" height="24" fill="white" stroke="black"/>
<text x="159.9" y="759.0" text-anchor="middle" font-family="Times New Roman,serif" font-size="13" text-decoration="underline">Id</text>
<rect x="175.8" y="742.0" width="87.0" height="24" fill="white" stroke="black"/>
<text x="219.3" y="759.0" text-anchor="middle" font-family="Times New Roman,serif" font-size="13">SourceType</text>
<rect x="262.8" y="742.0" width="73.2" height="24" fill="white" stroke="black"/>
<text x="299.4" y="759.0" text-anchor="middle" font-family="Times New Roman,serif" font-size="13">SourceId</text>
<rect x="336.0" y="742.0" width="80.1" height="24" fill="white" stroke="black"/>
<text x="376.1" y="759.0" text-anchor="middle" font-family="Times New Roman,serif" font-size="13">SourceKey</text>
<rect x="144.0" y="818.0" width="150.6" height="23" fill="#dbe6ff" stroke="black"/>
<text x="219.3" y="834.0" text-anchor="middle" font-family="Times New Roman,serif" font-weight="bold" font-size="13">PlatformSettings</text>
<rect x="144.0" y="841.0" width="31.8" height="24" fill="white" stroke="black"/>
<text x="159.9" y="858.0" text-anchor="middle" font-family="Times New Roman,serif" font-size="13" text-decoration="underline">Id</text>
<rect x="175.8" y="841.0" width="38.7" height="24" fill="white" stroke="black"/>
<text x="195.2" y="858.0" text-anchor="middle" font-family="Times New Roman,serif" font-size="13">Key</text>
<rect x="214.5" y="841.0" width="80.1" height="24" fill="white" stroke="black"/>
<text x="254.6" y="858.0" text-anchor="middle" font-family="Times New Roman,serif" font-size="13">ValueType</text>
<rect x="144.0" y="917.0" width="196.2" height="23" fill="#dbe6ff" stroke="black"/>
<text x="242.1" y="933.0" text-anchor="middle" font-family="Times New Roman,serif" font-weight="bold" font-size="13">UserDataRequests</text>
<rect x="144.0" y="940.0" width="31.8" height="24" fill="white" stroke="black"/>
<text x="159.9" y="957.0" text-anchor="middle" font-family="Times New Roman,serif" font-size="13" text-decoration="underline">Id</text>
<rect x="175.8" y="940.0" width="59.4" height="24" fill="#fff7e6" stroke="black"/>
<text x="205.5" y="957.0" text-anchor="middle" font-family="Times New Roman,serif" font-size="13">UserId</text>
<rect x="235.2" y="940.0" width="45.6" height="24" fill="white" stroke="black"/>
<text x="258.0" y="957.0" text-anchor="middle" font-family="Times New Roman,serif" font-size="13">Type</text>
<rect x="280.8" y="940.0" width="59.4" height="24" fill="white" stroke="black"/>
<text x="310.5" y="957.0" text-anchor="middle" font-family="Times New Roman,serif" font-size="13">Status</text>
</svg>
