<?xml version="1.0" encoding="UTF-8"?>
<svg xmlns="http://www.w3.org/2000/svg" width="873" height="994" viewBox="0 0 873 994" font-family="Times New Roman,serif">
<rect width="100%" height="100%" fill="white"/>
<path d="M 303.3 172.0 V 180.0 H 14.0 V 358.0 H 227.0" fill="none" stroke="black" stroke-width="1.1"/>
<polygon points="228.0,358.0 220.0,354.0 220.0,362.0" fill="black"/>
<path d="M 404.1 172.0 V 187.0 H 26.0 V 51.4 H 227.0" fill="none" stroke="black" stroke-width="1.1"/>
<polygon points="228.0,51.4 220.0,47.4 220.0,55.4" fill="black"/>
<path d="M 299.9 271.0 V 279.0 H 38.0 V 53.8 H 227.0" fill="none" stroke="black" stroke-width="1.1"/>
<polygon points="228.0,53.8 220.0,49.8 220.0,57.8" fill="black"/>
<path d="M 393.8 271.0 V 286.0 H 50.0 V 154.0 H 227.0" fill="none" stroke="black" stroke-width="1.1"/>
<polygon points="228.0,154.0 220.0,150.0 220.0,158.0" fill="black"/>
<path d="M 289.5 568.0 V 576.0 H 62.0 V 56.2 H 227.0" fill="none" stroke="black" stroke-width="1.1" stroke-dasharray="5,3"/>
<polygon points="228.0,56.2 220.0,52.2 220.0,60.2" fill="black"/>
<path d="M 373.1 568.0 V 583.0 H 74.0 V 160.0 H 227.0" fill="none" stroke="black" stroke-width="1.1"/>
<polygon points="228.0,160.0 220.0,156.0 220.0,164.0" fill="black"/>
<path d="M 306.8 667.0 V 675.0 H 86.0 V 58.6 H 227.0" fill="none" stroke="black" stroke-width="1.1"/>
<polygon points="228.0,58.6 220.0,54.6 220.0,62.6" fill="black"/>
<path d="M 431.7 667.0 V 682.0 H 98.0 V 253.0 H 227.0" fill="none" stroke="black" stroke-width="1.1"/>
<polygon points="228.0,253.0 220.0,249.0 220.0,257.0" fill="black"/>
<path d="M 299.9 766.0 V 774.0 H 110.0 V 61.0 H 227.0" fill="none" stroke="black" stroke-width="1.1"/>
<polygon points="228.0,61.0 220.0,57.0 220.0,65.0" fill="black"/>
<path d="M 379.9 766.0 V 781.0 H 122.0 V 63.4 H 227.0" fill="none" stroke="black" stroke-width="1.1"/>
<polygon points="228.0,63.4 220.0,59.4 220.0,67.4" fill="black"/>
<path d="M 473.9 766.0 V 788.0 H 134.0 V 166.0 H 227.0" fill="none" stroke="black" stroke-width="1.1"/>
<polygon points="228.0,166.0 220.0,162.0 220.0,170.0" fill="black"/>
<path d="M 567.8 766.0 V 795.0 H 146.0 V 457.0 H 227.0" fill="none" stroke="black" stroke-width="1.1"/>
<polygon points="228.0,457.0 220.0,453.0 220.0,461.0" fill="black"/>
<path d="M 337.8 865.0 V 873.0 H 158.0 V 259.0 H 227.0" fill="none" stroke="black" stroke-width="1.1"/>
<polygon points="228.0,259.0 220.0,255.0 220.0,263.0" fill="black"/>
<path d="M 455.9 865.0 V 880.0 H 170.0 V 65.8 H 227.0" fill="none" stroke="black" stroke-width="1.1"/>
<polygon points="228.0,65.8 220.0,61.8 220.0,69.8" fill="black"/>
<path d="M 535.9 865.0 V 887.0 H 182.0 V 68.2 H 227.0" fill="none" stroke="black" stroke-width="1.1"/>
<polygon points="228.0,68.2 220.0,64.2 220.0,72.2" fill="black"/>
<path d="M 337.8 964.0 V 972.0 H 194.0 V 265.0 H 227.0" fill="none" stroke="black" stroke-width="1.1" stroke-dasharray="5,3"/>
<polygon points="228.0,265.0 220.0,261.0 220.0,269.0" fill="black"/>
<path d="M 455.9 964.0 V 979.0 H 206.0 V 70.6 H 227.0" fill="none" stroke="black" stroke-width="1.1" stroke-dasharray="5,3"/>
<polygon points="228.0,70.6 220.0,66.6 220.0,74.6" fill="black"/>
<rect x="228.0" y="26.0" width="31.8" height="23" fill="#dbe6ff" stroke="black"/>
<text x="243.9" y="42.0" text-anchor="middle" font-family="Times New Roman,serif" font-weight="bold" font-size="13">Users</text>
<rect x="228.0" y="49.0" width="31.8" height="24" fill="white" stroke="black"/>
<text x="243.9" y="66.0" text-anchor="middle" font-family="Times New Roman,serif" font-size="13" text-decoration="underline">Id</text>
<rect x="228.0" y="125.0" width="558.0" height="23" fill="#dbe6ff" stroke="black"/>
<text x="507.0" y="141.0" text-anchor="middle" font-family="Times New Roman,serif" font-weight="bold" font-size="13">Scholarships</text>
<rect x="228.0" y="148.0" width="31.8" height="24" fill="white" stroke="black"/>
<text x="243.9" y="165.0" text-anchor="middle" font-family="Times New Roman,serif" font-size="13" text-decoration="underline">Id</text>
<rect x="259.8" y="148.0" width="87.0" height="24" fill="#fff7e6" stroke="black"/>
<text x="303.3" y="165.0" text-anchor="middle" font-family="Times New Roman,serif" font-size="13">CategoryId</text>
<rect x="346.8" y="148.0" width="114.6" height="24" fill="#fff7e6" stroke="black"/>
<text x="404.1" y="165.0" text-anchor="middle" font-family="Times New Roman,serif" font-size="13">OwnerCompanyId</text>
<rect x="461.4" y="148.0" width="45.6" height="24" fill="white" stroke="black"/>
<text x="484.2" y="165.0" text-anchor="middle" font-family="Times New Roman,serif" font-size="13">Slug</text>
<rect x="507.0" y="148.0" width="45.6" height="24" fill="white" stroke="black"/>
<text x="529.8" y="165.0" text-anchor="middle" font-family="Times New Roman,serif" font-size="13">Mode</text>
<rect x="552.6" y="148.0" width="59.4" height="24" fill="white" stroke="black"/>
<text x="582.3" y="165.0" text-anchor="middle" font-family="Times New Roman,serif" font-size="13">Status</text>
<rect x="612.0" y="148.0" width="73.2" height="24" fill="white" stroke="black"/>
<text x="648.6" y="165.0" text-anchor="middle" font-family="Times New Roman,serif" font-size="13">Deadline</text>
<rect x="685.2" y="148.0" width="100.8" height="24" fill="white" stroke="black"/>
<text x="735.6" y="165.0" text-anchor="middle" font-family="Times New Roman,serif" font-size="13">ReviewFeeUsd</text>
<rect x="228.0" y="224.0" width="418.5" height="23" fill="#dbe6ff" stroke="black"/>
<text x="437.2" y="240.0" text-anchor="middle" font-family="Times New Roman,serif" font-weight="bold" font-size="13">Applications</text>
<rect x="228.0" y="247.0" width="31.8" height="24" fill="white" stroke="black"/>
<text x="243.9" y="264.0" text-anchor="middle" font-family="Times New Roman,serif" font-size="13" text-decoration="underline">Id</text>
<rect x="259.8" y="247.0" width="80.1" height="24" fill="#fff7e6" stroke="black"/>
<text x="299.9" y="264.0" text-anchor="middle" font-family="Times New Roman,serif" font-size="13">StudentId</text>
<rect x="339.9" y="247.0" width="107.7" height="24" fill="#fff7e6" stroke="black"/>
<text x="393.8" y="264.0" text-anchor="middle" font-family="Times New Roman,serif" font-size="13">ScholarshipId</text>
<rect x="447.6" y="247.0" width="45.6" height="24" fill="white" stroke="black"/>
<text x="470.4" y="264.0" text-anchor="middle" font-family="Times New Roman,serif" font-size="13">Mode</text>
<rect x="493.2" y="247.0" width="59.4" height="24" fill="white" stroke="black"/>
<text x="522.9" y="264.0" text-anchor="middle" font-family="Times New Roman,serif" font-size="13">Status</text>
<rect x="552.6" y="247.0" width="93.9" height="24" fill="white" stroke="black"/>
<text x="599.6" y="264.0" text-anchor="middle" font-family="Times New Roman,serif" font-size="13">SubmittedAt</text>
<rect x="228.0" y="323.0" width="136.8" height="23" fill="#dbe6ff" stroke="black"/>
<text x="296.4" y="339.0" text-anchor="middle" font-family="Times New Roman,serif" font-weight="bold" font-size="13">Categories</text>
<rect x="228.0" y="346.0" width="31.8" height="24" fill="white" stroke="black"/>
<text x="243.9" y="363.0" text-anchor="middle" font-family="Times New Roman,serif" font-size="13" text-decoration="underline">Id</text>
<rect x="259.8" y="346.0" width="45.6" height="24" fill="white" stroke="black"/>
<text x="282.6" y="363.0" text-anchor="middle" font-family="Times New Roman,serif" font-size="13">Slug</text>
<rect x="305.4" y="346.0" width="59.4" height="24" fill="white" stroke="black"/>
<text x="335.1" y="363.0" text-anchor="middle" font-family="Times New Roman,serif" font-size="13">NameEn</text>
<rect x="228.0" y="422.0" width="31.8" height="23" fill="#dbe6ff" stroke="black"/>
<text x="243.9" y="438.0" text-anchor="middle" font-family="Times New Roman,serif" font-weight="bold" font-size="13">Payments</text>
<rect x="228.0" y="445.0" width="31.8" height="24" fill="white" stroke="black"/>
<text x="243.9" y="462.0" text-anchor="middle" font-family="Times New Roman,serif" font-size="13" text-decoration="underline">Id</text>
<rect x="228.0" y="521.0" width="265.2" height="23" fill="#dbe6ff" stroke="black"/>
<text x="360.6" y="537.0" text-anchor="middle" font-family="Times New Roman,serif" font-weight="bold" font-size="13">SavedScholarships</text>
<rect x="228.0" y="544.0" width="31.8" height="24" fill="white" stroke="black"/>
<text x="243.9" y="561.0" text-anchor="middle" font-family="Times New Roman,serif" font-size="13" text-decoration="underline">Id</text>
<rect x="259.8" y="544.0" width="59.4" height="24" fill="#fff7e6" stroke="black"/>
<text x="289.5" y="561.0" text-anchor="middle" font-family="Times New Roman,serif" font-size="13">UserId</text>
<rect x="319.2" y="544.0" width="107.7" height="24" fill="#fff7e6" stroke="black"/>
<text x="373.1" y="561.0" text-anchor="middle" font-family="Times New Roman,serif" font-size="13">ScholarshipId</text>
<rect x="426.9" y="544.0" width="66.3" height="24" fill="white" stroke="black"/>
<text x="460.1" y="561.0" text-anchor="middle" font-family="Times New Roman,serif" font-size="13">SavedAt</text>
<rect x="228.0" y="620.0" width="448.8" height="23" fill="#dbe6ff" stroke="black"/>
<text x="452.4" y="636.0" text-anchor="middle" font-family="Times New Roman,serif" font-weight="bold" font-size="13">Documents</text>
<rect x="228.0" y="643.0" width="31.8" height="24" fill="white" stroke="black"/>
<text x="243.9" y="660.0" text-anchor="middle" font-family="Times New Roman,serif" font-size="13" text-decoration="underline">Id</text>
<rect x="259.8" y="643.0" width="93.9" height="24" fill="#fff7e6" stroke="black"/>
<text x="306.8" y="660.0" text-anchor="middle" font-family="Times New Roman,serif" font-size="13">OwnerUserId</text>
<rect x="353.7" y="643.0" width="156.0" height="24" fill="#fff7e6" stroke="black"/>
<text x="431.7" y="660.0" text-anchor="middle" font-family="Times New Roman,serif" font-size="13">ApplicationTrackerId</text>
<rect x="509.7" y="643.0" width="73.2" height="24" fill="white" stroke="black"/>
<text x="546.3" y="660.0" text-anchor="middle" font-family="Times New Roman,serif" font-size="13">Category</text>
<rect x="582.9" y="643.0" width="93.9" height="24" fill="white" stroke="black"/>
<text x="629.9" y="660.0" text-anchor="middle" font-family="Times New Roman,serif" font-size="13">StoragePath</text>
<rect x="228.0" y="719.0" width="595.2" height="23" fill="#dbe6ff" stroke="black"/>
<text x="525.6" y="735.0" text-anchor="middle" font-family="Times New Roman,serif" font-weight="bold" font-size="13">CompanyReviewRequests</text>
<rect x="228.0" y="742.0" width="31.8" height="24" fill="white" stroke="black"/>
<text x="243.9" y="759.0" text-anchor="middle" font-family="Times New Roman,serif" font-size="13" text-decoration="underline">Id</text>
<rect x="259.8" y="742.0" width="80.1" height="24" fill="#fff7e6" stroke="black"/>
<text x="299.9" y="759.0" text-anchor="middle" font-family="Times New Roman,serif" font-size="13">StudentId</text>
<rect x="339.9" y="742.0" width="80.1" height="24" fill="#fff7e6" stroke="black"/>
<text x="379.9" y="759.0" text-anchor="middle" font-family="Times New Roman,serif" font-size="13">CompanyId</text>
<rect x="420.0" y="742.0" width="107.7" height="24" fill="#fff7e6" stroke="black"/>
<text x="473.9" y="759.0" text-anchor="middle" font-family="Times New Roman,serif" font-size="13">ScholarshipId</text>
<rect x="527.7" y="742.0" width="80.1" height="24" fill="#fff7e6" stroke="black"/>
<text x="567.8" y="759.0" text-anchor="middle" font-family="Times New Roman,serif" font-size="13">PaymentId</text>
<rect x="607.8" y="742.0" width="59.4" height="24" fill="white" stroke="black"/>
<text x="637.5" y="759.0" text-anchor="middle" font-family="Times New Roman,serif" font-size="13">Status</text>
<rect x="667.2" y="742.0" width="156.0" height="24" fill="white" stroke="black"/>
<text x="745.2" y="759.0" text-anchor="middle" font-family="Times New Roman,serif" font-size="13">ReviewFeeUsdSnapshot</text>
<rect x="228.0" y="818.0" width="407.4" height="23" fill="#dbe6ff" stroke="black"/>
<text x="431.7" y="834.0" text-anchor="middle" font-family="Times New Roman,serif" font-weight="bold" font-size="13">CompanyReviews</text>
<rect x="228.0" y="841.0" width="31.8" height="24" fill="white" stroke="black"/>
<text x="243.9" y="858.0" text-anchor="middle" font-family="Times New Roman,serif" font-size="13" text-decoration="underline">Id</text>
<rect x="259.8" y="841.0" width="156.0" height="24" fill="#fff7e6" stroke="black"/>
<text x="337.8" y="858.0" text-anchor="middle" font-family="Times New Roman,serif" font-size="13">ApplicationTrackerId</text>
<rect x="415.8" y="841.0" width="80.1" height="24" fill="#fff7e6" stroke="black"/>
<text x="455.9" y="858.0" text-anchor="middle" font-family="Times New Roman,serif" font-size="13">StudentId</text>
<rect x="495.9" y="841.0" width="80.1" height="24" fill="#fff7e6" stroke="black"/>
<text x="535.9" y="858.0" text-anchor="middle" font-family="Times New Roman,serif" font-size="13">CompanyId</text>
<rect x="576.0" y="841.0" width="59.4" height="24" fill="white" stroke="black"/>
<text x="605.7" y="858.0" text-anchor="middle" font-family="Times New Roman,serif" font-size="13">Rating</text>
<rect x="228.0" y="917.0" width="604.8" height="23" fill="#dbe6ff" stroke="black"/>
<text x="530.4" y="933.0" text-anchor="middle" font-family="Times New Roman,serif" font-weight="bold" font-size="13">CompanyReviewPayments</text>
<rect x="228.0" y="940.0" width="31.8" height="24" fill="white" stroke="black"/>
<text x="243.9" y="957.0" text-anchor="middle" font-family="Times New Roman,serif" font-size="13" text-decoration="underline">Id</text>
<rect x="259.8" y="940.0" width="156.0" height="24" fill="#fff7e6" stroke="black"/>
<text x="337.8" y="957.0" text-anchor="middle" font-family="Times New Roman,serif" font-size="13">ApplicationTrackerId</text>
<rect x="415.8" y="940.0" width="80.1" height="24" fill="#fff7e6" stroke="black"/>
<text x="455.9" y="957.0" text-anchor="middle" font-family="Times New Roman,serif" font-size="13">CompanyId</text>
<rect x="495.9" y="940.0" width="162.9" height="24" fill="white" stroke="black"/>
<text x="577.4" y="957.0" text-anchor="middle" font-family="Times New Roman,serif" font-size="13">StripePaymentIntentId</text>
<rect x="658.8" y="940.0" width="114.6" height="24" fill="white" stroke="black"/>
<text x="716.1" y="957.0" text-anchor="middle" font-family="Times New Roman,serif" font-size="13">IdempotencyKey</text>
<rect x="773.4" y="940.0" width="59.4" height="24" fill="white" stroke="black"/>
<text x="803.1" y="957.0" text-anchor="middle" font-family="Times New Roman,serif" font-size="13">Status</text>
</svg>
