<svg xmlns="http://www.w3.org/2000/svg" xmlns:xlink="http://www.w3.org/1999/xlink" contentStyleType="text/css" data-diagram-type="DESCRIPTION" height="572px" preserveAspectRatio="none" style="width:3559px;height:572px;background:#FFFFFF;" version="1.1" viewBox="0 0 3559 572" width="3559px" zoomAndPan="magnify"><?plantuml 1.2026.4?><defs/><g><g class="title" data-source-line="14"><text fill="#000000" font-family="sans-serif" font-size="14" font-weight="700" lengthAdjust="spacing" textLength="334.1543" x="1608.9764" y="24.5332">ScholarPath &#8212; component &amp; deployment diagram</text></g><!--cluster SWA--><g class="cluster" data-qualified-name="SWA" data-source-line="25" id="ent0001"><polygon fill="none" points="723,54.6094,733,44.6094,952,44.6094,952,139.6094,942,149.6094,723,149.6094,723,54.6094" style="stroke:#181818;stroke-width:1;stroke-linejoin:miter;stroke-miterlimit:10;"/><line style="stroke:#181818;stroke-width:1;" x1="942" x2="952" y1="54.6094" y2="44.6094"/><line style="stroke:#181818;stroke-width:1;" x1="723" x2="942" y1="54.6094" y2="54.6094"/><line style="stroke:#181818;stroke-width:1;" x1="942" x2="942" y1="54.6094" y2="149.6094"/><text fill="#000000" font-family="sans-serif" font-size="14" font-weight="700" lengthAdjust="spacing" textLength="153.2412" x="756.8794" y="72.1426">Azure Static Web Apps</text></g><!--cluster APPSVC--><g class="cluster" data-qualified-name="APPSVC" data-source-line="29" id="ent0003"><polygon fill="none" points="16,183.6094,26,173.6094,1120,173.6094,1120,517.6094,1110,527.6094,16,527.6094,16,183.6094" style="stroke:#181818;stroke-width:1;stroke-linejoin:miter;stroke-miterlimit:10;"/><line style="stroke:#181818;stroke-width:1;" x1="1110" x2="1120" y1="183.6094" y2="173.6094"/><line style="stroke:#181818;stroke-width:1;" x1="16" x2="1110" y1="183.6094" y2="183.6094"/><line style="stroke:#181818;stroke-width:1;" x1="1110" x2="1110" y1="183.6094" y2="527.6094"/><text fill="#000000" font-family="sans-serif" font-size="14" font-weight="700" lengthAdjust="spacing" textLength="255.5684" x="436.2158" y="201.1426">Azure App Service (Linux) &#8212; monolith</text></g><!--cluster AZ--><g class="cluster" data-qualified-name="AZ" data-source-line="40" id="ent0012"><path d="M2512.2455,307.0942 C2530.6175,272.4389 2561.0441,274.5694 2581.6785,304.6684 C2602.6201,270.7795 2629.5114,270.4054 2650.3208,304.8013 C2669.243,274.7742 2693.9138,276.748 2712.4504,305.2109 C2732.7583,273.2138 2762.9584,271.7288 2787.2819,300.2451 C2811.2818,270.2563 2834.1183,268.8948 2859.0332,299.1554 C2880.6403,272.5945 2906.5177,274.0918 2919.0517,308.1401 C2943.0497,269.0169 2970.3935,268.8869 2996.7903,305.6837 C3011.0854,271.6629 3036.8755,266.7465 3058.6925,298.6172 C3083.8334,264.3548 3106.6716,262.488 3131.0934,299.3492 C3151.8602,271.8708 3177.172,267.9319 3197.2661,300.0956 C3220.7884,271.3151 3254.1354,266.4445 3270.7049,307.4159 C3290.5816,276.6473 3326.0745,278.1108 3343.6875,310.0506 C3365.8909,273.4889 3395.1354,280.2136 3414.116,313.3091 C3431.5353,281.2189 3457.967,280.8495 3478,310.6094 C3482.2801,309.1888 3484.6437,311.4235 3484.3706,315.7005 C3537.2538,345.7588 3544.1071,379.489 3493.1368,418.411 C3523.1468,458.9224 3529.3506,491.6989 3471,511.1094 C3473.8753,508.9991 3476.1059,509.7727 3476.8615,513.3095 C3459.6116,545.7798 3428.5358,554.809 3404.4589,520.7379 C3386.1195,549.94 3358.4504,549.4424 3339.0462,521.9668 C3314.256,550.3108 3293.3188,554.2824 3270.0043,520.3313 C3245.6932,550.8526 3221.1328,548.5481 3203.0073,513.9657 C3182.1204,547.9128 3158.8659,557.7858 3130.0845,522.2511 C3111.7419,554.8529 3081.5086,546.4397 3067.7062,517.6386 C3044.6361,547.1174 3019.5445,553.2726 2995.3118,518.958 C2971.1131,548.7996 2945.8113,548.7791 2927.0024,513.3198 C2907.3017,543.5013 2880.7414,547.9472 2857.2278,517.7241 C2835.0289,553.4739 2800.2003,548.1933 2783.4736,512.1059 C2767.1324,544.4661 2737.1035,557.1935 2712.3793,520.7706 C2691.7071,550.5153 2666.3921,553.8142 2643.7743,522.9738 C2620.1716,551.4862 2588.9706,549.9093 2573.8587,513.789 C2543.9438,549.8709 2516.1702,546.4098 2496,504.1094 C2499.7559,503.1252 2503.4368,505.0991 2501.918,509.6992 C2462.6797,483.0991 2455.3926,443.2139 2502.5188,417.1745 C2451.1097,380.0543 2447.8764,340.2782 2503,303.6094 C2507.8202,300.2419 2510.7184,301.7249 2512.2455,307.0942" fill="none" style="stroke:#181818;stroke-width:1;"/><text fill="#000000" font-family="sans-serif" font-size="14" font-weight="700" lengthAdjust="spacing" textLength="184.3789" x="2894.8105" y="323.1426">Azure data, AI &amp; messaging</text></g><!--entity SPA--><g class="entity" data-qualified-name="SWA.SPA" data-source-line="26" id="ent0002"><rect fill="#F7F8FC" height="47.6094" rx="2.5" ry="2.5" style="stroke:#3F4A5A;stroke-width:0.5;" width="127.9375" x="741" y="85.6094"/><rect fill="#F7F8FC" height="10" style="stroke:#3F4A5A;stroke-width:0.5;" width="15" x="848.9375" y="90.6094"/><rect fill="#F7F8FC" height="2" style="stroke:#3F4A5A;stroke-width:0.5;" width="4" x="846.9375" y="92.6094"/><rect fill="#F7F8FC" height="2" style="stroke:#3F4A5A;stroke-width:0.5;" width="4" x="846.9375" y="96.6094"/><text fill="#000000" font-family="sans-serif" font-size="14" lengthAdjust="spacing" textLength="87.9375" x="756" y="120.1426">React 19 SPA</text></g><!--entity API--><g class="entity" data-qualified-name="APPSVC.API" data-source-line="30" id="ent0004"><rect fill="#F7F8FC" height="65.2188" rx="2.5" ry="2.5" style="stroke:#3F4A5A;stroke-width:0.5;" width="280.0439" x="563" y="214.6094"/><rect fill="#F7F8FC" height="10" style="stroke:#3F4A5A;stroke-width:0.5;" width="15" x="823.0439" y="219.6094"/><rect fill="#F7F8FC" height="2" style="stroke:#3F4A5A;stroke-width:0.5;" width="4" x="821.0439" y="221.6094"/><rect fill="#F7F8FC" height="2" style="stroke:#3F4A5A;stroke-width:0.5;" width="4" x="821.0439" y="225.6094"/><text fill="#000000" font-family="sans-serif" font-size="14" lengthAdjust="spacing" textLength="55.2412" x="578" y="249.1426">Web API</text><text fill="#000000" font-family="sans-serif" font-size="14" lengthAdjust="spacing" textLength="240.0439" x="578" y="266.752">(controllers + Stripe webhook receiver)</text></g><!--entity IDN--><g class="entity" data-qualified-name="APPSVC.IDN" data-source-line="31" id="ent0005"><rect fill="#F7F8FC" height="65.2188" rx="2.5" ry="2.5" style="stroke:#3F4A5A;stroke-width:0.5;" width="183.165" x="651.5" y="331.6094"/><rect fill="#F7F8FC" height="10" style="stroke:#3F4A5A;stroke-width:0.5;" width="15" x="814.665" y="336.6094"/><rect fill="#F7F8FC" height="2" style="stroke:#3F4A5A;stroke-width:0.5;" width="4" x="812.665" y="338.6094"/><rect fill="#F7F8FC" height="2" style="stroke:#3F4A5A;stroke-width:0.5;" width="4" x="812.665" y="342.6094"/><text fill="#000000" font-family="sans-serif" font-size="14" lengthAdjust="spacing" textLength="143.165" x="666.5" y="366.1426">ASP.NET Core Identity</text><text fill="#000000" font-family="sans-serif" font-size="14" lengthAdjust="spacing" textLength="86.7412" x="666.5" y="383.752">+ JWT Bearer</text></g><!--entity HUBS--><g class="entity" data-qualified-name="APPSVC.HUBS" data-source-line="32" id="ent0006"><rect fill="#F7F8FC" height="65.2188" rx="2.5" ry="2.5" style="stroke:#3F4A5A;stroke-width:0.5;" width="234.5029" x="292.5" y="214.6094"/><rect fill="#F7F8FC" height="10" style="stroke:#3F4A5A;stroke-width:0.5;" width="15" x="507.0029" y="219.6094"/><rect fill="#F7F8FC" height="2" style="stroke:#3F4A5A;stroke-width:0.5;" width="4" x="505.0029" y="221.6094"/><rect fill="#F7F8FC" height="2" style="stroke:#3F4A5A;stroke-width:0.5;" width="4" x="505.0029" y="225.6094"/><text fill="#000000" font-family="sans-serif" font-size="14" lengthAdjust="spacing" textLength="85.5996" x="307.5" y="249.1426">SignalR Hubs</text><text fill="#000000" font-family="sans-serif" font-size="14" lengthAdjust="spacing" textLength="194.5029" x="307.5" y="266.752">Chat &#183; Notification &#183; Community</text></g><!--entity JOBS--><g class="entity" data-qualified-name="APPSVC.JOBS" data-source-line="33" id="ent0007"><rect fill="#FFFDE0" height="65.2188" rx="2.5" ry="2.5" style="stroke:#3F4A5A;stroke-width:0.5;" width="225.2402" x="32.5" y="214.6094"/><rect fill="#FFFDE0" height="10" style="stroke:#3F4A5A;stroke-width:0.5;" width="15" x="237.7402" y="219.6094"/><rect fill="#FFFDE0" height="2" style="stroke:#3F4A5A;stroke-width:0.5;" width="4" x="235.7402" y="221.6094"/><rect fill="#FFFDE0" height="2" style="stroke:#3F4A5A;stroke-width:0.5;" width="4" x="235.7402" y="225.6094"/><text fill="#000000" font-family="sans-serif" font-size="14" lengthAdjust="spacing" textLength="86.3789" x="47.5" y="249.1426">Hangfire Jobs</text><text fill="#000000" font-family="sans-serif" font-size="14" lengthAdjust="spacing" textLength="185.2402" x="47.5" y="266.752">&#171;optional &#183; Hangfire:Enabled&#187;</text></g><!--entity APP--><g class="entity" data-qualified-name="APPSVC.APP" data-source-line="34" id="ent0008"><rect fill="#F7F8FC" height="65.2188" rx="2.5" ry="2.5" style="stroke:#3F4A5A;stroke-width:0.5;" width="224.3926" x="392" y="331.6094"/><rect fill="#F7F8FC" height="10" style="stroke:#3F4A5A;stroke-width:0.5;" width="15" x="596.3926" y="336.6094"/><rect fill="#F7F8FC" height="2" style="stroke:#3F4A5A;stroke-width:0.5;" width="4" x="594.3926" y="338.6094"/><rect fill="#F7F8FC" height="2" style="stroke:#3F4A5A;stroke-width:0.5;" width="4" x="594.3926" y="342.6094"/><text fill="#000000" font-family="sans-serif" font-size="14" lengthAdjust="spacing" textLength="68.4893" x="407" y="366.1426">Application</text><text fill="#000000" font-family="sans-serif" font-size="14" lengthAdjust="spacing" textLength="184.3926" x="407" y="383.752">(CQRS + ports + AiCostGate)</text></g><!--entity DOM--><g class="entity" data-qualified-name="APPSVC.DOM" data-source-line="35" id="ent0009"><rect fill="#F7F8FC" height="65.2188" rx="2.5" ry="2.5" style="stroke:#3F4A5A;stroke-width:0.5;" width="201.834" x="732" y="446.6094"/><rect fill="#F7F8FC" height="10" style="stroke:#3F4A5A;stroke-width:0.5;" width="15" x="913.834" y="451.6094"/><rect fill="#F7F8FC" height="2" style="stroke:#3F4A5A;stroke-width:0.5;" width="4" x="911.834" y="453.6094"/><rect fill="#F7F8FC" height="2" style="stroke:#3F4A5A;stroke-width:0.5;" width="4" x="911.834" y="457.6094"/><text fill="#000000" font-family="sans-serif" font-size="14" lengthAdjust="spacing" textLength="48.2412" x="747" y="481.1426">Domain</text><text fill="#000000" font-family="sans-serif" font-size="14" lengthAdjust="spacing" textLength="161.834" x="747" y="498.752">(entities &#183; enums &#183; events)</text></g><!--entity INF--><g class="entity" data-qualified-name="APPSVC.INF" data-source-line="36" id="ent0010"><rect fill="#F7F8FC" height="65.2188" rx="2.5" ry="2.5" style="stroke:#3F4A5A;stroke-width:0.5;" width="225.9717" x="878" y="214.6094"/><rect fill="#F7F8FC" height="10" style="stroke:#3F4A5A;stroke-width:0.5;" width="15" x="1083.9717" y="219.6094"/><rect fill="#F7F8FC" height="2" style="stroke:#3F4A5A;stroke-width:0.5;" width="4" x="1081.9717" y="221.6094"/><rect fill="#F7F8FC" height="2" style="stroke:#3F4A5A;stroke-width:0.5;" width="4" x="1081.9717" y="225.6094"/><text fill="#000000" font-family="sans-serif" font-size="14" lengthAdjust="spacing" textLength="82.4756" x="893" y="249.1426">Infrastructure</text><text fill="#000000" font-family="sans-serif" font-size="14" lengthAdjust="spacing" textLength="185.9717" x="893" y="266.752">(adapters implementing ports)</text></g><!--entity CACHE--><g class="entity" data-qualified-name="APPSVC.CACHE" data-source-line="37" id="ent0011"><rect fill="#FFFDE0" height="65.2188" rx="2.5" ry="2.5" style="stroke:#3F4A5A;stroke-width:0.5;" width="148.9717" x="429.5" y="446.6094"/><rect fill="#FFFDE0" height="10" style="stroke:#3F4A5A;stroke-width:0.5;" width="15" x="558.4717" y="451.6094"/><rect fill="#FFFDE0" height="2" style="stroke:#3F4A5A;stroke-width:0.5;" width="4" x="556.4717" y="453.6094"/><rect fill="#FFFDE0" height="2" style="stroke:#3F4A5A;stroke-width:0.5;" width="4" x="556.4717" y="457.6094"/><text fill="#000000" font-family="sans-serif" font-size="14" lengthAdjust="spacing" textLength="94.917" x="444.5" y="481.1426">IMemoryCache</text><text fill="#000000" font-family="sans-serif" font-size="14" lengthAdjust="spacing" textLength="108.9717" x="444.5" y="498.752">&#171;planned: Redis&#187;</text></g><!--entity SQL--><g class="entity" data-qualified-name="AZ.SQL" data-source-line="41" id="ent0013"><path d="M3106,350.6094 C3106,340.6094 3150.2378,340.6094 3150.2378,340.6094 C3150.2378,340.6094 3194.4756,340.6094 3194.4756,350.6094 L3194.4756,377.2188 C3194.4756,387.2188 3150.2378,387.2188 3150.2378,387.2188 C3150.2378,387.2188 3106,387.2188 3106,377.2188 L3106,350.6094" fill="#F1F1F1" style="stroke:#181818;stroke-width:0.5;"/><path d="M3106,350.6094 C3106,360.6094 3150.2378,360.6094 3150.2378,360.6094 C3150.2378,360.6094 3194.4756,360.6094 3194.4756,350.6094" fill="none" style="stroke:#181818;stroke-width:0.5;"/><text fill="#000000" font-family="sans-serif" font-size="14" lengthAdjust="spacing" textLength="68.4756" x="3116" y="379.1426">Azure SQL</text></g><!--entity AOAI--><g class="entity" data-qualified-name="AZ.AOAI" data-source-line="42" id="ent0014"><rect fill="#F7F8FC" height="65.2188" rx="2.5" ry="2.5" style="stroke:#3F4A5A;stroke-width:0.5;" width="211.582" x="2859" y="331.6094"/><rect fill="#F7F8FC" height="10" style="stroke:#3F4A5A;stroke-width:0.5;" width="15" x="3050.582" y="336.6094"/><rect fill="#F7F8FC" height="2" style="stroke:#3F4A5A;stroke-width:0.5;" width="4" x="3048.582" y="338.6094"/><rect fill="#F7F8FC" height="2" style="stroke:#3F4A5A;stroke-width:0.5;" width="4" x="3048.582" y="342.6094"/><text fill="#000000" font-family="sans-serif" font-size="14" lengthAdjust="spacing" textLength="87.9375" x="2874" y="366.1426">Azure OpenAI</text><text fill="#000000" font-family="sans-serif" font-size="14" lengthAdjust="spacing" textLength="171.582" x="2874" y="383.752">(gpt-4o-mini + embeddings)</text></g><!--entity ACS--><g class="entity" data-qualified-name="AZ.ACS" data-source-line="43" id="ent0015"><rect fill="#F7F8FC" height="65.2188" rx="2.5" ry="2.5" style="stroke:#3F4A5A;stroke-width:0.5;" width="183.1445" x="2640.5" y="331.6094"/><rect fill="#F7F8FC" height="10" style="stroke:#3F4A5A;stroke-width:0.5;" width="15" x="2803.6445" y="336.6094"/><rect fill="#F7F8FC" height="2" style="stroke:#3F4A5A;stroke-width:0.5;" width="4" x="2801.6445" y="338.6094"/><rect fill="#F7F8FC" height="2" style="stroke:#3F4A5A;stroke-width:0.5;" width="4" x="2801.6445" y="342.6094"/><text fill="#000000" font-family="sans-serif" font-size="14" lengthAdjust="spacing" textLength="143.1445" x="2655.5" y="366.1426">Azure Comm. Services</text><text fill="#000000" font-family="sans-serif" font-size="14" lengthAdjust="spacing" textLength="117.1133" x="2655.5" y="383.752">(video + recording)</text></g><!--entity BLOB--><g class="entity" data-qualified-name="AZ.BLOB" data-source-line="44" id="ent0016"><path d="M2504.5,350.6094 C2504.5,340.6094 2554.9722,340.6094 2554.9722,340.6094 C2554.9722,340.6094 2605.4443,340.6094 2605.4443,350.6094 L2605.4443,377.2188 C2605.4443,387.2188 2554.9722,387.2188 2554.9722,387.2188 C2554.9722,387.2188 2504.5,387.2188 2504.5,377.2188 L2504.5,350.6094" fill="#F1F1F1" style="stroke:#181818;stroke-width:0.5;"/><path d="M2504.5,350.6094 C2504.5,360.6094 2554.9722,360.6094 2554.9722,360.6094 C2554.9722,360.6094 2605.4443,360.6094 2605.4443,350.6094" fill="none" style="stroke:#181818;stroke-width:0.5;"/><text fill="#000000" font-family="sans-serif" font-size="14" lengthAdjust="spacing" textLength="80.9443" x="2514.5" y="379.1426">Blob Storage</text></g><!--entity KV--><g class="entity" data-qualified-name="AZ.KV" data-source-line="45" id="ent0017"><rect fill="#F7F8FC" height="47.6094" rx="2.5" ry="2.5" style="stroke:#3F4A5A;stroke-width:0.5;" width="99.9238" x="3370" y="340.1094"/><rect fill="#F7F8FC" height="10" style="stroke:#3F4A5A;stroke-width:0.5;" width="15" x="3449.9238" y="345.1094"/><rect fill="#F7F8FC" height="2" style="stroke:#3F4A5A;stroke-width:0.5;" width="4" x="3447.9238" y="347.1094"/><rect fill="#F7F8FC" height="2" style="stroke:#3F4A5A;stroke-width:0.5;" width="4" x="3447.9238" y="351.1094"/><text fill="#000000" font-family="sans-serif" font-size="14" lengthAdjust="spacing" textLength="59.9238" x="3385" y="374.6426">Key Vault</text></g><!--entity EH--><g class="entity" data-qualified-name="AZ.EH" data-source-line="46" id="ent0018"><rect fill="#F7F8FC" height="47.6094" rx="2.5" ry="2.5" style="stroke:#3F4A5A;stroke-width:0.5;" width="105.3721" x="3229.5" y="340.1094"/><rect fill="#F7F8FC" height="10" style="stroke:#3F4A5A;stroke-width:0.5;" width="15" x="3314.8721" y="345.1094"/><rect fill="#F7F8FC" height="2" style="stroke:#3F4A5A;stroke-width:0.5;" width="4" x="3312.8721" y="347.1094"/><rect fill="#F7F8FC" height="2" style="stroke:#3F4A5A;stroke-width:0.5;" width="4" x="3312.8721" y="351.1094"/><text fill="#000000" font-family="sans-serif" font-size="14" lengthAdjust="spacing" textLength="65.3721" x="3244.5" y="374.6426">Event Hub</text></g><!--entity PBI--><g class="entity" data-qualified-name="AZ.PBI" data-source-line="47" id="ent0019"><rect fill="#F7F8FC" height="47.6094" rx="2.5" ry="2.5" style="stroke:#3F4A5A;stroke-width:0.5;" width="96.7998" x="3302.5" y="455.1094"/><rect fill="#F7F8FC" height="10" style="stroke:#3F4A5A;stroke-width:0.5;" width="15" x="3379.2998" y="460.1094"/><rect fill="#F7F8FC" height="2" style="stroke:#3F4A5A;stroke-width:0.5;" width="4" x="3377.2998" y="462.1094"/><rect fill="#F7F8FC" height="2" style="stroke:#3F4A5A;stroke-width:0.5;" width="4" x="3377.2998" y="466.1094"/><text fill="#000000" font-family="sans-serif" font-size="14" lengthAdjust="spacing" textLength="56.7998" x="3317.5" y="489.6426">Power BI</text></g><!--entity OAI--><g class="entity" data-qualified-name="OAI" data-source-line="49" id="ent0020"><rect fill="#F7F8FC" height="65.2188" rx="2.5" ry="2.5" style="stroke:#3F4A5A;stroke-width:0.5;" width="168.0166" x="2093" y="331.6094"/><rect fill="#F7F8FC" height="10" style="stroke:#3F4A5A;stroke-width:0.5;" width="15" x="2241.0166" y="336.6094"/><rect fill="#F7F8FC" height="2" style="stroke:#3F4A5A;stroke-width:0.5;" width="4" x="2239.0166" y="338.6094"/><rect fill="#F7F8FC" height="2" style="stroke:#3F4A5A;stroke-width:0.5;" width="4" x="2239.0166" y="342.6094"/><text fill="#000000" font-family="sans-serif" font-size="14" lengthAdjust="spacing" textLength="85.5996" x="2108" y="366.1426">OpenAI direct</text><text fill="#000000" font-family="sans-serif" font-size="14" lengthAdjust="spacing" textLength="128.0166" x="2108" y="383.752">(chat + embeddings)</text></g><!--entity STRIPE--><g class="entity" data-qualified-name="STRIPE" data-source-line="50" id="ent0021"><rect fill="#F7F8FC" height="65.2188" rx="2.5" ry="2.5" style="stroke:#3F4A5A;stroke-width:0.5;" width="211.1855" x="494.5" y="77.1094"/><rect fill="#F7F8FC" height="10" style="stroke:#3F4A5A;stroke-width:0.5;" width="15" x="685.6855" y="82.1094"/><rect fill="#F7F8FC" height="2" style="stroke:#3F4A5A;stroke-width:0.5;" width="4" x="683.6855" y="84.1094"/><rect fill="#F7F8FC" height="2" style="stroke:#3F4A5A;stroke-width:0.5;" width="4" x="683.6855" y="88.1094"/><text fill="#000000" font-family="sans-serif" font-size="14" lengthAdjust="spacing" textLength="36.5723" x="509.5" y="111.6426">Stripe</text><text fill="#000000" font-family="sans-serif" font-size="14" lengthAdjust="spacing" textLength="171.1855" x="509.5" y="129.252">(PaymentIntents &#183; Connect)</text></g><!--entity SMTP--><g class="entity" data-qualified-name="SMTP" data-source-line="51" id="ent0022"><rect fill="#F7F8FC" height="47.6094" rx="2.5" ry="2.5" style="stroke:#3F4A5A;stroke-width:0.5;" width="173.041" x="2296.5" y="340.1094"/><rect fill="#F7F8FC" height="10" style="stroke:#3F4A5A;stroke-width:0.5;" width="15" x="2449.541" y="345.1094"/><rect fill="#F7F8FC" height="2" style="stroke:#3F4A5A;stroke-width:0.5;" width="4" x="2447.541" y="347.1094"/><rect fill="#F7F8FC" height="2" style="stroke:#3F4A5A;stroke-width:0.5;" width="4" x="2447.541" y="351.1094"/><text fill="#000000" font-family="sans-serif" font-size="14" lengthAdjust="spacing" textLength="133.041" x="2311.5" y="374.6426">SMTP mail / dev stub</text></g><!--entity CLAM--><g class="entity" data-qualified-name="CLAM" data-source-line="52" id="ent0023"><rect fill="#F7F8FC" height="47.6094" rx="2.5" ry="2.5" style="stroke:#3F4A5A;stroke-width:0.5;" width="91.3447" x="1136.5" y="340.1094"/><rect fill="#F7F8FC" height="10" style="stroke:#3F4A5A;stroke-width:0.5;" width="15" x="1207.8447" y="345.1094"/><rect fill="#F7F8FC" height="2" style="stroke:#3F4A5A;stroke-width:0.5;" width="4" x="1205.8447" y="347.1094"/><rect fill="#F7F8FC" height="2" style="stroke:#3F4A5A;stroke-width:0.5;" width="4" x="1205.8447" y="351.1094"/><text fill="#000000" font-family="sans-serif" font-size="14" lengthAdjust="spacing" textLength="51.3447" x="1151.5" y="374.6426">ClamAV</text></g><!--entity GOOG--><g class="entity" data-qualified-name="GOOG" data-source-line="53" id="ent0024"><rect fill="#F7F8FC" height="47.6094" rx="2.5" ry="2.5" style="stroke:#3F4A5A;stroke-width:0.5;" width="128.7236" x="1262.5" y="340.1094"/><rect fill="#F7F8FC" height="10" style="stroke:#3F4A5A;stroke-width:0.5;" width="15" x="1371.2236" y="345.1094"/><rect fill="#F7F8FC" height="2" style="stroke:#3F4A5A;stroke-width:0.5;" width="4" x="1369.2236" y="347.1094"/><rect fill="#F7F8FC" height="2" style="stroke:#3F4A5A;stroke-width:0.5;" width="4" x="1369.2236" y="351.1094"/><text fill="#000000" font-family="sans-serif" font-size="14" lengthAdjust="spacing" textLength="88.7236" x="1277.5" y="374.6426">Google OAuth</text></g><!--entity MSFT--><g class="entity" data-qualified-name="MSFT" data-source-line="54" id="ent0025"><rect fill="#F7F8FC" height="47.6094" rx="2.5" ry="2.5" style="stroke:#3F4A5A;stroke-width:0.5;" width="140.3652" x="1427" y="340.1094"/><rect fill="#F7F8FC" height="10" style="stroke:#3F4A5A;stroke-width:0.5;" width="15" x="1547.3652" y="345.1094"/><rect fill="#F7F8FC" height="2" style="stroke:#3F4A5A;stroke-width:0.5;" width="4" x="1545.3652" y="347.1094"/><rect fill="#F7F8FC" height="2" style="stroke:#3F4A5A;stroke-width:0.5;" width="4" x="1545.3652" y="351.1094"/><text fill="#000000" font-family="sans-serif" font-size="14" lengthAdjust="spacing" textLength="100.3652" x="1442" y="374.6426">Microsoft OAuth</text></g><g class="entity" data-qualified-name="GMN51" data-source-line="88" id="ent0052"><path d="M1602.5,334.6094 L1602.5,393.6641 L2057.4067,393.6641 L2057.4067,344.6094 L2047.4067,334.6094 L1602.5,334.6094" fill="#FEFFDD" style="stroke:#181818;stroke-width:0.5;"/><path d="M2047.4067,334.6094 L2047.4067,344.6094 L2057.4067,344.6094 L2047.4067,334.6094" fill="#FEFFDD" style="stroke:#181818;stroke-width:1;"/><text fill="#000000" font-family="sans-serif" font-size="13" lengthAdjust="spacing" textLength="393.8086" x="1608.5" y="353.1045">Recommendations are produced by the deterministic LocalAiService</text><text fill="#000000" font-family="sans-serif" font-size="13" lengthAdjust="spacing" textLength="433.9067" x="1608.5" y="369.4561">(offline metadata scoring + RAG); Azure/OpenAI back the chat &amp; Q&amp;A only.</text><text fill="#000000" font-family="sans-serif" font-size="13" lengthAdjust="spacing" textLength="433.5386" x="1608.5" y="385.8076">Key Vault is reached via IFieldEncryptionKeyProvider and IJwtKeyProvider.</text></g><!--link SPA to API--><g class="link" data-entity-1="ent0002" data-entity-2="ent0004" data-link-type="dependency" data-source-line="57" id="lnk26"><path d="M809,133.8794 C809,156.3094 809,184.8194 809,209.5694" fill="none" id="SPA-to-API" style="stroke:#181818;stroke-width:1;"/><polygon fill="#181818" points="809,214.5694,813,205.5694,809,209.5694,805,205.5694,809,214.5694" style="stroke:#181818;stroke-width:1;stroke-linejoin:miter;stroke-miterlimit:10;"/><text fill="#000000" font-family="sans-serif" font-size="13" lengthAdjust="spacing" textLength="129.6445" x="679" y="170.7145">HTTPS / REST + JWT</text></g><!--link SPA to HUBS--><g class="link" data-entity-1="ent0002" data-entity-2="ent0006" data-link-type="dependency" data-source-line="58" id="lnk27"><path d="M775,133.7394 C775,153.6394 775,178.6094 775,178.6094 C775,178.6094 511,178.6094 511,178.6094 C511,178.6094 511,191.8194 511,209.4594" fill="none" id="SPA-to-HUBS" style="stroke:#181818;stroke-width:1;stroke-dasharray:7,7;"/><polygon fill="#181818" points="511,214.4594,515,205.4594,511,209.4594,507,205.4594,511,214.4594" style="stroke:#181818;stroke-width:1;stroke-linejoin:miter;stroke-miterlimit:10;"/><text fill="#000000" font-family="sans-serif" font-size="13" lengthAdjust="spacing" textLength="66.4727" x="648.51" y="175.1045">WebSocket</text></g><!--link API to IDN--><g class="link" data-entity-1="ent0004" data-entity-2="ent0005" data-link-type="dependency" data-source-line="59" id="lnk28"><path d="M743,279.6994 C743,295.7894 743,310.1594 743,326.2894" fill="none" id="API-to-IDN" style="stroke:#181818;stroke-width:1;"/><polygon fill="#181818" points="743,331.2894,747,322.2894,743,326.2894,739,322.2894,743,331.2894" style="stroke:#181818;stroke-width:1;stroke-linejoin:miter;stroke-miterlimit:10;"/></g><!--link API to APP--><g class="link" data-entity-1="ent0004" data-entity-2="ent0008" data-link-type="dependency" data-source-line="62" id="lnk29"><path d="M580.67,279.6994 C580.67,295.7894 580.67,310.1594 580.67,326.2894" fill="none" id="API-to-APP" style="stroke:#181818;stroke-width:1;"/><polygon fill="#181818" points="580.67,331.2894,584.67,322.2894,580.67,326.2894,576.67,322.2894,580.67,331.2894" style="stroke:#181818;stroke-width:1;stroke-linejoin:miter;stroke-miterlimit:10;"/></g><!--link HUBS to APP--><g class="link" data-entity-1="ent0006" data-entity-2="ent0008" data-link-type="dependency" data-source-line="63" id="lnk30"><path d="M459.75,279.6994 C459.75,295.7894 459.75,310.1594 459.75,326.2894" fill="none" id="HUBS-to-APP" style="stroke:#181818;stroke-width:1;"/><polygon fill="#181818" points="459.75,331.2894,463.75,322.2894,459.75,326.2894,455.75,322.2894,459.75,331.2894" style="stroke:#181818;stroke-width:1;stroke-linejoin:miter;stroke-miterlimit:10;"/></g><!--link JOBS to APP--><g class="link" data-entity-1="ent0007" data-entity-2="ent0008" data-link-type="dependency" data-source-line="64" id="lnk31"><path d="M145,279.8394 C145,314.6094 145,364.6094 145,364.6094 C145,364.6094 281.55,364.6094 386.89,364.6094" fill="none" id="JOBS-to-APP" style="stroke:#181818;stroke-width:1;"/><polygon fill="#181818" points="391.89,364.6094,382.89,360.6094,386.89,364.6094,382.89,368.6094,391.89,364.6094" style="stroke:#181818;stroke-width:1;stroke-linejoin:miter;stroke-miterlimit:10;"/></g><!--link APP to DOM--><g class="link" data-entity-1="ent0008" data-entity-2="ent0009" data-link-type="dependency" data-source-line="65" id="lnk32"><path d="M597.25,396.8994 C597.25,431.0494 597.25,479.6094 597.25,479.6094 C597.25,479.6094 663.01,479.6094 726.99,479.6094" fill="none" id="APP-to-DOM" style="stroke:#181818;stroke-width:1;"/><polygon fill="#181818" points="731.99,479.6094,722.99,475.6094,726.99,479.6094,722.99,483.6094,731.99,479.6094" style="stroke:#181818;stroke-width:1;stroke-linejoin:miter;stroke-miterlimit:10;"/></g><!--link INF to APP--><g class="link" data-entity-1="ent0010" data-entity-2="ent0008" data-link-type="dependency" data-source-line="66" id="lnk33"><path d="M896.67,279.7794 C896.67,293.1794 896.67,305.6094 896.67,305.6094 C896.67,305.6094 598.33,305.6094 598.33,305.6094 C598.33,305.6094 598.33,313.0394 598.33,326.4394" fill="none" id="INF-to-APP" style="stroke:#181818;stroke-width:1;stroke-dasharray:7,7;"/><polygon fill="#181818" points="598.33,331.4394,602.33,322.4394,598.33,326.4394,594.33,322.4394,598.33,331.4394" style="stroke:#181818;stroke-width:1;stroke-linejoin:miter;stroke-miterlimit:10;"/><text fill="#000000" font-family="sans-serif" font-size="13" lengthAdjust="spacing" textLength="98.979" x="648.5" y="302.1045">implements ports</text></g><!--link INF to DOM--><g class="link" data-entity-1="ent0010" data-entity-2="ent0009" data-link-type="dependency" data-source-line="67" id="lnk34"><path d="M915.33,279.8594 C915.33,324.0694 915.33,397.3994 915.33,441.5294" fill="none" id="INF-to-DOM" style="stroke:#181818;stroke-width:1;"/><polygon fill="#181818" points="915.33,446.5294,919.33,437.5294,915.33,441.5294,911.33,437.5294,915.33,446.5294" style="stroke:#181818;stroke-width:1;stroke-linejoin:miter;stroke-miterlimit:10;"/></g><!--link APP to CACHE--><g class="link" data-entity-1="ent0008" data-entity-2="ent0011" data-link-type="dependency" data-source-line="68" id="lnk35"><path d="M504,396.7594 C504,412.2994 504,425.8294 504,441.3794" fill="none" id="APP-to-CACHE" style="stroke:#181818;stroke-width:1;"/><polygon fill="#181818" points="504,446.3794,508,437.3794,504,441.3794,500,437.3794,504,446.3794" style="stroke:#181818;stroke-width:1;stroke-linejoin:miter;stroke-miterlimit:10;"/></g><!--link INF to SQL--><g class="link" data-entity-1="ent0010" data-entity-2="ent0013" data-link-type="dependency" data-source-line="71" id="lnk36"><path d="M1104.04,229.6094 C1548.27,229.6094 3150,229.6094 3150,229.6094 C3150,229.6094 3150,296.7594 3150,335.3694" fill="none" id="INF-to-SQL" style="stroke:#181818;stroke-width:1;"/><polygon fill="#181818" points="3150,340.3694,3154,331.3694,3150,335.3694,3146,331.3694,3150,340.3694" style="stroke:#181818;stroke-width:1;stroke-linejoin:miter;stroke-miterlimit:10;"/></g><!--link INF to AOAI--><g class="link" data-entity-1="ent0010" data-entity-2="ent0014" data-link-type="dependency" data-source-line="72" id="lnk37"><path d="M1104.22,234.6094 C1523.67,234.6094 2965,234.6094 2965,234.6094 C2965,234.6094 2965,288.0694 2965,326.4294" fill="none" id="INF-to-AOAI" style="stroke:#181818;stroke-width:1;"/><polygon fill="#181818" points="2965,331.4294,2969,322.4294,2965,326.4294,2961,322.4294,2965,331.4294" style="stroke:#181818;stroke-width:1;stroke-linejoin:miter;stroke-miterlimit:10;"/><text fill="#000000" font-family="sans-serif" font-size="13" lengthAdjust="spacing" textLength="110.2144" x="1972.02" y="231.1045">chat + embeddings</text></g><!--link INF to OAI--><g class="link" data-entity-1="ent0010" data-entity-2="ent0020" data-link-type="dependency" data-source-line="73" id="lnk38"><path d="M1104.18,254.6094 C1400.63,254.6094 2177,254.6094 2177,254.6094 C2177,254.6094 2177,294.2794 2177,326.5494" fill="none" id="INF-to-OAI" style="stroke:#181818;stroke-width:1;"/><polygon fill="#181818" points="2177,331.5494,2181,322.5494,2177,326.5494,2173,322.5494,2177,331.5494" style="stroke:#181818;stroke-width:1;stroke-linejoin:miter;stroke-miterlimit:10;"/><text fill="#000000" font-family="sans-serif" font-size="13" lengthAdjust="spacing" textLength="140.1563" x="1538.06" y="251.1045">alt provider (Ai:Provider)</text></g><!--link INF to ACS--><g class="link" data-entity-1="ent0010" data-entity-2="ent0015" data-link-type="dependency" data-source-line="74" id="lnk39"><path d="M1104.23,239.6094 C1490.4,239.6094 2732,239.6094 2732,239.6094 C2732,239.6094 2732,289.5094 2732,326.3994" fill="none" id="INF-to-ACS" style="stroke:#181818;stroke-width:1;"/><polygon fill="#181818" points="2732,331.3994,2736,322.3994,2732,326.3994,2728,322.3994,2732,331.3994" style="stroke:#181818;stroke-width:1;stroke-linejoin:miter;stroke-miterlimit:10;"/></g><!--link INF to BLOB--><g class="link" data-entity-1="ent0010" data-entity-2="ent0016" data-link-type="dependency" data-source-line="75" id="lnk40"><path d="M1104.11,244.6094 C1463.37,244.6094 2555,244.6094 2555,244.6094 C2555,244.6094 2555,300.6694 2555,335.4994" fill="none" id="INF-to-BLOB" style="stroke:#181818;stroke-width:1;"/><polygon fill="#181818" points="2555,340.4994,2559,331.4994,2555,335.4994,2551,331.4994,2555,340.4994" style="stroke:#181818;stroke-width:1;stroke-linejoin:miter;stroke-miterlimit:10;"/><text fill="#000000" font-family="sans-serif" font-size="13" lengthAdjust="spacing" textLength="97.5508" x="1878.5" y="259.1045">Storage:Provider</text></g><!--link INF to CLAM--><g class="link" data-entity-1="ent0010" data-entity-2="ent0023" data-link-type="dependency" data-source-line="76" id="lnk41"><path d="M1104.04,274.6094 C1145.28,274.6094 1182,274.6094 1182,274.6094 C1182,274.6094 1182,308.1494 1182,334.6494" fill="none" id="INF-to-CLAM" style="stroke:#181818;stroke-width:1;"/><polygon fill="#181818" points="1182,339.6494,1186,330.6494,1182,334.6494,1178,330.6494,1182,339.6494" style="stroke:#181818;stroke-width:1;stroke-linejoin:miter;stroke-miterlimit:10;"/><text fill="#000000" font-family="sans-serif" font-size="13" lengthAdjust="spacing" textLength="126.4771" x="1176.54" y="289.1045">FileScanning:Enabled</text></g><!--link INF to KV--><g class="link" data-entity-1="ent0010" data-entity-2="ent0017" data-link-type="dependency" data-source-line="77" id="lnk42"><path d="M1104.09,219.6094 C1583.06,219.6094 3420,219.6094 3420,219.6094 C3420,219.6094 3420,293.7894 3420,334.9194" fill="none" id="INF-to-KV" style="stroke:#181818;stroke-width:1;"/><polygon fill="#181818" points="3420,339.9194,3424,330.9194,3420,334.9194,3416,330.9194,3420,339.9194" style="stroke:#181818;stroke-width:1;stroke-linejoin:miter;stroke-miterlimit:10;"/><text fill="#000000" font-family="sans-serif" font-size="13" lengthAdjust="spacing" textLength="171.5708" x="2150.2" y="216.1045">field-key + JWT-key providers</text></g><!--link INF to EH--><g class="link" data-entity-1="ent0010" data-entity-2="ent0018" data-link-type="dependency" data-source-line="78" id="lnk43"><path d="M1104.22,224.6094 C1565.92,224.6094 3282,224.6094 3282,224.6094 C3282,224.6094 3282,294.8394 3282,334.8094" fill="none" id="INF-to-EH" style="stroke:#181818;stroke-width:1;"/><polygon fill="#181818" points="3282,339.8094,3286,330.8094,3282,334.8094,3278,330.8094,3282,339.8094" style="stroke:#181818;stroke-width:1;stroke-linejoin:miter;stroke-miterlimit:10;"/></g><!--link INF to SMTP--><g class="link" data-entity-1="ent0010" data-entity-2="ent0022" data-link-type="dependency" data-source-line="79" id="lnk44"><path d="M1104.03,249.6094 C1435.68,249.6094 2383,249.6094 2383,249.6094 C2383,249.6094 2383,301.5294 2383,335.1094" fill="none" id="INF-to-SMTP" style="stroke:#181818;stroke-width:1;"/><polygon fill="#181818" points="2383,340.1094,2387,331.1094,2383,335.1094,2379,331.1094,2383,340.1094" style="stroke:#181818;stroke-width:1;stroke-linejoin:miter;stroke-miterlimit:10;"/><text fill="#000000" font-family="sans-serif" font-size="13" lengthAdjust="spacing" textLength="84.5254" x="1703.76" y="246.1045">Email:Provider</text></g><!--link INF to STRIPE--><g class="link" data-entity-1="ent0010" data-entity-2="ent0021" data-link-type="dependency" data-source-line="80" id="lnk45"><path d="M991,214.5594 C991,182.5994 991,138.6094 991,138.6094 C991,138.6094 826.36,138.6094 710.55,138.6094" fill="none" id="INF-to-STRIPE" style="stroke:#181818;stroke-width:1;"/><polygon fill="#181818" points="705.55,138.6094,714.55,142.6094,710.55,138.6094,714.55,134.6094,705.55,138.6094" style="stroke:#181818;stroke-width:1;stroke-linejoin:miter;stroke-miterlimit:10;"/><text fill="#000000" font-family="sans-serif" font-size="13" lengthAdjust="spacing" textLength="138.0234" x="747.25" y="153.1045">create / capture / refund</text></g><!--link INF to GOOG--><g class="link" data-entity-1="ent0010" data-entity-2="ent0024" data-link-type="dependency" data-source-line="81" id="lnk46"><path d="M1104.29,269.6094 C1201.83,269.6094 1327,269.6094 1327,269.6094 C1327,269.6094 1327,306.7694 1327,334.7694" fill="none" id="INF-to-GOOG" style="stroke:#181818;stroke-width:1;"/><polygon fill="#181818" points="1327,339.7694,1331,330.7694,1327,334.7694,1323,330.7694,1327,339.7694" style="stroke:#181818;stroke-width:1;stroke-linejoin:miter;stroke-miterlimit:10;"/><text fill="#000000" font-family="sans-serif" font-size="13" lengthAdjust="spacing" textLength="27.4536" x="1222.72" y="266.1045">SSO</text></g><!--link INF to MSFT--><g class="link" data-entity-1="ent0010" data-entity-2="ent0025" data-link-type="dependency" data-source-line="82" id="lnk47"><path d="M1104.24,264.6094 C1253.4,264.6094 1497,264.6094 1497,264.6094 C1497,264.6094 1497,305.5794 1497,335.0194" fill="none" id="INF-to-MSFT" style="stroke:#181818;stroke-width:1;"/><polygon fill="#181818" points="1497,340.0194,1501,331.0194,1497,335.0194,1493,331.0194,1497,340.0194" style="stroke:#181818;stroke-width:1;stroke-linejoin:miter;stroke-miterlimit:10;"/><text fill="#000000" font-family="sans-serif" font-size="13" lengthAdjust="spacing" textLength="27.4536" x="1310.33" y="261.1045">SSO</text></g><!--link STRIPE to API--><g class="link" data-entity-1="ent0021" data-entity-2="ent0004" data-link-type="dependency" data-source-line="83" id="lnk48"><path d="M634.25,142.1994 C634.25,163.9594 634.25,187.4694 634.25,209.2794" fill="none" id="STRIPE-to-API" style="stroke:#181818;stroke-width:1;"/><polygon fill="#181818" points="634.25,214.2794,638.25,205.2794,634.25,209.2794,630.25,205.2794,634.25,214.2794" style="stroke:#181818;stroke-width:1;stroke-linejoin:miter;stroke-miterlimit:10;"/><text fill="#000000" font-family="sans-serif" font-size="13" lengthAdjust="spacing" textLength="52.0381" x="581.25" y="174.7345">webhook</text></g><!--link EH to PBI--><g class="link" data-entity-1="ent0018" data-entity-2="ent0019" data-link-type="dependency" data-source-line="84" id="lnk49"><path d="M3323.83,388.2194 C3323.83,407.8394 3323.83,430.4194 3323.83,450.0294" fill="none" id="EH-to-PBI" style="stroke:#181818;stroke-width:1;"/><polygon fill="#181818" points="3323.83,455.0294,3327.83,446.0294,3323.83,450.0294,3319.83,446.0294,3323.83,455.0294" style="stroke:#181818;stroke-width:1;stroke-linejoin:miter;stroke-miterlimit:10;"/></g><!--link PBI to API--><g class="link" data-entity-1="ent0019" data-entity-2="ent0004" data-link-type="dependency" data-source-line="85" id="lnk50"><path d="M3313.17,455.0594 C3313.17,439.2994 3313.17,421.6094 3313.17,421.6094 C3313.17,421.6094 838.75,421.6094 838.75,421.6094 C838.75,421.6094 838.75,335.4794 838.75,284.9294" fill="none" id="PBI-to-API" style="stroke:#181818;stroke-width:1;"/><polygon fill="#181818" points="838.75,279.9294,834.75,288.9294,838.75,284.9294,842.75,288.9294,838.75,279.9294" style="stroke:#181818;stroke-width:1;stroke-linejoin:miter;stroke-miterlimit:10;"/><text fill="#000000" font-family="sans-serif" font-size="13" lengthAdjust="spacing" textLength="81.6626" x="1939.84" y="418.1045">embed tokens</text></g><!--link INF to GMN51--><g class="link" data-entity-1="ent0010" data-entity-2="ent0052" data-link-type="association" data-source-line="88" id="lnk53"><path d="M1104.15,259.6094 C1333.16,259.6094 1830,259.6094 1830,259.6094 C1830,259.6094 1830,303.5494 1830,334.4394" fill="none" id="INF-GMN51" style="stroke:#181818;stroke-width:1;stroke-dasharray:7,7;"/></g><?plantuml-src RLLTRkCs47xNAGPR84sG9hlTtQ1j2YmWAtQi_5cnt0HeiW-qDBO9KwH0qiwwHO4UehVe0VhGjnob9-aC9JakqWS1ud2--VrcwALN27cnC4hOJFW5_FFx7r2OgZOQjOSzAB5MPbFnePHYRaKLkQNKjQ2_5yNSRyZEgbBlTsxTGfJcIUevp8Hok7EZf4Q_gH6CzGkpSs65NZgiuUJTZb2R4bduuUJ_NCEl4K1F5CkvDIjT9aOP2ryDlXjyFqZunjWIRIlzCFWOdyJHRr74Dk5D_ClAKlfUU5d0FKuXhclt1eI3_3uEXX_6A0eFt_u0UHP_3ZVPAmE4WXpjMXO8-rTIhxuSX3fMHXib_I9OZBCilqiQey5LbZxg_S9eRurIQ1qSKYHMKbMUSBemPWaM2vHhj0UV6mCfO-CyExxfJo0nv3ajgGBIRnxr8LpSJw27mg8DwkdP3QldSgw56iDmDNMFEba83yz_mOtnSYOBojjeFYUcgbQQ30NeyATUpjYXqFEP93SNXi7FVvgQ0K8nfBiyxMinLLW-_nsm5wDUJkKV3CxwxqAuTQrQHvHkSZlEAS-Q-ixvnZ8npfyBZrsA6MFEJ2KaguVa93hsXtfLDJzh4hi6S3QwPa2gPrOuRrU5ftuGK9IYzbnJMTKAcRrCm-2s0QOtWm2ynihOJIAA1NA2jH9QOtaAOoobQrDAucJOt-P4lI-KMPLTyqlXnJSGfpGh5JedvkIfQVZFeTbyFnNkXMstLmt3Rgz2VO9mLAEEcG_psXzzD4ULr9BgWzKKov8Cjb77epXz0N7JZZlYKN_srx94Gp3Y3R6UO2qgoVyJHq-PAL7DM37744hlQjHZivUuWJknKZx0BkzOrkTgCtk2h3zaMMQUq48l3QAibr9D7feCQ4UGSy_4PgQzpe0JU6XeJagP29ibrPvRsX2Hwb_uHZcVZDEiJ_hNamo84WhUqZvQW_DjE7mHFIHALF5Tqwgh-3fwE3TcJkje5A_y8eZFHwFpwE5Q5jOuC_CxDzVvO195NqEX9ETvz0aSrHDjH6CEHtIagGE0KnXE9bbE_iVzV09Xs8BAyV6dC2wiGbETcsA9Fc8GWta6oRZKJyAMi9ye51fYMooanq3L0zwlg6cA2w9vmBLUioYOxGvXhBe3VOqQqv-O326C83rzORnh-DueTDfRQ21r4zpkx705y0kD3a-vspYFLME1CKpPxf-f60hpgj5RbKQ3L8JoK5l3zBIm7ylJh3qSl9WZZdR_JCU0QpcwLTzgS9k3na0gp0kQMNBSBQAjrkKTDFvd4bLvj2HsXyQ5lowUbt29szj4cN2Cx3FhNljlYCd9MwJbHRGeQDzm-TxIyCte6TggClMQPFBHLiYismfROntPJhlr7_M7JQjumkZReICfXNg3DqlKZbyZYc9gl3SLc5cxtSQq1YfYGXcshmDw6ZZjSbKGShe1lw3jXTHhtZQEdy0hKmWLotQba8bzCvlnOqshpGlU8E1ejV0kFOHnV7xm8uHLzBQT_Yazmy5i8CKUtEx5OBJQ79EfxN81wQX8l75BM4i1wO3RqzU5tOJdXHIxWeFG9QGNJtv7TXnHHi09_mi0?></g></svg>