<?xml version="1.0" encoding="UTF-8" standalone="no"?>
<!DOCTYPE svg PUBLIC "-//W3C//DTD SVG 1.1//EN"
 "http://www.w3.org/Graphics/SVG/1.1/DTD/svg11.dtd">
<!-- Generated by graphviz version 2.44.1 (20200629.0846)
 -->
<!-- Title: EER Pages: 1 -->
<svg width="1769pt" height="495pt"
 viewBox="0.00 0.00 1769.05 495.00" xmlns="http://www.w3.org/2000/svg" xmlns:xlink="http://www.w3.org/1999/xlink">
<g id="graph0" class="graph" transform="scale(1 1) rotate(0) translate(4 491)">
<title>EER</title>
<polygon fill="white" stroke="transparent" points="-4,4 -4,-491 1765.05,-491 1765.05,4 -4,4"/>
<!-- USER -->
<g id="node1" class="node">
<title>USER</title>
<polygon fill="#dbe6ff" stroke="black" points="1110.08,-334 1056.08,-334 1056.08,-298 1110.08,-298 1110.08,-334"/>
<text text-anchor="middle" x="1083.08" y="-312.1" font-family="Times New Roman" font-size="13.00">USER</text>
</g>
<!-- oc -->
<g id="node6" class="node">
<title>oc</title>
<ellipse fill="none" stroke="black" cx="1083.08" cy="-243" rx="15" ry="15"/>
<text text-anchor="middle" x="1083.08" y="-239.1" font-family="Times New Roman" font-size="13.00">o</text>
</g>
<!-- USER&#45;&gt;oc -->
<g id="edge5" class="edge">
<title>USER&#45;&gt;oc</title>
<path fill="none" stroke="black" d="M1083.08,-297.81C1083.08,-285.66 1083.08,-269.58 1083.08,-258.17"/>
</g>
<!-- u_id -->
<g id="node2" class="node">
<title>u_id</title>
<ellipse fill="none" stroke="black" cx="949.08" cy="-430.5" rx="27" ry="18"/>
<text text-anchor="start" x="943.67" y="-427.6" font-family="Times New Roman" text-decoration="underline" font-size="13.00">Id</text>
</g>
<!-- u_id&#45;&gt;USER -->
<g id="edge1" class="edge">
<title>u_id&#45;&gt;USER</title>
<path fill="none" stroke="black" d="M957.31,-413.25C963.91,-401.36 974.04,-385.37 986.08,-374 1006.67,-354.55 1035.05,-338.85 1055.8,-328.89"/>
</g>
<!-- u_email -->
<g id="node3" class="node">
<title>u_email</title>
<ellipse fill="none" stroke="black" cx="1027.08" cy="-430.5" rx="31.31" ry="18"/>
<text text-anchor="middle" x="1027.08" y="-426.6" font-family="Times New Roman" font-size="13.00">Email</text>
</g>
<!-- u_email&#45;&gt;USER -->
<g id="edge2" class="edge">
<title>u_email&#45;&gt;USER</title>
<path fill="none" stroke="black" d="M1035.34,-412.9C1045.87,-391.75 1063.97,-355.39 1074.6,-334.04"/>
</g>
<!-- u_acct -->
<g id="node4" class="node">
<title>u_acct</title>
<ellipse fill="none" stroke="black" cx="1139.08" cy="-430.5" rx="60.59" ry="18"/>
<text text-anchor="middle" x="1139.08" y="-426.6" font-family="Times New Roman" font-size="13.00">AccountStatus</text>
</g>
<!-- u_acct&#45;&gt;USER -->
<g id="edge3" class="edge">
<title>u_acct&#45;&gt;USER</title>
<path fill="none" stroke="black" d="M1130.57,-412.41C1120.05,-391.27 1102.23,-355.47 1091.66,-334.25"/>
</g>
<!-- u_role -->
<g id="node5" class="node">
<title>u_role</title>
<ellipse fill="none" stroke="black" cx="1270.08" cy="-430.5" rx="49.59" ry="18"/>
<text text-anchor="middle" x="1270.08" y="-426.6" font-family="Times New Roman" font-size="13.00">ActiveRole</text>
</g>
<!-- u_role&#45;&gt;USER -->
<g id="edge4" class="edge">
<title>u_role&#45;&gt;USER</title>
<path fill="none" stroke="black" d="M1255.22,-413.15C1243.74,-401.2 1227.01,-385.19 1210.08,-374 1178.02,-352.81 1136.8,-335.95 1110.16,-326.22"/>
</g>
<!-- isa1 -->
<g id="node11" class="node">
<title>isa1</title>
<text text-anchor="start" x="644.08" y="-165.2" font-family="Times New Roman" font-size="16.00">⊂</text>
</g>
<!-- oc&#45;&gt;isa1 -->
<g id="edge6" class="edge">
<title>oc&#45;&gt;isa1</title>
<path fill="none" stroke="black" d="M1068.42,-239.6C992.79,-227.19 650.08,-171 650.08,-171"/>
</g>
<!-- isa2 -->
<g id="node12" class="node">
<title>isa2</title>
<text text-anchor="start" x="948.08" y="-165.2" font-family="Times New Roman" font-size="16.00">⊂</text>
</g>
<!-- oc&#45;&gt;isa2 -->
<g id="edge8" class="edge">
<title>oc&#45;&gt;isa2</title>
<path fill="none" stroke="black" d="M1070.24,-234.93C1037.61,-216.97 954.08,-171 954.08,-171"/>
</g>
<!-- isa3 -->
<g id="node13" class="node">
<title>isa3</title>
<text text-anchor="start" x="1206.08" y="-165.2" font-family="Times New Roman" font-size="16.00">⊂</text>
</g>
<!-- oc&#45;&gt;isa3 -->
<g id="edge10" class="edge">
<title>oc&#45;&gt;isa3</title>
<path fill="none" stroke="black" d="M1095.92,-234.93C1128.55,-216.97 1212.08,-171 1212.08,-171"/>
</g>
<!-- isa4 -->
<g id="node14" class="node">
<title>isa4</title>
<text text-anchor="start" x="1470.08" y="-165.2" font-family="Times New Roman" font-size="16.00">⊂</text>
</g>
<!-- oc&#45;&gt;isa4 -->
<g id="edge12" class="edge">
<title>oc&#45;&gt;isa4</title>
<path fill="none" stroke="black" d="M1098.01,-239.3C1169.79,-226.33 1476.08,-171 1476.08,-171"/>
</g>
<!-- STUDENT -->
<g id="node7" class="node">
<title>STUDENT</title>
<polygon fill="#e8f5e9" stroke="black" points="318.79,-112 243.37,-112 243.37,-76 318.79,-76 318.79,-112"/>
<text text-anchor="middle" x="281.08" y="-90.1" font-family="Times New Roman" font-size="13.00">STUDENT</text>
</g>
<!-- st1 -->
<g id="node15" class="node">
<title>st1</title>
<ellipse fill="none" stroke="black" cx="65.08" cy="-18" rx="65.16" ry="18"/>
<text text-anchor="middle" x="65.08" y="-14.1" font-family="Times New Roman" font-size="13.00">AcademicLevel</text>
</g>
<!-- STUDENT&#45;&gt;st1 -->
<g id="edge14" class="edge">
<title>STUDENT&#45;&gt;st1</title>
<path fill="none" stroke="black" d="M243.45,-80.11C204.53,-66.78 144.02,-46.04 104.46,-32.49"/>
</g>
<!-- st2 -->
<g id="node16" class="node">
<title>st2</title>
<ellipse fill="none" stroke="black" cx="177.08" cy="-18" rx="27" ry="18"/>
<text text-anchor="middle" x="177.08" y="-14.1" font-family="Times New Roman" font-size="13.00">Gpa</text>
</g>
<!-- STUDENT&#45;&gt;st2 -->
<g id="edge15" class="edge">
<title>STUDENT&#45;&gt;st2</title>
<path fill="none" stroke="black" d="M256.96,-75.84C238,-62.34 212.01,-43.86 194.9,-31.68"/>
</g>
<!-- st3 -->
<g id="node17" class="node">
<title>st3</title>
<ellipse fill="none" stroke="black" cx="281.08" cy="-18" rx="57.41" ry="18"/>
<text text-anchor="middle" x="281.08" y="-14.1" font-family="Times New Roman" font-size="13.00">FieldOfStudy</text>
</g>
<!-- STUDENT&#45;&gt;st3 -->
<g id="edge16" class="edge">
<title>STUDENT&#45;&gt;st3</title>
<path fill="none" stroke="black" d="M281.08,-75.84C281.08,-63.88 281.08,-48 281.08,-36.07"/>
</g>
<!-- st4 -->
<g id="node18" class="node">
<title>st4</title>
<ellipse fill="none" stroke="black" cx="435.08" cy="-18" rx="76.15" ry="18"/>
<text text-anchor="middle" x="435.08" y="-14.1" font-family="Times New Roman" font-size="13.00">PreferredCountries</text>
</g>
<!-- STUDENT&#45;&gt;st4 -->
<g id="edge17" class="edge">
<title>STUDENT&#45;&gt;st4</title>
<path fill="none" stroke="black" d="M316.8,-75.84C342.83,-63.33 377.8,-46.52 402.96,-34.43"/>
</g>
<!-- COMPANY -->
<g id="node8" class="node">
<title>COMPANY</title>
<polygon fill="#e8f5e9" stroke="black" points="902.57,-112 821.59,-112 821.59,-76 902.57,-76 902.57,-112"/>
<text text-anchor="middle" x="862.08" y="-90.1" font-family="Times New Roman" font-size="13.00">COMPANY</text>
</g>
<!-- co1 -->
<g id="node19" class="node">
<title>co1</title>
<ellipse fill="none" stroke="black" cx="627.08" cy="-18" rx="95.85" ry="18"/>
<text text-anchor="middle" x="627.08" y="-14.1" font-family="Times New Roman" font-size="13.00">OrganizationLegalName</text>
</g>
<!-- COMPANY&#45;&gt;co1 -->
<g id="edge18" class="edge">
<title>COMPANY&#45;&gt;co1</title>
<path fill="none" stroke="black" d="M821.41,-80.19C780.43,-67.29 717.23,-47.39 674.11,-33.81"/>
</g>
<!-- co2 -->
<g id="node20" class="node">
<title>co2</title>
<ellipse fill="none" stroke="black" cx="816.08" cy="-18" rx="73.44" ry="18"/>
<text text-anchor="middle" x="816.08" y="-14.1" font-family="Times New Roman" font-size="13.00">VerificationStatus</text>
</g>
<!-- COMPANY&#45;&gt;co2 -->
<g id="edge19" class="edge">
<title>COMPANY&#45;&gt;co2</title>
<path fill="none" stroke="black" d="M851.41,-75.84C843.98,-63.88 834.11,-48 826.69,-36.07"/>
</g>
<!-- co3 -->
<g id="node21" class="node">
<title>co3</title>
<ellipse fill="none" stroke="black" cx="971.08" cy="-18" rx="61.51" ry="18"/>
<text text-anchor="middle" x="971.08" y="-14.1" font-family="Times New Roman" font-size="13.00">CompanyType</text>
</g>
<!-- COMPANY&#45;&gt;co3 -->
<g id="edge20" class="edge">
<title>COMPANY&#45;&gt;co3</title>
<path fill="none" stroke="black" d="M887.36,-75.84C905.6,-63.46 930.03,-46.87 947.8,-34.81"/>
</g>
<!-- CONSULTANT -->
<g id="node9" class="node">
<title>CONSULTANT</title>
<polygon fill="#e8f5e9" stroke="black" points="1310.22,-112 1207.93,-112 1207.93,-76 1310.22,-76 1310.22,-112"/>
<text text-anchor="middle" x="1259.08" y="-90.1" font-family="Times New Roman" font-size="13.00">CONSULTANT</text>
</g>
<!-- cn1 -->
<g id="node22" class="node">
<title>cn1</title>
<ellipse fill="none" stroke="black" cx="1116.08" cy="-18" rx="63.37" ry="18"/>
<text text-anchor="middle" x="1116.08" y="-14.1" font-family="Times New Roman" font-size="13.00">SessionFeeUsd</text>
</g>
<!-- CONSULTANT&#45;&gt;cn1 -->
<g id="edge21" class="edge">
<title>CONSULTANT&#45;&gt;cn1</title>
<path fill="none" stroke="black" d="M1225.91,-75.84C1201.49,-63.2 1168.6,-46.18 1145.19,-34.06"/>
</g>
<!-- cn2 -->
<g id="node23" class="node">
<title>cn2</title>
<ellipse fill="none" stroke="black" cx="1259.08" cy="-18" rx="59.66" ry="18"/>
<text text-anchor="middle" x="1259.08" y="-14.1" font-family="Times New Roman" font-size="13.00">ExpertiseTags</text>
</g>
<!-- CONSULTANT&#45;&gt;cn2 -->
<g id="edge22" class="edge">
<title>CONSULTANT&#45;&gt;cn2</title>
<path fill="none" stroke="black" d="M1259.08,-75.84C1259.08,-63.88 1259.08,-48 1259.08,-36.07"/>
</g>
<!-- cn3 -->
<g id="node24" class="node">
<title>cn3</title>
<ellipse fill="none" stroke="black" cx="1387.08" cy="-18" rx="47.76" ry="18"/>
<text text-anchor="middle" x="1387.08" y="-14.1" font-family="Times New Roman" font-size="13.00">Languages</text>
</g>
<!-- CONSULTANT&#45;&gt;cn3 -->
<g id="edge23" class="edge">
<title>CONSULTANT&#45;&gt;cn3</title>
<path fill="none" stroke="black" d="M1288.77,-75.84C1310.92,-63.03 1340.87,-45.72 1361.87,-33.58"/>
</g>
<!-- cn4 -->
<g id="node25" class="node">
<title>cn4</title>
<ellipse fill="none" stroke="black" cx="1536.08" cy="-18" rx="80.76" ry="18"/>
<text text-anchor="middle" x="1536.08" y="-14.1" font-family="Times New Roman" font-size="13.00">StripeConnectStatus</text>
</g>
<!-- CONSULTANT&#45;&gt;cn4 -->
<g id="edge24" class="edge">
<title>CONSULTANT&#45;&gt;cn4</title>
<path fill="none" stroke="black" d="M1310.53,-79.25C1360.75,-65.84 1436.66,-45.56 1486.3,-32.3"/>
</g>
<!-- ADMIN -->
<g id="node10" class="node">
<title>ADMIN</title>
<polygon fill="#e8f5e9" stroke="black" points="1559.12,-112 1499.04,-112 1499.04,-76 1559.12,-76 1559.12,-112"/>
<text text-anchor="middle" x="1529.08" y="-90.1" font-family="Times New Roman" font-size="13.00">ADMIN</text>
</g>
<!-- ad1 -->
<g id="node26" class="node">
<title>ad1</title>
<ellipse fill="none" stroke="black" stroke-dasharray="5,2" cx="1699.08" cy="-18" rx="61.95" ry="18"/>
<text text-anchor="middle" x="1699.08" y="-14.1" font-family="Times New Roman" font-size="13.00">(none specific)</text>
</g>
<!-- ADMIN&#45;&gt;ad1 -->
<g id="edge25" class="edge">
<title>ADMIN&#45;&gt;ad1</title>
<path fill="none" stroke="black" d="M1559.47,-79.77C1589.46,-66.72 1635.17,-46.82 1666.05,-33.38"/>
</g>
<!-- isa1&#45;&gt;STUDENT -->
<g id="edge7" class="edge">
<title>isa1&#45;&gt;STUDENT</title>
<path fill="none" stroke="black" d="M650.08,-169C650.08,-169 412.88,-121.43 318.83,-102.57"/>
</g>
<!-- isa2&#45;&gt;COMPANY -->
<g id="edge9" class="edge">
<title>isa2&#45;&gt;COMPANY</title>
<path fill="none" stroke="black" d="M954.08,-169C954.08,-169 910.59,-134.02 883.42,-112.16"/>
</g>
<!-- isa3&#45;&gt;CONSULTANT -->
<g id="edge11" class="edge">
<title>isa3&#45;&gt;CONSULTANT</title>
<path fill="none" stroke="black" d="M1212.08,-169C1212.08,-169 1234.29,-134.02 1248.18,-112.16"/>
</g>
<!-- isa4&#45;&gt;ADMIN -->
<g id="edge13" class="edge">
<title>isa4&#45;&gt;ADMIN</title>
<path fill="none" stroke="black" d="M1476.08,-169C1476.08,-169 1501.13,-134.02 1516.79,-112.16"/>
</g>
<!-- legend -->
<g id="node27" class="node">
<title>legend</title>
<polygon fill="#fff7e6" stroke="transparent" points="1347.58,-378 1347.58,-483 1722.58,-483 1722.58,-378 1347.58,-378"/>
<polygon fill="none" stroke="black" points="1348.08,-461.5 1348.08,-482.5 1723.08,-482.5 1723.08,-461.5 1348.08,-461.5"/>
<text text-anchor="start" x="1485.94" y="-468.8" font-family="Times New Roman" font-weight="bold" font-size="13.00">EER specialization</text>
<polygon fill="none" stroke="black" points="1348.08,-440.5 1348.08,-461.5 1723.08,-461.5 1723.08,-440.5 1348.08,-440.5"/>
<text text-anchor="start" x="1351.08" y="-447.8" font-family="Times New Roman" font-size="13.00">circle </text>
<text text-anchor="start" x="1383.19" y="-447.8" font-family="Times New Roman" font-weight="bold" font-size="13.00">o</text>
<text text-anchor="start" x="1389.69" y="-447.8" font-family="Times New Roman" font-size="13.00"> = overlapping (a user may hold several roles)</text>
<polygon fill="none" stroke="black" points="1348.08,-419.5 1348.08,-440.5 1723.08,-440.5 1723.08,-419.5 1348.08,-419.5"/>
<text text-anchor="start" x="1350.69" y="-425.8" font-family="Times New Roman" font-size="13.00">single line = partial participation (Unassigned user has no subclass yet)</text>
<polygon fill="none" stroke="black" points="1348.08,-398.5 1348.08,-419.5 1723.08,-419.5 1723.08,-398.5 1348.08,-398.5"/>
<text text-anchor="start" x="1351.08" y="-404.8" font-family="Times New Roman" font-size="13.00">double line = total participation</text>
<polygon fill="none" stroke="black" points="1348.08,-377.5 1348.08,-398.5 1723.08,-398.5 1723.08,-377.5 1348.08,-377.5"/>
<text text-anchor="start" x="1351.08" y="-383.8" font-family="Times New Roman" font-size="13.00">⊂ = subset symbol: each subclass IS&#45;A USER</text>
</g>
</g>
</svg>
