<svg xmlns="http://www.w3.org/2000/svg" xmlns:xlink="http://www.w3.org/1999/xlink" contentStyleType="text/css" data-diagram-type="CHEN_EER" height="970px" preserveAspectRatio="none" style="width:2653px;height:970px;background:#FFFFFF;" version="1.1" viewBox="0 0 2653 970" width="2653px" zoomAndPan="magnify"><?plantuml 1.2026.4?><defs/><g><g><rect fill="#F1F1F1" height="37.6094" style="stroke:#181818;stroke-width:0.5;" width="58.8965" x="1574.5" y="98"/><text fill="#000000" font-family="sans-serif" font-size="14" lengthAdjust="spacing" textLength="38.8965" x="1584.5" y="122.5332">USER</text></g><g><ellipse cx="1459.9583" cy="21.4667" fill="#F1F1F1" rx="15.4583" ry="12.9667" style="stroke:#181818;stroke-width:0.5;"/><text fill="#000000" font-family="sans-serif" font-size="14" lengthAdjust="spacing" text-decoration="underline" textLength="11.6758" x="1454.1204" y="29.0332">Id</text></g><g><ellipse cx="1538.7536" cy="21.4517" fill="#F1F1F1" rx="27.7536" ry="15.4517" style="stroke:#181818;stroke-width:0.5;"/><text fill="#000000" font-family="sans-serif" font-size="14" lengthAdjust="spacing" textLength="35.0068" x="1521.2502" y="26.5332">Email</text></g><g><ellipse cx="1668.0514" cy="21.6103" fill="#F1F1F1" rx="66.0514" ry="15.6103" style="stroke:#181818;stroke-width:0.5;"/><text fill="#000000" font-family="sans-serif" font-size="14" lengthAdjust="spacing" textLength="90.2754" x="1622.9137" y="26.5332">AccountStatus</text></g><g><ellipse cx="1819.8175" cy="21.4517" fill="#F1F1F1" rx="50.3175" ry="15.4517" style="stroke:#181818;stroke-width:0.5;"/><text fill="#000000" font-family="sans-serif" font-size="14" lengthAdjust="spacing" textLength="66.917" x="1786.359" y="26.5332">ActiveRole</text></g><g><rect fill="#F1F1F1" height="37.6094" style="stroke:#181818;stroke-width:0.5;" width="126.5859" x="347.5" y="527"/><text fill="#000000" font-family="sans-serif" font-size="14" lengthAdjust="spacing" textLength="106.5859" x="357.5" y="551.5332">USER_PROFILE</text></g><g><ellipse cx="338.9583" cy="442.9667" fill="#F1F1F1" rx="15.4583" ry="12.9667" style="stroke:#181818;stroke-width:0.5;"/><text fill="#000000" font-family="sans-serif" font-size="14" lengthAdjust="spacing" text-decoration="underline" textLength="11.6758" x="333.1204" y="450.5332">Id</text></g><g><ellipse cx="411.2114" cy="442.9517" fill="#F1F1F1" rx="21.7114" ry="15.4517" style="stroke:#181818;stroke-width:0.5;"/><text fill="#000000" font-family="sans-serif" font-size="14" lengthAdjust="spacing" textLength="26.4619" x="397.9804" y="448.0332">Gpa</text></g><g><ellipse cx="544.2247" cy="443.2449" fill="#F1F1F1" rx="76.7247" ry="17.7449" style="stroke:#181818;stroke-width:0.5;"/><ellipse cx="544.2247" cy="443.2449" fill="#F1F1F1" rx="73.7247" ry="14.7449" style="stroke:#181818;stroke-width:0.5;"/><text fill="#000000" font-family="sans-serif" font-size="14" lengthAdjust="spacing" textLength="118.2754" x="485.087" y="446.0332">PreferredCountries</text></g><g><ellipse cx="721.7681" cy="443.0536" fill="#F1F1F1" rx="65.7681" ry="15.5536" style="stroke:#181818;stroke-width:0.5;"/><ellipse cx="721.7681" cy="443.0536" fill="#F1F1F1" rx="62.7681" ry="12.5536" style="stroke:#181818;stroke-width:0.5;"/><text fill="#000000" font-family="sans-serif" font-size="14" lengthAdjust="spacing" textLength="89.4824" x="677.0269" y="448.0332">ExpertiseTags</text></g><g><ellipse cx="914.0593" cy="443.1119" fill="#F1F1F1" rx="91.0593" ry="20.6119" style="stroke:#181818;stroke-width:0.5;stroke-dasharray:10,10;"/><text fill="#000000" font-family="sans-serif" font-size="14" lengthAdjust="spacing" textLength="152.5303" x="837.7941" y="443.0332">CompanyAverageRating</text></g><g><ellipse cx="108.0329" cy="442.8066" fill="#F1F1F1" rx="102.0329" ry="22.8066" style="stroke:#181818;stroke-width:0.5;stroke-dasharray:10,10;"/><text fill="#000000" font-family="sans-serif" font-size="14" lengthAdjust="spacing" textLength="177.4199" x="19.323" y="440.5332">ProfileCompletenessPercent</text></g><g><rect fill="#F1F1F1" height="37.6094" style="stroke:#181818;stroke-width:0.5;" width="58.124" x="1106" y="527"/><text fill="#000000" font-family="sans-serif" font-size="14" lengthAdjust="spacing" textLength="38.124" x="1116" y="551.5332">ROLE</text></g><g><ellipse cx="1134.9583" cy="442.9667" fill="#F1F1F1" rx="15.4583" ry="12.9667" style="stroke:#181818;stroke-width:0.5;"/><text fill="#000000" font-family="sans-serif" font-size="14" lengthAdjust="spacing" text-decoration="underline" textLength="11.6758" x="1129.1204" y="450.5332">Id</text></g><g><ellipse cx="1214.9067" cy="442.9517" fill="#F1F1F1" rx="29.4067" ry="15.4517" style="stroke:#181818;stroke-width:0.5;"/><text fill="#000000" font-family="sans-serif" font-size="14" lengthAdjust="spacing" textLength="37.3447" x="1196.2343" y="448.0332">Name</text></g><g><rect fill="#F1F1F1" height="37.6094" style="stroke:#181818;stroke-width:0.5;" width="157.6826" x="362" y="919"/><text fill="#000000" font-family="sans-serif" font-size="14" lengthAdjust="spacing" textLength="137.6826" x="372" y="943.5332">EDUCATION_ENTRY</text></g><g><ellipse cx="470.9583" cy="841.9667" fill="#F1F1F1" rx="15.4583" ry="12.9667" style="stroke:#181818;stroke-width:0.5;"/><text fill="#000000" font-family="sans-serif" font-size="14" lengthAdjust="spacing" text-decoration="underline" textLength="11.6758" x="465.1204" y="849.5332">Id</text></g><g><ellipse cx="590.1" cy="842.12" fill="#F1F1F1" rx="68.6" ry="16.12" style="stroke:#181818;stroke-width:0.5;"/><text fill="#000000" font-family="sans-serif" font-size="14" lengthAdjust="spacing" textLength="97.2686" x="541.4657" y="846.5332">InstitutionName</text></g><g><ellipse cx="304.9682" cy="841.9517" fill="#F1F1F1" rx="35.4682" ry="15.4517" style="stroke:#181818;stroke-width:0.5;"/><text fill="#000000" font-family="sans-serif" font-size="14" lengthAdjust="spacing" textLength="45.917" x="282.0097" y="847.0332">Degree</text></g><g><rect fill="#F1F1F1" height="37.6094" style="stroke:#181818;stroke-width:0.5;" width="135.1445" x="1927.5" y="98"/><text fill="#000000" font-family="sans-serif" font-size="14" lengthAdjust="spacing" textLength="115.1445" x="1937.5" y="122.5332">EXPERTISE_TAG</text></g><g><ellipse cx="1920.9583" cy="21.4667" fill="#F1F1F1" rx="15.4583" ry="12.9667" style="stroke:#181818;stroke-width:0.5;"/><text fill="#000000" font-family="sans-serif" font-size="14" lengthAdjust="spacing" text-decoration="underline" textLength="11.6758" x="1915.1204" y="29.0332">Id</text></g><g><ellipse cx="1994.8135" cy="21.4517" fill="#F1F1F1" rx="22.8135" ry="15.4517" style="stroke:#181818;stroke-width:0.5;"/><text fill="#000000" font-family="sans-serif" font-size="14" lengthAdjust="spacing" textLength="28.0205" x="1980.8032" y="26.5332">Slug</text></g><g><ellipse cx="2096.1684" cy="21.4517" fill="#F1F1F1" rx="43.1684" ry="15.4517" style="stroke:#181818;stroke-width:0.5;"/><text fill="#000000" font-family="sans-serif" font-size="14" lengthAdjust="spacing" textLength="56.8066" x="2067.765" y="26.5332">Category</text></g><g><rect fill="#F1F1F1" height="37.6094" style="stroke:#181818;stroke-width:0.5;" width="142.9102" x="1385.5" y="527"/><text fill="#000000" font-family="sans-serif" font-size="14" lengthAdjust="spacing" textLength="122.9102" x="1395.5" y="551.5332">REFRESH_TOKEN</text></g><g><ellipse cx="1516.9583" cy="442.9667" fill="#F1F1F1" rx="15.4583" ry="12.9667" style="stroke:#181818;stroke-width:0.5;"/><text fill="#000000" font-family="sans-serif" font-size="14" lengthAdjust="spacing" text-decoration="underline" textLength="11.6758" x="1511.1204" y="450.5332">Id</text></g><g><ellipse cx="1333.1237" cy="442.9517" fill="#F1F1F1" rx="53.6237" ry="15.4517" style="stroke:#181818;stroke-width:0.5;"/><text fill="#000000" font-family="sans-serif" font-size="14" lengthAdjust="spacing" textLength="71.5928" x="1297.3273" y="448.0332">TokenHash</text></g><g><rect fill="#F1F1F1" height="37.6094" style="stroke:#181818;stroke-width:0.5;" width="212.1514" x="1581" y="527"/><text fill="#000000" font-family="sans-serif" font-size="14" lengthAdjust="spacing" textLength="192.1514" x="1591" y="551.5332">PASSWORD_RESET_TOKEN</text></g><g><ellipse cx="1582.9583" cy="442.9667" fill="#F1F1F1" rx="15.4583" ry="12.9667" style="stroke:#181818;stroke-width:0.5;"/><text fill="#000000" font-family="sans-serif" font-size="14" lengthAdjust="spacing" text-decoration="underline" textLength="11.6758" x="1577.1204" y="450.5332">Id</text></g><g><ellipse cx="1687.1237" cy="442.9517" fill="#F1F1F1" rx="53.6237" ry="15.4517" style="stroke:#181818;stroke-width:0.5;"/><text fill="#000000" font-family="sans-serif" font-size="14" lengthAdjust="spacing" textLength="71.5928" x="1651.3273" y="448.0332">TokenHash</text></g><g><rect fill="#F1F1F1" height="37.6094" style="stroke:#181818;stroke-width:0.5;" width="136.6826" x="1991.5" y="527"/><text fill="#000000" font-family="sans-serif" font-size="14" lengthAdjust="spacing" textLength="116.6826" x="2001.5" y="551.5332">LOGIN_ATTEMPT</text></g><g><ellipse cx="2181.9583" cy="442.9667" fill="#F1F1F1" rx="15.4583" ry="12.9667" style="stroke:#181818;stroke-width:0.5;"/><text fill="#000000" font-family="sans-serif" font-size="14" lengthAdjust="spacing" text-decoration="underline" textLength="11.6758" x="2176.1204" y="450.5332">Id</text></g><g><ellipse cx="1882.7536" cy="442.9517" fill="#F1F1F1" rx="27.7536" ry="15.4517" style="stroke:#181818;stroke-width:0.5;"/><text fill="#000000" font-family="sans-serif" font-size="14" lengthAdjust="spacing" textLength="35.0068" x="1865.2502" y="448.0332">Email</text></g><g><ellipse cx="1999.0361" cy="442.9517" fill="#F1F1F1" rx="52.5361" ry="15.4517" style="stroke:#181818;stroke-width:0.5;"/><text fill="#000000" font-family="sans-serif" font-size="14" lengthAdjust="spacing" textLength="70.0547" x="1964.0088" y="448.0332">Succeeded</text></g><g><rect fill="#F1F1F1" height="37.6094" style="stroke:#181818;stroke-width:0.5;" width="164.6963" x="2296.5" y="527"/><text fill="#000000" font-family="sans-serif" font-size="14" lengthAdjust="spacing" textLength="144.6963" x="2306.5" y="551.5332">UPGRADE_REQUEST</text></g><g><ellipse cx="2247.9583" cy="442.9667" fill="#F1F1F1" rx="15.4583" ry="12.9667" style="stroke:#181818;stroke-width:0.5;"/><text fill="#000000" font-family="sans-serif" font-size="14" lengthAdjust="spacing" text-decoration="underline" textLength="11.6758" x="2242.1204" y="450.5332">Id</text></g><g><ellipse cx="2330.1109" cy="442.9517" fill="#F1F1F1" rx="31.6109" ry="15.4517" style="stroke:#181818;stroke-width:0.5;"/><text fill="#000000" font-family="sans-serif" font-size="14" lengthAdjust="spacing" textLength="40.4619" x="2309.8799" y="448.0332">Target</text></g><g><ellipse cx="2428.0647" cy="442.9517" fill="#F1F1F1" rx="31.0647" ry="15.4517" style="stroke:#181818;stroke-width:0.5;"/><text fill="#000000" font-family="sans-serif" font-size="14" lengthAdjust="spacing" textLength="39.6895" x="2408.22" y="448.0332">Status</text></g><g><rect fill="#F1F1F1" height="37.6094" style="stroke:#181818;stroke-width:0.5;" width="202.0479" x="2182" y="919"/><text fill="#000000" font-family="sans-serif" font-size="14" lengthAdjust="spacing" textLength="182.0479" x="2192" y="943.5332">UPGRADE_REQUEST_FILE</text></g><g><ellipse cx="2196.9583" cy="841.9667" fill="#F1F1F1" rx="15.4583" ry="12.9667" style="stroke:#181818;stroke-width:0.5;"/><text fill="#000000" font-family="sans-serif" font-size="14" lengthAdjust="spacing" text-decoration="underline" textLength="11.6758" x="2191.1204" y="849.5332">Id</text></g><g><ellipse cx="2362.9585" cy="841.9517" fill="#F1F1F1" rx="35.4585" ry="15.4517" style="stroke:#181818;stroke-width:0.5;"/><text fill="#000000" font-family="sans-serif" font-size="14" lengthAdjust="spacing" textLength="45.9033" x="2340.0069" y="847.0332">BlobUrl</text></g><g><rect fill="#F1F1F1" height="37.6094" style="stroke:#181818;stroke-width:0.5;" width="203.6064" x="2436" y="919"/><text fill="#000000" font-family="sans-serif" font-size="14" lengthAdjust="spacing" textLength="183.6064" x="2446" y="943.5332">UPGRADE_REQUEST_LINK</text></g><g><ellipse cx="2597.9583" cy="841.9667" fill="#F1F1F1" rx="15.4583" ry="12.9667" style="stroke:#181818;stroke-width:0.5;"/><text fill="#000000" font-family="sans-serif" font-size="14" lengthAdjust="spacing" text-decoration="underline" textLength="11.6758" x="2592.1204" y="849.5332">Id</text></g><g><ellipse cx="2451.1802" cy="841.8441" fill="#F1F1F1" rx="17.1802" ry="14.3441" style="stroke:#181818;stroke-width:0.5;"/><text fill="#000000" font-family="sans-serif" font-size="14" lengthAdjust="spacing" textLength="17.8828" x="2442.2388" y="848.0332">Url</text></g><g><polygon fill="#F1F1F1" points="555,316.0138,632.0275,277.5,709.055,316.0138,632.0275,354.5275" style="stroke:#181818;stroke-width:0.5;stroke-linejoin:miter;stroke-miterlimit:10;"/><text fill="#000000" font-family="sans-serif" font-size="14" lengthAdjust="spacing" textLength="96.4756" x="583.7897" y="321.7423">HAS_PROFILE</text></g><g><polygon fill="#F1F1F1" points="1165,316.0689,1231.1379,283,1297.2757,316.0689,1231.1379,349.1379" style="stroke:#181818;stroke-width:0.5;stroke-linejoin:miter;stroke-miterlimit:10;"/><text fill="#000000" font-family="sans-serif" font-size="14" lengthAdjust="spacing" textLength="74.6963" x="1193.7897" y="321.7974">HAS_ROLE</text></g><g><polygon fill="#F1F1F1" points="349,733.4276,410.8551,702.5,472.7103,733.4276,410.8551,764.3551" style="stroke:#181818;stroke-width:0.5;stroke-linejoin:miter;stroke-miterlimit:10;"/><text fill="#000000" font-family="sans-serif" font-size="14" lengthAdjust="spacing" textLength="66.1309" x="377.7897" y="739.1561">HAS_EDU</text></g><g><polygon fill="#F1F1F1" points="1445.5,316.2327,1499.9655,289,1554.431,316.2327,1499.9655,343.4655" style="stroke:#181818;stroke-width:0.5;stroke-linejoin:miter;stroke-miterlimit:10;"/><text fill="#000000" font-family="sans-serif" font-size="14" lengthAdjust="spacing" textLength="51.3516" x="1474.2897" y="321.9613">ISSUES</text></g><g><polygon fill="#F1F1F1" points="1651,315.8983,1707.7966,287.5,1764.5931,315.8983,1707.7966,344.2966" style="stroke:#181818;stroke-width:0.5;stroke-linejoin:miter;stroke-miterlimit:10;"/><text fill="#000000" font-family="sans-serif" font-size="14" lengthAdjust="spacing" textLength="56.0137" x="1679.7897" y="321.6268">RESETS</text></g><g><polygon fill="#F1F1F1" points="1980,316.0621,2046.1242,283,2112.2484,316.0621,2046.1242,349.1242" style="stroke:#181818;stroke-width:0.5;stroke-linejoin:miter;stroke-miterlimit:10;"/><text fill="#000000" font-family="sans-serif" font-size="14" lengthAdjust="spacing" textLength="74.6689" x="2008.7897" y="321.7906">ATTEMPTS</text></g><g><polygon fill="#F1F1F1" points="2330.5,316.1793,2416.8586,273,2503.2171,316.1793,2416.8586,359.3586" style="stroke:#181818;stroke-width:0.5;stroke-linejoin:miter;stroke-miterlimit:10;"/><text fill="#000000" font-family="sans-serif" font-size="14" lengthAdjust="spacing" textLength="115.1377" x="2359.2897" y="321.9078">REQUESTS_UPG</text></g><g><polygon fill="#F1F1F1" points="2245,733.4293,2306.8586,702.5,2368.7171,733.4293,2306.8586,764.3586" style="stroke:#181818;stroke-width:0.5;stroke-linejoin:miter;stroke-miterlimit:10;"/><text fill="#000000" font-family="sans-serif" font-size="14" lengthAdjust="spacing" textLength="66.1377" x="2273.7897" y="739.1578">HAS_FILE</text></g><g><polygon fill="#F1F1F1" points="2451.5,733.3189,2514.1379,702,2576.7757,733.3189,2514.1379,764.6379" style="stroke:#181818;stroke-width:0.5;stroke-linejoin:miter;stroke-miterlimit:10;"/><text fill="#000000" font-family="sans-serif" font-size="14" lengthAdjust="spacing" textLength="67.6963" x="2480.2897" y="739.0474">HAS_LINK</text></g><!--link USER/Id to USER--><g class="link" data-entity-1="ent0002" data-entity-2="ent0001" data-link-type="association" data-source-line="17" id="lnk3"><path d="M1471.78,30.15 C1494.42,44.85 1544.54,77.39 1576.15,97.92" fill="none" id="USER/Id-USER" style="stroke:#181818;stroke-width:1;"/></g><!--link USER/Email to USER--><g class="link" data-entity-1="ent0004" data-entity-2="ent0001" data-link-type="association" data-source-line="18" id="lnk5"><path d="M1548.59,36.3 C1559.96,52.65 1578.95,79.96 1591.47,97.98" fill="none" id="USER/Email-USER" style="stroke:#181818;stroke-width:1;"/></g><!--link USER/AccountStatus to USER--><g class="link" data-entity-1="ent0006" data-entity-2="ent0001" data-link-type="association" data-source-line="19" id="lnk7"><path d="M1658,37.11 C1646.75,53.54 1628.47,80.25 1616.34,97.97" fill="none" id="USER/AccountStatus-USER" style="stroke:#181818;stroke-width:1;"/></g><!--link USER/ActiveRole to USER--><g class="link" data-entity-1="ent0008" data-entity-2="ent0001" data-link-type="association" data-source-line="20" id="lnk9"><path d="M1792.2,34.53 C1751.41,52.19 1675.65,84.98 1633.77,103.12" fill="none" id="USER/ActiveRole-USER" style="stroke:#181818;stroke-width:1;"/></g><!--link USER_PROFILE/Id to USER_PROFILE--><g class="link" data-entity-1="ent0011" data-entity-2="ent0010" data-link-type="association" data-source-line="23" id="lnk12"><path d="M346.43,454.43 C358.58,471.46 382.83,505.48 397.91,526.63" fill="none" id="USER_PROFILE/Id-USER_PROFILE" style="stroke:#181818;stroke-width:1;"/></g><!--link USER_PROFILE/Gpa to USER_PROFILE--><g class="link" data-entity-1="ent0013" data-entity-2="ent0010" data-link-type="association" data-source-line="24" id="lnk14"><path d="M411,458.9 C411,477.01 411,507.54 411,526.96" fill="none" id="USER_PROFILE/Gpa-USER_PROFILE" style="stroke:#181818;stroke-width:1;"/></g><!--link USER_PROFILE/PreferredCountries to USER_PROFILE--><g class="link" data-entity-1="ent0015" data-entity-2="ent0010" data-link-type="association" data-source-line="25" id="lnk16"><path d="M522.93,460 C499.05,478.14 460.2,507.64 435.13,526.68" fill="none" id="USER_PROFILE/PreferredCountries-USER_PROFILE" style="stroke:#181818;stroke-width:1;"/></g><!--link USER_PROFILE/ExpertiseTags to USER_PROFILE--><g class="link" data-entity-1="ent0017" data-entity-2="ent0010" data-link-type="association" data-source-line="26" id="lnk18"><path d="M685.1,455.98 C630.96,473.57 529.59,506.49 466.45,526.99" fill="none" id="USER_PROFILE/ExpertiseTags-USER_PROFILE" style="stroke:#181818;stroke-width:1;"/></g><!--link USER_PROFILE/CompanyAverageRating to USER_PROFILE--><g class="link" data-entity-1="ent0019" data-entity-2="ent0010" data-link-type="association" data-source-line="27" id="lnk20"><path d="M848.29,457.28 C834.02,460.16 819.01,463.18 805,466 C688.56,489.42 552.74,516.63 474.81,532.23" fill="none" id="USER_PROFILE/CompanyAverageRating-USER_PROFILE" style="stroke:#181818;stroke-width:1;"/></g><!--link USER_PROFILE/ProfileCompletenessPercent to USER_PROFILE--><g class="link" data-entity-1="ent0021" data-entity-2="ent0010" data-link-type="association" data-source-line="28" id="lnk22"><path d="M158.45,463.04 C186.47,473.43 222.03,486.32 254,497 C285.22,507.43 320.23,518.22 349.25,526.92" fill="none" id="USER_PROFILE/ProfileCompletenessPercent-USER_PROFILE" style="stroke:#181818;stroke-width:1;"/></g><!--link ROLE/Id to ROLE--><g class="link" data-entity-1="ent0024" data-entity-2="ent0023" data-link-type="association" data-source-line="31" id="lnk25"><path d="M1135,456.38 C1135,473.98 1135,506.33 1135,526.7" fill="none" id="ROLE/Id-ROLE" style="stroke:#181818;stroke-width:1;"/></g><!--link ROLE/Name to ROLE--><g class="link" data-entity-1="ent0026" data-entity-2="ent0023" data-link-type="association" data-source-line="32" id="lnk27"><path d="M1204.21,457.62 C1190.05,475.5 1165.15,506.93 1149.4,526.82" fill="none" id="ROLE/Name-ROLE" style="stroke:#181818;stroke-width:1;"/></g><!--link EDUCATION_ENTRY/Id to EDUCATION_ENTRY--><g class="link" data-entity-1="ent0029" data-entity-2="ent0028" data-link-type="association" data-source-line="35" id="lnk30"><path d="M467.2,854.91 C462.06,871.01 452.84,899.89 446.83,918.75" fill="none" id="EDUCATION_ENTRY/Id-EDUCATION_ENTRY" style="stroke:#181818;stroke-width:1;"/></g><!--link EDUCATION_ENTRY/InstitutionName to EDUCATION_ENTRY--><g class="link" data-entity-1="ent0031" data-entity-2="ent0028" data-link-type="association" data-source-line="36" id="lnk32"><path d="M567.37,857.28 C541.24,873.76 498.2,900.91 469.73,918.88" fill="none" id="EDUCATION_ENTRY/InstitutionName-EDUCATION_ENTRY" style="stroke:#181818;stroke-width:1;"/></g><!--link EDUCATION_ENTRY/Degree to EDUCATION_ENTRY--><g class="link" data-entity-1="ent0033" data-entity-2="ent0028" data-link-type="association" data-source-line="37" id="lnk34"><path d="M323.06,855.48 C346.61,871.76 387.99,900.36 414.94,918.99" fill="none" id="EDUCATION_ENTRY/Degree-EDUCATION_ENTRY" style="stroke:#181818;stroke-width:1;"/></g><!--link EXPERTISE_TAG/Id to EXPERTISE_TAG--><g class="link" data-entity-1="ent0036" data-entity-2="ent0035" data-link-type="association" data-source-line="40" id="lnk37"><path d="M1929.2,32.86 C1941.62,48.55 1965.36,78.55 1980.68,97.9" fill="none" id="EXPERTISE_TAG/Id-EXPERTISE_TAG" style="stroke:#181818;stroke-width:1;"/></g><!--link EXPERTISE_TAG/Slug to EXPERTISE_TAG--><g class="link" data-entity-1="ent0038" data-entity-2="ent0035" data-link-type="association" data-source-line="41" id="lnk39"><path d="M1995,37.11 C1995,53.54 1995,80.25 1995,97.97" fill="none" id="EXPERTISE_TAG/Slug-EXPERTISE_TAG" style="stroke:#181818;stroke-width:1;"/></g><!--link EXPERTISE_TAG/Category to EXPERTISE_TAG--><g class="link" data-entity-1="ent0040" data-entity-2="ent0035" data-link-type="association" data-source-line="42" id="lnk41"><path d="M2081.1,36.3 C2063.43,52.65 2033.93,79.96 2014.47,97.98" fill="none" id="EXPERTISE_TAG/Category-EXPERTISE_TAG" style="stroke:#181818;stroke-width:1;"/></g><!--link REFRESH_TOKEN/Id to REFRESH_TOKEN--><g class="link" data-entity-1="ent0043" data-entity-2="ent0042" data-link-type="association" data-source-line="45" id="lnk44"><path d="M1510.35,455.19 C1500.04,472.55 1480.09,506.13 1467.72,526.95" fill="none" id="REFRESH_TOKEN/Id-REFRESH_TOKEN" style="stroke:#181818;stroke-width:1;"/></g><!--link REFRESH_TOKEN/TokenHash to REFRESH_TOKEN--><g class="link" data-entity-1="ent0045" data-entity-2="ent0042" data-link-type="association" data-source-line="46" id="lnk46"><path d="M1349.98,457.83 C1372,475.77 1410.46,507.1 1434.78,526.9" fill="none" id="REFRESH_TOKEN/TokenHash-REFRESH_TOKEN" style="stroke:#181818;stroke-width:1;"/></g><!--link PASSWORD_RESET_TOKEN/Id to PASSWORD_RESET_TOKEN--><g class="link" data-entity-1="ent0048" data-entity-2="ent0047" data-link-type="association" data-source-line="49" id="lnk49"><path d="M1592.6,453.32 C1609.8,470.02 1646.14,505.32 1668.38,526.91" fill="none" id="PASSWORD_RESET_TOKEN/Id-PASSWORD_RESET_TOKEN" style="stroke:#181818;stroke-width:1;"/></g><!--link PASSWORD_RESET_TOKEN/TokenHash to PASSWORD_RESET_TOKEN--><g class="link" data-entity-1="ent0050" data-entity-2="ent0047" data-link-type="association" data-source-line="50" id="lnk51"><path d="M1687,458.9 C1687,477.01 1687,507.54 1687,526.96" fill="none" id="PASSWORD_RESET_TOKEN/TokenHash-PASSWORD_RESET_TOKEN" style="stroke:#181818;stroke-width:1;"/></g><!--link LOGIN_ATTEMPT/Id to LOGIN_ATTEMPT--><g class="link" data-entity-1="ent0053" data-entity-2="ent0052" data-link-type="association" data-source-line="53" id="lnk54"><path d="M2176.86,455.31 C2171.13,466.91 2160.96,484.93 2148,497 C2135.01,509.1 2118.4,519.18 2103.12,526.92" fill="none" id="LOGIN_ATTEMPT/Id-LOGIN_ATTEMPT" style="stroke:#181818;stroke-width:1;"/></g><!--link LOGIN_ATTEMPT/Email to LOGIN_ATTEMPT--><g class="link" data-entity-1="ent0055" data-entity-2="ent0052" data-link-type="association" data-source-line="54" id="lnk56"><path d="M1901.61,454.62 C1931.7,471.79 1991.38,505.84 2028.28,526.9" fill="none" id="LOGIN_ATTEMPT/Email-LOGIN_ATTEMPT" style="stroke:#181818;stroke-width:1;"/></g><!--link LOGIN_ATTEMPT/Succeeded to LOGIN_ATTEMPT--><g class="link" data-entity-1="ent0057" data-entity-2="ent0052" data-link-type="association" data-source-line="55" id="lnk58"><path d="M2007.74,458.47 C2018.61,476.47 2037.18,507.21 2049.01,526.8" fill="none" id="LOGIN_ATTEMPT/Succeeded-LOGIN_ATTEMPT" style="stroke:#181818;stroke-width:1;"/></g><!--link UPGRADE_REQUEST/Id to UPGRADE_REQUEST--><g class="link" data-entity-1="ent0060" data-entity-2="ent0059" data-link-type="association" data-source-line="58" id="lnk61"><path d="M2259.17,452.61 C2280.45,469.02 2327.23,505.09 2355.64,526.99" fill="none" id="UPGRADE_REQUEST/Id-UPGRADE_REQUEST" style="stroke:#181818;stroke-width:1;"/></g><!--link UPGRADE_REQUEST/Target to UPGRADE_REQUEST--><g class="link" data-entity-1="ent0062" data-entity-2="ent0059" data-link-type="association" data-source-line="59" id="lnk63"><path d="M2337.02,458.47 C2345.75,476.47 2360.67,507.21 2370.17,526.8" fill="none" id="UPGRADE_REQUEST/Target-UPGRADE_REQUEST" style="stroke:#181818;stroke-width:1;"/></g><!--link UPGRADE_REQUEST/Status to UPGRADE_REQUEST--><g class="link" data-entity-1="ent0064" data-entity-2="ent0059" data-link-type="association" data-source-line="60" id="lnk65"><path d="M2420.98,458.47 C2412.25,476.47 2397.33,507.21 2387.83,526.8" fill="none" id="UPGRADE_REQUEST/Status-UPGRADE_REQUEST" style="stroke:#181818;stroke-width:1;"/></g><!--link UPGRADE_REQUEST_FILE/Id to UPGRADE_REQUEST_FILE--><g class="link" data-entity-1="ent0067" data-entity-2="ent0066" data-link-type="association" data-source-line="63" id="lnk68"><path d="M2205.88,852.71 C2220.13,868.28 2248.32,899.1 2266.39,918.84" fill="none" id="UPGRADE_REQUEST_FILE/Id-UPGRADE_REQUEST_FILE" style="stroke:#181818;stroke-width:1;"/></g><!--link UPGRADE_REQUEST_FILE/BlobUrl to UPGRADE_REQUEST_FILE--><g class="link" data-entity-1="ent0069" data-entity-2="ent0066" data-link-type="association" data-source-line="64" id="lnk70"><path d="M2351.2,856.87 C2337.2,873.31 2313.84,900.77 2298.42,918.88" fill="none" id="UPGRADE_REQUEST_FILE/BlobUrl-UPGRADE_REQUEST_FILE" style="stroke:#181818;stroke-width:1;"/></g><!--link UPGRADE_REQUEST_LINK/Id to UPGRADE_REQUEST_LINK--><g class="link" data-entity-1="ent0072" data-entity-2="ent0071" data-link-type="association" data-source-line="67" id="lnk73"><path d="M2591.12,853.78 C2580.96,869.7 2561.83,899.67 2549.51,918.96" fill="none" id="UPGRADE_REQUEST_LINK/Id-UPGRADE_REQUEST_LINK" style="stroke:#181818;stroke-width:1;"/></g><!--link UPGRADE_REQUEST_LINK/Url to UPGRADE_REQUEST_LINK--><g class="link" data-entity-1="ent0074" data-entity-2="ent0071" data-link-type="association" data-source-line="68" id="lnk75"><path d="M2460.98,853.78 C2475.71,869.7 2503.45,899.67 2521.31,918.96" fill="none" id="UPGRADE_REQUEST_LINK/Url-UPGRADE_REQUEST_LINK" style="stroke:#181818;stroke-width:1;"/></g><!--link USER to HAS_PROFILE--><g class="link" data-entity-1="ent0001" data-entity-2="ent0076" data-link-type="association" data-source-line="88" id="lnk85"><path d="M1574.38,124 C1437.41,151.76 864.53,267.87 685.62,304.13" fill="none" id="USER-HAS_PROFILE" style="stroke:#181818;stroke-width:1;"/><text fill="#000000" font-family="sans-serif" font-size="11" lengthAdjust="spacing" textLength="6.1177" x="1200" y="209.4189">1</text></g><!--link HAS_PROFILE to USER_PROFILE--><g class="link" data-entity-1="ent0076" data-entity-2="ent0010" data-link-type="association" data-source-line="89" id="lnk86"><path d="M575.12,326.26 C488.76,341.62 331.11,375.14 298,420 C267.95,460.72 330.12,503.49 373.59,526.94" fill="none" style="stroke:#181818;stroke-width:3.6;"/><path d="M575.12,326.26 C488.76,341.62 331.11,375.14 298,420 C267.95,460.72 330.12,503.49 373.59,526.94" fill="none" style="stroke:#FFFFFF;stroke-width:1.8;"/><text fill="#000000" font-family="sans-serif" font-size="11" lengthAdjust="spacing" textLength="6.1177" x="299" y="447.9189">1</text></g><!--link USER to HAS_ROLE--><g class="link" data-entity-1="ent0001" data-entity-2="ent0077" data-link-type="association" data-source-line="90" id="lnk87"><path d="M1574.42,133.62 C1505.15,170.21 1332.95,261.16 1262.15,298.55" fill="none" id="USER-HAS_ROLE" style="stroke:#181818;stroke-width:1;"/><text fill="#000000" font-family="sans-serif" font-size="11" lengthAdjust="spacing" textLength="7.9438" x="1450" y="209.4189">N</text></g><!--link HAS_ROLE to ROLE--><g class="link" data-entity-1="ent0077" data-entity-2="ent0023" data-link-type="association" data-source-line="91" id="lnk88"><path d="M1196.07,331.7 C1162.68,347.88 1114.37,377.37 1093,420 C1074.84,456.22 1101.87,502.11 1120.28,526.98" fill="none" id="HAS_ROLE-ROLE" style="stroke:#181818;stroke-width:1;"/><text fill="#000000" font-family="sans-serif" font-size="11" lengthAdjust="spacing" textLength="7.9438" x="1094" y="447.9189">N</text></g><!--link USER_PROFILE to HAS_EDU--><g class="link" data-entity-1="ent0010" data-entity-2="ent0078" data-link-type="association" data-source-line="92" id="lnk89"><path d="M411,565.12 C411,597.03 411,663.53 411,702.42" fill="none" id="USER_PROFILE-HAS_EDU" style="stroke:#181818;stroke-width:1;"/><text fill="#000000" font-family="sans-serif" font-size="11" lengthAdjust="spacing" textLength="6.1177" x="412" y="638.4189">1</text></g><!--link HAS_EDU to EDUCATION_ENTRY--><g class="link" data-entity-1="ent0078" data-entity-2="ent0028" data-link-type="association" data-source-line="93" id="lnk90"><path d="M415.1,762.96 C418.72,787.99 424.15,825.42 429,858 C432.1,878.86 435.75,902.8 438.2,918.81" fill="none" style="stroke:#181818;stroke-width:3.6;"/><path d="M415.1,762.96 C418.72,787.99 424.15,825.42 429,858 C432.1,878.86 435.75,902.8 438.2,918.81" fill="none" style="stroke:#FFFFFF;stroke-width:1.8;"/><text fill="#000000" font-family="sans-serif" font-size="11" lengthAdjust="spacing" textLength="7.9438" x="430" y="846.9189">N</text></g><!--link USER to ISSUES--><g class="link" data-entity-1="ent0001" data-entity-2="ent0079" data-link-type="association" data-source-line="94" id="lnk91"><path d="M1594.4,136.18 C1575.04,172.85 1531.42,255.48 1510.97,294.22" fill="none" id="USER-ISSUES" style="stroke:#181818;stroke-width:1;"/><text fill="#000000" font-family="sans-serif" font-size="11" lengthAdjust="spacing" textLength="6.1177" x="1562" y="209.4189">1</text></g><!--link ISSUES to REFRESH_TOKEN--><g class="link" data-entity-1="ent0079" data-entity-2="ent0042" data-link-type="association" data-source-line="95" id="lnk92"><path d="M1493.71,340.18 C1488.22,360.96 1480.33,392.36 1475,420 C1467.73,457.67 1461.99,502.25 1459.08,526.69" fill="none" style="stroke:#181818;stroke-width:3.6;"/><path d="M1493.71,340.18 C1488.22,360.96 1480.33,392.36 1475,420 C1467.73,457.67 1461.99,502.25 1459.08,526.69" fill="none" style="stroke:#FFFFFF;stroke-width:1.8;"/><text fill="#000000" font-family="sans-serif" font-size="11" lengthAdjust="spacing" textLength="7.9438" x="1476" y="447.9189">N</text></g><!--link USER to RESETS--><g class="link" data-entity-1="ent0001" data-entity-2="ent0080" data-link-type="association" data-source-line="96" id="lnk93"><path d="M1613.6,136.18 C1632.76,172.47 1675.68,253.77 1696.39,293" fill="none" id="USER-RESETS" style="stroke:#181818;stroke-width:1;"/><text fill="#000000" font-family="sans-serif" font-size="11" lengthAdjust="spacing" textLength="6.1177" x="1654" y="209.4189">1</text></g><!--link RESETS to PASSWORD_RESET_TOKEN--><g class="link" data-entity-1="ent0080" data-entity-2="ent0047" data-link-type="association" data-source-line="97" id="lnk94"><path d="M1723.59,336.95 C1744.07,365.72 1775.48,420.39 1758,466 C1748.56,490.62 1727.51,512.39 1710.77,526.8" fill="none" style="stroke:#181818;stroke-width:3.6;"/><path d="M1723.59,336.95 C1744.07,365.72 1775.48,420.39 1758,466 C1748.56,490.62 1727.51,512.39 1710.77,526.8" fill="none" style="stroke:#FFFFFF;stroke-width:1.8;"/><text fill="#000000" font-family="sans-serif" font-size="11" lengthAdjust="spacing" textLength="7.9438" x="1765" y="447.9189">N</text></g><!--link USER to ATTEMPTS--><g class="link" data-entity-1="ent0001" data-entity-2="ent0081" data-link-type="association" data-source-line="98" id="lnk95"><path d="M1633.69,131.23 C1712.76,166.47 1928.12,262.46 2011.96,299.83" fill="none" id="USER-ATTEMPTS" style="stroke:#181818;stroke-width:1;"/><text fill="#000000" font-family="sans-serif" font-size="11" lengthAdjust="spacing" textLength="6.1177" x="1812" y="209.4189">1</text></g><!--link ATTEMPTS to LOGIN_ATTEMPT--><g class="link" data-entity-1="ent0081" data-entity-2="ent0052" data-link-type="association" data-source-line="99" id="lnk96"><path d="M2054.04,345.14 C2059.48,365.68 2066.17,394.32 2069,420 C2071.24,440.32 2070.16,445.59 2069,466 C2067.81,486.95 2064.86,510.87 2062.66,526.85" fill="none" id="ATTEMPTS-LOGIN_ATTEMPT" style="stroke:#181818;stroke-width:1;"/><text fill="#000000" font-family="sans-serif" font-size="11" lengthAdjust="spacing" textLength="7.9438" x="2071" y="447.9189">N</text></g><!--link USER to REQUESTS_UPG--><g class="link" data-entity-1="ent0001" data-entity-2="ent0082" data-link-type="association" data-source-line="100" id="lnk97"><path d="M1633.9,125.24 C1753.79,154.3 2200.89,262.63 2360.19,301.23" fill="none" id="USER-REQUESTS_UPG" style="stroke:#181818;stroke-width:1;"/><text fill="#000000" font-family="sans-serif" font-size="11" lengthAdjust="spacing" textLength="6.1177" x="1984" y="209.4189">1</text></g><!--link REQUESTS_UPG to UPGRADE_REQUEST--><g class="link" data-entity-1="ent0082" data-entity-2="ent0059" data-link-type="association" data-source-line="101" id="lnk98"><path d="M2443.21,346.03 C2467.29,376.4 2496.49,425.25 2477,466 C2464.18,492.81 2437.32,513.43 2414.96,526.87" fill="none" style="stroke:#181818;stroke-width:3.6;"/><path d="M2443.21,346.03 C2467.29,376.4 2496.49,425.25 2477,466 C2464.18,492.81 2437.32,513.43 2414.96,526.87" fill="none" style="stroke:#FFFFFF;stroke-width:1.8;"/><text fill="#000000" font-family="sans-serif" font-size="11" lengthAdjust="spacing" textLength="7.9438" x="2484" y="447.9189">N</text></g><!--link UPGRADE_REQUEST to HAS_FILE--><g class="link" data-entity-1="ent0059" data-entity-2="ent0083" data-link-type="association" data-source-line="102" id="lnk99"><path d="M2371.97,565.12 C2359.05,598.4 2331.53,669.29 2316.8,707.26" fill="none" id="UPGRADE_REQUEST-HAS_FILE" style="stroke:#181818;stroke-width:1;"/><text fill="#000000" font-family="sans-serif" font-size="11" lengthAdjust="spacing" textLength="6.1177" x="2348" y="638.4189">1</text></g><!--link HAS_FILE to UPGRADE_REQUEST_FILE--><g class="link" data-entity-1="ent0083" data-entity-2="ent0066" data-link-type="association" data-source-line="103" id="lnk100"><path d="M2303.61,763.08 C2298.6,805.38 2289.35,883.45 2285.16,918.78" fill="none" style="stroke:#181818;stroke-width:3.6;"/><path d="M2303.61,763.08 C2298.6,805.38 2289.35,883.45 2285.16,918.78" fill="none" style="stroke:#FFFFFF;stroke-width:1.8;"/><text fill="#000000" font-family="sans-serif" font-size="11" lengthAdjust="spacing" textLength="7.9438" x="2297" y="846.9189">N</text></g><!--link UPGRADE_REQUEST to HAS_LINK--><g class="link" data-entity-1="ent0059" data-entity-2="ent0084" data-link-type="association" data-source-line="104" id="lnk101"><path d="M2392.19,565.12 C2417,599.22 2470.56,672.81 2497.63,710.01" fill="none" id="UPGRADE_REQUEST-HAS_LINK" style="stroke:#181818;stroke-width:1;"/><text fill="#000000" font-family="sans-serif" font-size="11" lengthAdjust="spacing" textLength="6.1177" x="2447" y="638.4189">1</text></g><!--link HAS_LINK to UPGRADE_REQUEST_LINK--><g class="link" data-entity-1="ent0084" data-entity-2="ent0071" data-link-type="association" data-source-line="105" id="lnk102"><path d="M2517.44,763.51 C2522.47,805.95 2531.68,883.7 2535.85,918.87" fill="none" style="stroke:#181818;stroke-width:3.6;"/><path d="M2517.44,763.51 C2522.47,805.95 2531.68,883.7 2535.85,918.87" fill="none" style="stroke:#FFFFFF;stroke-width:1.8;"/><text fill="#000000" font-family="sans-serif" font-size="11" lengthAdjust="spacing" textLength="7.9438" x="2529" y="846.9189">N</text></g><?plantuml-src bLHTRvim57tth-0Ff5ggQKzDLPQu2Me6p7QqxGbvS4ki4XCPKosQ-jzd0-4ZmCDU4ja-v_gUSuzvAZHNEZw2T30ccyXBG6gXBr6eybUH0QgNpe5Yuln5ZkCbpiF36rmU7yq2dxZ8pByRntafDTLSbqMrrk8TI6xu7_qAKKY2Ps-FnvMsPsv-GmMle1GaQrjE2IWCv5HcMjJN_Jc3qg80njFXoJe_dRcykE-WU0g4Qo5J0qX0cJwI2j88iiWCD4WeYX1KRBeR0Dj-IJ3LfyzFFKruSrYxp0ly2FkC_1h3FLaOOAb5BYkcusmWLT0lyJF4X7aKHypTZWlGh4ojFguXpTMbrnv-9fZk8XQyO7_CO_aRo1qlZXqZT2dz4PWP6nvc_q7S1rlFZrp6yBUGpOU0bd4Ca43Ictcu9Uu6cnk_7p2Tu3AkKj2MN4TdZXbDf-Phbly-g6oUjlVybp6jfYZ8k1rCSHHdP-VINZWd3fiuJ9oO48mFF4fD0-Fzolk9_SRTIKObXKP6stG3yqqtyZzGzNmNoqLV9-fhNYrNWnVQCFn5AnwrBjZTQcVmfA_LZHteQilANzs-aQwLsYBKE6MXWqntmDepr5XdWLDHxl1NBr5hgkruaE9-ySvUDF3QNdIJ9tGRwAleri_Qp36pHipHxPnGEx0fUeLu0fdOJpL2oxlxJ_TVxZx_0m00?></g></svg>