<svg xmlns="http://www.w3.org/2000/svg" xmlns:xlink="http://www.w3.org/1999/xlink" contentStyleType="text/css" data-diagram-type="CHEN_EER" height="1088px" preserveAspectRatio="none" style="width:1771px;height:1088px;background:#FFFFFF;" version="1.1" viewBox="0 0 1771 1088" width="1771px" zoomAndPan="magnify"><?plantuml 1.2026.4?><defs/><g><g><rect fill="#F1F1F1" height="37.6094" style="stroke:#181818;stroke-width:0.5;" width="58.8965" x="986" y="98"/><text fill="#000000" font-family="sans-serif" font-size="14" lengthAdjust="spacing" textLength="38.8965" x="996" y="122.5332">USER</text></g><g><ellipse cx="975.4583" cy="21.4667" fill="#F1F1F1" rx="15.4583" ry="12.9667" style="stroke:#181818;stroke-width:0.5;"/><text fill="#000000" font-family="sans-serif" font-size="14" lengthAdjust="spacing" text-decoration="underline" textLength="11.6758" x="969.6204" y="29.0332">Id</text></g><g><ellipse cx="1054.2536" cy="21.4517" fill="#F1F1F1" rx="27.7536" ry="15.4517" style="stroke:#181818;stroke-width:0.5;"/><text fill="#000000" font-family="sans-serif" font-size="14" lengthAdjust="spacing" textLength="35.0068" x="1036.7502" y="26.5332">Email</text></g><g><rect fill="#F1F1F1" height="37.6094" style="stroke:#181818;stroke-width:0.5;" width="120.3584" x="247.5" y="633"/><text fill="#000000" font-family="sans-serif" font-size="14" lengthAdjust="spacing" textLength="100.3584" x="257.5" y="657.5332">SCHOLARSHIP</text></g><g><ellipse cx="245.4583" cy="503.4667" fill="#F1F1F1" rx="15.4583" ry="12.9667" style="stroke:#181818;stroke-width:0.5;"/><text fill="#000000" font-family="sans-serif" font-size="14" lengthAdjust="spacing" text-decoration="underline" textLength="11.6758" x="239.6204" y="511.0332">Id</text></g><g><ellipse cx="319.3135" cy="503.4517" fill="#F1F1F1" rx="22.8135" ry="15.4517" style="stroke:#181818;stroke-width:0.5;"/><text fill="#000000" font-family="sans-serif" font-size="14" lengthAdjust="spacing" textLength="28.0205" x="305.3032" y="508.5332">Slug</text></g><g><rect fill="#F1F1F1" height="37.6094" style="stroke:#181818;stroke-width:0.5;" width="135.9033" x="478.5" y="633"/><text fill="#000000" font-family="sans-serif" font-size="14" lengthAdjust="spacing" textLength="115.9033" x="488.5" y="657.5332">AI_INTERACTION</text></g><g><ellipse cx="393.4583" cy="503.4667" fill="#F1F1F1" rx="15.4583" ry="12.9667" style="stroke:#181818;stroke-width:0.5;"/><text fill="#000000" font-family="sans-serif" font-size="14" lengthAdjust="spacing" text-decoration="underline" textLength="11.6758" x="387.6204" y="511.0332">Id</text></g><g><ellipse cx="481.6165" cy="503.4517" fill="#F1F1F1" rx="37.1165" ry="15.4517" style="stroke:#181818;stroke-width:0.5;"/><text fill="#000000" font-family="sans-serif" font-size="14" lengthAdjust="spacing" textLength="48.248" x="457.4925" y="508.5332">Feature</text></g><g><ellipse cx="594.4593" cy="503.4517" fill="#F1F1F1" rx="40.9593" ry="15.4517" style="stroke:#181818;stroke-width:0.5;stroke-dasharray:10,10;"/><text fill="#000000" font-family="sans-serif" font-size="14" lengthAdjust="spacing" textLength="53.6826" x="567.618" y="508.5332">CostUsd</text></g><g><rect fill="#F1F1F1" height="37.6094" style="stroke:#181818;stroke-width:0.5;" width="259.5928" x="64.5" y="1037"/><text fill="#000000" font-family="sans-serif" font-size="14" lengthAdjust="spacing" textLength="239.5928" x="74.5" y="1061.5332">RECOMMENDATION_CLICK_EVENT</text></g><g><ellipse cx="21.4583" cy="960.4667" fill="#F1F1F1" rx="15.4583" ry="12.9667" style="stroke:#181818;stroke-width:0.5;"/><text fill="#000000" font-family="sans-serif" font-size="14" lengthAdjust="spacing" text-decoration="underline" textLength="11.6758" x="15.6204" y="968.0332">Id</text></g><g><ellipse cx="106.3661" cy="960.4517" fill="#F1F1F1" rx="34.3661" ry="15.4517" style="stroke:#181818;stroke-width:0.5;"/><text fill="#000000" font-family="sans-serif" font-size="14" lengthAdjust="spacing" textLength="44.3584" x="84.1869" y="965.5332">Source</text></g><g><rect fill="#F1F1F1" height="37.6094" style="stroke:#181818;stroke-width:0.5;" width="237.834" x="465.5" y="1037"/><text fill="#000000" font-family="sans-serif" font-size="14" lengthAdjust="spacing" textLength="217.834" x="475.5" y="1061.5332">AI_REDACTION_AUDIT_SAMPLE</text></g><g><ellipse cx="447.4583" cy="960.4667" fill="#F1F1F1" rx="15.4583" ry="12.9667" style="stroke:#181818;stroke-width:0.5;"/><text fill="#000000" font-family="sans-serif" font-size="14" lengthAdjust="spacing" text-decoration="underline" textLength="11.6758" x="441.6204" y="968.0332">Id</text></g><g><ellipse cx="532.3102" cy="960.4517" fill="#F1F1F1" rx="33.8102" ry="15.4517" style="stroke:#181818;stroke-width:0.5;"/><text fill="#000000" font-family="sans-serif" font-size="14" lengthAdjust="spacing" textLength="43.5723" x="510.5241" y="965.5332">Verdict</text></g><g><rect fill="#F1F1F1" height="37.6094" style="stroke:#181818;stroke-width:0.5;" width="143.71" x="844.5" y="633"/><text fill="#000000" font-family="sans-serif" font-size="14" lengthAdjust="spacing" textLength="123.71" x="854.5" y="657.5332">USER_RISK_FLAG</text></g><g><ellipse cx="836.4583" cy="503.4667" fill="#F1F1F1" rx="15.4583" ry="12.9667" style="stroke:#181818;stroke-width:0.5;"/><text fill="#000000" font-family="sans-serif" font-size="14" lengthAdjust="spacing" text-decoration="underline" textLength="11.6758" x="830.6204" y="511.0332">Id</text></g><g><ellipse cx="916.3605" cy="503.4517" fill="#F1F1F1" rx="28.8605" ry="15.4517" style="stroke:#181818;stroke-width:0.5;stroke-dasharray:10,10;"/><text fill="#000000" font-family="sans-serif" font-size="14" lengthAdjust="spacing" textLength="36.5723" x="898.0744" y="508.5332">Score</text></g><g><rect fill="#F1F1F1" height="37.6094" style="stroke:#181818;stroke-width:0.5;" width="99.3516" x="1106" y="633"/><text fill="#000000" font-family="sans-serif" font-size="14" lengthAdjust="spacing" textLength="79.3516" x="1116" y="657.5332">AUDIT_LOG</text></g><g><ellipse cx="1074.4583" cy="503.4667" fill="#F1F1F1" rx="15.4583" ry="12.9667" style="stroke:#181818;stroke-width:0.5;"/><text fill="#000000" font-family="sans-serif" font-size="14" lengthAdjust="spacing" text-decoration="underline" textLength="11.6758" x="1068.6204" y="511.0332">Id</text></g><g><ellipse cx="1155.5136" cy="503.4517" fill="#F1F1F1" rx="30.5136" ry="15.4517" style="stroke:#181818;stroke-width:0.5;"/><text fill="#000000" font-family="sans-serif" font-size="14" lengthAdjust="spacing" textLength="38.9102" x="1136.0586" y="508.5332">Action</text></g><g><rect fill="#F1F1F1" height="37.6094" style="stroke:#181818;stroke-width:0.5;" width="199.6826" x="1094.5" y="98"/><text fill="#000000" font-family="sans-serif" font-size="14" lengthAdjust="spacing" textLength="179.6826" x="1104.5" y="122.5332">KNOWLEDGE_DOCUMENT</text></g><g><ellipse cx="1133.4583" cy="21.4667" fill="#F1F1F1" rx="15.4583" ry="12.9667" style="stroke:#181818;stroke-width:0.5;"/><text fill="#000000" font-family="sans-serif" font-size="14" lengthAdjust="spacing" text-decoration="underline" textLength="11.6758" x="1127.6204" y="29.0332">Id</text></g><g><ellipse cx="1240.3741" cy="21.4517" fill="#F1F1F1" rx="56.3741" ry="15.4517" style="stroke:#181818;stroke-width:0.5;"/><text fill="#000000" font-family="sans-serif" font-size="14" lengthAdjust="spacing" textLength="75.4824" x="1202.6329" y="26.5332">SourceType</text></g><g><rect fill="#F1F1F1" height="37.6094" style="stroke:#181818;stroke-width:0.5;" width="164.6826" x="1357" y="98"/><text fill="#000000" font-family="sans-serif" font-size="14" lengthAdjust="spacing" textLength="144.6826" x="1367" y="122.5332">PLATFORM_SETTING</text></g><g><ellipse cx="1351.4583" cy="21.4667" fill="#F1F1F1" rx="15.4583" ry="12.9667" style="stroke:#181818;stroke-width:0.5;"/><text fill="#000000" font-family="sans-serif" font-size="14" lengthAdjust="spacing" text-decoration="underline" textLength="11.6758" x="1345.6204" y="29.0332">Id</text></g><g><ellipse cx="1453.3782" cy="21.4517" fill="#F1F1F1" rx="50.8782" ry="15.4517" style="stroke:#181818;stroke-width:0.5;"/><text fill="#000000" font-family="sans-serif" font-size="14" lengthAdjust="spacing" textLength="67.71" x="1419.5232" y="26.5332">SettingKey</text></g><g><rect fill="#F1F1F1" height="37.6094" style="stroke:#181818;stroke-width:0.5;" width="179.4824" x="1303" y="633"/><text fill="#000000" font-family="sans-serif" font-size="14" lengthAdjust="spacing" textLength="159.4824" x="1313" y="657.5332">USER_DATA_REQUEST</text></g><g><ellipse cx="1316.4583" cy="503.4667" fill="#F1F1F1" rx="15.4583" ry="12.9667" style="stroke:#181818;stroke-width:0.5;"/><text fill="#000000" font-family="sans-serif" font-size="14" lengthAdjust="spacing" text-decoration="underline" textLength="11.6758" x="1310.6204" y="511.0332">Id</text></g><g><ellipse cx="1392.508" cy="503.4517" fill="#F1F1F1" rx="25.008" ry="15.4517" style="stroke:#181818;stroke-width:0.5;"/><text fill="#000000" font-family="sans-serif" font-size="14" lengthAdjust="spacing" textLength="31.124" x="1376.946" y="508.5332">Type</text></g><g><rect fill="#F1F1F1" height="37.6094" style="stroke:#181818;stroke-width:0.5;" width="143.6963" x="1579.5" y="633"/><text fill="#000000" font-family="sans-serif" font-size="14" lengthAdjust="spacing" textLength="123.6963" x="1589.5" y="657.5332">SUCCESS_STORY</text></g><g><ellipse cx="1547.4583" cy="503.4667" fill="#F1F1F1" rx="15.4583" ry="12.9667" style="stroke:#181818;stroke-width:0.5;"/><text fill="#000000" font-family="sans-serif" font-size="14" lengthAdjust="spacing" text-decoration="underline" textLength="11.6758" x="1541.6204" y="511.0332">Id</text></g><g><ellipse cx="1651.5775" cy="503.4517" fill="#F1F1F1" rx="53.0775" ry="15.4517" style="stroke:#181818;stroke-width:0.5;"/><text fill="#000000" font-family="sans-serif" font-size="14" lengthAdjust="spacing" textLength="70.8203" x="1616.1674" y="508.5332">IsApproved</text></g><g><polygon fill="#F1F1F1" points="667.5,320.4552,727.4103,290.5,787.3206,320.4552,727.4103,350.4103" style="stroke:#181818;stroke-width:0.5;stroke-linejoin:miter;stroke-miterlimit:10;"/><text fill="#000000" font-family="sans-serif" font-size="14" lengthAdjust="spacing" textLength="62.2412" x="696.2897" y="326.1837">INVOKES</text></g><g><polygon fill="#F1F1F1" points="122.5,576.0379,176.5758,549,230.6517,576.0379,176.5758,603.0758" style="stroke:#181818;stroke-width:0.5;stroke-linejoin:miter;stroke-miterlimit:10;"/><text fill="#000000" font-family="sans-serif" font-size="14" lengthAdjust="spacing" textLength="50.5723" x="151.2897" y="581.7664">CLICKS</text></g><g><polygon fill="#F1F1F1" points="248.5,853.0655,307.631,823.5,366.762,853.0655,307.631,882.631" style="stroke:#181818;stroke-width:0.5;stroke-linejoin:miter;stroke-miterlimit:10;"/><text fill="#000000" font-family="sans-serif" font-size="14" lengthAdjust="spacing" textLength="60.6826" x="277.2897" y="858.794">CLICKED</text></g><g><polygon fill="#F1F1F1" points="408.5,852.9517,468.4035,823,528.307,852.9517,468.4035,882.9035" style="stroke:#181818;stroke-width:0.5;stroke-linejoin:miter;stroke-miterlimit:10;"/><text fill="#000000" font-family="sans-serif" font-size="14" lengthAdjust="spacing" textLength="62.2275" x="437.2897" y="858.6803">FROM_AI</text></g><g><polygon fill="#F1F1F1" points="567.5,853.1224,629.7448,822,691.9896,853.1224,629.7448,884.2448" style="stroke:#181818;stroke-width:0.5;stroke-linejoin:miter;stroke-miterlimit:10;"/><text fill="#000000" font-family="sans-serif" font-size="14" lengthAdjust="spacing" textLength="66.9102" x="596.2897" y="858.8509">SAMPLED</text></g><g><polygon fill="#F1F1F1" points="758,421.1483,832.2966,384,906.5931,421.1483,832.2966,458.2966" style="stroke:#181818;stroke-width:0.5;stroke-linejoin:miter;stroke-miterlimit:10;"/><text fill="#000000" font-family="sans-serif" font-size="14" lengthAdjust="spacing" textLength="91.0137" x="786.7897" y="426.8768">SUBJECT_OF</text></g><g><polygon fill="#F1F1F1" points="957,320.369,1015.738,291,1074.4759,320.369,1015.738,349.738" style="stroke:#181818;stroke-width:0.5;stroke-linejoin:miter;stroke-miterlimit:10;"/><text fill="#000000" font-family="sans-serif" font-size="14" lengthAdjust="spacing" textLength="59.8965" x="985.7897" y="326.0975">SCORED</text></g><g><polygon fill="#F1F1F1" points="1149.5,320.4517,1216.4035,287,1283.307,320.4517,1216.4035,353.9035" style="stroke:#181818;stroke-width:0.5;stroke-linejoin:miter;stroke-miterlimit:10;"/><text fill="#000000" font-family="sans-serif" font-size="14" lengthAdjust="spacing" textLength="76.2275" x="1178.2897" y="326.1803">ACTOR_OF</text></g><g><polygon fill="#F1F1F1" points="1376,320.7327,1430.4655,293.5,1484.931,320.7327,1430.4655,347.9655" style="stroke:#181818;stroke-width:0.5;stroke-linejoin:miter;stroke-miterlimit:10;"/><text fill="#000000" font-family="sans-serif" font-size="14" lengthAdjust="spacing" textLength="51.3516" x="1404.7897" y="326.4613">RAISES</text></g><g><polygon fill="#F1F1F1" points="1620.5,320.5103,1683.5207,289,1746.5413,320.5103,1683.5207,352.0207" style="stroke:#181818;stroke-width:0.5;stroke-linejoin:miter;stroke-miterlimit:10;"/><text fill="#000000" font-family="sans-serif" font-size="14" lengthAdjust="spacing" textLength="68.4619" x="1649.2897" y="326.2389">STARS_IN</text></g><!--link USER/Id to USER--><g class="link" data-entity-1="ent0002" data-entity-2="ent0001" data-link-type="association" data-source-line="476" id="lnk3"><path d="M980.4,33.96 C987.21,49.86 999.57,78.77 1007.66,97.68" fill="none" id="USER/Id-USER" style="stroke:#181818;stroke-width:1;"/></g><!--link USER/Email to USER--><g class="link" data-entity-1="ent0004" data-entity-2="ent0001" data-link-type="association" data-source-line="477" id="lnk5"><path d="M1048.58,36.7 C1041.76,53.05 1030.54,79.94 1023.09,97.81" fill="none" id="USER/Email-USER" style="stroke:#181818;stroke-width:1;"/></g><!--link SCHOLARSHIP/Id to SCHOLARSHIP--><g class="link" data-entity-1="ent0007" data-entity-2="ent0006" data-link-type="association" data-source-line="480" id="lnk8"><path d="M250.37,516 C261.1,541.36 286.88,602.28 299.82,632.85" fill="none" id="SCHOLARSHIP/Id-SCHOLARSHIP" style="stroke:#181818;stroke-width:1;"/></g><!--link SCHOLARSHIP/Slug to SCHOLARSHIP--><g class="link" data-entity-1="ent0009" data-entity-2="ent0006" data-link-type="association" data-source-line="481" id="lnk10"><path d="M318.31,519.08 C316.1,546.01 311.4,603.44 308.99,632.84" fill="none" id="SCHOLARSHIP/Slug-SCHOLARSHIP" style="stroke:#181818;stroke-width:1;"/></g><!--link AI_INTERACTION/Id to AI_INTERACTION--><g class="link" data-entity-1="ent0012" data-entity-2="ent0011" data-link-type="association" data-source-line="484" id="lnk13"><path d="M403.02,513.78 C421.02,531.29 461.29,570.39 495.5,603 C505.88,612.9 517.53,623.87 527.07,632.82" fill="none" id="AI_INTERACTION/Id-AI_INTERACTION" style="stroke:#181818;stroke-width:1;"/></g><!--link AI_INTERACTION/Feature to AI_INTERACTION--><g class="link" data-entity-1="ent0014" data-entity-2="ent0011" data-link-type="association" data-source-line="485" id="lnk15"><path d="M487.85,518.81 C499.73,545.6 525.31,603.24 538.41,632.76" fill="none" id="AI_INTERACTION/Feature-AI_INTERACTION" style="stroke:#181818;stroke-width:1;"/></g><!--link AI_INTERACTION/CostUsd to AI_INTERACTION--><g class="link" data-entity-1="ent0016" data-entity-2="ent0011" data-link-type="association" data-source-line="486" id="lnk17"><path d="M589.72,519.08 C580.9,546.01 562.08,603.44 552.45,632.84" fill="none" id="AI_INTERACTION/CostUsd-AI_INTERACTION" style="stroke:#181818;stroke-width:1;"/></g><!--link RECOMMENDATION_CLICK_EVENT/Id to RECOMMENDATION_CLICK_EVENT--><g class="link" data-entity-1="ent0019" data-entity-2="ent0018" data-link-type="association" data-source-line="489" id="lnk20"><path d="M34.22,968.38 C60.67,982.67 122.36,1016.01 161.03,1036.91" fill="none" id="RECOMMENDATION_CLICK_EVENT/Id-RECOMMENDATION_CLICK_EVENT" style="stroke:#181818;stroke-width:1;"/></g><!--link RECOMMENDATION_CLICK_EVENT/Source to RECOMMENDATION_CLICK_EVENT--><g class="link" data-entity-1="ent0021" data-entity-2="ent0018" data-link-type="association" data-source-line="490" id="lnk22"><path d="M119.48,975.3 C134.88,991.65 160.58,1018.96 177.54,1036.98" fill="none" id="RECOMMENDATION_CLICK_EVENT/Source-RECOMMENDATION_CLICK_EVENT" style="stroke:#181818;stroke-width:1;"/></g><!--link AI_REDACTION_AUDIT_SAMPLE/Id to AI_REDACTION_AUDIT_SAMPLE--><g class="link" data-entity-1="ent0024" data-entity-2="ent0023" data-link-type="association" data-source-line="493" id="lnk25"><path d="M459.18,969.47 C480.92,984.31 528.1,1016.51 557.96,1036.89" fill="none" id="AI_REDACTION_AUDIT_SAMPLE/Id-AI_REDACTION_AUDIT_SAMPLE" style="stroke:#181818;stroke-width:1;"/></g><!--link AI_REDACTION_AUDIT_SAMPLE/Verdict to AI_REDACTION_AUDIT_SAMPLE--><g class="link" data-entity-1="ent0026" data-entity-2="ent0023" data-link-type="association" data-source-line="494" id="lnk27"><path d="M540.4,975.7 C549.49,992.05 564.44,1018.94 574.38,1036.81" fill="none" id="AI_REDACTION_AUDIT_SAMPLE/Verdict-AI_REDACTION_AUDIT_SAMPLE" style="stroke:#181818;stroke-width:1;"/></g><!--link USER_RISK_FLAG/Id to USER_RISK_FLAG--><g class="link" data-entity-1="ent0029" data-entity-2="ent0028" data-link-type="association" data-source-line="497" id="lnk30"><path d="M842.51,515.51 C856.18,540.53 889.67,601.87 906.5,632.7" fill="none" id="USER_RISK_FLAG/Id-USER_RISK_FLAG" style="stroke:#181818;stroke-width:1;"/></g><!--link USER_RISK_FLAG/Score to USER_RISK_FLAG--><g class="link" data-entity-1="ent0031" data-entity-2="ent0028" data-link-type="association" data-source-line="498" id="lnk32"><path d="M916.5,519.08 C916.5,546.01 916.5,603.44 916.5,632.84" fill="none" id="USER_RISK_FLAG/Score-USER_RISK_FLAG" style="stroke:#181818;stroke-width:1;"/></g><!--link AUDIT_LOG/Id to AUDIT_LOG--><g class="link" data-entity-1="ent0034" data-entity-2="ent0033" data-link-type="association" data-source-line="501" id="lnk35"><path d="M1080.59,515.51 C1094.42,540.53 1128.34,601.87 1145.38,632.7" fill="none" id="AUDIT_LOG/Id-AUDIT_LOG" style="stroke:#181818;stroke-width:1;"/></g><!--link AUDIT_LOG/Action to AUDIT_LOG--><g class="link" data-entity-1="ent0036" data-entity-2="ent0033" data-link-type="association" data-source-line="502" id="lnk37"><path d="M1155.5,519.08 C1155.5,546.01 1155.5,603.44 1155.5,632.84" fill="none" id="AUDIT_LOG/Action-AUDIT_LOG" style="stroke:#181818;stroke-width:1;"/></g><!--link KNOWLEDGE_DOCUMENT/Id to KNOWLEDGE_DOCUMENT--><g class="link" data-entity-1="ent0039" data-entity-2="ent0038" data-link-type="association" data-source-line="505" id="lnk40"><path d="M1140.5,33.23 C1150.76,48.96 1170.04,78.5 1182.57,97.71" fill="none" id="KNOWLEDGE_DOCUMENT/Id-KNOWLEDGE_DOCUMENT" style="stroke:#181818;stroke-width:1;"/></g><!--link KNOWLEDGE_DOCUMENT/SourceType to KNOWLEDGE_DOCUMENT--><g class="link" data-entity-1="ent0041" data-entity-2="ent0038" data-link-type="association" data-source-line="506" id="lnk42"><path d="M1233.31,37.11 C1225.23,53.54 1212.09,80.25 1203.37,97.97" fill="none" id="KNOWLEDGE_DOCUMENT/SourceType-KNOWLEDGE_DOCUMENT" style="stroke:#181818;stroke-width:1;"/></g><!--link PLATFORM_SETTING/Id to PLATFORM_SETTING--><g class="link" data-entity-1="ent0044" data-entity-2="ent0043" data-link-type="association" data-source-line="509" id="lnk45"><path d="M1360.59,32.15 C1375.17,47.64 1404.02,78.3 1422.5,97.94" fill="none" id="PLATFORM_SETTING/Id-PLATFORM_SETTING" style="stroke:#181818;stroke-width:1;"/></g><!--link PLATFORM_SETTING/SettingKey to PLATFORM_SETTING--><g class="link" data-entity-1="ent0046" data-entity-2="ent0043" data-link-type="association" data-source-line="510" id="lnk47"><path d="M1451.31,37.11 C1448.85,53.54 1444.85,80.25 1442.2,97.97" fill="none" id="PLATFORM_SETTING/SettingKey-PLATFORM_SETTING" style="stroke:#181818;stroke-width:1;"/></g><!--link USER_DATA_REQUEST/Id to USER_DATA_REQUEST--><g class="link" data-entity-1="ent0049" data-entity-2="ent0048" data-link-type="association" data-source-line="513" id="lnk50"><path d="M1322.46,516 C1335.62,541.36 1367.22,602.28 1383.09,632.85" fill="none" id="USER_DATA_REQUEST/Id-USER_DATA_REQUEST" style="stroke:#181818;stroke-width:1;"/></g><!--link USER_DATA_REQUEST/Type to USER_DATA_REQUEST--><g class="link" data-entity-1="ent0051" data-entity-2="ent0048" data-link-type="association" data-source-line="514" id="lnk52"><path d="M1392.5,519.08 C1392.5,546.01 1392.5,603.44 1392.5,632.84" fill="none" id="USER_DATA_REQUEST/Type-USER_DATA_REQUEST" style="stroke:#181818;stroke-width:1;"/></g><!--link SUCCESS_STORY/Id to SUCCESS_STORY--><g class="link" data-entity-1="ent0054" data-entity-2="ent0053" data-link-type="association" data-source-line="517" id="lnk55"><path d="M1554.98,515.04 C1572.49,539.7 1616.34,601.47 1638.39,632.54" fill="none" id="SUCCESS_STORY/Id-SUCCESS_STORY" style="stroke:#181818;stroke-width:1;"/></g><!--link SUCCESS_STORY/IsApproved to SUCCESS_STORY--><g class="link" data-entity-1="ent0056" data-entity-2="ent0053" data-link-type="association" data-source-line="518" id="lnk57"><path d="M1651.5,519.08 C1651.5,546.01 1651.5,603.44 1651.5,632.84" fill="none" id="SUCCESS_STORY/IsApproved-SUCCESS_STORY" style="stroke:#181818;stroke-width:1;"/></g><!--link USER to INVOKES--><g class="link" data-entity-1="ent0001" data-entity-2="ent0058" data-link-type="association" data-source-line="540" id="lnk68"><path d="M985.8,120.25 C948.12,124.31 882.41,135.51 835.5,166 C786.32,197.96 752.91,260.87 737.4,295.4" fill="none" id="USER-INVOKES" style="stroke:#181818;stroke-width:1;"/><text fill="#000000" font-family="sans-serif" font-size="11" lengthAdjust="spacing" textLength="6.1177" x="800.5" y="209.4189">1</text></g><!--link INVOKES to AI_INTERACTION--><g class="link" data-entity-1="ent0058" data-entity-2="ent0011" data-link-type="association" data-source-line="541" id="lnk69"><path d="M720.59,347.32 C705.48,400.09 665.29,522.15 597.5,603 C588.59,613.62 577.51,624.3 567.95,632.88" fill="none" style="stroke:#181818;stroke-width:3.6;"/><path d="M720.59,347.32 C705.48,400.09 665.29,522.15 597.5,603 C588.59,613.62 577.51,624.3 567.95,632.88" fill="none" style="stroke:#FFFFFF;stroke-width:1.8;"/><text fill="#000000" font-family="sans-serif" font-size="11" lengthAdjust="spacing" textLength="7.9438" x="668.5" y="508.4189">N</text></g><!--link USER to CLICKS--><g class="link" data-entity-1="ent0001" data-entity-2="ent0059" data-link-type="association" data-source-line="542" id="lnk70"><path d="M985.64,117.84 C836.18,117.45 176.5,120.41 176.5,203.5 C176.5,203.5 176.5,203.5 176.5,422 C176.5,466.49 176.5,518.26 176.5,548.74" fill="none" id="USER-CLICKS" style="stroke:#181818;stroke-width:1;"/><text fill="#000000" font-family="sans-serif" font-size="11" lengthAdjust="spacing" textLength="6.1177" x="177.5" y="254.4189">1</text></g><!--link CLICKS to RECOMMENDATION_CLICK_EVENT--><g class="link" data-entity-1="ent0059" data-entity-2="ent0018" data-link-type="association" data-source-line="543" id="lnk71"><path d="M182,600.62 C187.29,625.46 194.5,665.76 194.5,701 C194.5,701 194.5,701 194.5,961.5 C194.5,987.63 194.5,1017.88 194.5,1036.73" fill="none" style="stroke:#181818;stroke-width:3.6;"/><path d="M182,600.62 C187.29,625.46 194.5,665.76 194.5,701 C194.5,701 194.5,701 194.5,961.5 C194.5,987.63 194.5,1017.88 194.5,1036.73" fill="none" style="stroke:#FFFFFF;stroke-width:1.8;"/><text fill="#000000" font-family="sans-serif" font-size="11" lengthAdjust="spacing" textLength="7.9438" x="195.5" y="789.4189">N</text></g><!--link SCHOLARSHIP to CLICKED--><g class="link" data-entity-1="ent0006" data-entity-2="ent0060" data-link-type="association" data-source-line="544" id="lnk72"><path d="M307.5,671.01 C307.5,705.65 307.5,781.78 307.5,823.42" fill="none" id="SCHOLARSHIP-CLICKED" style="stroke:#181818;stroke-width:1;"/><text fill="#000000" font-family="sans-serif" font-size="11" lengthAdjust="spacing" textLength="6.1177" x="308.5" y="744.4189">1</text></g><!--link CLICKED to RECOMMENDATION_CLICK_EVENT--><g class="link" data-entity-1="ent0060" data-entity-2="ent0018" data-link-type="association" data-source-line="545" id="lnk73"><path d="M294.98,876.28 C272.45,916.35 225.52,999.82 204.76,1036.75" fill="none" style="stroke:#181818;stroke-width:3.6;"/><path d="M294.98,876.28 C272.45,916.35 225.52,999.82 204.76,1036.75" fill="none" style="stroke:#FFFFFF;stroke-width:1.8;"/><text fill="#000000" font-family="sans-serif" font-size="11" lengthAdjust="spacing" textLength="7.9438" x="257.5" y="965.4189">N</text></g><!--link AI_INTERACTION to FROM_AI--><g class="link" data-entity-1="ent0011" data-entity-2="ent0061" data-link-type="association" data-source-line="546" id="lnk74"><path d="M539.44,671.01 C525.42,706.79 494.03,786.87 478.13,827.44" fill="none" id="AI_INTERACTION-FROM_AI" style="stroke:#181818;stroke-width:1;"/><text fill="#000000" font-family="sans-serif" font-size="11" lengthAdjust="spacing" textLength="6.1177" x="516.5" y="744.4189">1</text></g><!--link FROM_AI to RECOMMENDATION_CLICK_EVENT--><g class="link" data-entity-1="ent0061" data-entity-2="ent0018" data-link-type="association" data-source-line="547" id="lnk75"><path d="M444.66,871.49 C393.1,909.31 271.65,998.4 219.26,1036.83" fill="none" id="FROM_AI-RECOMMENDATION_CLICK_EVENT" style="stroke:#181818;stroke-width:1;"/><text fill="#000000" font-family="sans-serif" font-size="11" lengthAdjust="spacing" textLength="7.9438" x="345.5" y="965.4189">N</text></g><!--link AI_INTERACTION to SAMPLED--><g class="link" data-entity-1="ent0011" data-entity-2="ent0062" data-link-type="association" data-source-line="548" id="lnk76"><path d="M554.01,671.01 C568.9,706.7 602.16,786.44 619.12,827.11" fill="none" id="AI_INTERACTION-SAMPLED" style="stroke:#181818;stroke-width:1;"/><text fill="#000000" font-family="sans-serif" font-size="11" lengthAdjust="spacing" textLength="6.1177" x="586.5" y="744.4189">1</text></g><!--link SAMPLED to AI_REDACTION_AUDIT_SAMPLE--><g class="link" data-entity-1="ent0062" data-entity-2="ent0023" data-link-type="association" data-source-line="549" id="lnk77"><path d="M623.43,881.11 C614.1,922.79 596.47,1001.51 588.55,1036.93" fill="none" id="SAMPLED-AI_REDACTION_AUDIT_SAMPLE" style="stroke:#181818;stroke-width:1;"/><text fill="#000000" font-family="sans-serif" font-size="11" lengthAdjust="spacing" textLength="6.1177" x="610.5" y="965.4189">1</text></g><!--link USER to SUBJECT_OF--><g class="link" data-entity-1="ent0001" data-entity-2="ent0063" data-link-type="association" data-source-line="550" id="lnk78"><path d="M1004.33,136.44 C973.36,187.53 886.31,331.2 849.39,392.13" fill="none" id="USER-SUBJECT_OF" style="stroke:#181818;stroke-width:1;"/><text fill="#000000" font-family="sans-serif" font-size="11" lengthAdjust="spacing" textLength="6.1177" x="968.5" y="209.4189">1</text></g><!--link SUBJECT_OF to AI_REDACTION_AUDIT_SAMPLE--><g class="link" data-entity-1="ent0063" data-entity-2="ent0023" data-link-type="association" data-source-line="551" id="lnk79"><path d="M813.35,448.74 C794.18,478.19 767.5,527.67 767.5,575 C767.5,575 767.5,575 767.5,961.5 C767.5,1000.92 733.4,1023.73 694.65,1036.93" fill="none" style="stroke:#181818;stroke-width:3.6;"/><path d="M813.35,448.74 C794.18,478.19 767.5,527.67 767.5,575 C767.5,575 767.5,575 767.5,961.5 C767.5,1000.92 733.4,1023.73 694.65,1036.93" fill="none" style="stroke:#FFFFFF;stroke-width:1.8;"/><text fill="#000000" font-family="sans-serif" font-size="11" lengthAdjust="spacing" textLength="7.9438" x="768.5" y="744.4189">N</text></g><!--link USER to SCORED--><g class="link" data-entity-1="ent0001" data-entity-2="ent0064" data-link-type="association" data-source-line="552" id="lnk80"><path d="M1015.5,136.24 C1015.5,171.4 1015.5,248.82 1015.5,290.91" fill="none" id="USER-SCORED" style="stroke:#181818;stroke-width:1;"/><text fill="#000000" font-family="sans-serif" font-size="11" lengthAdjust="spacing" textLength="6.1177" x="1016.5" y="209.4189">1</text></g><!--link SCORED to USER_RISK_FLAG--><g class="link" data-entity-1="ent0064" data-entity-2="ent0028" data-link-type="association" data-source-line="553" id="lnk81"><path d="M1010.9,347.78 C1001.56,398.38 978.2,512.33 942.5,603 C938.47,613.23 932.76,624.04 927.71,632.81" fill="none" style="stroke:#181818;stroke-width:3.6;"/><path d="M1010.9,347.78 C1001.56,398.38 978.2,512.33 942.5,603 C938.47,613.23 932.76,624.04 927.71,632.81" fill="none" style="stroke:#FFFFFF;stroke-width:1.8;"/><text fill="#000000" font-family="sans-serif" font-size="11" lengthAdjust="spacing" textLength="6.1177" x="980.5" y="508.4189">1</text></g><!--link USER to ACTOR_OF--><g class="link" data-entity-1="ent0001" data-entity-2="ent0065" data-link-type="association" data-source-line="554" id="lnk82"><path d="M1033.69,136.24 C1070.7,173.34 1154.64,257.48 1194.58,297.53" fill="none" id="USER-ACTOR_OF" style="stroke:#181818;stroke-width:1;"/><text fill="#000000" font-family="sans-serif" font-size="11" lengthAdjust="spacing" textLength="6.1177" x="1109.5" y="209.4189">1</text></g><!--link ACTOR_OF to AUDIT_LOG--><g class="link" data-entity-1="ent0065" data-entity-2="ent0033" data-link-type="association" data-source-line="555" id="lnk83"><path d="M1217.62,353.59 C1218.4,407.22 1215.25,517.58 1181.5,603 C1177.46,613.22 1171.74,624.04 1166.7,632.81" fill="none" id="ACTOR_OF-AUDIT_LOG" style="stroke:#181818;stroke-width:1;"/><text fill="#000000" font-family="sans-serif" font-size="11" lengthAdjust="spacing" textLength="7.9438" x="1210.5" y="508.4189">N</text></g><!--link USER to RAISES--><g class="link" data-entity-1="ent0001" data-entity-2="ent0066" data-link-type="association" data-source-line="556" id="lnk84"><path d="M1045.01,132.33 C1122.32,169.87 1329.87,270.64 1403.85,306.56" fill="none" id="USER-RAISES" style="stroke:#181818;stroke-width:1;"/><text fill="#000000" font-family="sans-serif" font-size="11" lengthAdjust="spacing" textLength="6.1177" x="1208.5" y="209.4189">1</text></g><!--link RAISES to USER_DATA_REQUEST--><g class="link" data-entity-1="ent0066" data-entity-2="ent0048" data-link-type="association" data-source-line="557" id="lnk85"><path d="M1434.14,345.76 C1440.62,395.66 1450.68,512.69 1418.5,603 C1414.81,613.36 1409.13,624.18 1404.01,632.93" fill="none" style="stroke:#181818;stroke-width:3.6;"/><path d="M1434.14,345.76 C1440.62,395.66 1450.68,512.69 1418.5,603 C1414.81,613.36 1409.13,624.18 1404.01,632.93" fill="none" style="stroke:#FFFFFF;stroke-width:1.8;"/><text fill="#000000" font-family="sans-serif" font-size="11" lengthAdjust="spacing" textLength="7.9438" x="1441.5" y="508.4189">N</text></g><!--link USER to STARS_IN--><g class="link" data-entity-1="ent0001" data-entity-2="ent0067" data-link-type="association" data-source-line="558" id="lnk86"><path d="M1045.07,126.92 C1152.75,159.4 1524.04,271.4 1645.04,307.9" fill="none" id="USER-STARS_IN" style="stroke:#181818;stroke-width:1;"/><text fill="#000000" font-family="sans-serif" font-size="11" lengthAdjust="spacing" textLength="6.1177" x="1325.5" y="209.4189">1</text></g><!--link STARS_IN to SUCCESS_STORY--><g class="link" data-entity-1="ent0067" data-entity-2="ent0053" data-link-type="association" data-source-line="559" id="lnk87"><path d="M1695.41,346.31 C1711.88,383.91 1737.94,457.47 1722.5,519 C1711.41,563.17 1682.31,608.63 1665,632.98" fill="none" id="STARS_IN-SUCCESS_STORY" style="stroke:#181818;stroke-width:1;"/><text fill="#000000" font-family="sans-serif" font-size="11" lengthAdjust="spacing" textLength="7.9438" x="1727.5" y="508.4189">N</text></g><?plantuml-src bLJBRjim4BppA_G33keWw2aEmb9qmkf1bwHSz4GO4ki8TIH3ebiOHV-zfFMo9Jf1Rf9sPdTdPrUFjTvKEdrHXOSnyoKaCYZAFpkLRPLSxJRwPrcz0bNeN1-zX6Fc_GMUHpBl_lwNEZuyc1Vykibtu5y7ukYPXf3nPxAQOldki1sWfXY91MOG2KBZANgfDlfGAVE4obedjOrbgif_gyp4-pGC8nf5EFQXJIDHI50WyHh7mj50UQXITT42mtxJW8I9JuJaC5g5U4fTgohBKprmxJWa8poGon0-EMgbPQNSBJULGkfWmLJdPJ50WvX-3x7_XALFKHAzeKeSzsVALY4KIyeYoR4G97RrfxJEYssWZYDDPf3GZELRWhcZs6KPdY24EPTSKFPZ2YOrtE-hqiWtb4gPXJBYwfTyxv5uJGFC3MKKEFbtxJlsfu4bev5Pt6cWSTB1uCcNhnW9IPUE6ABCnJ4xGfcJmI3XBY5Sc3Cm6twAd6vdDfzrka6dVn4lHeSmO9jHW7OY5dbzry7vuVLax8DkRk_GHyTeCxI31Ts0P_7iWnbQ1q3dXFrszUG6tOC_uCogTbBlaay6WjR7nNmnEjG1sLaAUc-jmlus1s3ZC6YDjdrCxkIiVcixwFstMI_k13og8hC_NG3cDxUVRZ_VtFq7?></g></svg>