<svg xmlns="http://www.w3.org/2000/svg" xmlns:xlink="http://www.w3.org/1999/xlink" contentStyleType="text/css" data-diagram-type="CHEN_EER" height="974px" preserveAspectRatio="none" style="width:1767px;height:974px;background:#FFFFFF;" version="1.1" viewBox="0 0 1767 974" width="1767px" zoomAndPan="magnify"><?plantuml 1.2026.4?><defs/><g><g><rect fill="#F1F1F1" height="37.6094" style="stroke:#181818;stroke-width:0.5;" width="58.8965" x="1396" y="98"/><text fill="#000000" font-family="sans-serif" font-size="14" lengthAdjust="spacing" textLength="38.8965" x="1406" y="122.5332">USER</text></g><g><ellipse cx="1385.4583" cy="21.4667" fill="#F1F1F1" rx="15.4583" ry="12.9667" style="stroke:#181818;stroke-width:0.5;"/><text fill="#000000" font-family="sans-serif" font-size="14" lengthAdjust="spacing" text-decoration="underline" textLength="11.6758" x="1379.6204" y="29.0332">Id</text></g><g><ellipse cx="1464.2536" cy="21.4517" fill="#F1F1F1" rx="27.7536" ry="15.4517" style="stroke:#181818;stroke-width:0.5;"/><text fill="#000000" font-family="sans-serif" font-size="14" lengthAdjust="spacing" textLength="35.0068" x="1446.7502" y="26.5332">Email</text></g><g><rect fill="#F1F1F1" height="37.6094" style="stroke:#181818;stroke-width:0.5;" width="157.6758" x="1011.5" y="98"/><text fill="#000000" font-family="sans-serif" font-size="14" lengthAdjust="spacing" textLength="137.6758" x="1021.5" y="122.5332">FORUM_CATEGORY</text></g><g><ellipse cx="1053.4583" cy="21.4667" fill="#F1F1F1" rx="15.4583" ry="12.9667" style="stroke:#181818;stroke-width:0.5;"/><text fill="#000000" font-family="sans-serif" font-size="14" lengthAdjust="spacing" text-decoration="underline" textLength="11.6758" x="1047.6204" y="29.0332">Id</text></g><g><ellipse cx="1127.3135" cy="21.4517" fill="#F1F1F1" rx="22.8135" ry="15.4517" style="stroke:#181818;stroke-width:0.5;"/><text fill="#000000" font-family="sans-serif" font-size="14" lengthAdjust="spacing" textLength="28.0205" x="1113.3032" y="26.5332">Slug</text></g><g><rect fill="#F1F1F1" height="37.6094" style="stroke:#181818;stroke-width:0.5;" width="117.2275" x="800" y="508"/><text fill="#000000" font-family="sans-serif" font-size="14" lengthAdjust="spacing" textLength="97.2275" x="810" y="532.5332">FORUM_POST</text></g><g><ellipse cx="546.4583" cy="429.9667" fill="#F1F1F1" rx="15.4583" ry="12.9667" style="stroke:#181818;stroke-width:0.5;"/><text fill="#000000" font-family="sans-serif" font-size="14" lengthAdjust="spacing" text-decoration="underline" textLength="11.6758" x="540.6204" y="437.5332">Id</text></g><g><ellipse cx="670.3438" cy="430.0688" fill="#F1F1F1" rx="73.3438" ry="17.0688" style="stroke:#181818;stroke-width:0.5;"/><text fill="#000000" font-family="sans-serif" font-size="14" lengthAdjust="spacing" textLength="109.7305" x="615.4786" y="433.5332">ModerationStatus</text></g><g><ellipse cx="840.2825" cy="429.9517" fill="#F1F1F1" rx="60.7825" ry="15.4517" style="stroke:#181818;stroke-width:0.5;stroke-dasharray:10,10;"/><text fill="#000000" font-family="sans-serif" font-size="14" lengthAdjust="spacing" textLength="81.7168" x="799.4241" y="435.0332">UpvoteCount</text></g><g><ellipse cx="985.674" cy="429.9517" fill="#F1F1F1" rx="48.674" ry="15.4517" style="stroke:#181818;stroke-width:0.5;stroke-dasharray:10,10;"/><text fill="#000000" font-family="sans-serif" font-size="14" lengthAdjust="spacing" textLength="64.5928" x="953.3776" y="435.0332">FlagCount</text></g><g><rect fill="#F1F1F1" height="37.6094" style="stroke:#181818;stroke-width:0.5;" width="220.6758" x="17" y="923"/><text fill="#000000" font-family="sans-serif" font-size="14" lengthAdjust="spacing" textLength="200.6758" x="27" y="947.5332">FORUM_POST_ATTACHMENT</text></g><g><ellipse cx="127.4583" cy="846.4667" fill="#F1F1F1" rx="15.4583" ry="12.9667" style="stroke:#181818;stroke-width:0.5;"/><text fill="#000000" font-family="sans-serif" font-size="14" lengthAdjust="spacing" text-decoration="underline" textLength="11.6758" x="121.6204" y="854.0332">Id</text></g><g><ellipse cx="41.4585" cy="846.4517" fill="#F1F1F1" rx="35.4585" ry="15.4517" style="stroke:#181818;stroke-width:0.5;"/><text fill="#000000" font-family="sans-serif" font-size="14" lengthAdjust="spacing" textLength="45.9033" x="18.5069" y="851.5332">BlobUrl</text></g><g><rect fill="#F1F1F1" height="37.6094" style="stroke:#181818;stroke-width:0.5;" width="117.2275" x="341" y="923"/><text fill="#000000" font-family="sans-serif" font-size="14" lengthAdjust="spacing" textLength="97.2275" x="351" y="947.5332">FORUM_VOTE</text></g><g><ellipse cx="399.4583" cy="846.4667" fill="#F1F1F1" rx="15.4583" ry="12.9667" style="stroke:#181818;stroke-width:0.5;"/><text fill="#000000" font-family="sans-serif" font-size="14" lengthAdjust="spacing" text-decoration="underline" textLength="11.6758" x="393.6204" y="854.0332">Id</text></g><g><ellipse cx="303.3725" cy="846.4517" fill="#F1F1F1" rx="45.3725" ry="15.4517" style="stroke:#181818;stroke-width:0.5;"/><text fill="#000000" font-family="sans-serif" font-size="14" lengthAdjust="spacing" textLength="59.9238" x="273.4106" y="851.5332">VoteType</text></g><g><rect fill="#F1F1F1" height="37.6094" style="stroke:#181818;stroke-width:0.5;" width="115.6758" x="661.5" y="923"/><text fill="#000000" font-family="sans-serif" font-size="14" lengthAdjust="spacing" textLength="95.6758" x="671.5" y="947.5332">FORUM_FLAG</text></g><g><ellipse cx="807.4583" cy="846.4667" fill="#F1F1F1" rx="15.4583" ry="12.9667" style="stroke:#181818;stroke-width:0.5;"/><text fill="#000000" font-family="sans-serif" font-size="14" lengthAdjust="spacing" text-decoration="underline" textLength="11.6758" x="801.6204" y="854.0332">Id</text></g><g><ellipse cx="719.6214" cy="846.4517" fill="#F1F1F1" rx="37.1214" ry="15.4517" style="stroke:#181818;stroke-width:0.5;"/><text fill="#000000" font-family="sans-serif" font-size="14" lengthAdjust="spacing" textLength="48.2549" x="695.4939" y="851.5332">Reason</text></g><g><rect fill="#F1F1F1" height="37.6094" style="stroke:#181818;stroke-width:0.5;" width="160.0137" x="843.5" y="923"/><text fill="#000000" font-family="sans-serif" font-size="14" lengthAdjust="spacing" textLength="140.0137" x="853.5" y="947.5332">FORUM_BOOKMARK</text></g><g><ellipse cx="953.4583" cy="846.4667" fill="#F1F1F1" rx="15.4583" ry="12.9667" style="stroke:#181818;stroke-width:0.5;"/><text fill="#000000" font-family="sans-serif" font-size="14" lengthAdjust="spacing" text-decoration="underline" textLength="11.6758" x="947.6204" y="854.0332">Id</text></g><g><rect fill="#F1F1F1" height="37.6094" style="stroke:#181818;stroke-width:0.5;" width="107.8896" x="1255.5" y="508"/><text fill="#000000" font-family="sans-serif" font-size="14" lengthAdjust="spacing" textLength="87.8896" x="1265.5" y="532.5332">FORUM_TAG</text></g><g><ellipse cx="1335.4583" cy="429.9667" fill="#F1F1F1" rx="15.4583" ry="12.9667" style="stroke:#181818;stroke-width:0.5;"/><text fill="#000000" font-family="sans-serif" font-size="14" lengthAdjust="spacing" text-decoration="underline" textLength="11.6758" x="1329.6204" y="437.5332">Id</text></g><g><ellipse cx="1261.3135" cy="429.9517" fill="#F1F1F1" rx="22.8135" ry="15.4517" style="stroke:#181818;stroke-width:0.5;"/><text fill="#000000" font-family="sans-serif" font-size="14" lengthAdjust="spacing" textLength="28.0205" x="1247.3032" y="435.0332">Slug</text></g><g><rect fill="#F1F1F1" height="37.6094" style="stroke:#181818;stroke-width:0.5;" width="153.793" x="1069.5" y="923"/><text fill="#000000" font-family="sans-serif" font-size="14" lengthAdjust="spacing" textLength="133.793" x="1079.5" y="947.5332">FORUM_POST_TAG</text></g><g><ellipse cx="1146.4583" cy="846.4667" fill="#F1F1F1" rx="15.4583" ry="12.9667" style="stroke:#181818;stroke-width:0.5;"/><text fill="#000000" font-family="sans-serif" font-size="14" lengthAdjust="spacing" text-decoration="underline" textLength="11.6758" x="1140.6204" y="854.0332">Id</text></g><g><rect fill="#F1F1F1" height="37.6094" style="stroke:#181818;stroke-width:0.5;" width="132.0137" x="1407.5" y="508"/><text fill="#000000" font-family="sans-serif" font-size="14" lengthAdjust="spacing" textLength="112.0137" x="1417.5" y="532.5332">CONVERSATION</text></g><g><ellipse cx="1483.4583" cy="429.9667" fill="#F1F1F1" rx="15.4583" ry="12.9667" style="stroke:#181818;stroke-width:0.5;"/><text fill="#000000" font-family="sans-serif" font-size="14" lengthAdjust="spacing" text-decoration="underline" textLength="11.6758" x="1477.6204" y="437.5332">Id</text></g><g><rect fill="#F1F1F1" height="37.6094" style="stroke:#181818;stroke-width:0.5;" width="89.2412" x="1489" y="923"/><text fill="#000000" font-family="sans-serif" font-size="14" lengthAdjust="spacing" textLength="69.2412" x="1499" y="947.5332">MESSAGE</text></g><g><ellipse cx="1533.4583" cy="846.4667" fill="#F1F1F1" rx="15.4583" ry="12.9667" style="stroke:#181818;stroke-width:0.5;"/><text fill="#000000" font-family="sans-serif" font-size="14" lengthAdjust="spacing" text-decoration="underline" textLength="11.6758" x="1527.6204" y="854.0332">Id</text></g><g><ellipse cx="1609.5639" cy="846.4517" fill="#F1F1F1" rx="25.5639" ry="15.4517" style="stroke:#181818;stroke-width:0.5;"/><text fill="#000000" font-family="sans-serif" font-size="14" lengthAdjust="spacing" textLength="31.9102" x="1593.6088" y="851.5332">Body</text></g><g><rect fill="#F1F1F1" height="37.6094" style="stroke:#181818;stroke-width:0.5;" width="114.1445" x="1621.5" y="508"/><text fill="#000000" font-family="sans-serif" font-size="14" lengthAdjust="spacing" textLength="94.1445" x="1631.5" y="532.5332">USER_BLOCK</text></g><g><ellipse cx="1738.4583" cy="429.9667" fill="#F1F1F1" rx="15.4583" ry="12.9667" style="stroke:#181818;stroke-width:0.5;"/><text fill="#000000" font-family="sans-serif" font-size="14" lengthAdjust="spacing" text-decoration="underline" textLength="11.6758" x="1732.6204" y="437.5332">Id</text></g><g><ellipse cx="1571.6214" cy="429.9517" fill="#F1F1F1" rx="37.1214" ry="15.4517" style="stroke:#181818;stroke-width:0.5;"/><text fill="#000000" font-family="sans-serif" font-size="14" lengthAdjust="spacing" textLength="48.2549" x="1547.4939" y="435.0332">Reason</text></g><g><polygon fill="#F1F1F1" points="1031.5,312.5638,1090.6276,283,1149.7552,312.5638,1090.6276,342.1276" style="stroke:#181818;stroke-width:0.5;stroke-linejoin:miter;stroke-miterlimit:10;"/><text fill="#000000" font-family="sans-serif" font-size="14" lengthAdjust="spacing" textLength="60.6758" x="1060.2897" y="318.2923">GROUPS</text></g><g><polygon fill="#F1F1F1" points="1184.5,312.5069,1247.5138,281,1310.5277,312.5069,1247.5138,344.0138" style="stroke:#181818;stroke-width:0.5;stroke-linejoin:miter;stroke-miterlimit:10;"/><text fill="#000000" font-family="sans-serif" font-size="14" lengthAdjust="spacing" textLength="68.4482" x="1213.2897" y="318.2354">AUTHORS</text></g><g><polygon fill="#F1F1F1" points="1109,726.6793,1167.3586,697.5,1225.7171,726.6793,1167.3586,755.8586" style="stroke:#181818;stroke-width:0.5;stroke-linejoin:miter;stroke-miterlimit:10;"/><text fill="#000000" font-family="sans-serif" font-size="14" lengthAdjust="spacing" textLength="59.1377" x="1137.7897" y="732.4078">REPLIES</text></g><g><polygon fill="#F1F1F1" points="189.5,726.5638,255.6276,693.5,321.7552,726.5638,255.6276,759.6276" style="stroke:#181818;stroke-width:0.5;stroke-linejoin:miter;stroke-miterlimit:10;"/><text fill="#000000" font-family="sans-serif" font-size="14" lengthAdjust="spacing" textLength="74.6758" x="218.2897" y="732.2923">ATTACHES</text></g><g><polygon fill="#F1F1F1" points="377.5,726.5706,464.6413,683,551.7826,726.5706,464.6413,770.1413" style="stroke:#181818;stroke-width:0.5;stroke-linejoin:miter;stroke-miterlimit:10;"/><text fill="#000000" font-family="sans-serif" font-size="14" lengthAdjust="spacing" textLength="116.7031" x="406.2897" y="732.2992">RECEIVES_VOTE</text></g><g><polygon fill="#F1F1F1" points="587,726.6827,673.3654,683.5,759.7308,726.6827,673.3654,769.8654" style="stroke:#181818;stroke-width:0.5;stroke-linejoin:miter;stroke-miterlimit:10;"/><text fill="#000000" font-family="sans-serif" font-size="14" lengthAdjust="spacing" textLength="115.1514" x="615.7897" y="732.4112">RECEIVES_FLAG</text></g><g><polygon fill="#F1F1F1" points="795,726.7069,858.4137,695,921.8275,726.7069,858.4137,758.4137" style="stroke:#181818;stroke-width:0.5;stroke-linejoin:miter;stroke-miterlimit:10;"/><text fill="#000000" font-family="sans-serif" font-size="14" lengthAdjust="spacing" textLength="69.248" x="823.7897" y="732.4354">SAVED_IN</text></g><g><polygon fill="#F1F1F1" points="957,726.6742,1015.3483,697.5,1073.6966,726.6742,1015.3483,755.8483" style="stroke:#181818;stroke-width:0.5;stroke-linejoin:miter;stroke-miterlimit:10;"/><text fill="#000000" font-family="sans-serif" font-size="14" lengthAdjust="spacing" textLength="59.1172" x="985.7897" y="732.4027">TAGGED</text></g><g><polygon fill="#F1F1F1" points="1261.5,726.4242,1309.3483,702.5,1357.1966,726.4242,1309.3483,750.3483" style="stroke:#181818;stroke-width:0.5;stroke-linejoin:miter;stroke-miterlimit:10;"/><text fill="#000000" font-family="sans-serif" font-size="14" lengthAdjust="spacing" textLength="38.1172" x="1290.2897" y="732.1527">TAGS</text></g><g><polygon fill="#F1F1F1" points="1346,312.6776,1425.3551,273,1504.7103,312.6776,1425.3551,352.3551" style="stroke:#181818;stroke-width:0.5;stroke-linejoin:miter;stroke-miterlimit:10;"/><text fill="#000000" font-family="sans-serif" font-size="14" lengthAdjust="spacing" textLength="101.1309" x="1374.7897" y="318.4061">PARTICIPATES</text></g><g><polygon fill="#F1F1F1" points="1408.5,726.4793,1473.4587,694,1538.4173,726.4793,1473.4587,758.9587" style="stroke:#181818;stroke-width:0.5;stroke-linejoin:miter;stroke-miterlimit:10;"/><text fill="#000000" font-family="sans-serif" font-size="14" lengthAdjust="spacing" textLength="72.3379" x="1437.2897" y="732.2078">CONTAINS</text></g><g><polygon fill="#F1F1F1" points="1581.5,312.5948,1638.6896,284,1695.8792,312.5948,1638.6896,341.1896" style="stroke:#181818;stroke-width:0.5;stroke-linejoin:miter;stroke-miterlimit:10;"/><text fill="#000000" font-family="sans-serif" font-size="14" lengthAdjust="spacing" textLength="56.7998" x="1610.2897" y="318.3233">BLOCKS</text></g><!--link USER/Id to USER--><g class="link" data-entity-1="ent0002" data-entity-2="ent0001" data-link-type="association" data-source-line="312" id="lnk3"><path d="M1390.4,33.96 C1397.21,49.86 1409.57,78.77 1417.66,97.68" fill="none" id="USER/Id-USER" style="stroke:#181818;stroke-width:1;"/></g><!--link USER/Email to USER--><g class="link" data-entity-1="ent0004" data-entity-2="ent0001" data-link-type="association" data-source-line="313" id="lnk5"><path d="M1458.58,36.7 C1451.76,53.05 1440.54,79.94 1433.09,97.81" fill="none" id="USER/Email-USER" style="stroke:#181818;stroke-width:1;"/></g><!--link FORUM_CATEGORY/Id to FORUM_CATEGORY--><g class="link" data-entity-1="ent0007" data-entity-2="ent0006" data-link-type="association" data-source-line="316" id="lnk8"><path d="M1058.04,33.96 C1064.33,49.86 1075.77,78.77 1083.25,97.68" fill="none" id="FORUM_CATEGORY/Id-FORUM_CATEGORY" style="stroke:#181818;stroke-width:1;"/></g><!--link FORUM_CATEGORY/Slug to FORUM_CATEGORY--><g class="link" data-entity-1="ent0009" data-entity-2="ent0006" data-link-type="association" data-source-line="317" id="lnk10"><path d="M1121.88,36.7 C1115.41,53.05 1104.77,79.94 1097.7,97.81" fill="none" id="FORUM_CATEGORY/Slug-FORUM_CATEGORY" style="stroke:#181818;stroke-width:1;"/></g><!--link FORUM_POST/Id to FORUM_POST--><g class="link" data-entity-1="ent0012" data-entity-2="ent0011" data-link-type="association" data-source-line="320" id="lnk13"><path d="M559.12,437.76 C565.17,440.84 572.6,444.37 579.5,447 C653.84,475.29 742.69,498.76 799.83,512.57" fill="none" id="FORUM_POST/Id-FORUM_POST" style="stroke:#181818;stroke-width:1;"/></g><!--link FORUM_POST/ModerationStatus to FORUM_POST--><g class="link" data-entity-1="ent0014" data-entity-2="ent0011" data-link-type="association" data-source-line="321" id="lnk15"><path d="M699.46,445.64 C732.63,462.39 786.98,489.86 822.75,507.94" fill="none" id="FORUM_POST/ModerationStatus-FORUM_POST" style="stroke:#181818;stroke-width:1;"/></g><!--link FORUM_POST/UpvoteCount to FORUM_POST--><g class="link" data-entity-1="ent0016" data-entity-2="ent0011" data-link-type="association" data-source-line="322" id="lnk17"><path d="M843.31,445.84 C846.48,462.54 851.62,489.68 855.03,507.68" fill="none" id="FORUM_POST/UpvoteCount-FORUM_POST" style="stroke:#181818;stroke-width:1;"/></g><!--link FORUM_POST/FlagCount to FORUM_POST--><g class="link" data-entity-1="ent0018" data-entity-2="ent0011" data-link-type="association" data-source-line="323" id="lnk19"><path d="M967.57,444.41 C945.42,460.98 907.63,489.25 882.86,507.78" fill="none" id="FORUM_POST/FlagCount-FORUM_POST" style="stroke:#181818;stroke-width:1;"/></g><!--link FORUM_POST_ATTACHMENT/Id to FORUM_POST_ATTACHMENT--><g class="link" data-entity-1="ent0021" data-entity-2="ent0020" data-link-type="association" data-source-line="326" id="lnk22"><path d="M127.5,859.72 C127.5,875.76 127.5,904.05 127.5,922.66" fill="none" id="FORUM_POST_ATTACHMENT/Id-FORUM_POST_ATTACHMENT" style="stroke:#181818;stroke-width:1;"/></g><!--link FORUM_POST_ATTACHMENT/BlobUrl to FORUM_POST_ATTACHMENT--><g class="link" data-entity-1="ent0023" data-entity-2="ent0020" data-link-type="association" data-source-line="327" id="lnk24"><path d="M54.19,861.3 C69.23,877.65 94.35,904.96 110.92,922.98" fill="none" id="FORUM_POST_ATTACHMENT/BlobUrl-FORUM_POST_ATTACHMENT" style="stroke:#181818;stroke-width:1;"/></g><!--link FORUM_VOTE/Id to FORUM_VOTE--><g class="link" data-entity-1="ent0026" data-entity-2="ent0025" data-link-type="association" data-source-line="330" id="lnk27"><path d="M399.5,859.72 C399.5,875.76 399.5,904.05 399.5,922.66" fill="none" id="FORUM_VOTE/Id-FORUM_VOTE" style="stroke:#181818;stroke-width:1;"/></g><!--link FORUM_VOTE/VoteType to FORUM_VOTE--><g class="link" data-entity-1="ent0028" data-entity-2="ent0025" data-link-type="association" data-source-line="331" id="lnk29"><path d="M317.67,861.3 C334.46,877.65 362.5,904.96 380.99,922.98" fill="none" id="FORUM_VOTE/VoteType-FORUM_VOTE" style="stroke:#181818;stroke-width:1;"/></g><!--link FORUM_FLAG/Id to FORUM_FLAG--><g class="link" data-entity-1="ent0031" data-entity-2="ent0030" data-link-type="association" data-source-line="334" id="lnk32"><path d="M798.41,857.15 C783.83,872.64 754.98,903.3 736.5,922.94" fill="none" id="FORUM_FLAG/Id-FORUM_FLAG" style="stroke:#181818;stroke-width:1;"/></g><!--link FORUM_FLAG/Reason to FORUM_FLAG--><g class="link" data-entity-1="ent0033" data-entity-2="ent0030" data-link-type="association" data-source-line="335" id="lnk34"><path d="M719.5,862.11 C719.5,878.54 719.5,905.25 719.5,922.97" fill="none" id="FORUM_FLAG/Reason-FORUM_FLAG" style="stroke:#181818;stroke-width:1;"/></g><!--link FORUM_BOOKMARK/Id to FORUM_BOOKMARK--><g class="link" data-entity-1="ent0036" data-entity-2="ent0035" data-link-type="association" data-source-line="338" id="lnk37"><path d="M949.7,859.34 C944.56,875.36 935.34,904.09 929.33,922.84" fill="none" id="FORUM_BOOKMARK/Id-FORUM_BOOKMARK" style="stroke:#181818;stroke-width:1;"/></g><!--link FORUM_TAG/Id to FORUM_TAG--><g class="link" data-entity-1="ent0039" data-entity-2="ent0038" data-link-type="association" data-source-line="341" id="lnk40"><path d="M1332.21,443.03 C1327.73,459.41 1319.67,488.85 1314.45,507.9" fill="none" id="FORUM_TAG/Id-FORUM_TAG" style="stroke:#181818;stroke-width:1;"/></g><!--link FORUM_TAG/Slug to FORUM_TAG--><g class="link" data-entity-1="ent0041" data-entity-2="ent0038" data-link-type="association" data-source-line="342" id="lnk42"><path d="M1268.58,445.02 C1276.98,461.64 1291,489.38 1300.25,507.69" fill="none" id="FORUM_TAG/Slug-FORUM_TAG" style="stroke:#181818;stroke-width:1;"/></g><!--link FORUM_POST_TAG/Id to FORUM_POST_TAG--><g class="link" data-entity-1="ent0044" data-entity-2="ent0043" data-link-type="association" data-source-line="345" id="lnk45"><path d="M1146.5,859.72 C1146.5,875.76 1146.5,904.05 1146.5,922.66" fill="none" id="FORUM_POST_TAG/Id-FORUM_POST_TAG" style="stroke:#181818;stroke-width:1;"/></g><!--link CONVERSATION/Id to CONVERSATION--><g class="link" data-entity-1="ent0047" data-entity-2="ent0046" data-link-type="association" data-source-line="348" id="lnk48"><path d="M1482.23,443.03 C1480.51,459.41 1477.41,488.85 1475.41,507.9" fill="none" id="CONVERSATION/Id-CONVERSATION" style="stroke:#181818;stroke-width:1;"/></g><!--link MESSAGE/Id to MESSAGE--><g class="link" data-entity-1="ent0050" data-entity-2="ent0049" data-link-type="association" data-source-line="351" id="lnk51"><path d="M1533.5,859.72 C1533.5,875.76 1533.5,904.05 1533.5,922.66" fill="none" id="MESSAGE/Id-MESSAGE" style="stroke:#181818;stroke-width:1;"/></g><!--link MESSAGE/Body to MESSAGE--><g class="link" data-entity-1="ent0052" data-entity-2="ent0049" data-link-type="association" data-source-line="352" id="lnk53"><path d="M1598.61,860.9 C1585.39,877.16 1563.05,904.65 1548.28,922.81" fill="none" id="MESSAGE/Body-MESSAGE" style="stroke:#181818;stroke-width:1;"/></g><!--link USER_BLOCK/Id to USER_BLOCK--><g class="link" data-entity-1="ent0055" data-entity-2="ent0054" data-link-type="association" data-source-line="355" id="lnk56"><path d="M1731.62,441.9 C1721.46,457.98 1702.33,488.27 1690.01,507.77" fill="none" id="USER_BLOCK/Id-USER_BLOCK" style="stroke:#181818;stroke-width:1;"/></g><!--link USER_BLOCK/Reason to USER_BLOCK--><g class="link" data-entity-1="ent0057" data-entity-2="ent0054" data-link-type="association" data-source-line="356" id="lnk58"><path d="M1586.38,444.21 C1604.98,460.73 1636.93,489.09 1657.89,507.7" fill="none" id="USER_BLOCK/Reason-USER_BLOCK" style="stroke:#181818;stroke-width:1;"/></g><!--link FORUM_CATEGORY to GROUPS--><g class="link" data-entity-1="ent0006" data-entity-2="ent0059" data-link-type="association" data-source-line="382" id="lnk71"><path d="M1090.5,136.2 C1090.5,169.98 1090.5,242.57 1090.5,282.94" fill="none" id="FORUM_CATEGORY-GROUPS" style="stroke:#181818;stroke-width:1;"/><text fill="#000000" font-family="sans-serif" font-size="11" lengthAdjust="spacing" textLength="6.1177" x="1091.5" y="209.4189">1</text></g><!--link GROUPS to FORUM_POST--><g class="link" data-entity-1="ent0059" data-entity-2="ent0011" data-link-type="association" data-source-line="383" id="lnk72"><path d="M1089.28,341.43 C1086.55,371.06 1078,417.58 1051.5,447 C1016.73,485.6 960.3,505.75 917.41,516" fill="none" id="GROUPS-FORUM_POST" style="stroke:#181818;stroke-width:1;"/><text fill="#000000" font-family="sans-serif" font-size="11" lengthAdjust="spacing" textLength="7.9438" x="1073.5" y="434.9189">N</text></g><!--link USER to AUTHORS--><g class="link" data-entity-1="ent0001" data-entity-2="ent0060" data-link-type="association" data-source-line="384" id="lnk73"><path d="M1408.75,136.2 C1375.61,172.24 1301.82,252.45 1266.74,290.59" fill="none" id="USER-AUTHORS" style="stroke:#181818;stroke-width:1;"/><text fill="#000000" font-family="sans-serif" font-size="11" lengthAdjust="spacing" textLength="6.1177" x="1354.5" y="209.4189">1</text></g><!--link AUTHORS to FORUM_POST--><g class="link" data-entity-1="ent0060" data-entity-2="ent0011" data-link-type="association" data-source-line="385" id="lnk74"><path d="M1228.46,334.57 C1194.56,370.58 1119.82,443.43 1040.5,478 C1000.96,495.23 953.8,507.46 917.4,515.25" fill="none" style="stroke:#181818;stroke-width:3.6;"/><path d="M1228.46,334.57 C1194.56,370.58 1119.82,443.43 1040.5,478 C1000.96,495.23 953.8,507.46 917.4,515.25" fill="none" style="stroke:#FFFFFF;stroke-width:1.8;"/><text fill="#000000" font-family="sans-serif" font-size="11" lengthAdjust="spacing" textLength="7.9438" x="1143.5" y="434.9189">N</text></g><!--link FORUM_POST to REPLIES--><g class="link" data-entity-1="ent0011" data-entity-2="ent0061" data-link-type="association" data-source-line="386" id="lnk75"><path d="M917.26,534.61 C975.94,542.2 1061.09,556.21 1087.5,576 C1129.2,607.24 1151.48,666.75 1161.26,700.5" fill="none" id="FORUM_POST-REPLIES" style="stroke:#181818;stroke-width:1;"/><text fill="#000000" font-family="sans-serif" font-size="11" lengthAdjust="spacing" textLength="6.1177" x="1128.5" y="619.4189">1</text></g><!--link REPLIES to FORUM_POST--><g class="link" data-entity-1="ent0061" data-entity-2="ent0011" data-link-type="association" data-source-line="387" id="lnk76"><path d="M1142.48,709.51 C1085.56,673.12 946.63,584.33 886.74,546.05" fill="none" id="REPLIES-FORUM_POST" style="stroke:#181818;stroke-width:1;"/><text fill="#000000" font-family="sans-serif" font-size="11" lengthAdjust="spacing" textLength="7.9438" x="1004.5" y="619.4189">N</text></g><!--link FORUM_POST to ATTACHES--><g class="link" data-entity-1="ent0011" data-entity-2="ent0062" data-link-type="association" data-source-line="388" id="lnk77"><path d="M799.95,544.4 C706.17,571.06 516.82,626.54 359.5,683 C336,691.43 310,702.06 289.88,710.57" fill="none" id="FORUM_POST-ATTACHES" style="stroke:#181818;stroke-width:1;"/><text fill="#000000" font-family="sans-serif" font-size="11" lengthAdjust="spacing" textLength="6.1177" x="589.5" y="619.4189">1</text></g><!--link ATTACHES to FORUM_POST_ATTACHMENT--><g class="link" data-entity-1="ent0062" data-entity-2="ent0020" data-link-type="association" data-source-line="389" id="lnk78"><path d="M240.57,752.41 C214.52,795.86 161.37,884.51 138.43,922.76" fill="none" style="stroke:#181818;stroke-width:3.6;"/><path d="M240.57,752.41 C214.52,795.86 161.37,884.51 138.43,922.76" fill="none" style="stroke:#FFFFFF;stroke-width:1.8;"/><text fill="#000000" font-family="sans-serif" font-size="11" lengthAdjust="spacing" textLength="7.9438" x="194.5" y="851.4189">N</text></g><!--link FORUM_POST to RECEIVES_VOTE--><g class="link" data-entity-1="ent0011" data-entity-2="ent0063" data-link-type="association" data-source-line="390" id="lnk79"><path d="M822.49,546.05 C749.64,582.57 585.08,665.06 507.06,704.16" fill="none" id="FORUM_POST-RECEIVES_VOTE" style="stroke:#181818;stroke-width:1;"/><text fill="#000000" font-family="sans-serif" font-size="11" lengthAdjust="spacing" textLength="6.1177" x="702.5" y="619.4189">1</text></g><!--link RECEIVES_VOTE to FORUM_VOTE--><g class="link" data-entity-1="ent0063" data-entity-2="ent0025" data-link-type="association" data-source-line="391" id="lnk80"><path d="M458.21,767.16 C452.08,801.25 441.37,851.34 425.5,893 C421.59,903.27 415.88,914.09 410.81,922.85" fill="none" style="stroke:#181818;stroke-width:3.6;"/><path d="M458.21,767.16 C452.08,801.25 441.37,851.34 425.5,893 C421.59,903.27 415.88,914.09 410.81,922.85" fill="none" style="stroke:#FFFFFF;stroke-width:1.8;"/><text fill="#000000" font-family="sans-serif" font-size="11" lengthAdjust="spacing" textLength="7.9438" x="446.5" y="851.4189">N</text></g><!--link FORUM_POST to RECEIVES_FLAG--><g class="link" data-entity-1="ent0011" data-entity-2="ent0064" data-link-type="association" data-source-line="392" id="lnk81"><path d="M841.43,546.23 C809.23,580.6 739.29,655.27 700.6,696.57" fill="none" id="FORUM_POST-RECEIVES_FLAG" style="stroke:#181818;stroke-width:1;"/><text fill="#000000" font-family="sans-serif" font-size="11" lengthAdjust="spacing" textLength="6.1177" x="785.5" y="619.4189">1</text></g><!--link RECEIVES_FLAG to FORUM_FLAG--><g class="link" data-entity-1="ent0064" data-entity-2="ent0030" data-link-type="association" data-source-line="393" id="lnk82"><path d="M659.94,762.98 C651.43,790.66 644.05,829.69 655.5,862 C664.05,886.13 683.44,908.27 698.66,922.93" fill="none" style="stroke:#181818;stroke-width:3.6;"/><path d="M659.94,762.98 C651.43,790.66 644.05,829.69 655.5,862 C664.05,886.13 683.44,908.27 698.66,922.93" fill="none" style="stroke:#FFFFFF;stroke-width:1.8;"/><text fill="#000000" font-family="sans-serif" font-size="11" lengthAdjust="spacing" textLength="7.9438" x="656.5" y="851.4189">N</text></g><!--link FORUM_POST to SAVED_IN--><g class="link" data-entity-1="ent0011" data-entity-2="ent0065" data-link-type="association" data-source-line="394" id="lnk83"><path d="M858.5,546.23 C858.5,580.13 858.5,653.2 858.5,694.83" fill="none" id="FORUM_POST-SAVED_IN" style="stroke:#181818;stroke-width:1;"/><text fill="#000000" font-family="sans-serif" font-size="11" lengthAdjust="spacing" textLength="6.1177" x="859.5" y="619.4189">1</text></g><!--link SAVED_IN to FORUM_BOOKMARK--><g class="link" data-entity-1="ent0065" data-entity-2="ent0035" data-link-type="association" data-source-line="395" id="lnk84"><path d="M866.6,754.11 C880.01,798.15 906.48,885.08 917.96,922.81" fill="none" style="stroke:#181818;stroke-width:3.6;"/><path d="M866.6,754.11 C880.01,798.15 906.48,885.08 917.96,922.81" fill="none" style="stroke:#FFFFFF;stroke-width:1.8;"/><text fill="#000000" font-family="sans-serif" font-size="11" lengthAdjust="spacing" textLength="7.9438" x="900.5" y="851.4189">N</text></g><!--link FORUM_POST to TAGGED--><g class="link" data-entity-1="ent0011" data-entity-2="ent0066" data-link-type="association" data-source-line="396" id="lnk85"><path d="M872.99,546.23 C902.37,583.18 968.75,666.69 999.42,705.27" fill="none" id="FORUM_POST-TAGGED" style="stroke:#181818;stroke-width:1;"/><text fill="#000000" font-family="sans-serif" font-size="11" lengthAdjust="spacing" textLength="6.1177" x="933.5" y="619.4189">1</text></g><!--link TAGGED to FORUM_POST_TAG--><g class="link" data-entity-1="ent0066" data-entity-2="ent0043" data-link-type="association" data-source-line="397" id="lnk86"><path d="M1028.78,749.15 C1054.67,791.34 1111.44,883.87 1135.44,922.98" fill="none" style="stroke:#181818;stroke-width:3.6;"/><path d="M1028.78,749.15 C1054.67,791.34 1111.44,883.87 1135.44,922.98" fill="none" style="stroke:#FFFFFF;stroke-width:1.8;"/><text fill="#000000" font-family="sans-serif" font-size="11" lengthAdjust="spacing" textLength="7.9438" x="1099.5" y="851.4189">N</text></g><!--link FORUM_TAG to TAGS--><g class="link" data-entity-1="ent0038" data-entity-2="ent0067" data-link-type="association" data-source-line="398" id="lnk87"><path d="M1309.5,546.23 C1309.5,582.23 1309.5,662.41 1309.5,702.19" fill="none" id="FORUM_TAG-TAGS" style="stroke:#181818;stroke-width:1;"/><text fill="#000000" font-family="sans-serif" font-size="11" lengthAdjust="spacing" textLength="6.1177" x="1310.5" y="619.4189">1</text></g><!--link TAGS to FORUM_POST_TAG--><g class="link" data-entity-1="ent0067" data-entity-2="ent0043" data-link-type="association" data-source-line="399" id="lnk88"><path d="M1296.71,744.25 C1266.61,783.67 1191.52,882.03 1160.38,922.83" fill="none" style="stroke:#181818;stroke-width:3.6;"/><path d="M1296.71,744.25 C1266.61,783.67 1191.52,882.03 1160.38,922.83" fill="none" style="stroke:#FFFFFF;stroke-width:1.8;"/><text fill="#000000" font-family="sans-serif" font-size="11" lengthAdjust="spacing" textLength="7.9438" x="1231.5" y="851.4189">N</text></g><!--link USER to PARTICIPATES--><g class="link" data-entity-1="ent0001" data-entity-2="ent0068" data-link-type="association" data-source-line="400" id="lnk89"><path d="M1425.5,136.2 C1425.5,167.34 1425.5,231.48 1425.5,272.94" fill="none" id="USER-PARTICIPATES" style="stroke:#181818;stroke-width:1;"/><text fill="#000000" font-family="sans-serif" font-size="11" lengthAdjust="spacing" textLength="7.9438" x="1426.5" y="209.4189">N</text></g><!--link PARTICIPATES to CONVERSATION--><g class="link" data-entity-1="ent0068" data-entity-2="ent0046" data-link-type="association" data-source-line="401" id="lnk90"><path d="M1427.34,351.11 C1429.3,378.13 1433.32,415.24 1441.5,447 C1447.07,468.64 1457.2,492.24 1464.58,507.95" fill="none" id="PARTICIPATES-CONVERSATION" style="stroke:#181818;stroke-width:1;"/><text fill="#000000" font-family="sans-serif" font-size="11" lengthAdjust="spacing" textLength="7.9438" x="1442.5" y="434.9189">N</text></g><!--link CONVERSATION to CONTAINS--><g class="link" data-entity-1="ent0046" data-entity-2="ent0069" data-link-type="association" data-source-line="402" id="lnk91"><path d="M1473.5,546.23 C1473.5,579.84 1473.5,651.97 1473.5,693.77" fill="none" id="CONVERSATION-CONTAINS" style="stroke:#181818;stroke-width:1;"/><text fill="#000000" font-family="sans-serif" font-size="11" lengthAdjust="spacing" textLength="6.1177" x="1474.5" y="619.4189">1</text></g><!--link CONTAINS to MESSAGE--><g class="link" data-entity-1="ent0069" data-entity-2="ent0049" data-link-type="association" data-source-line="403" id="lnk92"><path d="M1474.54,758.63 C1476.2,786.34 1480.48,827.68 1491.5,862 C1498.63,884.18 1511.82,907.49 1521.53,922.99" fill="none" style="stroke:#181818;stroke-width:3.6;"/><path d="M1474.54,758.63 C1476.2,786.34 1480.48,827.68 1491.5,862 C1498.63,884.18 1511.82,907.49 1521.53,922.99" fill="none" style="stroke:#FFFFFF;stroke-width:1.8;"/><text fill="#000000" font-family="sans-serif" font-size="11" lengthAdjust="spacing" textLength="7.9438" x="1492.5" y="851.4189">N</text></g><!--link USER to BLOCKS--><g class="link" data-entity-1="ent0001" data-entity-2="ent0070" data-link-type="association" data-source-line="404" id="lnk93"><path d="M1445.54,136.2 C1486.24,173.18 1578.15,256.67 1618.67,293.49" fill="none" id="USER-BLOCKS" style="stroke:#181818;stroke-width:1;"/><text fill="#000000" font-family="sans-serif" font-size="11" lengthAdjust="spacing" textLength="7.9438" x="1528.5" y="209.4189">N</text></g><!--link BLOCKS to USER_BLOCK--><g class="link" data-entity-1="ent0070" data-entity-2="ent0054" data-link-type="association" data-source-line="405" id="lnk94"><path d="M1643.25,338.71 C1651.42,382.14 1667.96,470.03 1675.1,507.93" fill="none" id="BLOCKS-USER_BLOCK" style="stroke:#181818;stroke-width:1;"/><text fill="#000000" font-family="sans-serif" font-size="11" lengthAdjust="spacing" textLength="7.9438" x="1664.5" y="434.9189">N</text></g><?plantuml-src VPJTRgCm48NlvobuWKJRQhLNRLM7E1GbO6GRf5uXTh4Qj0IYnAaKhVhkjGc_njaxcFd6W-VCuVKiivFyinULWp5TfsvzE5ogGbvJTvz949LKpqxCC7N-WUFukVFqz5TSNrxK2pvaHGbV7RGXD0vI5t7i4Ve-nrbv-J3fY30-9uCw5wTC5dN5P2OlPnMAZv-r56vzgQG2LRhu57a3RyhiOnwtz4aHvyXz2t1eQRagwz_nQNQRX70yXnFrAVnw52QzsI5lJbEHdUlAP5U4R0D4joPlODnsuhr9skWUSqcOOCeGzqbu5memOyYpN7bLvzS1q_kGhdR4tVxdkYTHDXgUzyNHyIY98wPe8uvY_aQe9K5njFEnhQ9H4LjBNEmdc7MgtKktCXbfXXAyJlrmdb5JzV3Q6hTyHOGezrq_KZwmP9KA7FcX9TECynOtdBHuMBJpWtQCYt0naXqQUsggdIPqKtqEdyVSo7EQRaSCtQYDKmswcplq0anF7zbhtcWa34nb6WvfalSgjMOmLN2eR996PISdzBeEVESzi-OcDBHw6zVZVG_jiXPdq2o11RrfeYOwtWUOB8VEZbq94ulg3jssGByskbDhqg75RNMWtI0T6GmAhwBAzVyTu67v-EFnr_BdDm00?></g></svg>