<svg xmlns="http://www.w3.org/2000/svg" xmlns:xlink="http://www.w3.org/1999/xlink" contentStyleType="text/css" data-diagram-type="CHEN_EER" height="1374px" preserveAspectRatio="none" style="width:1091px;height:1374px;background:#FFFFFF;" version="1.1" viewBox="0 0 1091 1374" width="1091px" zoomAndPan="magnify"><?plantuml 1.2026.4?><defs/><g><g><rect fill="#F1F1F1" height="37.6094" style="stroke:#181818;stroke-width:0.5;" width="58.8965" x="658.5" y="98"/><text fill="#000000" font-family="sans-serif" font-size="14" lengthAdjust="spacing" textLength="38.8965" x="668.5" y="122.5332">USER</text></g><g><ellipse cx="648.9583" cy="21.4667" fill="#F1F1F1" rx="15.4583" ry="12.9667" style="stroke:#181818;stroke-width:0.5;"/><text fill="#000000" font-family="sans-serif" font-size="14" lengthAdjust="spacing" text-decoration="underline" textLength="11.6758" x="643.1204" y="29.0332">Id</text></g><g><ellipse cx="727.7536" cy="21.4517" fill="#F1F1F1" rx="27.7536" ry="15.4517" style="stroke:#181818;stroke-width:0.5;"/><text fill="#000000" font-family="sans-serif" font-size="14" lengthAdjust="spacing" textLength="35.0068" x="710.2502" y="26.5332">Email</text></g><g><rect fill="#F1F1F1" height="37.6094" style="stroke:#181818;stroke-width:0.5;" width="99.3447" x="282.5" y="501"/><text fill="#000000" font-family="sans-serif" font-size="14" lengthAdjust="spacing" textLength="79.3447" x="292.5" y="525.5332">RESOURCE</text></g><g><ellipse cx="450.9583" cy="424.4667" fill="#F1F1F1" rx="15.4583" ry="12.9667" style="stroke:#181818;stroke-width:0.5;"/><text fill="#000000" font-family="sans-serif" font-size="14" lengthAdjust="spacing" text-decoration="underline" textLength="11.6758" x="445.1204" y="432.0332">Id</text></g><g><ellipse cx="200.8135" cy="424.4517" fill="#F1F1F1" rx="22.8135" ry="15.4517" style="stroke:#181818;stroke-width:0.5;"/><text fill="#000000" font-family="sans-serif" font-size="14" lengthAdjust="spacing" textLength="28.0205" x="186.8032" y="429.5332">Slug</text></g><g><ellipse cx="369.0647" cy="424.4517" fill="#F1F1F1" rx="31.0647" ry="15.4517" style="stroke:#181818;stroke-width:0.5;"/><text fill="#000000" font-family="sans-serif" font-size="14" lengthAdjust="spacing" textLength="39.6895" x="349.22" y="429.5332">Status</text></g><g><rect fill="#F1F1F1" height="37.6094" style="stroke:#181818;stroke-width:0.5;" width="174.0273" x="10" y="914"/><text fill="#000000" font-family="sans-serif" font-size="14" lengthAdjust="spacing" textLength="154.0273" x="20" y="938.5332">RESOURCE_CHAPTER</text></g><g><ellipse cx="193.9583" cy="831.4667" fill="#F1F1F1" rx="15.4583" ry="12.9667" style="stroke:#181818;stroke-width:0.5;"/><text fill="#000000" font-family="sans-serif" font-size="14" lengthAdjust="spacing" text-decoration="underline" textLength="11.6758" x="188.1204" y="839.0332">Id</text></g><g><ellipse cx="96.9601" cy="831.4517" fill="#F1F1F1" rx="46.4601" ry="15.4517" style="stroke:#181818;stroke-width:0.5;"/><text fill="#000000" font-family="sans-serif" font-size="14" lengthAdjust="spacing" textLength="61.4619" x="66.2292" y="836.5332">SortOrder</text></g><g><rect fill="#F1F1F1" height="37.6094" style="stroke:#181818;stroke-width:0.5;" width="188.0342" x="235" y="914"/><text fill="#000000" font-family="sans-serif" font-size="14" lengthAdjust="spacing" textLength="168.0342" x="245" y="938.5332">RESOURCE_BOOKMARK</text></g><g><ellipse cx="259.9583" cy="831.4667" fill="#F1F1F1" rx="15.4583" ry="12.9667" style="stroke:#181818;stroke-width:0.5;"/><text fill="#000000" font-family="sans-serif" font-size="14" lengthAdjust="spacing" text-decoration="underline" textLength="11.6758" x="254.1204" y="839.0332">Id</text></g><g><rect fill="#F1F1F1" height="37.6094" style="stroke:#181818;stroke-width:0.5;" width="186.4824" x="471" y="914"/><text fill="#000000" font-family="sans-serif" font-size="14" lengthAdjust="spacing" textLength="166.4824" x="481" y="938.5332">RESOURCE_PROGRESS</text></g><g><ellipse cx="563.9583" cy="831.4667" fill="#F1F1F1" rx="15.4583" ry="12.9667" style="stroke:#181818;stroke-width:0.5;"/><text fill="#000000" font-family="sans-serif" font-size="14" lengthAdjust="spacing" text-decoration="underline" textLength="11.6758" x="558.1204" y="839.0332">Id</text></g><g><ellipse cx="710.1325" cy="831.4265" fill="#F1F1F1" rx="95.1325" ry="21.4265" style="stroke:#181818;stroke-width:0.5;stroke-dasharray:10,10;"/><text fill="#000000" font-family="sans-serif" font-size="14" lengthAdjust="spacing" textLength="161.8682" x="629.1984" y="830.5332">ChaptersCompletedCount</text></g><g><rect fill="#F1F1F1" height="37.6094" style="stroke:#181818;stroke-width:0.5;" width="236.2754" x="317" y="1323"/><text fill="#000000" font-family="sans-serif" font-size="14" lengthAdjust="spacing" textLength="216.2754" x="327" y="1347.5332">RESOURCE_PROGRESS_CHILD</text></g><g><ellipse cx="325.9583" cy="1246.4667" fill="#F1F1F1" rx="15.4583" ry="12.9667" style="stroke:#181818;stroke-width:0.5;"/><text fill="#000000" font-family="sans-serif" font-size="14" lengthAdjust="spacing" text-decoration="underline" textLength="11.6758" x="320.1204" y="1254.0332">Id</text></g><g><ellipse cx="435.0735" cy="1246.4517" fill="#F1F1F1" rx="58.5735" ry="15.4517" style="stroke:#181818;stroke-width:0.5;"/><text fill="#000000" font-family="sans-serif" font-size="14" lengthAdjust="spacing" textLength="78.5928" x="395.7771" y="1251.5332">IsCompleted</text></g><g><rect fill="#F1F1F1" height="37.6094" style="stroke:#181818;stroke-width:0.5;" width="118.7725" x="580.5" y="501"/><text fill="#000000" font-family="sans-serif" font-size="14" lengthAdjust="spacing" textLength="98.7725" x="590.5" y="525.5332">NOTIFICATION</text></g><g><ellipse cx="516.9583" cy="424.4667" fill="#F1F1F1" rx="15.4583" ry="12.9667" style="stroke:#181818;stroke-width:0.5;"/><text fill="#000000" font-family="sans-serif" font-size="14" lengthAdjust="spacing" text-decoration="underline" textLength="11.6758" x="511.1204" y="432.0332">Id</text></g><g><ellipse cx="593.008" cy="424.4517" fill="#F1F1F1" rx="25.008" ry="15.4517" style="stroke:#181818;stroke-width:0.5;"/><text fill="#000000" font-family="sans-serif" font-size="14" lengthAdjust="spacing" textLength="31.124" x="577.446" y="429.5332">Type</text></g><g><ellipse cx="766.8661" cy="424.4517" fill="#F1F1F1" rx="34.3661" ry="15.4517" style="stroke:#181818;stroke-width:0.5;"/><text fill="#000000" font-family="sans-serif" font-size="14" lengthAdjust="spacing" textLength="44.3584" x="744.6869" y="429.5332">IsRead</text></g><g><rect fill="#F1F1F1" height="37.6094" style="stroke:#181818;stroke-width:0.5;" width="222.2412" x="821" y="501"/><text fill="#000000" font-family="sans-serif" font-size="14" lengthAdjust="spacing" textLength="202.2412" x="831" y="525.5332">NOTIFICATION_PREFERENCE</text></g><g><ellipse cx="931.9583" cy="424.4667" fill="#F1F1F1" rx="15.4583" ry="12.9667" style="stroke:#181818;stroke-width:0.5;"/><text fill="#000000" font-family="sans-serif" font-size="14" lengthAdjust="spacing" text-decoration="underline" textLength="11.6758" x="926.1204" y="432.0332">Id</text></g><g><ellipse cx="1030.0305" cy="424.4517" fill="#F1F1F1" rx="47.0305" ry="15.4517" style="stroke:#181818;stroke-width:0.5;"/><text fill="#000000" font-family="sans-serif" font-size="14" lengthAdjust="spacing" textLength="62.2686" x="998.8962" y="429.5332">IsEnabled</text></g><g><polygon fill="#F1F1F1" points="347,310.5069,410.0138,279,473.0277,310.5069,410.0138,342.0138" style="stroke:#181818;stroke-width:0.5;stroke-linejoin:miter;stroke-miterlimit:10;"/><text fill="#000000" font-family="sans-serif" font-size="14" lengthAdjust="spacing" textLength="68.4482" x="375.7897" y="316.2354">AUTHORS</text></g><g><polygon fill="#F1F1F1" points="16,712.4276,84.8551,678,153.7103,712.4276,84.8551,746.8551" style="stroke:#181818;stroke-width:0.5;stroke-linejoin:miter;stroke-miterlimit:10;"/><text fill="#000000" font-family="sans-serif" font-size="14" lengthAdjust="spacing" textLength="80.1309" x="44.7897" y="718.1561">SPLIT_INTO</text></g><g><polygon fill="#F1F1F1" points="268.5,712.7069,331.9137,681,395.3275,712.7069,331.9137,744.4137" style="stroke:#181818;stroke-width:0.5;stroke-linejoin:miter;stroke-miterlimit:10;"/><text fill="#000000" font-family="sans-serif" font-size="14" lengthAdjust="spacing" textLength="69.248" x="297.2897" y="718.4354">SAVED_IN</text></g><g><polygon fill="#F1F1F1" points="431,712.5655,504.131,676,577.262,712.5655,504.131,749.131" style="stroke:#181818;stroke-width:0.5;stroke-linejoin:miter;stroke-miterlimit:10;"/><text fill="#000000" font-family="sans-serif" font-size="14" lengthAdjust="spacing" textLength="88.6826" x="459.7897" y="718.294">TRACKED_IN</text></g><g><polygon fill="#F1F1F1" points="483.5,1129.262,564.0241,1089,644.5482,1129.262,564.0241,1169.5241" style="stroke:#181818;stroke-width:0.5;stroke-linejoin:miter;stroke-miterlimit:10;"/><text fill="#000000" font-family="sans-serif" font-size="14" lengthAdjust="spacing" textLength="103.4688" x="512.2897" y="1134.9906">PER_CHAPTER</text></g><g><polygon fill="#F1F1F1" points="624,310.5948,688.1896,278.5,752.3792,310.5948,688.1896,342.6896" style="stroke:#181818;stroke-width:0.5;stroke-linejoin:miter;stroke-miterlimit:10;"/><text fill="#000000" font-family="sans-serif" font-size="14" lengthAdjust="spacing" textLength="70.7998" x="652.7897" y="316.3233">RECEIVES</text></g><g><polygon fill="#F1F1F1" points="792.5,310.7293,867.9587,273,943.4173,310.7293,867.9587,348.4587" style="stroke:#181818;stroke-width:0.5;stroke-linejoin:miter;stroke-miterlimit:10;"/><text fill="#000000" font-family="sans-serif" font-size="14" lengthAdjust="spacing" textLength="93.3379" x="821.2897" y="316.4578">CONFIGURES</text></g><!--link USER/Id to USER--><g class="link" data-entity-1="ent0002" data-entity-2="ent0001" data-link-type="association" data-source-line="411" id="lnk3"><path d="M653.78,33.96 C660.41,49.86 672.47,78.77 680.36,97.68" fill="none" id="USER/Id-USER" style="stroke:#181818;stroke-width:1;"/></g><!--link USER/Email to USER--><g class="link" data-entity-1="ent0004" data-entity-2="ent0001" data-link-type="association" data-source-line="412" id="lnk5"><path d="M721.92,36.7 C714.93,53.05 703.43,79.94 695.78,97.81" fill="none" id="USER/Email-USER" style="stroke:#181818;stroke-width:1;"/></g><!--link RESOURCE/Id to RESOURCE--><g class="link" data-entity-1="ent0007" data-entity-2="ent0006" data-link-type="association" data-source-line="415" id="lnk8"><path d="M440.02,434.13 C420.8,449.23 380.69,480.74 355.12,500.83" fill="none" id="RESOURCE/Id-RESOURCE" style="stroke:#181818;stroke-width:1;"/></g><!--link RESOURCE/Slug to RESOURCE--><g class="link" data-entity-1="ent0009" data-entity-2="ent0006" data-link-type="association" data-source-line="416" id="lnk10"><path d="M216.28,436.41 C238.42,452.21 279.69,481.66 306.48,500.79" fill="none" id="RESOURCE/Slug-RESOURCE" style="stroke:#181818;stroke-width:1;"/></g><!--link RESOURCE/Status to RESOURCE--><g class="link" data-entity-1="ent0011" data-entity-2="ent0006" data-link-type="association" data-source-line="417" id="lnk12"><path d="M363.22,440.11 C356.71,456.54 346.15,483.25 339.13,500.97" fill="none" id="RESOURCE/Status-RESOURCE" style="stroke:#181818;stroke-width:1;"/></g><!--link RESOURCE_CHAPTER/Id to RESOURCE_CHAPTER--><g class="link" data-entity-1="ent0014" data-entity-2="ent0013" data-link-type="association" data-source-line="420" id="lnk15"><path d="M184.7,842.04 C168.58,858.58 135.19,892.82 114.58,913.96" fill="none" id="RESOURCE_CHAPTER/Id-RESOURCE_CHAPTER" style="stroke:#181818;stroke-width:1;"/></g><!--link RESOURCE_CHAPTER/SortOrder to RESOURCE_CHAPTER--><g class="link" data-entity-1="ent0016" data-entity-2="ent0013" data-link-type="association" data-source-line="421" id="lnk17"><path d="M97,847.18 C97,864.91 97,894.74 97,913.88" fill="none" id="RESOURCE_CHAPTER/SortOrder-RESOURCE_CHAPTER" style="stroke:#181818;stroke-width:1;"/></g><!--link RESOURCE_BOOKMARK/Id to RESOURCE_BOOKMARK--><g class="link" data-entity-1="ent0019" data-entity-2="ent0018" data-link-type="association" data-source-line="424" id="lnk20"><path d="M267.38,843.15 C279.07,859.99 301.95,892.99 316.3,913.69" fill="none" id="RESOURCE_BOOKMARK/Id-RESOURCE_BOOKMARK" style="stroke:#181818;stroke-width:1;"/></g><!--link RESOURCE_PROGRESS/Id to RESOURCE_PROGRESS--><g class="link" data-entity-1="ent0022" data-entity-2="ent0021" data-link-type="association" data-source-line="427" id="lnk23"><path d="M564,844.7 C564,862.03 564,893.9 564,913.97" fill="none" id="RESOURCE_PROGRESS/Id-RESOURCE_PROGRESS" style="stroke:#181818;stroke-width:1;"/></g><!--link RESOURCE_PROGRESS/ChaptersCompletedCount to RESOURCE_PROGRESS--><g class="link" data-entity-1="ent0024" data-entity-2="ent0021" data-link-type="association" data-source-line="428" id="lnk25"><path d="M681.16,852.16 C654.89,870.05 616.42,896.27 590.82,913.72" fill="none" id="RESOURCE_PROGRESS/ChaptersCompletedCount-RESOURCE_PROGRESS" style="stroke:#181818;stroke-width:1;"/></g><!--link RESOURCE_PROGRESS_CHILD/Id to RESOURCE_PROGRESS_CHILD--><g class="link" data-entity-1="ent0027" data-entity-2="ent0026" data-link-type="association" data-source-line="431" id="lnk28"><path d="M336.45,1256.47 C354.25,1271.73 390.76,1303.05 414,1322.99" fill="none" id="RESOURCE_PROGRESS_CHILD/Id-RESOURCE_PROGRESS_CHILD" style="stroke:#181818;stroke-width:1;"/></g><!--link RESOURCE_PROGRESS_CHILD/IsCompleted to RESOURCE_PROGRESS_CHILD--><g class="link" data-entity-1="ent0029" data-entity-2="ent0026" data-link-type="association" data-source-line="432" id="lnk30"><path d="M435,1262.11 C435,1278.54 435,1305.25 435,1322.97" fill="none" id="RESOURCE_PROGRESS_CHILD/IsCompleted-RESOURCE_PROGRESS_CHILD" style="stroke:#181818;stroke-width:1;"/></g><!--link NOTIFICATION/Id to NOTIFICATION--><g class="link" data-entity-1="ent0032" data-entity-2="ent0031" data-link-type="association" data-source-line="435" id="lnk33"><path d="M527.92,433.8 C547.55,448.73 589.27,480.43 615.9,500.68" fill="none" id="NOTIFICATION/Id-NOTIFICATION" style="stroke:#181818;stroke-width:1;"/></g><!--link NOTIFICATION/Type to NOTIFICATION--><g class="link" data-entity-1="ent0034" data-entity-2="ent0031" data-link-type="association" data-source-line="436" id="lnk35"><path d="M600.14,439.7 C608.36,456.05 621.87,482.94 630.85,500.81" fill="none" id="NOTIFICATION/Type-NOTIFICATION" style="stroke:#181818;stroke-width:1;"/></g><!--link NOTIFICATION/IsRead to NOTIFICATION--><g class="link" data-entity-1="ent0036" data-entity-2="ent0031" data-link-type="association" data-source-line="437" id="lnk37"><path d="M752.59,438.79 C742.17,448.17 727.59,460.83 714,471 C699.9,481.55 683.54,492.31 669.79,500.96" fill="none" id="NOTIFICATION/IsRead-NOTIFICATION" style="stroke:#181818;stroke-width:1;"/></g><!--link NOTIFICATION_PREFERENCE/Id to NOTIFICATION_PREFERENCE--><g class="link" data-entity-1="ent0039" data-entity-2="ent0038" data-link-type="association" data-source-line="440" id="lnk40"><path d="M932,437.72 C932,453.76 932,482.05 932,500.66" fill="none" id="NOTIFICATION_PREFERENCE/Id-NOTIFICATION_PREFERENCE" style="stroke:#181818;stroke-width:1;"/></g><!--link NOTIFICATION_PREFERENCE/IsEnabled to NOTIFICATION_PREFERENCE--><g class="link" data-entity-1="ent0041" data-entity-2="ent0038" data-link-type="association" data-source-line="441" id="lnk42"><path d="M1015.54,439.3 C998.4,455.65 969.77,482.96 950.89,500.98" fill="none" id="NOTIFICATION_PREFERENCE/IsEnabled-NOTIFICATION_PREFERENCE" style="stroke:#181818;stroke-width:1;"/></g><!--link USER to AUTHORS--><g class="link" data-entity-1="ent0001" data-entity-2="ent0043" data-link-type="association" data-source-line="457" id="lnk50"><path d="M661.85,136.02 C608.73,172.61 488.77,255.24 435.88,291.67" fill="none" id="USER-AUTHORS" style="stroke:#181818;stroke-width:1;"/><text fill="#000000" font-family="sans-serif" font-size="11" lengthAdjust="spacing" textLength="6.1177" x="574" y="209.4189">1</text></g><!--link AUTHORS to RESOURCE--><g class="link" data-entity-1="ent0043" data-entity-2="ent0006" data-link-type="association" data-source-line="458" id="lnk51"><path d="M383.14,328.62 C359.12,345.68 325.53,374.29 311,409 C298.16,439.67 311.84,478.44 322.35,500.81" fill="none" style="stroke:#181818;stroke-width:3.6;"/><path d="M383.14,328.62 C359.12,345.68 325.53,374.29 311,409 C298.16,439.67 311.84,478.44 322.35,500.81" fill="none" style="stroke:#FFFFFF;stroke-width:1.8;"/><text fill="#000000" font-family="sans-serif" font-size="11" lengthAdjust="spacing" textLength="7.9438" x="312" y="429.4189">N</text></g><!--link RESOURCE to SPLIT_INTO--><g class="link" data-entity-1="ent0006" data-entity-2="ent0044" data-link-type="association" data-source-line="459" id="lnk52"><path d="M308.32,539.27 C262.07,574.93 160.05,653.62 111.58,691" fill="none" id="RESOURCE-SPLIT_INTO" style="stroke:#181818;stroke-width:1;"/><text fill="#000000" font-family="sans-serif" font-size="11" lengthAdjust="spacing" textLength="6.1177" x="230" y="612.4189">1</text></g><!--link SPLIT_INTO to RESOURCE_CHAPTER--><g class="link" data-entity-1="ent0044" data-entity-2="ent0013" data-link-type="association" data-source-line="460" id="lnk53"><path d="M63.01,736.47 C39.52,763.93 7.72,811.4 24,853 C33.73,877.87 55.37,899.6 72.57,913.95" fill="none" style="stroke:#181818;stroke-width:3.6;"/><path d="M63.01,736.47 C39.52,763.93 7.72,811.4 24,853 C33.73,877.87 55.37,899.6 72.57,913.95" fill="none" style="stroke:#FFFFFF;stroke-width:1.8;"/><text fill="#000000" font-family="sans-serif" font-size="11" lengthAdjust="spacing" textLength="7.9438" x="25" y="836.4189">N</text></g><!--link RESOURCE to SAVED_IN--><g class="link" data-entity-1="ent0006" data-entity-2="ent0045" data-link-type="association" data-source-line="461" id="lnk54"><path d="M332,539.27 C332,571.95 332,640.77 332,680.82" fill="none" id="RESOURCE-SAVED_IN" style="stroke:#181818;stroke-width:1;"/><text fill="#000000" font-family="sans-serif" font-size="11" lengthAdjust="spacing" textLength="6.1177" x="333" y="612.4189">1</text></g><!--link SAVED_IN to RESOURCE_BOOKMARK--><g class="link" data-entity-1="ent0045" data-entity-2="ent0018" data-link-type="association" data-source-line="462" id="lnk55"><path d="M331.58,743.88 C330.95,790.08 329.76,876.58 329.25,913.99" fill="none" style="stroke:#181818;stroke-width:3.6;"/><path d="M331.58,743.88 C330.95,790.08 329.76,876.58 329.25,913.99" fill="none" style="stroke:#FFFFFF;stroke-width:1.8;"/><text fill="#000000" font-family="sans-serif" font-size="11" lengthAdjust="spacing" textLength="7.9438" x="332" y="836.4189">N</text></g><!--link RESOURCE to TRACKED_IN--><g class="link" data-entity-1="ent0006" data-entity-2="ent0046" data-link-type="association" data-source-line="463" id="lnk56"><path d="M348.49,539.27 C379.52,573.63 446.6,647.92 481.64,686.74" fill="none" id="RESOURCE-TRACKED_IN" style="stroke:#181818;stroke-width:1;"/><text fill="#000000" font-family="sans-serif" font-size="11" lengthAdjust="spacing" textLength="6.1177" x="418" y="612.4189">1</text></g><!--link TRACKED_IN to RESOURCE_PROGRESS--><g class="link" data-entity-1="ent0046" data-entity-2="ent0021" data-link-type="association" data-source-line="464" id="lnk57"><path d="M505.05,748.65 C506.73,777.32 511.03,818.57 522,853 C529.03,875.05 542.1,898.2 551.8,913.69" fill="none" style="stroke:#181818;stroke-width:3.6;"/><path d="M505.05,748.65 C506.73,777.32 511.03,818.57 522,853 C529.03,875.05 542.1,898.2 551.8,913.69" fill="none" style="stroke:#FFFFFF;stroke-width:1.8;"/><text fill="#000000" font-family="sans-serif" font-size="11" lengthAdjust="spacing" textLength="7.9438" x="523" y="836.4189">N</text></g><!--link RESOURCE_PROGRESS to PER_CHAPTER--><g class="link" data-entity-1="ent0021" data-entity-2="ent0047" data-link-type="association" data-source-line="465" id="lnk58"><path d="M564,952.3 C564,983.41 564,1047.29 564,1088.99" fill="none" id="RESOURCE_PROGRESS-PER_CHAPTER" style="stroke:#181818;stroke-width:1;"/><text fill="#000000" font-family="sans-serif" font-size="11" lengthAdjust="spacing" textLength="6.1177" x="565" y="1025.4189">1</text></g><!--link PER_CHAPTER to RESOURCE_PROGRESS_CHILD--><g class="link" data-entity-1="ent0047" data-entity-2="ent0026" data-link-type="association" data-source-line="466" id="lnk59"><path d="M554.05,1165.2 C545.22,1192.78 530.67,1231.63 511,1262 C495.9,1285.32 473.3,1307.74 456.67,1322.7" fill="none" style="stroke:#181818;stroke-width:3.6;"/><path d="M554.05,1165.2 C545.22,1192.78 530.67,1231.63 511,1262 C495.9,1285.32 473.3,1307.74 456.67,1322.7" fill="none" style="stroke:#FFFFFF;stroke-width:1.8;"/><text fill="#000000" font-family="sans-serif" font-size="11" lengthAdjust="spacing" textLength="7.9438" x="529" y="1251.4189">N</text></g><!--link USER to RECEIVES--><g class="link" data-entity-1="ent0001" data-entity-2="ent0048" data-link-type="association" data-source-line="467" id="lnk60"><path d="M688,136.02 C688,168.6 688,237.71 688,278.17" fill="none" id="USER-RECEIVES" style="stroke:#181818;stroke-width:1;"/><text fill="#000000" font-family="sans-serif" font-size="11" lengthAdjust="spacing" textLength="6.1177" x="689" y="209.4189">1</text></g><!--link RECEIVES to NOTIFICATION--><g class="link" data-entity-1="ent0048" data-entity-2="ent0031" data-link-type="association" data-source-line="468" id="lnk61"><path d="M681.53,339.48 C671.52,382.74 652.58,464.62 644.19,500.91" fill="none" style="stroke:#181818;stroke-width:3.6;"/><path d="M681.53,339.48 C671.52,382.74 652.58,464.62 644.19,500.91" fill="none" style="stroke:#FFFFFF;stroke-width:1.8;"/><text fill="#000000" font-family="sans-serif" font-size="11" lengthAdjust="spacing" textLength="7.9438" x="667" y="429.4189">N</text></g><!--link USER to CONFIGURES--><g class="link" data-entity-1="ent0001" data-entity-2="ent0049" data-link-type="association" data-source-line="469" id="lnk62"><path d="M704.93,136.02 C737.23,170.37 807.67,245.32 844.5,284.5" fill="none" id="USER-CONFIGURES" style="stroke:#181818;stroke-width:1;"/><text fill="#000000" font-family="sans-serif" font-size="11" lengthAdjust="spacing" textLength="6.1177" x="776" y="209.4189">1</text></g><!--link CONFIGURES to NOTIFICATION_PREFERENCE--><g class="link" data-entity-1="ent0049" data-entity-2="ent0038" data-link-type="association" data-source-line="470" id="lnk63"><path d="M870.96,346.6 C873.9,372.86 879.54,409.37 890,440 C897.53,462.05 910.66,485.38 920.23,500.92" fill="none" style="stroke:#181818;stroke-width:3.6;"/><path d="M870.96,346.6 C873.9,372.86 879.54,409.37 890,440 C897.53,462.05 910.66,485.38 920.23,500.92" fill="none" style="stroke:#FFFFFF;stroke-width:1.8;"/><text fill="#000000" font-family="sans-serif" font-size="11" lengthAdjust="spacing" textLength="7.9438" x="891" y="429.4189">N</text></g><?plantuml-src VLJTRe8m6Bt_de8Nq4opx4gDh5PjT9IKuYrXqaqo109bYLdsxWCLA1HtHPfpplTplXEMkVGpUJo9sC2OhJmcygJ8ZYBth4I67-7Hbs4Ivo1Y6SgBuJgO6JzW62GmPhClSLaioWS--s44lpM9OOUw366Tw4J5P_MHlYnoNU2XhMdpeGvEaacQ1I8R4BrIkdipsQwlqfasevlouUZrqSbFfSXob9pJI4WHeAI8PKaeMuRV8lYtN3assQ_qegGjrwejoicQ89CJQkaIVad5LSc4_q1KjiLhpB0rP339SUo_HzU6cOXknpk5gM6wV4jPjNaFSEmzuHwnE1t0p0DUbPYES6QYtGFCnamvP0za665om0E386gjoSPbT-oQjD5aL4yEzGPpQzwS09geLSns5L2sKldrN3tTVKrezkrewdnrHQq3e9ZH4TRv03s0LGN59r0z6wnnorZhIkqZD8PMCZKdBRTr5XIJ-tmbLx0KSL3z4m0cu-dJz6Ny_0S0?></g></svg>